{
    "bass": 36,
    "type": "minor",
    "backtrack": "/home/pi/raspiKeys/res/backtracks/processed_wav/latin/Play along drums Bossa nova 133 bpm  - - Bater\u00eda Para Tocar Bossa nova 133 bpm-EuFZ-3UjFOU [2021-01-17 164519].wav",
    "backtrackDuration": 7.218050003051758,
    "nbOfLoops": 4,
    "chord_notes": [
        {
            "type": "note_on",
            "note": 36,
            "velocity": 60,
            "time": 0
        },
        {
            "type": "note_off",
            "note": 36,
            "velocity": 83,
            "time": 900
        },
        {
            "type": "note_on",
            "note": 43,
            "velocity": 64,
            "time": 991
        },
        {
            "type": "note_off",
            "note": 43,
            "velocity": 39,
            "time": 1756
        },
        {
            "type": "note_on",
            "note": 36,
            "velocity": 42,
            "time": 1862
        },
        {
            "type": "note_off",
            "note": 36,
            "velocity": 28,
            "time": 2654
        },
        {
            "type": "note_on",
            "note": 43,
            "velocity": 60,
            "time": 2752
        },
        {
            "type": "note_off",
            "note": 43,
            "velocity": 47,
            "time": 3269
        },
        {
            "type": "note_on",
            "note": 41,
            "velocity": 49,
            "time": 3674
        },
        {
            "type": "note_off",
            "note": 41,
            "velocity": 62,
            "time": 3917
        },
        {
            "type": "note_on",
            "note": 41,
            "velocity": 49,
            "time": 4326
        },
        {
            "type": "note_off",
            "note": 41,
            "velocity": 71,
            "time": 4427
        },
        {
            "type": "note_on",
            "note": 48,
            "velocity": 36,
            "time": 4583
        },
        {
            "type": "note_off",
            "note": 48,
            "velocity": 81,
            "time": 5315
        },
        {
            "type": "note_on",
            "note": 41,
            "velocity": 41,
            "time": 5423
        },
        {
            "type": "note_off",
            "note": 41,
            "velocity": 48,
            "time": 6232
        },
        {
            "type": "note_on",
            "note": 48,
            "velocity": 44,
            "time": 6372
        },
        {
            "type": "note_off",
            "note": 48,
            "velocity": 73,
            "time": 7144
        },
        {
            "type": "note_on",
            "note": 38,
            "velocity": 48,
            "time": 7234
        },
        {
            "type": "note_off",
            "note": 38,
            "velocity": 75,
            "time": 8068
        },
        {
            "type": "note_on",
            "note": 44,
            "velocity": 50,
            "time": 8151
        },
        {
            "type": "note_off",
            "note": 44,
            "velocity": 21,
            "time": 9036
        },
        {
            "type": "note_on",
            "note": 43,
            "velocity": 49,
            "time": 9094
        },
        {
            "type": "note_off",
            "note": 43,
            "velocity": 59,
            "time": 9859
        },
        {
            "type": "note_on",
            "note": 37,
            "velocity": 53,
            "time": 9937
        },
        {
            "type": "note_off",
            "note": 37,
            "velocity": 72,
            "time": 10789
        },
        {
            "type": "note_on",
            "note": 36,
            "velocity": 51,
            "time": 10893
        },
        {
            "type": "note_off",
            "note": 36,
            "velocity": 54,
            "time": 11758
        },
        {
            "type": "note_on",
            "note": 43,
            "velocity": 54,
            "time": 11812
        },
        {
            "type": "note_off",
            "note": 43,
            "velocity": 58,
            "time": 12017
        },
        {
            "type": "note_on",
            "note": 48,
            "velocity": 46,
            "time": 12633
        },
        {
            "type": "note_off",
            "note": 48,
            "velocity": 60,
            "time": 13368
        },
        {
            "type": "note_on",
            "note": 43,
            "velocity": 64,
            "time": 13552
        },
        {
            "type": "note_on",
            "note": 38,
            "velocity": 47,
            "time": 14011
        },
        {
            "type": "note_off",
            "note": 43,
            "velocity": 52,
            "time": 14068
        },
        {
            "type": "note_off",
            "note": 38,
            "velocity": 79,
            "time": 14355
        },
        {
            "type": "note_on",
            "note": 39,
            "velocity": 52,
            "time": 14438
        },
        {
            "type": "note_off",
            "note": 39,
            "velocity": 60,
            "time": 15314
        },
        {
            "type": "note_on",
            "note": 46,
            "velocity": 47,
            "time": 15345
        },
        {
            "type": "note_off",
            "note": 46,
            "velocity": 66,
            "time": 16261
        },
        {
            "type": "note_on",
            "note": 44,
            "velocity": 65,
            "time": 16288
        },
        {
            "type": "note_off",
            "note": 44,
            "velocity": 43,
            "time": 17100
        },
        {
            "type": "note_on",
            "note": 39,
            "velocity": 32,
            "time": 17151
        },
        {
            "type": "note_off",
            "note": 39,
            "velocity": 58,
            "time": 17930
        },
        {
            "type": "note_on",
            "note": 37,
            "velocity": 49,
            "time": 18013
        },
        {
            "type": "note_off",
            "note": 37,
            "velocity": 77,
            "time": 18496
        },
        {
            "type": "note_on",
            "note": 37,
            "velocity": 52,
            "time": 18670
        },
        {
            "type": "note_off",
            "note": 37,
            "velocity": 59,
            "time": 18886
        },
        {
            "type": "note_on",
            "note": 44,
            "velocity": 55,
            "time": 18958
        },
        {
            "type": "note_off",
            "note": 44,
            "velocity": 79,
            "time": 19431
        },
        {
            "type": "note_on",
            "note": 44,
            "velocity": 28,
            "time": 19643
        },
        {
            "type": "note_off",
            "note": 44,
            "velocity": 84,
            "time": 19866
        },
        {
            "type": "note_on",
            "note": 49,
            "velocity": 56,
            "time": 19879
        },
        {
            "type": "note_off",
            "note": 49,
            "velocity": 54,
            "time": 20274
        },
        {
            "type": "note_on",
            "note": 49,
            "velocity": 58,
            "time": 20516
        },
        {
            "type": "note_off",
            "note": 49,
            "velocity": 60,
            "time": 20699
        },
        {
            "type": "note_on",
            "note": 44,
            "velocity": 40,
            "time": 20839
        },
        {
            "type": "note_off",
            "note": 44,
            "velocity": 69,
            "time": 21242
        },
        {
            "type": "note_on",
            "note": 37,
            "velocity": 50,
            "time": 21248
        },
        {
            "type": "note_off",
            "note": 37,
            "velocity": 91,
            "time": 21555
        },
        {
            "type": "note_on",
            "note": 38,
            "velocity": 59,
            "time": 21672
        },
        {
            "type": "note_off",
            "note": 38,
            "velocity": 66,
            "time": 22515
        },
        {
            "type": "note_on",
            "note": 44,
            "velocity": 60,
            "time": 22564
        },
        {
            "type": "note_off",
            "note": 44,
            "velocity": 74,
            "time": 23327
        },
        {
            "type": "note_on",
            "note": 43,
            "velocity": 39,
            "time": 23496
        },
        {
            "type": "note_off",
            "note": 43,
            "velocity": 68,
            "time": 24349
        },
        {
            "type": "note_on",
            "note": 38,
            "velocity": 50,
            "time": 24445
        },
        {
            "type": "note_off",
            "note": 38,
            "velocity": 78,
            "time": 25212
        },
        {
            "type": "note_on",
            "note": 36,
            "velocity": 59,
            "time": 25280
        },
        {
            "type": "note_off",
            "note": 36,
            "velocity": 72,
            "time": 26145
        },
        {
            "type": "note_on",
            "note": 43,
            "velocity": 57,
            "time": 26161
        },
        {
            "type": "note_off",
            "note": 43,
            "velocity": 79,
            "time": 26920
        },
        {
            "type": "note_on",
            "note": 43,
            "velocity": 49,
            "time": 27064
        },
        {
            "type": "note_off",
            "note": 43,
            "velocity": 44,
            "time": 27933
        },
        {
            "type": "note_on",
            "note": 38,
            "velocity": 54,
            "time": 27986
        },
        {
            "type": "note_off",
            "note": 38,
            "velocity": 49,
            "time": 28708
        }
    ],
    "notes": [],
    "volumeBacktrack": 0.59375,
    "additional_latency": 0
}