{
    "bass": 57,
    "type": "major",
    "backtrack": "/home/pi/raspiKeys/res/backtracks/processed_wav/hiphop/14.wav",
    "backtrackDuration": 2.5296826362609863,
    "nbOfLoops": 2,
    "chord_notes": [
        {
            "type": "note_on",
            "note": 59,
            "velocity": 68,
            "time": 0
        },
        {
            "type": "note_on",
            "note": 65,
            "velocity": 39,
            "time": 8
        },
        {
            "type": "note_on",
            "note": 61,
            "velocity": 55,
            "time": 23
        },
        {
            "type": "note_off",
            "note": 59,
            "velocity": 82,
            "time": 832
        },
        {
            "type": "note_off",
            "note": 61,
            "velocity": 67,
            "time": 953
        },
        {
            "type": "note_off",
            "note": 65,
            "velocity": 49,
            "time": 1011
        },
        {
            "type": "note_on",
            "note": 58,
            "velocity": 71,
            "time": 1313
        },
        {
            "type": "note_on",
            "note": 65,
            "velocity": 32,
            "time": 1316
        },
        {
            "type": "note_on",
            "note": 54,
            "velocity": 64,
            "time": 1319
        },
        {
            "type": "note_on",
            "note": 61,
            "velocity": 45,
            "time": 1326
        },
        {
            "type": "note_off",
            "note": 54,
            "velocity": 87,
            "time": 1888
        },
        {
            "type": "note_off",
            "note": 61,
            "velocity": 84,
            "time": 1921
        },
        {
            "type": "note_off",
            "note": 58,
            "velocity": 47,
            "time": 2025
        },
        {
            "type": "note_off",
            "note": 65,
            "velocity": 55,
            "time": 2139
        },
        {
            "type": "note_on",
            "note": 53,
            "velocity": 43,
            "time": 2303
        },
        {
            "type": "note_on",
            "note": 57,
            "velocity": 57,
            "time": 2309
        },
        {
            "type": "note_on",
            "note": 60,
            "velocity": 46,
            "time": 2312
        },
        {
            "type": "note_on",
            "note": 65,
            "velocity": 15,
            "time": 2318
        },
        {
            "type": "note_off",
            "note": 57,
            "velocity": 55,
            "time": 3899
        },
        {
            "type": "note_off",
            "note": 60,
            "velocity": 80,
            "time": 3932
        },
        {
            "type": "note_off",
            "note": 53,
            "velocity": 58,
            "time": 3967
        },
        {
            "type": "note_off",
            "note": 65,
            "velocity": 11,
            "time": 4149
        }
    ],
    "notes": [],
    "volumeBacktrack": 0.59375,
    "additional_latency": 0
}