{
    "bass": 41,
    "type": "major",
    "backtrack": "/home/pi/raspiKeys/res/backtracks/processed_wav/latin/Play along drums   Bossa Nova 123 bpm  - - Bater\u00eda Para Tocar   Bossa Nova 123 bpm-O3uCp6-wTT4 [2021-01-17 164242].wav",
    "backtrackDuration": 7.804920673370361,
    "nbOfLoops": 3,
    "chord_notes": [
        {
            "type": "note_on",
            "note": 41,
            "velocity": 59,
            "time": 0
        },
        {
            "type": "note_off",
            "note": 41,
            "velocity": 60,
            "time": 1762
        },
        {
            "type": "note_on",
            "note": 40,
            "velocity": 51,
            "time": 2005
        },
        {
            "type": "note_off",
            "note": 40,
            "velocity": 83,
            "time": 2924
        },
        {
            "type": "note_on",
            "note": 45,
            "velocity": 60,
            "time": 3029
        },
        {
            "type": "note_off",
            "note": 45,
            "velocity": 68,
            "time": 3914
        },
        {
            "type": "note_on",
            "note": 38,
            "velocity": 60,
            "time": 3959
        },
        {
            "type": "note_off",
            "note": 38,
            "velocity": 83,
            "time": 4912
        },
        {
            "type": "note_on",
            "note": 43,
            "velocity": 51,
            "time": 4962
        },
        {
            "type": "note_off",
            "note": 43,
            "velocity": 66,
            "time": 5812
        },
        {
            "type": "note_on",
            "note": 36,
            "velocity": 49,
            "time": 5878
        },
        {
            "type": "note_off",
            "note": 36,
            "velocity": 72,
            "time": 6828
        },
        {
            "type": "note_on",
            "note": 41,
            "velocity": 56,
            "time": 6855
        },
        {
            "type": "note_off",
            "note": 41,
            "velocity": 71,
            "time": 7806
        },
        {
            "type": "note_on",
            "note": 34,
            "velocity": 54,
            "time": 7865
        },
        {
            "type": "note_off",
            "note": 34,
            "velocity": 53,
            "time": 9472
        },
        {
            "type": "note_on",
            "note": 34,
            "velocity": 46,
            "time": 9831
        },
        {
            "type": "note_off",
            "note": 34,
            "velocity": 51,
            "time": 10705
        },
        {
            "type": "note_on",
            "note": 39,
            "velocity": 52,
            "time": 10729
        },
        {
            "type": "note_off",
            "note": 39,
            "velocity": 86,
            "time": 11714
        },
        {
            "type": "note_on",
            "note": 33,
            "velocity": 47,
            "time": 11773
        },
        {
            "type": "note_off",
            "note": 33,
            "velocity": 72,
            "time": 12714
        },
        {
            "type": "note_on",
            "note": 38,
            "velocity": 64,
            "time": 12721
        },
        {
            "type": "note_off",
            "note": 38,
            "velocity": 66,
            "time": 13631
        },
        {
            "type": "note_on",
            "note": 32,
            "velocity": 53,
            "time": 13735
        },
        {
            "type": "note_off",
            "note": 32,
            "velocity": 87,
            "time": 14666
        },
        {
            "type": "note_on",
            "note": 37,
            "velocity": 61,
            "time": 14698
        },
        {
            "type": "note_off",
            "note": 37,
            "velocity": 70,
            "time": 15557
        },
        {
            "type": "note_on",
            "note": 31,
            "velocity": 39,
            "time": 15632
        },
        {
            "type": "note_off",
            "note": 31,
            "velocity": 64,
            "time": 17461
        },
        {
            "type": "note_on",
            "note": 36,
            "velocity": 55,
            "time": 17542
        },
        {
            "type": "note_off",
            "note": 36,
            "velocity": 87,
            "time": 19456
        },
        {
            "type": "note_on",
            "note": 41,
            "velocity": 53,
            "time": 19545
        },
        {
            "type": "note_off",
            "note": 41,
            "velocity": 87,
            "time": 20483
        },
        {
            "type": "note_on",
            "note": 38,
            "velocity": 67,
            "time": 20491
        },
        {
            "type": "note_off",
            "note": 38,
            "velocity": 84,
            "time": 21446
        },
        {
            "type": "note_on",
            "note": 43,
            "velocity": 52,
            "time": 21499
        },
        {
            "type": "note_off",
            "note": 43,
            "velocity": 53,
            "time": 22442
        },
        {
            "type": "note_on",
            "note": 36,
            "velocity": 51,
            "time": 22487
        },
        {
            "type": "note_off",
            "note": 36,
            "velocity": 87,
            "time": 23368
        }
    ],
    "notes": [],
    "volumeBacktrack": 0.59375,
    "additional_latency": 0
}