{
    "bass": 55,
    "type": "minor",
    "backtrack": "/home/pi/raspiKeys/res/backtracks/processed_wav/HH_Groove_22.wav",
    "backtrackDuration": 6.402857303619385,
    "nbOfLoops": 1,
    "chord_notes": [
        {
            "type": "note_on",
            "note": 58,
            "velocity": 72,
            "time": 0
        },
        {
            "type": "note_on",
            "note": 65,
            "velocity": 64,
            "time": 0
        },
        {
            "type": "note_on",
            "note": 45,
            "velocity": 72,
            "time": 0
        },
        {
            "type": "note_on",
            "note": 57,
            "velocity": 69,
            "time": 0
        },
        {
            "type": "note_on",
            "note": 62,
            "velocity": 69,
            "time": 1
        },
        {
            "type": "note_off",
            "note": 65,
            "velocity": 83,
            "time": 950
        },
        {
            "type": "note_off",
            "note": 57,
            "velocity": 76,
            "time": 1006
        },
        {
            "type": "note_off",
            "note": 62,
            "velocity": 88,
            "time": 1011
        },
        {
            "type": "note_off",
            "note": 45,
            "velocity": 90,
            "time": 1103
        },
        {
            "type": "note_off",
            "note": 58,
            "velocity": 54,
            "time": 1125
        },
        {
            "type": "note_on",
            "note": 64,
            "velocity": 79,
            "time": 1202
        },
        {
            "type": "note_on",
            "note": 58,
            "velocity": 58,
            "time": 1204
        },
        {
            "type": "note_on",
            "note": 48,
            "velocity": 76,
            "time": 1204
        },
        {
            "type": "note_on",
            "note": 55,
            "velocity": 56,
            "time": 1217
        },
        {
            "type": "note_on",
            "note": 60,
            "velocity": 70,
            "time": 1220
        },
        {
            "type": "note_off",
            "note": 58,
            "velocity": 95,
            "time": 2514
        },
        {
            "type": "note_off",
            "note": 55,
            "velocity": 55,
            "time": 2717
        },
        {
            "type": "note_off",
            "note": 48,
            "velocity": 85,
            "time": 2748
        },
        {
            "type": "note_off",
            "note": 60,
            "velocity": 37,
            "time": 2777
        },
        {
            "type": "note_off",
            "note": 64,
            "velocity": 41,
            "time": 3050
        },
        {
            "type": "note_on",
            "note": 45,
            "velocity": 78,
            "time": 3607
        },
        {
            "type": "note_on",
            "note": 65,
            "velocity": 69,
            "time": 3609
        },
        {
            "type": "note_on",
            "note": 57,
            "velocity": 77,
            "time": 3614
        },
        {
            "type": "note_on",
            "note": 58,
            "velocity": 77,
            "time": 3617
        },
        {
            "type": "note_on",
            "note": 62,
            "velocity": 74,
            "time": 3633
        },
        {
            "type": "note_off",
            "note": 57,
            "velocity": 68,
            "time": 3761
        },
        {
            "type": "note_off",
            "note": 65,
            "velocity": 79,
            "time": 3766
        },
        {
            "type": "note_off",
            "note": 45,
            "velocity": 87,
            "time": 3773
        },
        {
            "type": "note_off",
            "note": 62,
            "velocity": 64,
            "time": 3800
        },
        {
            "type": "note_off",
            "note": 58,
            "velocity": 54,
            "time": 3812
        },
        {
            "type": "note_on",
            "note": 64,
            "velocity": 76,
            "time": 4434
        },
        {
            "type": "note_on",
            "note": 58,
            "velocity": 68,
            "time": 4438
        },
        {
            "type": "note_on",
            "note": 55,
            "velocity": 56,
            "time": 4444
        },
        {
            "type": "note_on",
            "note": 48,
            "velocity": 66,
            "time": 4449
        },
        {
            "type": "note_on",
            "note": 60,
            "velocity": 72,
            "time": 4455
        },
        {
            "type": "note_off",
            "note": 55,
            "velocity": 70,
            "time": 5809
        },
        {
            "type": "note_off",
            "note": 60,
            "velocity": 72,
            "time": 5817
        },
        {
            "type": "note_off",
            "note": 64,
            "velocity": 87,
            "time": 5843
        },
        {
            "type": "note_off",
            "note": 48,
            "velocity": 73,
            "time": 5871
        },
        {
            "type": "note_off",
            "note": 58,
            "velocity": 16,
            "time": 6124
        }
    ],
    "notes": []
}