{
    "bass": 53,
    "type": "minor",
    "backtrack": "/home/pi/raspiKeys/res/backtracks/processed_wav/91_EFX_Groove_01f.wav",
    "backtrackDuration": 2.6358277797698975,
    "nbOfLoops": 2,
    "chord_notes": [
        {
            "type": "note_on",
            "note": 58,
            "velocity": 72,
            "time": 0
        },
        {
            "type": "note_on",
            "note": 43,
            "velocity": 72,
            "time": 0
        },
        {
            "type": "note_on",
            "note": 55,
            "velocity": 68,
            "time": 0
        },
        {
            "type": "note_on",
            "note": 53,
            "velocity": 72,
            "time": 17
        },
        {
            "type": "note_on",
            "note": 61,
            "velocity": 72,
            "time": 19
        },
        {
            "type": "note_off",
            "note": 43,
            "velocity": 90,
            "time": 266
        },
        {
            "type": "note_off",
            "note": 55,
            "velocity": 89,
            "time": 269
        },
        {
            "type": "note_off",
            "note": 53,
            "velocity": 85,
            "time": 273
        },
        {
            "type": "note_off",
            "note": 61,
            "velocity": 89,
            "time": 293
        },
        {
            "type": "note_off",
            "note": 58,
            "velocity": 91,
            "time": 314
        },
        {
            "type": "note_on",
            "note": 36,
            "velocity": 74,
            "time": 1061
        },
        {
            "type": "note_on",
            "note": 56,
            "velocity": 73,
            "time": 1061
        },
        {
            "type": "note_on",
            "note": 63,
            "velocity": 84,
            "time": 1062
        },
        {
            "type": "note_on",
            "note": 58,
            "velocity": 73,
            "time": 1066
        },
        {
            "type": "note_on",
            "note": 52,
            "velocity": 74,
            "time": 1067
        },
        {
            "type": "note_on",
            "note": 48,
            "velocity": 57,
            "time": 1076
        },
        {
            "type": "note_off",
            "note": 36,
            "velocity": 81,
            "time": 1238
        },
        {
            "type": "note_off",
            "note": 58,
            "velocity": 52,
            "time": 1244
        },
        {
            "type": "note_off",
            "note": 63,
            "velocity": 90,
            "time": 1247
        },
        {
            "type": "note_off",
            "note": 52,
            "velocity": 59,
            "time": 1249
        },
        {
            "type": "note_off",
            "note": 56,
            "velocity": 62,
            "time": 1250
        },
        {
            "type": "note_off",
            "note": 48,
            "velocity": 66,
            "time": 1268
        },
        {
            "type": "note_on",
            "note": 41,
            "velocity": 82,
            "time": 2730
        },
        {
            "type": "note_on",
            "note": 48,
            "velocity": 74,
            "time": 2734
        },
        {
            "type": "note_on",
            "note": 51,
            "velocity": 71,
            "time": 2736
        },
        {
            "type": "note_on",
            "note": 55,
            "velocity": 68,
            "time": 2736
        },
        {
            "type": "note_on",
            "note": 56,
            "velocity": 62,
            "time": 2738
        },
        {
            "type": "note_on",
            "note": 60,
            "velocity": 70,
            "time": 2738
        },
        {
            "type": "note_off",
            "note": 51,
            "velocity": 77,
            "time": 2906
        },
        {
            "type": "note_off",
            "note": 60,
            "velocity": 87,
            "time": 2920
        },
        {
            "type": "note_off",
            "note": 55,
            "velocity": 88,
            "time": 2930
        },
        {
            "type": "note_off",
            "note": 56,
            "velocity": 83,
            "time": 2938
        },
        {
            "type": "note_off",
            "note": 41,
            "velocity": 77,
            "time": 2949
        },
        {
            "type": "note_off",
            "note": 48,
            "velocity": 68,
            "time": 2989
        },
        {
            "type": "note_on",
            "note": 60,
            "velocity": 74,
            "time": 3024
        },
        {
            "type": "note_on",
            "note": 51,
            "velocity": 57,
            "time": 3025
        },
        {
            "type": "note_on",
            "note": 56,
            "velocity": 67,
            "time": 3026
        },
        {
            "type": "note_on",
            "note": 55,
            "velocity": 73,
            "time": 3028
        },
        {
            "type": "note_on",
            "note": 41,
            "velocity": 77,
            "time": 3036
        },
        {
            "type": "note_on",
            "note": 48,
            "velocity": 50,
            "time": 3055
        },
        {
            "type": "note_off",
            "note": 51,
            "velocity": 57,
            "time": 3162
        },
        {
            "type": "note_off",
            "note": 60,
            "velocity": 76,
            "time": 3177
        },
        {
            "type": "note_off",
            "note": 41,
            "velocity": 85,
            "time": 3182
        },
        {
            "type": "note_off",
            "note": 55,
            "velocity": 77,
            "time": 3193
        },
        {
            "type": "note_off",
            "note": 48,
            "velocity": 82,
            "time": 3208
        },
        {
            "type": "note_off",
            "note": 56,
            "velocity": 79,
            "time": 3210
        },
        {
            "type": "note_on",
            "note": 51,
            "velocity": 84,
            "time": 3688
        },
        {
            "type": "note_on",
            "note": 56,
            "velocity": 78,
            "time": 3690
        },
        {
            "type": "note_on",
            "note": 60,
            "velocity": 82,
            "time": 3692
        },
        {
            "type": "note_on",
            "note": 55,
            "velocity": 84,
            "time": 3694
        },
        {
            "type": "note_on",
            "note": 41,
            "velocity": 86,
            "time": 3698
        },
        {
            "type": "note_on",
            "note": 48,
            "velocity": 70,
            "time": 3708
        },
        {
            "type": "note_off",
            "note": 41,
            "velocity": 79,
            "time": 3970
        },
        {
            "type": "note_off",
            "note": 51,
            "velocity": 67,
            "time": 3977
        },
        {
            "type": "note_off",
            "note": 55,
            "velocity": 78,
            "time": 3977
        },
        {
            "type": "note_off",
            "note": 56,
            "velocity": 56,
            "time": 3985
        },
        {
            "type": "note_off",
            "note": 48,
            "velocity": 58,
            "time": 4007
        },
        {
            "type": "note_off",
            "note": 60,
            "velocity": 21,
            "time": 4124
        },
        {
            "type": "note_on",
            "note": 48,
            "velocity": 84,
            "time": 4299
        },
        {
            "type": "note_on",
            "note": 51,
            "velocity": 78,
            "time": 4302
        },
        {
            "type": "note_on",
            "note": 41,
            "velocity": 84,
            "time": 4303
        },
        {
            "type": "note_on",
            "note": 55,
            "velocity": 76,
            "time": 4305
        },
        {
            "type": "note_on",
            "note": 56,
            "velocity": 71,
            "time": 4315
        },
        {
            "type": "note_on",
            "note": 60,
            "velocity": 77,
            "time": 4316
        },
        {
            "type": "note_off",
            "note": 51,
            "velocity": 72,
            "time": 4666
        },
        {
            "type": "note_off",
            "note": 41,
            "velocity": 77,
            "time": 4687
        },
        {
            "type": "note_off",
            "note": 60,
            "velocity": 78,
            "time": 4707
        },
        {
            "type": "note_off",
            "note": 56,
            "velocity": 61,
            "time": 4712
        },
        {
            "type": "note_off",
            "note": 55,
            "velocity": 76,
            "time": 4720
        },
        {
            "type": "note_off",
            "note": 48,
            "velocity": 76,
            "time": 4733
        },
        {
            "type": "note_on",
            "note": 55,
            "velocity": 76,
            "time": 4864
        },
        {
            "type": "note_on",
            "note": 48,
            "velocity": 75,
            "time": 4867
        },
        {
            "type": "note_on",
            "note": 41,
            "velocity": 90,
            "time": 4870
        },
        {
            "type": "note_on",
            "note": 51,
            "velocity": 75,
            "time": 4879
        },
        {
            "type": "note_on",
            "note": 56,
            "velocity": 82,
            "time": 4881
        },
        {
            "type": "note_on",
            "note": 60,
            "velocity": 77,
            "time": 4883
        },
        {
            "type": "note_off",
            "note": 51,
            "velocity": 57,
            "time": 4974
        },
        {
            "type": "note_off",
            "note": 60,
            "velocity": 46,
            "time": 5001
        },
        {
            "type": "note_off",
            "note": 48,
            "velocity": 93,
            "time": 5010
        },
        {
            "type": "note_off",
            "note": 55,
            "velocity": 90,
            "time": 5013
        },
        {
            "type": "note_off",
            "note": 56,
            "velocity": 98,
            "time": 5026
        },
        {
            "type": "note_off",
            "note": 41,
            "velocity": 90,
            "time": 5026
        }
    ],
    "notes": [
        {
            "type": "note_on",
            "note": 65,
            "velocity": 82,
            "time": 449
        },
        {
            "type": "note_off",
            "note": 65,
            "velocity": 91,
            "time": 642
        },
        {
            "type": "note_on",
            "note": 61,
            "velocity": 93,
            "time": 706
        },
        {
            "type": "note_off",
            "note": 61,
            "velocity": 95,
            "time": 944
        },
        {
            "type": "note_on",
            "note": 58,
            "velocity": 95,
            "time": 1066
        },
        {
            "type": "note_off",
            "note": 58,
            "velocity": 57,
            "time": 1276
        },
        {
            "type": "note_on",
            "note": 55,
            "velocity": 68,
            "time": 1288
        },
        {
            "type": "note_off",
            "note": 55,
            "velocity": 74,
            "time": 1444
        },
        {
            "type": "note_on",
            "note": 58,
            "velocity": 96,
            "time": 1585
        },
        {
            "type": "note_off",
            "note": 58,
            "velocity": 87,
            "time": 1760
        },
        {
            "type": "note_on",
            "note": 61,
            "velocity": 84,
            "time": 1855
        },
        {
            "type": "note_off",
            "note": 61,
            "velocity": 96,
            "time": 2047
        },
        {
            "type": "note_on",
            "note": 60,
            "velocity": 75,
            "time": 2176
        },
        {
            "type": "note_on",
            "note": 62,
            "velocity": 83,
            "time": 2181
        },
        {
            "type": "note_off",
            "note": 62,
            "velocity": 48,
            "time": 2283
        },
        {
            "type": "note_off",
            "note": 60,
            "velocity": 80,
            "time": 2353
        },
        {
            "type": "note_on",
            "note": 58,
            "velocity": 70,
            "time": 2485
        },
        {
            "type": "note_on",
            "note": 56,
            "velocity": 84,
            "time": 2704
        },
        {
            "type": "note_off",
            "note": 58,
            "velocity": 73,
            "time": 2706
        },
        {
            "type": "note_off",
            "note": 56,
            "velocity": 77,
            "time": 2906
        },
        {
            "type": "note_on",
            "note": 53,
            "velocity": 69,
            "time": 3018
        },
        {
            "type": "note_off",
            "note": 53,
            "velocity": 80,
            "time": 3174
        },
        {
            "type": "note_on",
            "note": 56,
            "velocity": 77,
            "time": 3246
        },
        {
            "type": "note_off",
            "note": 56,
            "velocity": 70,
            "time": 3366
        },
        {
            "type": "note_on",
            "note": 58,
            "velocity": 96,
            "time": 3593
        },
        {
            "type": "note_off",
            "note": 58,
            "velocity": 90,
            "time": 3775
        },
        {
            "type": "note_on",
            "note": 56,
            "velocity": 82,
            "time": 3905
        },
        {
            "type": "note_off",
            "note": 56,
            "velocity": 90,
            "time": 4079
        },
        {
            "type": "note_on",
            "note": 53,
            "velocity": 75,
            "time": 4242
        },
        {
            "type": "note_off",
            "note": 53,
            "velocity": 93,
            "time": 4385
        },
        {
            "type": "note_on",
            "note": 55,
            "velocity": 88,
            "time": 4593
        },
        {
            "type": "note_off",
            "note": 55,
            "velocity": 88,
            "time": 4712
        },
        {
            "type": "note_on",
            "note": 56,
            "velocity": 92,
            "time": 4740
        },
        {
            "type": "note_off",
            "note": 56,
            "velocity": 95,
            "time": 4941
        }
    ],
    "volumeBacktrack": 0.984375
}