{
    "bass": 53,
    "type": "major",
    "backtrack": "/home/pi/raspiKeys/res/backtracks/processed_wav/HH_Groove_Loop_16_98_BPM.wav",
    "backtrackDuration": 4.8979363441467285,
    "nbOfLoops": 2,
    "chord_notes": [
        {
            "type": "note_on",
            "note": 69,
            "velocity": 73,
            "time": 0
        },
        {
            "type": "note_on",
            "note": 58,
            "velocity": 63,
            "time": 1
        },
        {
            "type": "note_on",
            "note": 43,
            "velocity": 65,
            "time": 1
        },
        {
            "type": "note_on",
            "note": 65,
            "velocity": 57,
            "time": 10
        },
        {
            "type": "note_on",
            "note": 62,
            "velocity": 70,
            "time": 11
        },
        {
            "type": "note_on",
            "note": 55,
            "velocity": 51,
            "time": 13
        },
        {
            "type": "note_off",
            "note": 62,
            "velocity": 90,
            "time": 553
        },
        {
            "type": "note_off",
            "note": 43,
            "velocity": 84,
            "time": 556
        },
        {
            "type": "note_off",
            "note": 69,
            "velocity": 94,
            "time": 562
        },
        {
            "type": "note_off",
            "note": 65,
            "velocity": 92,
            "time": 572
        },
        {
            "type": "note_off",
            "note": 55,
            "velocity": 85,
            "time": 682
        },
        {
            "type": "note_off",
            "note": 58,
            "velocity": 65,
            "time": 685
        },
        {
            "type": "note_on",
            "note": 55,
            "velocity": 64,
            "time": 1017
        },
        {
            "type": "note_on",
            "note": 67,
            "velocity": 69,
            "time": 1025
        },
        {
            "type": "note_on",
            "note": 58,
            "velocity": 72,
            "time": 1026
        },
        {
            "type": "note_on",
            "note": 60,
            "velocity": 73,
            "time": 1027
        },
        {
            "type": "note_on",
            "note": 48,
            "velocity": 57,
            "time": 1029
        },
        {
            "type": "note_on",
            "note": 64,
            "velocity": 75,
            "time": 1034
        },
        {
            "type": "note_off",
            "note": 55,
            "velocity": 87,
            "time": 1838
        },
        {
            "type": "note_off",
            "note": 48,
            "velocity": 87,
            "time": 1870
        },
        {
            "type": "note_off",
            "note": 58,
            "velocity": 93,
            "time": 1886
        },
        {
            "type": "note_off",
            "note": 67,
            "velocity": 76,
            "time": 1894
        },
        {
            "type": "note_off",
            "note": 60,
            "velocity": 72,
            "time": 1915
        },
        {
            "type": "note_off",
            "note": 64,
            "velocity": 77,
            "time": 1918
        },
        {
            "type": "note_on",
            "note": 60,
            "velocity": 73,
            "time": 2497
        },
        {
            "type": "note_on",
            "note": 57,
            "velocity": 59,
            "time": 2506
        },
        {
            "type": "note_on",
            "note": 67,
            "velocity": 68,
            "time": 2507
        },
        {
            "type": "note_on",
            "note": 64,
            "velocity": 70,
            "time": 2518
        },
        {
            "type": "note_on",
            "note": 41,
            "velocity": 58,
            "time": 2522
        },
        {
            "type": "note_off",
            "note": 41,
            "velocity": 91,
            "time": 2997
        },
        {
            "type": "note_off",
            "note": 64,
            "velocity": 87,
            "time": 3001
        },
        {
            "type": "note_off",
            "note": 57,
            "velocity": 61,
            "time": 3010
        },
        {
            "type": "note_off",
            "note": 67,
            "velocity": 81,
            "time": 3017
        },
        {
            "type": "note_off",
            "note": 60,
            "velocity": 91,
            "time": 3059
        },
        {
            "type": "note_on",
            "note": 58,
            "velocity": 80,
            "time": 3443
        },
        {
            "type": "note_on",
            "note": 65,
            "velocity": 67,
            "time": 3447
        },
        {
            "type": "note_on",
            "note": 57,
            "velocity": 72,
            "time": 3457
        },
        {
            "type": "note_on",
            "note": 62,
            "velocity": 74,
            "time": 3458
        },
        {
            "type": "note_on",
            "note": 53,
            "velocity": 64,
            "time": 3461
        },
        {
            "type": "note_on",
            "note": 46,
            "velocity": 75,
            "time": 3463
        },
        {
            "type": "note_off",
            "note": 57,
            "velocity": 83,
            "time": 4373
        },
        {
            "type": "note_off",
            "note": 62,
            "velocity": 86,
            "time": 4376
        },
        {
            "type": "note_off",
            "note": 53,
            "velocity": 92,
            "time": 4395
        },
        {
            "type": "note_off",
            "note": 58,
            "velocity": 97,
            "time": 4400
        },
        {
            "type": "note_off",
            "note": 65,
            "velocity": 92,
            "time": 4403
        },
        {
            "type": "note_off",
            "note": 46,
            "velocity": 95,
            "time": 4415
        },
        {
            "type": "note_on",
            "note": 69,
            "velocity": 80,
            "time": 4954
        },
        {
            "type": "note_on",
            "note": 58,
            "velocity": 73,
            "time": 4960
        },
        {
            "type": "note_on",
            "note": 43,
            "velocity": 75,
            "time": 4962
        },
        {
            "type": "note_on",
            "note": 62,
            "velocity": 73,
            "time": 4970
        },
        {
            "type": "note_on",
            "note": 65,
            "velocity": 49,
            "time": 4974
        },
        {
            "type": "note_on",
            "note": 55,
            "velocity": 50,
            "time": 4983
        },
        {
            "type": "note_off",
            "note": 43,
            "velocity": 85,
            "time": 5302
        },
        {
            "type": "note_off",
            "note": 69,
            "velocity": 88,
            "time": 5367
        },
        {
            "type": "note_off",
            "note": 62,
            "velocity": 88,
            "time": 5382
        },
        {
            "type": "note_off",
            "note": 65,
            "velocity": 93,
            "time": 5392
        },
        {
            "type": "note_off",
            "note": 55,
            "velocity": 90,
            "time": 5431
        },
        {
            "type": "note_off",
            "note": 58,
            "velocity": 96,
            "time": 5563
        },
        {
            "type": "note_on",
            "note": 60,
            "velocity": 66,
            "time": 5827
        },
        {
            "type": "note_on",
            "note": 58,
            "velocity": 68,
            "time": 5833
        },
        {
            "type": "note_on",
            "note": 48,
            "velocity": 62,
            "time": 5844
        },
        {
            "type": "note_on",
            "note": 55,
            "velocity": 65,
            "time": 5844
        },
        {
            "type": "note_on",
            "note": 64,
            "velocity": 71,
            "time": 5847
        },
        {
            "type": "note_on",
            "note": 67,
            "velocity": 58,
            "time": 5854
        },
        {
            "type": "note_off",
            "note": 60,
            "velocity": 86,
            "time": 6548
        },
        {
            "type": "note_off",
            "note": 64,
            "velocity": 87,
            "time": 6584
        },
        {
            "type": "note_off",
            "note": 67,
            "velocity": 83,
            "time": 6614
        },
        {
            "type": "note_off",
            "note": 58,
            "velocity": 87,
            "time": 6616
        },
        {
            "type": "note_off",
            "note": 55,
            "velocity": 86,
            "time": 6729
        },
        {
            "type": "note_off",
            "note": 48,
            "velocity": 91,
            "time": 6840
        },
        {
            "type": "note_on",
            "note": 60,
            "velocity": 70,
            "time": 7179
        },
        {
            "type": "note_on",
            "note": 64,
            "velocity": 69,
            "time": 7248
        },
        {
            "type": "note_on",
            "note": 65,
            "velocity": 33,
            "time": 7281
        },
        {
            "type": "note_on",
            "note": 53,
            "velocity": 43,
            "time": 7321
        },
        {
            "type": "note_on",
            "note": 41,
            "velocity": 77,
            "time": 7334
        },
        {
            "type": "note_on",
            "note": 69,
            "velocity": 86,
            "time": 7411
        },
        {
            "type": "note_off",
            "note": 64,
            "velocity": 86,
            "time": 7704
        },
        {
            "type": "note_off",
            "note": 41,
            "velocity": 69,
            "time": 7767
        },
        {
            "type": "note_off",
            "note": 65,
            "velocity": 85,
            "time": 7859
        },
        {
            "type": "note_off",
            "note": 53,
            "velocity": 91,
            "time": 7912
        },
        {
            "type": "note_off",
            "note": 60,
            "velocity": 50,
            "time": 8013
        },
        {
            "type": "note_off",
            "note": 69,
            "velocity": 65,
            "time": 8120
        },
        {
            "type": "note_on",
            "note": 46,
            "velocity": 68,
            "time": 8350
        },
        {
            "type": "note_on",
            "note": 60,
            "velocity": 76,
            "time": 8352
        },
        {
            "type": "note_on",
            "note": 65,
            "velocity": 53,
            "time": 8358
        },
        {
            "type": "note_on",
            "note": 53,
            "velocity": 70,
            "time": 8360
        },
        {
            "type": "note_on",
            "note": 62,
            "velocity": 82,
            "time": 8360
        },
        {
            "type": "note_on",
            "note": 69,
            "velocity": 79,
            "time": 8363
        },
        {
            "type": "note_off",
            "note": 53,
            "velocity": 94,
            "time": 9404
        },
        {
            "type": "note_off",
            "note": 60,
            "velocity": 77,
            "time": 9423
        },
        {
            "type": "note_off",
            "note": 62,
            "velocity": 86,
            "time": 9439
        },
        {
            "type": "note_off",
            "note": 46,
            "velocity": 94,
            "time": 9457
        },
        {
            "type": "note_off",
            "note": 65,
            "velocity": 90,
            "time": 9467
        },
        {
            "type": "note_off",
            "note": 69,
            "velocity": 83,
            "time": 9471
        }
    ],
    "notes": []
}