{
    "bass": 48,
    "type": "minor",
    "chord_notes": [
        {
            "type": "note_on",
            "note": 58,
            "velocity": 62,
            "time": 0
        },
        {
            "type": "note_on",
            "note": 63,
            "velocity": 54,
            "time": 8
        },
        {
            "type": "note_on",
            "note": 48,
            "velocity": 60,
            "time": 9
        },
        {
            "type": "note_on",
            "note": 67,
            "velocity": 44,
            "time": 12
        },
        {
            "type": "note_on",
            "note": 74,
            "velocity": 54,
            "time": 16
        },
        {
            "type": "note_on",
            "note": 70,
            "velocity": 40,
            "time": 22
        },
        {
            "type": "note_off",
            "note": 70,
            "velocity": 77,
            "time": 1571
        },
        {
            "type": "note_off",
            "note": 58,
            "velocity": 92,
            "time": 1710
        },
        {
            "type": "note_off",
            "note": 48,
            "velocity": 58,
            "time": 1723
        },
        {
            "type": "note_off",
            "note": 63,
            "velocity": 53,
            "time": 1799
        },
        {
            "type": "note_off",
            "note": 74,
            "velocity": 62,
            "time": 1951
        },
        {
            "type": "note_off",
            "note": 67,
            "velocity": 56,
            "time": 1960
        },
        {
            "type": "note_on",
            "note": 53,
            "velocity": 68,
            "time": 2194
        },
        {
            "type": "note_on",
            "note": 63,
            "velocity": 73,
            "time": 2202
        },
        {
            "type": "note_on",
            "note": 74,
            "velocity": 58,
            "time": 2211
        },
        {
            "type": "note_on",
            "note": 67,
            "velocity": 54,
            "time": 2215
        },
        {
            "type": "note_on",
            "note": 69,
            "velocity": 65,
            "time": 2217
        },
        {
            "type": "note_off",
            "note": 74,
            "velocity": 87,
            "time": 3683
        },
        {
            "type": "note_off",
            "note": 67,
            "velocity": 85,
            "time": 3707
        },
        {
            "type": "note_off",
            "note": 63,
            "velocity": 84,
            "time": 3719
        },
        {
            "type": "note_off",
            "note": 69,
            "velocity": 91,
            "time": 3765
        },
        {
            "type": "note_off",
            "note": 53,
            "velocity": 90,
            "time": 3929
        },
        {
            "type": "note_on",
            "note": 62,
            "velocity": 1,
            "time": 4027
        },
        {
            "type": "note_on",
            "note": 65,
            "velocity": 39,
            "time": 4076
        },
        {
            "type": "note_on",
            "note": 69,
            "velocity": 63,
            "time": 4144
        },
        {
            "type": "note_on",
            "note": 46,
            "velocity": 60,
            "time": 4158
        },
        {
            "type": "note_on",
            "note": 57,
            "velocity": 59,
            "time": 4177
        },
        {
            "type": "note_on",
            "note": 72,
            "velocity": 64,
            "time": 4235
        },
        {
            "type": "note_off",
            "note": 46,
            "velocity": 63,
            "time": 5794
        },
        {
            "type": "note_off",
            "note": 57,
            "velocity": 54,
            "time": 5822
        },
        {
            "type": "note_off",
            "note": 62,
            "velocity": 67,
            "time": 6074
        },
        {
            "type": "note_off",
            "note": 65,
            "velocity": 80,
            "time": 6076
        },
        {
            "type": "note_off",
            "note": 69,
            "velocity": 77,
            "time": 6078
        },
        {
            "type": "note_off",
            "note": 72,
            "velocity": 85,
            "time": 6078
        },
        {
            "type": "note_on",
            "note": 46,
            "velocity": 60,
            "time": 6079
        },
        {
            "type": "note_on",
            "note": 57,
            "velocity": 38,
            "time": 6117
        },
        {
            "type": "note_off",
            "note": 57,
            "velocity": 87,
            "time": 6206
        },
        {
            "type": "note_on",
            "note": 65,
            "velocity": 54,
            "time": 6216
        },
        {
            "type": "note_on",
            "note": 69,
            "velocity": 54,
            "time": 6224
        },
        {
            "type": "note_on",
            "note": 62,
            "velocity": 64,
            "time": 6227
        },
        {
            "type": "note_on",
            "note": 72,
            "velocity": 50,
            "time": 6227
        },
        {
            "type": "note_off",
            "note": 46,
            "velocity": 81,
            "time": 6243
        },
        {
            "type": "note_on",
            "note": 46,
            "velocity": 75,
            "time": 6560
        },
        {
            "type": "note_off",
            "note": 62,
            "velocity": 67,
            "time": 6567
        },
        {
            "type": "note_on",
            "note": 57,
            "velocity": 40,
            "time": 6599
        },
        {
            "type": "note_off",
            "note": 69,
            "velocity": 87,
            "time": 6599
        },
        {
            "type": "note_off",
            "note": 72,
            "velocity": 88,
            "time": 6601
        },
        {
            "type": "note_off",
            "note": 65,
            "velocity": 78,
            "time": 6604
        },
        {
            "type": "note_off",
            "note": 57,
            "velocity": 79,
            "time": 6693
        },
        {
            "type": "note_off",
            "note": 46,
            "velocity": 66,
            "time": 6710
        },
        {
            "type": "note_on",
            "note": 72,
            "velocity": 58,
            "time": 6710
        },
        {
            "type": "note_on",
            "note": 65,
            "velocity": 66,
            "time": 6711
        },
        {
            "type": "note_on",
            "note": 69,
            "velocity": 63,
            "time": 6713
        },
        {
            "type": "note_on",
            "note": 62,
            "velocity": 59,
            "time": 6726
        },
        {
            "type": "note_on",
            "note": 46,
            "velocity": 68,
            "time": 7065
        },
        {
            "type": "note_off",
            "note": 62,
            "velocity": 70,
            "time": 7080
        },
        {
            "type": "note_off",
            "note": 72,
            "velocity": 77,
            "time": 7092
        },
        {
            "type": "note_off",
            "note": 69,
            "velocity": 75,
            "time": 7094
        },
        {
            "type": "note_on",
            "note": 57,
            "velocity": 50,
            "time": 7104
        },
        {
            "type": "note_off",
            "note": 65,
            "velocity": 77,
            "time": 7107
        },
        {
            "type": "note_off",
            "note": 57,
            "velocity": 66,
            "time": 7250
        },
        {
            "type": "note_on",
            "note": 65,
            "velocity": 64,
            "time": 7250
        },
        {
            "type": "note_off",
            "note": 46,
            "velocity": 87,
            "time": 7255
        },
        {
            "type": "note_on",
            "note": 69,
            "velocity": 72,
            "time": 7260
        },
        {
            "type": "note_on",
            "note": 72,
            "velocity": 69,
            "time": 7263
        },
        {
            "type": "note_on",
            "note": 62,
            "velocity": 78,
            "time": 7268
        },
        {
            "type": "note_off",
            "note": 72,
            "velocity": 75,
            "time": 7591
        },
        {
            "type": "note_off",
            "note": 62,
            "velocity": 71,
            "time": 7595
        },
        {
            "type": "note_on",
            "note": 46,
            "velocity": 73,
            "time": 7599
        },
        {
            "type": "note_off",
            "note": 69,
            "velocity": 72,
            "time": 7614
        },
        {
            "type": "note_off",
            "note": 65,
            "velocity": 85,
            "time": 7621
        },
        {
            "type": "note_on",
            "note": 57,
            "velocity": 41,
            "time": 7634
        },
        {
            "type": "note_on",
            "note": 69,
            "velocity": 62,
            "time": 7746
        },
        {
            "type": "note_on",
            "note": 72,
            "velocity": 69,
            "time": 7746
        },
        {
            "type": "note_on",
            "note": 65,
            "velocity": 49,
            "time": 7748
        },
        {
            "type": "note_on",
            "note": 62,
            "velocity": 74,
            "time": 7748
        },
        {
            "type": "note_off",
            "note": 46,
            "velocity": 88,
            "time": 7845
        },
        {
            "type": "note_off",
            "note": 69,
            "velocity": 94,
            "time": 7885
        },
        {
            "type": "note_off",
            "note": 65,
            "velocity": 95,
            "time": 7889
        },
        {
            "type": "note_off",
            "note": 62,
            "velocity": 88,
            "time": 7907
        },
        {
            "type": "note_off",
            "note": 72,
            "velocity": 91,
            "time": 7921
        },
        {
            "type": "note_off",
            "note": 57,
            "velocity": 79,
            "time": 8159
        },
        {
            "type": "note_on",
            "note": 63,
            "velocity": 68,
            "time": 8278
        },
        {
            "type": "note_on",
            "note": 70,
            "velocity": 70,
            "time": 8283
        },
        {
            "type": "note_on",
            "note": 67,
            "velocity": 68,
            "time": 8300
        },
        {
            "type": "note_on",
            "note": 74,
            "velocity": 77,
            "time": 8300
        },
        {
            "type": "note_on",
            "note": 55,
            "velocity": 59,
            "time": 8317
        },
        {
            "type": "note_on",
            "note": 48,
            "velocity": 60,
            "time": 8324
        },
        {
            "type": "note_off",
            "note": 70,
            "velocity": 76,
            "time": 9953
        },
        {
            "type": "note_off",
            "note": 63,
            "velocity": 49,
            "time": 10241
        },
        {
            "type": "note_off",
            "note": 67,
            "velocity": 47,
            "time": 10265
        },
        {
            "type": "note_off",
            "note": 74,
            "velocity": 51,
            "time": 10265
        },
        {
            "type": "note_off",
            "note": 55,
            "velocity": 60,
            "time": 10351
        },
        {
            "type": "note_off",
            "note": 48,
            "velocity": 78,
            "time": 10401
        },
        {
            "type": "note_on",
            "note": 63,
            "velocity": 81,
            "time": 10480
        },
        {
            "type": "note_on",
            "note": 53,
            "velocity": 64,
            "time": 10487
        },
        {
            "type": "note_on",
            "note": 69,
            "velocity": 74,
            "time": 10488
        },
        {
            "type": "note_on",
            "note": 67,
            "velocity": 70,
            "time": 10501
        },
        {
            "type": "note_on",
            "note": 74,
            "velocity": 66,
            "time": 10509
        },
        {
            "type": "note_off",
            "note": 67,
            "velocity": 92,
            "time": 11540
        },
        {
            "type": "note_off",
            "note": 69,
            "velocity": 88,
            "time": 11544
        },
        {
            "type": "note_off",
            "note": 74,
            "velocity": 86,
            "time": 11549
        },
        {
            "type": "note_off",
            "note": 63,
            "velocity": 86,
            "time": 11562
        },
        {
            "type": "note_off",
            "note": 53,
            "velocity": 89,
            "time": 11609
        },
        {
            "type": "note_on",
            "note": 72,
            "velocity": 51,
            "time": 12558
        },
        {
            "type": "note_on",
            "note": 65,
            "velocity": 47,
            "time": 12562
        },
        {
            "type": "note_on",
            "note": 62,
            "velocity": 57,
            "time": 12564
        },
        {
            "type": "note_on",
            "note": 46,
            "velocity": 52,
            "time": 12569
        },
        {
            "type": "note_on",
            "note": 69,
            "velocity": 54,
            "time": 12585
        },
        {
            "type": "note_on",
            "note": 58,
            "velocity": 47,
            "time": 12588
        },
        {
            "type": "note_off",
            "note": 46,
            "velocity": 78,
            "time": 13349
        },
        {
            "type": "note_off",
            "note": 58,
            "velocity": 62,
            "time": 13351
        },
        {
            "type": "note_on",
            "note": 58,
            "velocity": 57,
            "time": 13569
        },
        {
            "type": "note_on",
            "note": 46,
            "velocity": 54,
            "time": 13575
        },
        {
            "type": "note_off",
            "note": 72,
            "velocity": 83,
            "time": 13580
        },
        {
            "type": "note_off",
            "note": 69,
            "velocity": 58,
            "time": 13583
        },
        {
            "type": "note_off",
            "note": 62,
            "velocity": 63,
            "time": 13586
        },
        {
            "type": "note_off",
            "note": 65,
            "velocity": 74,
            "time": 13595
        },
        {
            "type": "note_off",
            "note": 58,
            "velocity": 76,
            "time": 13723
        },
        {
            "type": "note_off",
            "note": 46,
            "velocity": 84,
            "time": 13736
        },
        {
            "type": "note_on",
            "note": 65,
            "velocity": 51,
            "time": 13736
        },
        {
            "type": "note_on",
            "note": 62,
            "velocity": 73,
            "time": 13739
        },
        {
            "type": "note_on",
            "note": 69,
            "velocity": 54,
            "time": 13745
        },
        {
            "type": "note_on",
            "note": 72,
            "velocity": 55,
            "time": 13746
        },
        {
            "type": "note_off",
            "note": 62,
            "velocity": 62,
            "time": 14033
        },
        {
            "type": "note_off",
            "note": 65,
            "velocity": 67,
            "time": 14049
        },
        {
            "type": "note_off",
            "note": 72,
            "velocity": 72,
            "time": 14049
        },
        {
            "type": "note_off",
            "note": 69,
            "velocity": 68,
            "time": 14062
        },
        {
            "type": "note_on",
            "note": 46,
            "velocity": 56,
            "time": 14073
        },
        {
            "type": "note_on",
            "note": 58,
            "velocity": 42,
            "time": 14083
        },
        {
            "type": "note_off",
            "note": 46,
            "velocity": 70,
            "time": 14188
        },
        {
            "type": "note_off",
            "note": 58,
            "velocity": 76,
            "time": 14188
        },
        {
            "type": "note_on",
            "note": 65,
            "velocity": 50,
            "time": 14231
        },
        {
            "type": "note_on",
            "note": 62,
            "velocity": 66,
            "time": 14238
        },
        {
            "type": "note_on",
            "note": 72,
            "velocity": 60,
            "time": 14241
        },
        {
            "type": "note_on",
            "note": 69,
            "velocity": 47,
            "time": 14242
        },
        {
            "type": "note_off",
            "note": 62,
            "velocity": 61,
            "time": 14510
        },
        {
            "type": "note_off",
            "note": 72,
            "velocity": 71,
            "time": 14522
        },
        {
            "type": "note_off",
            "note": 65,
            "velocity": 63,
            "time": 14527
        },
        {
            "type": "note_on",
            "note": 46,
            "velocity": 55,
            "time": 14549
        },
        {
            "type": "note_off",
            "note": 69,
            "velocity": 71,
            "time": 14549
        },
        {
            "type": "note_on",
            "note": 58,
            "velocity": 39,
            "time": 14553
        },
        {
            "type": "note_off",
            "note": 46,
            "velocity": 77,
            "time": 14650
        },
        {
            "type": "note_off",
            "note": 58,
            "velocity": 80,
            "time": 14659
        },
        {
            "type": "note_on",
            "note": 65,
            "velocity": 60,
            "time": 14747
        },
        {
            "type": "note_on",
            "note": 69,
            "velocity": 58,
            "time": 14760
        },
        {
            "type": "note_on",
            "note": 72,
            "velocity": 70,
            "time": 14770
        },
        {
            "type": "note_on",
            "note": 62,
            "velocity": 72,
            "time": 14771
        },
        {
            "type": "note_off",
            "note": 62,
            "velocity": 51,
            "time": 15183
        },
        {
            "type": "note_off",
            "note": 72,
            "velocity": 64,
            "time": 15199
        },
        {
            "type": "note_off",
            "note": 69,
            "velocity": 58,
            "time": 15222
        },
        {
            "type": "note_off",
            "note": 65,
            "velocity": 51,
            "time": 15240
        },
        {
            "type": "note_on",
            "note": 58,
            "velocity": 63,
            "time": 15294
        },
        {
            "type": "note_on",
            "note": 46,
            "velocity": 65,
            "time": 15300
        },
        {
            "type": "note_on",
            "note": 65,
            "velocity": 59,
            "time": 15604
        },
        {
            "type": "note_on",
            "note": 72,
            "velocity": 75,
            "time": 15610
        },
        {
            "type": "note_on",
            "note": 62,
            "velocity": 85,
            "time": 15613
        },
        {
            "type": "note_on",
            "note": 69,
            "velocity": 67,
            "time": 15618
        },
        {
            "type": "note_off",
            "note": 46,
            "velocity": 62,
            "time": 15686
        },
        {
            "type": "note_off",
            "note": 58,
            "velocity": 52,
            "time": 15730
        },
        {
            "type": "note_off",
            "note": 62,
            "velocity": 94,
            "time": 15766
        },
        {
            "type": "note_off",
            "note": 65,
            "velocity": 96,
            "time": 15781
        },
        {
            "type": "note_off",
            "note": 69,
            "velocity": 94,
            "time": 15789
        },
        {
            "type": "note_off",
            "note": 72,
            "velocity": 92,
            "time": 15819
        }
    ],
    "notes": [
        {
            "type": "note_on",
            "note": 63,
            "velocity": 96,
            "time": 654
        },
        {
            "type": "note_off",
            "note": 63,
            "velocity": 90,
            "time": 827
        },
        {
            "type": "note_on",
            "note": 67,
            "velocity": 73,
            "time": 930
        },
        {
            "type": "note_off",
            "note": 67,
            "velocity": 81,
            "time": 1484
        },
        {
            "type": "note_on",
            "note": 70,
            "velocity": 84,
            "time": 1581
        },
        {
            "type": "note_off",
            "note": 70,
            "velocity": 81,
            "time": 1849
        },
        {
            "type": "note_on",
            "note": 74,
            "velocity": 77,
            "time": 1887
        },
        {
            "type": "note_on",
            "note": 72,
            "velocity": 74,
            "time": 2098
        },
        {
            "type": "note_off",
            "note": 74,
            "velocity": 28,
            "time": 2225
        },
        {
            "type": "note_off",
            "note": 72,
            "velocity": 86,
            "time": 3211
        },
        {
            "type": "note_on",
            "note": 69,
            "velocity": 78,
            "time": 3291
        },
        {
            "type": "note_off",
            "note": 69,
            "velocity": 77,
            "time": 3608
        },
        {
            "type": "note_on",
            "note": 67,
            "velocity": 60,
            "time": 3611
        },
        {
            "type": "note_on",
            "note": 69,
            "velocity": 69,
            "time": 3785
        },
        {
            "type": "note_off",
            "note": 67,
            "velocity": 91,
            "time": 3803
        },
        {
            "type": "note_off",
            "note": 69,
            "velocity": 74,
            "time": 4090
        },
        {
            "type": "note_on",
            "note": 67,
            "velocity": 58,
            "time": 4121
        },
        {
            "type": "note_off",
            "note": 67,
            "velocity": 86,
            "time": 4283
        },
        {
            "type": "note_on",
            "note": 77,
            "velocity": 95,
            "time": 4343
        },
        {
            "type": "note_on",
            "note": 74,
            "velocity": 63,
            "time": 5381
        },
        {
            "type": "note_off",
            "note": 77,
            "velocity": 37,
            "time": 5462
        },
        {
            "type": "note_on",
            "note": 70,
            "velocity": 63,
            "time": 6268
        },
        {
            "type": "note_off",
            "note": 74,
            "velocity": 81,
            "time": 6287
        },
        {
            "type": "note_on",
            "note": 74,
            "velocity": 66,
            "time": 6459
        },
        {
            "type": "note_off",
            "note": 70,
            "velocity": 72,
            "time": 6473
        },
        {
            "type": "note_off",
            "note": 74,
            "velocity": 63,
            "time": 7819
        },
        {
            "type": "note_on",
            "note": 67,
            "velocity": 61,
            "time": 7853
        },
        {
            "type": "note_off",
            "note": 67,
            "velocity": 47,
            "time": 8148
        },
        {
            "type": "note_on",
            "note": 70,
            "velocity": 70,
            "time": 8182
        },
        {
            "type": "note_off",
            "note": 70,
            "velocity": 78,
            "time": 8277
        },
        {
            "type": "note_on",
            "note": 79,
            "velocity": 82,
            "time": 9189
        },
        {
            "type": "note_off",
            "note": 79,
            "velocity": 99,
            "time": 9354
        },
        {
            "type": "note_on",
            "note": 78,
            "velocity": 94,
            "time": 9430
        },
        {
            "type": "note_off",
            "note": 78,
            "velocity": 86,
            "time": 9669
        },
        {
            "type": "note_on",
            "note": 77,
            "velocity": 73,
            "time": 9744
        },
        {
            "type": "note_on",
            "note": 75,
            "velocity": 84,
            "time": 9927
        },
        {
            "type": "note_off",
            "note": 77,
            "velocity": 35,
            "time": 10023
        },
        {
            "type": "note_off",
            "note": 75,
            "velocity": 28,
            "time": 10232
        },
        {
            "type": "note_on",
            "note": 72,
            "velocity": 72,
            "time": 10256
        },
        {
            "type": "note_off",
            "note": 72,
            "velocity": 61,
            "time": 10420
        },
        {
            "type": "note_on",
            "note": 74,
            "velocity": 81,
            "time": 10444
        },
        {
            "type": "note_off",
            "note": 74,
            "velocity": 83,
            "time": 11227
        },
        {
            "type": "note_on",
            "note": 77,
            "velocity": 73,
            "time": 11351
        },
        {
            "type": "note_on",
            "note": 79,
            "velocity": 73,
            "time": 11353
        },
        {
            "type": "note_off",
            "note": 79,
            "velocity": 89,
            "time": 11544
        },
        {
            "type": "note_off",
            "note": 77,
            "velocity": 95,
            "time": 12134
        },
        {
            "type": "note_on",
            "note": 65,
            "velocity": 72,
            "time": 12153
        },
        {
            "type": "note_off",
            "note": 65,
            "velocity": 59,
            "time": 12492
        },
        {
            "type": "note_on",
            "note": 70,
            "velocity": 93,
            "time": 12513
        },
        {
            "type": "note_off",
            "note": 70,
            "velocity": 81,
            "time": 13505
        },
        {
            "type": "note_on",
            "note": 74,
            "velocity": 81,
            "time": 13570
        },
        {
            "type": "note_on",
            "note": 65,
            "velocity": 55,
            "time": 13766
        },
        {
            "type": "note_off",
            "note": 74,
            "velocity": 82,
            "time": 13799
        },
        {
            "type": "note_off",
            "note": 65,
            "velocity": 70,
            "time": 13988
        },
        {
            "type": "note_on",
            "note": 63,
            "velocity": 78,
            "time": 14079
        },
        {
            "type": "note_off",
            "note": 63,
            "velocity": 90,
            "time": 14226
        },
        {
            "type": "note_on",
            "note": 65,
            "velocity": 66,
            "time": 14316
        },
        {
            "type": "note_on",
            "note": 61,
            "velocity": 88,
            "time": 14608
        },
        {
            "type": "note_off",
            "note": 61,
            "velocity": 124,
            "time": 14649
        },
        {
            "type": "note_on",
            "note": 62,
            "velocity": 87,
            "time": 14654
        },
        {
            "type": "note_off",
            "note": 65,
            "velocity": 94,
            "time": 14656
        },
        {
            "type": "note_off",
            "note": 62,
            "velocity": 95,
            "time": 15243
        },
        {
            "type": "note_on",
            "note": 60,
            "velocity": 75,
            "time": 15272
        },
        {
            "type": "note_on",
            "note": 58,
            "velocity": 82,
            "time": 15467
        },
        {
            "type": "note_off",
            "note": 60,
            "velocity": 47,
            "time": 15497
        },
        {
            "type": "note_off",
            "note": 58,
            "velocity": 87,
            "time": 15646
        },
        {
            "type": "note_on",
            "note": 58,
            "velocity": 85,
            "time": 15781
        },
        {
            "type": "note_off",
            "note": 58,
            "velocity": 98,
            "time": 16372
        }
    ],
    "duration": 18161
}