{
    "bass": 41,
    "type": "dom7",
    "chord_notes": [
        {
            "type": "note_on",
            "note": 63,
            "velocity": 75,
            "time": 0
        },
        {
            "type": "note_on",
            "note": 57,
            "velocity": 61,
            "time": 2
        },
        {
            "type": "note_on",
            "note": 60,
            "velocity": 63,
            "time": 5
        },
        {
            "type": "note_on",
            "note": 67,
            "velocity": 57,
            "time": 8
        },
        {
            "type": "note_off",
            "note": 63,
            "velocity": 64,
            "time": 1805
        },
        {
            "type": "note_off",
            "note": 67,
            "velocity": 61,
            "time": 1811
        },
        {
            "type": "note_off",
            "note": 57,
            "velocity": 70,
            "time": 1888
        },
        {
            "type": "note_off",
            "note": 60,
            "velocity": 62,
            "time": 1888
        },
        {
            "type": "note_on",
            "note": 62,
            "velocity": 88,
            "time": 2208
        },
        {
            "type": "note_on",
            "note": 65,
            "velocity": 54,
            "time": 2212
        },
        {
            "type": "note_on",
            "note": 60,
            "velocity": 60,
            "time": 2246
        },
        {
            "type": "note_on",
            "note": 57,
            "velocity": 31,
            "time": 2255
        },
        {
            "type": "note_off",
            "note": 57,
            "velocity": 82,
            "time": 2345
        },
        {
            "type": "note_off",
            "note": 62,
            "velocity": 71,
            "time": 2359
        },
        {
            "type": "note_off",
            "note": 65,
            "velocity": 81,
            "time": 2364
        },
        {
            "type": "note_off",
            "note": 60,
            "velocity": 64,
            "time": 2373
        },
        {
            "type": "note_on",
            "note": 62,
            "velocity": 74,
            "time": 2946
        },
        {
            "type": "note_on",
            "note": 60,
            "velocity": 72,
            "time": 2961
        },
        {
            "type": "note_on",
            "note": 65,
            "velocity": 49,
            "time": 2963
        },
        {
            "type": "note_on",
            "note": 57,
            "velocity": 58,
            "time": 2976
        },
        {
            "type": "note_off",
            "note": 62,
            "velocity": 93,
            "time": 3606
        },
        {
            "type": "note_off",
            "note": 65,
            "velocity": 86,
            "time": 3643
        },
        {
            "type": "note_off",
            "note": 57,
            "velocity": 81,
            "time": 3659
        },
        {
            "type": "note_off",
            "note": 60,
            "velocity": 87,
            "time": 3669
        },
        {
            "type": "note_on",
            "note": 63,
            "velocity": 78,
            "time": 4035
        },
        {
            "type": "note_on",
            "note": 67,
            "velocity": 64,
            "time": 4048
        },
        {
            "type": "note_on",
            "note": 57,
            "velocity": 76,
            "time": 4058
        },
        {
            "type": "note_on",
            "note": 60,
            "velocity": 74,
            "time": 4061
        },
        {
            "type": "note_off",
            "note": 60,
            "velocity": 94,
            "time": 5498
        },
        {
            "type": "note_off",
            "note": 67,
            "velocity": 72,
            "time": 5499
        },
        {
            "type": "note_off",
            "note": 57,
            "velocity": 95,
            "time": 5502
        },
        {
            "type": "note_off",
            "note": 63,
            "velocity": 82,
            "time": 5505
        },
        {
            "type": "note_on",
            "note": 79,
            "velocity": 84,
            "time": 574
        },
        {
            "type": "note_off",
            "note": 79,
            "velocity": 96,
            "time": 764
        },
        {
            "type": "note_on",
            "note": 75,
            "velocity": 69,
            "time": 901
        },
        {
            "type": "note_on",
            "note": 69,
            "velocity": 62,
            "time": 1132
        },
        {
            "type": "note_off",
            "note": 75,
            "velocity": 63,
            "time": 1134
        },
        {
            "type": "note_off",
            "note": 69,
            "velocity": 73,
            "time": 1405
        },
        {
            "type": "note_on",
            "note": 72,
            "velocity": 51,
            "time": 1429
        },
        {
            "type": "note_off",
            "note": 72,
            "velocity": 90,
            "time": 1575
        },
        {
            "type": "note_on",
            "note": 74,
            "velocity": 83,
            "time": 1645
        },
        {
            "type": "note_off",
            "note": 74,
            "velocity": 92,
            "time": 1812
        },
        {
            "type": "note_on",
            "note": 74,
            "velocity": 44,
            "time": 2017
        },
        {
            "type": "note_off",
            "note": 74,
            "velocity": 80,
            "time": 2169
        },
        {
            "type": "note_on",
            "note": 77,
            "velocity": 94,
            "time": 2222
        },
        {
            "type": "note_off",
            "note": 77,
            "velocity": 72,
            "time": 2466
        },
        {
            "type": "note_on",
            "note": 74,
            "velocity": 93,
            "time": 2767
        },
        {
            "type": "note_off",
            "note": 74,
            "velocity": 75,
            "time": 3020
        },
        {
            "type": "note_on",
            "note": 72,
            "velocity": 78,
            "time": 3125
        },
        {
            "type": "note_off",
            "note": 72,
            "velocity": 80,
            "time": 3863
        },
        {
            "type": "note_on",
            "note": 69,
            "velocity": 65,
            "time": 3910
        },
        {
            "type": "note_off",
            "note": 69,
            "velocity": 74,
            "time": 4119
        },
        {
            "type": "note_on",
            "note": 74,
            "velocity": 86,
            "time": 4202
        },
        {
            "type": "note_off",
            "note": 74,
            "velocity": 96,
            "time": 4361
        },
        {
            "type": "note_on",
            "note": 69,
            "velocity": 74,
            "time": 4394
        },
        {
            "type": "note_off",
            "note": 69,
            "velocity": 93,
            "time": 5247
        }
    ],
    "notes": [
        {
            "type": "note_on",
            "note": 79,
            "velocity": 84,
            "time": 574
        },
        {
            "type": "note_off",
            "note": 79,
            "velocity": 96,
            "time": 764
        },
        {
            "type": "note_on",
            "note": 75,
            "velocity": 69,
            "time": 901
        },
        {
            "type": "note_on",
            "note": 69,
            "velocity": 62,
            "time": 1131
        },
        {
            "type": "note_off",
            "note": 75,
            "velocity": 63,
            "time": 1134
        },
        {
            "type": "note_off",
            "note": 69,
            "velocity": 73,
            "time": 1404
        },
        {
            "type": "note_on",
            "note": 72,
            "velocity": 51,
            "time": 1428
        },
        {
            "type": "note_off",
            "note": 72,
            "velocity": 90,
            "time": 1575
        },
        {
            "type": "note_on",
            "note": 74,
            "velocity": 83,
            "time": 1645
        },
        {
            "type": "note_off",
            "note": 74,
            "velocity": 92,
            "time": 1812
        },
        {
            "type": "note_on",
            "note": 74,
            "velocity": 44,
            "time": 2017
        },
        {
            "type": "note_off",
            "note": 74,
            "velocity": 80,
            "time": 2169
        },
        {
            "type": "note_on",
            "note": 77,
            "velocity": 94,
            "time": 2222
        },
        {
            "type": "note_off",
            "note": 77,
            "velocity": 72,
            "time": 2466
        },
        {
            "type": "note_on",
            "note": 74,
            "velocity": 93,
            "time": 2766
        },
        {
            "type": "note_off",
            "note": 74,
            "velocity": 75,
            "time": 3019
        },
        {
            "type": "note_on",
            "note": 72,
            "velocity": 78,
            "time": 3124
        },
        {
            "type": "note_off",
            "note": 72,
            "velocity": 80,
            "time": 3862
        },
        {
            "type": "note_on",
            "note": 69,
            "velocity": 65,
            "time": 3909
        },
        {
            "type": "note_off",
            "note": 69,
            "velocity": 74,
            "time": 4118
        },
        {
            "type": "note_on",
            "note": 74,
            "velocity": 86,
            "time": 4201
        },
        {
            "type": "note_off",
            "note": 74,
            "velocity": 96,
            "time": 4360
        },
        {
            "type": "note_on",
            "note": 69,
            "velocity": 74,
            "time": 4393
        },
        {
            "type": "note_off",
            "note": 69,
            "velocity": 93,
            "time": 5246
        }
    ],
    "duration": 6049
}