{
    "bass": 43,
    "type": "minor",
    "backtrack": "/home/pi/raspiKeys/res/backtracks/processed_wav/Groove Loop_02 100 BPM.wav",
    "backtrackDuration": 4.833469390869141,
    "nbOfLoops": 2,
    "chord_notes": [
        {
            "type": "note_on",
            "note": 48,
            "velocity": 72,
            "time": 0
        },
        {
            "type": "note_on",
            "note": 58,
            "velocity": 67,
            "time": 4
        },
        {
            "type": "note_on",
            "note": 63,
            "velocity": 67,
            "time": 4
        },
        {
            "type": "note_on",
            "note": 62,
            "velocity": 69,
            "time": 8
        },
        {
            "type": "note_on",
            "note": 67,
            "velocity": 63,
            "time": 10
        },
        {
            "type": "note_off",
            "note": 62,
            "velocity": 90,
            "time": 748
        },
        {
            "type": "note_off",
            "note": 48,
            "velocity": 87,
            "time": 812
        },
        {
            "type": "note_off",
            "note": 58,
            "velocity": 97,
            "time": 813
        },
        {
            "type": "note_off",
            "note": 67,
            "velocity": 70,
            "time": 843
        },
        {
            "type": "note_off",
            "note": 63,
            "velocity": 23,
            "time": 1018
        },
        {
            "type": "note_on",
            "note": 57,
            "velocity": 66,
            "time": 1295
        },
        {
            "type": "note_on",
            "note": 63,
            "velocity": 73,
            "time": 1296
        },
        {
            "type": "note_on",
            "note": 41,
            "velocity": 72,
            "time": 1300
        },
        {
            "type": "note_on",
            "note": 67,
            "velocity": 60,
            "time": 1306
        },
        {
            "type": "note_on",
            "note": 60,
            "velocity": 70,
            "time": 1316
        },
        {
            "type": "note_off",
            "note": 57,
            "velocity": 58,
            "time": 1933
        },
        {
            "type": "note_off",
            "note": 67,
            "velocity": 88,
            "time": 1938
        },
        {
            "type": "note_off",
            "note": 60,
            "velocity": 89,
            "time": 1961
        },
        {
            "type": "note_off",
            "note": 63,
            "velocity": 90,
            "time": 1976
        },
        {
            "type": "note_off",
            "note": 41,
            "velocity": 80,
            "time": 2006
        },
        {
            "type": "note_on",
            "note": 46,
            "velocity": 64,
            "time": 2496
        },
        {
            "type": "note_on",
            "note": 65,
            "velocity": 62,
            "time": 2499
        },
        {
            "type": "note_on",
            "note": 58,
            "velocity": 59,
            "time": 2499
        },
        {
            "type": "note_on",
            "note": 62,
            "velocity": 70,
            "time": 2507
        },
        {
            "type": "note_on",
            "note": 57,
            "velocity": 71,
            "time": 2512
        },
        {
            "type": "note_on",
            "note": 53,
            "velocity": 60,
            "time": 2515
        },
        {
            "type": "note_off",
            "note": 53,
            "velocity": 87,
            "time": 3061
        },
        {
            "type": "note_off",
            "note": 57,
            "velocity": 83,
            "time": 3066
        },
        {
            "type": "note_off",
            "note": 62,
            "velocity": 88,
            "time": 3070
        },
        {
            "type": "note_off",
            "note": 58,
            "velocity": 99,
            "time": 3084
        },
        {
            "type": "note_off",
            "note": 65,
            "velocity": 94,
            "time": 3101
        },
        {
            "type": "note_off",
            "note": 46,
            "velocity": 97,
            "time": 3150
        },
        {
            "type": "note_on",
            "note": 62,
            "velocity": 74,
            "time": 3698
        },
        {
            "type": "note_on",
            "note": 39,
            "velocity": 61,
            "time": 3702
        },
        {
            "type": "note_on",
            "note": 63,
            "velocity": 63,
            "time": 3702
        },
        {
            "type": "note_on",
            "note": 58,
            "velocity": 58,
            "time": 3705
        },
        {
            "type": "note_on",
            "note": 67,
            "velocity": 54,
            "time": 3712
        },
        {
            "type": "note_on",
            "note": 51,
            "velocity": 43,
            "time": 3726
        },
        {
            "type": "note_off",
            "note": 62,
            "velocity": 88,
            "time": 4294
        },
        {
            "type": "note_off",
            "note": 39,
            "velocity": 87,
            "time": 4319
        },
        {
            "type": "note_off",
            "note": 58,
            "velocity": 100,
            "time": 4351
        },
        {
            "type": "note_off",
            "note": 51,
            "velocity": 89,
            "time": 4389
        },
        {
            "type": "note_off",
            "note": 63,
            "velocity": 20,
            "time": 4563
        },
        {
            "type": "note_off",
            "note": 67,
            "velocity": 16,
            "time": 4587
        },
        {
            "type": "note_on",
            "note": 63,
            "velocity": 68,
            "time": 4850
        },
        {
            "type": "note_on",
            "note": 57,
            "velocity": 68,
            "time": 4851
        },
        {
            "type": "note_on",
            "note": 67,
            "velocity": 58,
            "time": 4858
        },
        {
            "type": "note_on",
            "note": 60,
            "velocity": 61,
            "time": 4860
        },
        {
            "type": "note_on",
            "note": 45,
            "velocity": 60,
            "time": 4879
        },
        {
            "type": "note_off",
            "note": 57,
            "velocity": 71,
            "time": 5456
        },
        {
            "type": "note_off",
            "note": 67,
            "velocity": 88,
            "time": 5471
        },
        {
            "type": "note_off",
            "note": 60,
            "velocity": 93,
            "time": 5479
        },
        {
            "type": "note_off",
            "note": 63,
            "velocity": 76,
            "time": 5506
        },
        {
            "type": "note_off",
            "note": 45,
            "velocity": 92,
            "time": 5520
        },
        {
            "type": "note_on",
            "note": 38,
            "velocity": 66,
            "time": 6084
        },
        {
            "type": "note_on",
            "note": 60,
            "velocity": 60,
            "time": 6099
        },
        {
            "type": "note_on",
            "note": 66,
            "velocity": 63,
            "time": 6108
        },
        {
            "type": "note_on",
            "note": 57,
            "velocity": 58,
            "time": 6110
        },
        {
            "type": "note_on",
            "note": 62,
            "velocity": 68,
            "time": 6119
        },
        {
            "type": "note_on",
            "note": 50,
            "velocity": 40,
            "time": 6141
        },
        {
            "type": "note_off",
            "note": 38,
            "velocity": 85,
            "time": 6627
        },
        {
            "type": "note_off",
            "note": 62,
            "velocity": 87,
            "time": 6645
        },
        {
            "type": "note_off",
            "note": 57,
            "velocity": 74,
            "time": 6661
        },
        {
            "type": "note_off",
            "note": 60,
            "velocity": 95,
            "time": 6663
        },
        {
            "type": "note_off",
            "note": 66,
            "velocity": 72,
            "time": 6681
        },
        {
            "type": "note_off",
            "note": 50,
            "velocity": 87,
            "time": 6689
        },
        {
            "type": "note_on",
            "note": 62,
            "velocity": 75,
            "time": 7286
        },
        {
            "type": "note_on",
            "note": 55,
            "velocity": 55,
            "time": 7296
        },
        {
            "type": "note_on",
            "note": 58,
            "velocity": 63,
            "time": 7296
        },
        {
            "type": "note_on",
            "note": 43,
            "velocity": 54,
            "time": 7314
        },
        {
            "type": "note_on",
            "note": 50,
            "velocity": 57,
            "time": 7321
        },
        {
            "type": "note_off",
            "note": 43,
            "velocity": 87,
            "time": 8054
        },
        {
            "type": "note_off",
            "note": 58,
            "velocity": 83,
            "time": 8078
        },
        {
            "type": "note_off",
            "note": 62,
            "velocity": 85,
            "time": 8081
        },
        {
            "type": "note_off",
            "note": 55,
            "velocity": 82,
            "time": 8084
        },
        {
            "type": "note_off",
            "note": 50,
            "velocity": 79,
            "time": 8088
        },
        {
            "type": "note_on",
            "note": 58,
            "velocity": 76,
            "time": 8242
        },
        {
            "type": "note_on",
            "note": 55,
            "velocity": 75,
            "time": 8247
        },
        {
            "type": "note_on",
            "note": 62,
            "velocity": 81,
            "time": 8249
        },
        {
            "type": "note_on",
            "note": 43,
            "velocity": 73,
            "time": 8268
        },
        {
            "type": "note_on",
            "note": 50,
            "velocity": 60,
            "time": 8270
        },
        {
            "type": "note_off",
            "note": 43,
            "velocity": 80,
            "time": 8351
        },
        {
            "type": "note_off",
            "note": 50,
            "velocity": 83,
            "time": 8385
        },
        {
            "type": "note_off",
            "note": 55,
            "velocity": 78,
            "time": 8387
        },
        {
            "type": "note_off",
            "note": 58,
            "velocity": 80,
            "time": 8396
        },
        {
            "type": "note_off",
            "note": 62,
            "velocity": 88,
            "time": 8405
        },
        {
            "type": "note_on",
            "note": 58,
            "velocity": 69,
            "time": 8837
        },
        {
            "type": "note_on",
            "note": 50,
            "velocity": 72,
            "time": 8840
        },
        {
            "type": "note_on",
            "note": 62,
            "velocity": 88,
            "time": 8840
        },
        {
            "type": "note_on",
            "note": 55,
            "velocity": 72,
            "time": 8856
        },
        {
            "type": "note_on",
            "note": 43,
            "velocity": 67,
            "time": 8860
        },
        {
            "type": "note_off",
            "note": 43,
            "velocity": 87,
            "time": 9091
        },
        {
            "type": "note_off",
            "note": 55,
            "velocity": 84,
            "time": 9095
        },
        {
            "type": "note_off",
            "note": 58,
            "velocity": 94,
            "time": 9104
        },
        {
            "type": "note_off",
            "note": 50,
            "velocity": 93,
            "time": 9111
        },
        {
            "type": "note_off",
            "note": 62,
            "velocity": 90,
            "time": 9114
        }
    ],
    "notes": [],
    "volumeBacktrack": 1.0
}