{
    "bass": 60,
    "type": "major",
    "backtrack": "/home/pi/raspiKeys/res/backtracks/processed_wav/loop_05.wav",
    "backtrackDuration": 4.43009090423584,
    "nbOfLoops": 2,
    "chord_notes": [
        {
            "type": "note_on",
            "note": 64,
            "velocity": 62,
            "time": 0
        },
        {
            "type": "note_on",
            "note": 71,
            "velocity": 68,
            "time": 0
        },
        {
            "type": "note_on",
            "note": 67,
            "velocity": 52,
            "time": 3
        },
        {
            "type": "note_on",
            "note": 60,
            "velocity": 45,
            "time": 17
        },
        {
            "type": "note_off",
            "note": 67,
            "velocity": 74,
            "time": 525
        },
        {
            "type": "note_off",
            "note": 71,
            "velocity": 77,
            "time": 530
        },
        {
            "type": "note_off",
            "note": 64,
            "velocity": 75,
            "time": 532
        },
        {
            "type": "note_off",
            "note": 60,
            "velocity": 83,
            "time": 535
        },
        {
            "type": "note_on",
            "note": 65,
            "velocity": 47,
            "time": 951
        },
        {
            "type": "note_on",
            "note": 61,
            "velocity": 63,
            "time": 973
        },
        {
            "type": "note_on",
            "note": 72,
            "velocity": 40,
            "time": 981
        },
        {
            "type": "note_on",
            "note": 68,
            "velocity": 31,
            "time": 1013
        },
        {
            "type": "note_off",
            "note": 72,
            "velocity": 63,
            "time": 2717
        },
        {
            "type": "note_off",
            "note": 68,
            "velocity": 73,
            "time": 2737
        },
        {
            "type": "note_off",
            "note": 65,
            "velocity": 62,
            "time": 2800
        },
        {
            "type": "note_off",
            "note": 61,
            "velocity": 68,
            "time": 2867
        },
        {
            "type": "note_on",
            "note": 68,
            "velocity": 77,
            "time": 3122
        },
        {
            "type": "note_on",
            "note": 65,
            "velocity": 55,
            "time": 3134
        },
        {
            "type": "note_on",
            "note": 61,
            "velocity": 60,
            "time": 3144
        },
        {
            "type": "note_on",
            "note": 72,
            "velocity": 54,
            "time": 3144
        },
        {
            "type": "note_off",
            "note": 65,
            "velocity": 64,
            "time": 3238
        },
        {
            "type": "note_off",
            "note": 68,
            "velocity": 90,
            "time": 3258
        },
        {
            "type": "note_off",
            "note": 72,
            "velocity": 83,
            "time": 3273
        },
        {
            "type": "note_off",
            "note": 61,
            "velocity": 82,
            "time": 3333
        },
        {
            "type": "note_on",
            "note": 60,
            "velocity": 43,
            "time": 3930
        },
        {
            "type": "note_on",
            "note": 71,
            "velocity": 56,
            "time": 3935
        },
        {
            "type": "note_on",
            "note": 64,
            "velocity": 39,
            "time": 3952
        },
        {
            "type": "note_on",
            "note": 67,
            "velocity": 43,
            "time": 3969
        },
        {
            "type": "note_off",
            "note": 67,
            "velocity": 58,
            "time": 4514
        },
        {
            "type": "note_off",
            "note": 64,
            "velocity": 59,
            "time": 4558
        },
        {
            "type": "note_off",
            "note": 71,
            "velocity": 61,
            "time": 4578
        },
        {
            "type": "note_off",
            "note": 60,
            "velocity": 71,
            "time": 4591
        },
        {
            "type": "note_on",
            "note": 64,
            "velocity": 61,
            "time": 4814
        },
        {
            "type": "note_on",
            "note": 67,
            "velocity": 64,
            "time": 4816
        },
        {
            "type": "note_on",
            "note": 71,
            "velocity": 67,
            "time": 4816
        },
        {
            "type": "note_on",
            "note": 60,
            "velocity": 60,
            "time": 4819
        },
        {
            "type": "note_off",
            "note": 60,
            "velocity": 48,
            "time": 4957
        },
        {
            "type": "note_off",
            "note": 71,
            "velocity": 64,
            "time": 4961
        },
        {
            "type": "note_off",
            "note": 67,
            "velocity": 87,
            "time": 4973
        },
        {
            "type": "note_off",
            "note": 64,
            "velocity": 35,
            "time": 4977
        },
        {
            "type": "note_on",
            "note": 65,
            "velocity": 55,
            "time": 5886
        },
        {
            "type": "note_on",
            "note": 61,
            "velocity": 58,
            "time": 5890
        },
        {
            "type": "note_on",
            "note": 72,
            "velocity": 45,
            "time": 5897
        },
        {
            "type": "note_on",
            "note": 68,
            "velocity": 50,
            "time": 5898
        },
        {
            "type": "note_on",
            "note": 61,
            "velocity": 1,
            "time": 6243
        },
        {
            "type": "note_off",
            "note": 72,
            "velocity": 127,
            "time": 6674
        },
        {
            "type": "note_off",
            "note": 65,
            "velocity": 51,
            "time": 6738
        },
        {
            "type": "note_off",
            "note": 68,
            "velocity": 37,
            "time": 6742
        },
        {
            "type": "note_off",
            "note": 61,
            "velocity": 28,
            "time": 6785
        },
        {
            "type": "note_off",
            "note": 61,
            "velocity": 28,
            "time": 6787
        },
        {
            "type": "note_on",
            "note": 65,
            "velocity": 45,
            "time": 7001
        },
        {
            "type": "note_on",
            "note": 72,
            "velocity": 50,
            "time": 7004
        },
        {
            "type": "note_on",
            "note": 68,
            "velocity": 43,
            "time": 7017
        },
        {
            "type": "note_on",
            "note": 61,
            "velocity": 36,
            "time": 7022
        },
        {
            "type": "note_off",
            "note": 61,
            "velocity": 64,
            "time": 7135
        },
        {
            "type": "note_off",
            "note": 68,
            "velocity": 47,
            "time": 7153
        },
        {
            "type": "note_off",
            "note": 72,
            "velocity": 56,
            "time": 7158
        },
        {
            "type": "note_off",
            "note": 65,
            "velocity": 83,
            "time": 7181
        },
        {
            "type": "note_on",
            "note": 65,
            "velocity": 55,
            "time": 7548
        },
        {
            "type": "note_on",
            "note": 61,
            "velocity": 63,
            "time": 7560
        },
        {
            "type": "note_on",
            "note": 68,
            "velocity": 57,
            "time": 7565
        },
        {
            "type": "note_on",
            "note": 72,
            "velocity": 39,
            "time": 7572
        },
        {
            "type": "note_off",
            "note": 65,
            "velocity": 85,
            "time": 7913
        },
        {
            "type": "note_off",
            "note": 72,
            "velocity": 74,
            "time": 7917
        },
        {
            "type": "note_off",
            "note": 61,
            "velocity": 90,
            "time": 7950
        },
        {
            "type": "note_off",
            "note": 68,
            "velocity": 70,
            "time": 7952
        }
    ],
    "notes": [
        {
            "type": "note_on",
            "note": 72,
            "velocity": 69,
            "time": 4765
        },
        {
            "type": "note_on",
            "note": 75,
            "velocity": 63,
            "time": 5049
        },
        {
            "type": "note_off",
            "note": 72,
            "velocity": 67,
            "time": 5130
        },
        {
            "type": "note_off",
            "note": 75,
            "velocity": 61,
            "time": 5342
        },
        {
            "type": "note_on",
            "note": 79,
            "velocity": 52,
            "time": 5358
        },
        {
            "type": "note_off",
            "note": 79,
            "velocity": 62,
            "time": 5564
        },
        {
            "type": "note_on",
            "note": 82,
            "velocity": 60,
            "time": 6145
        },
        {
            "type": "note_off",
            "note": 82,
            "velocity": 99,
            "time": 6460
        },
        {
            "type": "note_on",
            "note": 81,
            "velocity": 43,
            "time": 6497
        },
        {
            "type": "note_off",
            "note": 81,
            "velocity": 64,
            "time": 6998
        },
        {
            "type": "note_on",
            "note": 79,
            "velocity": 62,
            "time": 7039
        },
        {
            "type": "note_off",
            "note": 79,
            "velocity": 68,
            "time": 7310
        },
        {
            "type": "note_on",
            "note": 77,
            "velocity": 66,
            "time": 7644
        },
        {
            "type": "note_off",
            "note": 77,
            "velocity": 82,
            "time": 7766
        },
        {
            "type": "note_on",
            "note": 75,
            "velocity": 61,
            "time": 8118
        },
        {
            "type": "note_off",
            "note": 75,
            "velocity": 93,
            "time": 8242
        },
        {
            "type": "note_on",
            "note": 72,
            "velocity": 63,
            "time": 8627
        },
        {
            "type": "note_off",
            "note": 72,
            "velocity": 92,
            "time": 8810
        }
    ],
    "duration": 10311
}