{
    "bass": 60,
    "type": "major",
    "backtrack": "/home/pi/raspiKeys/res/backtracks/processed_wav/hard and rocking (ny).wav",
    "backtrackDuration": 5.3698410987854,
    "nbOfLoops": 2,
    "chord_notes": [
        {
            "type": "note_on",
            "note": 65,
            "velocity": 74,
            "time": 0
        },
        {
            "type": "note_on",
            "note": 58,
            "velocity": 78,
            "time": 6
        },
        {
            "type": "note_on",
            "note": 50,
            "velocity": 68,
            "time": 8
        },
        {
            "type": "note_on",
            "note": 62,
            "velocity": 81,
            "time": 10
        },
        {
            "type": "note_on",
            "note": 57,
            "velocity": 81,
            "time": 13
        },
        {
            "type": "note_on",
            "note": 43,
            "velocity": 64,
            "time": 23
        },
        {
            "type": "note_on",
            "note": 65,
            "velocity": 1,
            "time": 2011
        },
        {
            "type": "note_off",
            "note": 65,
            "velocity": 85,
            "time": 2322
        },
        {
            "type": "note_off",
            "note": 65,
            "velocity": 85,
            "time": 2323
        },
        {
            "type": "note_off",
            "note": 62,
            "velocity": 60,
            "time": 2356
        },
        {
            "type": "note_off",
            "note": 57,
            "velocity": 48,
            "time": 2400
        },
        {
            "type": "note_off",
            "note": 43,
            "velocity": 37,
            "time": 2528
        },
        {
            "type": "note_off",
            "note": 50,
            "velocity": 83,
            "time": 2542
        },
        {
            "type": "note_off",
            "note": 58,
            "velocity": 66,
            "time": 2603
        },
        {
            "type": "note_on",
            "note": 58,
            "velocity": 68,
            "time": 2744
        },
        {
            "type": "note_on",
            "note": 48,
            "velocity": 72,
            "time": 2750
        },
        {
            "type": "note_on",
            "note": 55,
            "velocity": 69,
            "time": 2757
        },
        {
            "type": "note_on",
            "note": 64,
            "velocity": 76,
            "time": 2761
        },
        {
            "type": "note_on",
            "note": 60,
            "velocity": 68,
            "time": 2765
        },
        {
            "type": "note_off",
            "note": 60,
            "velocity": 87,
            "time": 2976
        },
        {
            "type": "note_off",
            "note": 58,
            "velocity": 81,
            "time": 2985
        },
        {
            "type": "note_off",
            "note": 48,
            "velocity": 88,
            "time": 2996
        },
        {
            "type": "note_off",
            "note": 55,
            "velocity": 79,
            "time": 2997
        },
        {
            "type": "note_off",
            "note": 64,
            "velocity": 72,
            "time": 3015
        },
        {
            "type": "note_on",
            "note": 58,
            "velocity": 78,
            "time": 3659
        },
        {
            "type": "note_on",
            "note": 48,
            "velocity": 72,
            "time": 3668
        },
        {
            "type": "note_on",
            "note": 64,
            "velocity": 78,
            "time": 3673
        },
        {
            "type": "note_on",
            "note": 55,
            "velocity": 72,
            "time": 3680
        },
        {
            "type": "note_on",
            "note": 60,
            "velocity": 71,
            "time": 3695
        },
        {
            "type": "note_off",
            "note": 58,
            "velocity": 84,
            "time": 4771
        },
        {
            "type": "note_off",
            "note": 48,
            "velocity": 83,
            "time": 5158
        },
        {
            "type": "note_off",
            "note": 55,
            "velocity": 75,
            "time": 5180
        },
        {
            "type": "note_off",
            "note": 60,
            "velocity": 18,
            "time": 5182
        },
        {
            "type": "note_off",
            "note": 64,
            "velocity": 34,
            "time": 5282
        },
        {
            "type": "note_on",
            "note": 55,
            "velocity": 86,
            "time": 5365
        },
        {
            "type": "note_on",
            "note": 41,
            "velocity": 74,
            "time": 5378
        },
        {
            "type": "note_on",
            "note": 57,
            "velocity": 72,
            "time": 5401
        },
        {
            "type": "note_on",
            "note": 60,
            "velocity": 77,
            "time": 5402
        },
        {
            "type": "note_on",
            "note": 64,
            "velocity": 80,
            "time": 5419
        },
        {
            "type": "note_off",
            "note": 64,
            "velocity": 74,
            "time": 6928
        },
        {
            "type": "note_off",
            "note": 60,
            "velocity": 15,
            "time": 6967
        },
        {
            "type": "note_off",
            "note": 55,
            "velocity": 76,
            "time": 6978
        },
        {
            "type": "note_off",
            "note": 41,
            "velocity": 74,
            "time": 6982
        },
        {
            "type": "note_off",
            "note": 57,
            "velocity": 62,
            "time": 7011
        },
        {
            "type": "note_on",
            "note": 57,
            "velocity": 82,
            "time": 7069
        },
        {
            "type": "note_on",
            "note": 64,
            "velocity": 80,
            "time": 7070
        },
        {
            "type": "note_on",
            "note": 55,
            "velocity": 86,
            "time": 7071
        },
        {
            "type": "note_on",
            "note": 41,
            "velocity": 90,
            "time": 7079
        },
        {
            "type": "note_on",
            "note": 60,
            "velocity": 79,
            "time": 7083
        },
        {
            "type": "note_on",
            "note": 48,
            "velocity": 57,
            "time": 7112
        },
        {
            "type": "note_off",
            "note": 48,
            "velocity": 88,
            "time": 7249
        },
        {
            "type": "note_off",
            "note": 41,
            "velocity": 85,
            "time": 7298
        },
        {
            "type": "note_off",
            "note": 57,
            "velocity": 90,
            "time": 7304
        },
        {
            "type": "note_off",
            "note": 60,
            "velocity": 63,
            "time": 7315
        },
        {
            "type": "note_off",
            "note": 64,
            "velocity": 87,
            "time": 7325
        },
        {
            "type": "note_off",
            "note": 55,
            "velocity": 54,
            "time": 7330
        },
        {
            "type": "note_on",
            "note": 65,
            "velocity": 77,
            "time": 8042
        },
        {
            "type": "note_on",
            "note": 57,
            "velocity": 82,
            "time": 8045
        },
        {
            "type": "note_on",
            "note": 46,
            "velocity": 70,
            "time": 8053
        },
        {
            "type": "note_on",
            "note": 53,
            "velocity": 69,
            "time": 8056
        },
        {
            "type": "note_on",
            "note": 58,
            "velocity": 82,
            "time": 8056
        },
        {
            "type": "note_on",
            "note": 62,
            "velocity": 84,
            "time": 8058
        },
        {
            "type": "note_off",
            "note": 57,
            "velocity": 69,
            "time": 8392
        },
        {
            "type": "note_off",
            "note": 62,
            "velocity": 77,
            "time": 8394
        },
        {
            "type": "note_off",
            "note": 53,
            "velocity": 83,
            "time": 8399
        },
        {
            "type": "note_off",
            "note": 58,
            "velocity": 77,
            "time": 8399
        },
        {
            "type": "note_off",
            "note": 65,
            "velocity": 79,
            "time": 8411
        },
        {
            "type": "note_off",
            "note": 46,
            "velocity": 79,
            "time": 8420
        },
        {
            "type": "note_on",
            "note": 58,
            "velocity": 87,
            "time": 9063
        },
        {
            "type": "note_on",
            "note": 65,
            "velocity": 82,
            "time": 9063
        },
        {
            "type": "note_on",
            "note": 46,
            "velocity": 84,
            "time": 9070
        },
        {
            "type": "note_on",
            "note": 53,
            "velocity": 79,
            "time": 9070
        },
        {
            "type": "note_on",
            "note": 57,
            "velocity": 82,
            "time": 9072
        },
        {
            "type": "note_on",
            "note": 62,
            "velocity": 86,
            "time": 9075
        },
        {
            "type": "note_off",
            "note": 46,
            "velocity": 90,
            "time": 9564
        },
        {
            "type": "note_off",
            "note": 53,
            "velocity": 80,
            "time": 9565
        },
        {
            "type": "note_off",
            "note": 62,
            "velocity": 63,
            "time": 9590
        },
        {
            "type": "note_off",
            "note": 57,
            "velocity": 64,
            "time": 9603
        },
        {
            "type": "note_off",
            "note": 58,
            "velocity": 75,
            "time": 9603
        },
        {
            "type": "note_off",
            "note": 65,
            "velocity": 84,
            "time": 9604
        },
        {
            "type": "note_on",
            "note": 58,
            "velocity": 84,
            "time": 9750
        },
        {
            "type": "note_on",
            "note": 65,
            "velocity": 71,
            "time": 9752
        },
        {
            "type": "note_on",
            "note": 46,
            "velocity": 88,
            "time": 9752
        },
        {
            "type": "note_on",
            "note": 57,
            "velocity": 73,
            "time": 9761
        },
        {
            "type": "note_on",
            "note": 62,
            "velocity": 85,
            "time": 9761
        },
        {
            "type": "note_on",
            "note": 53,
            "velocity": 88,
            "time": 9765
        },
        {
            "type": "note_off",
            "note": 53,
            "velocity": 97,
            "time": 10157
        },
        {
            "type": "note_off",
            "note": 57,
            "velocity": 93,
            "time": 10159
        },
        {
            "type": "note_off",
            "note": 58,
            "velocity": 93,
            "time": 10164
        },
        {
            "type": "note_off",
            "note": 46,
            "velocity": 97,
            "time": 10167
        },
        {
            "type": "note_off",
            "note": 62,
            "velocity": 89,
            "time": 10171
        },
        {
            "type": "note_off",
            "note": 65,
            "velocity": 97,
            "time": 10178
        }
    ],
    "notes": [
        {
            "type": "note_on",
            "note": 58,
            "velocity": 96,
            "time": 703
        },
        {
            "type": "note_off",
            "note": 58,
            "velocity": 100,
            "time": 987
        },
        {
            "type": "note_on",
            "note": 62,
            "velocity": 87,
            "time": 1059
        },
        {
            "type": "note_off",
            "note": 62,
            "velocity": 87,
            "time": 1240
        },
        {
            "type": "note_on",
            "note": 65,
            "velocity": 90,
            "time": 1279
        },
        {
            "type": "note_off",
            "note": 65,
            "velocity": 90,
            "time": 1409
        },
        {
            "type": "note_on",
            "note": 69,
            "velocity": 94,
            "time": 1636
        },
        {
            "type": "note_off",
            "note": 69,
            "velocity": 99,
            "time": 1799
        },
        {
            "type": "note_on",
            "note": 70,
            "velocity": 88,
            "time": 1975
        },
        {
            "type": "note_off",
            "note": 70,
            "velocity": 83,
            "time": 2171
        },
        {
            "type": "note_on",
            "note": 72,
            "velocity": 88,
            "time": 2296
        },
        {
            "type": "note_off",
            "note": 72,
            "velocity": 93,
            "time": 2470
        },
        {
            "type": "note_on",
            "note": 76,
            "velocity": 103,
            "time": 2630
        },
        {
            "type": "note_off",
            "note": 76,
            "velocity": 84,
            "time": 3185
        },
        {
            "type": "note_on",
            "note": 79,
            "velocity": 85,
            "time": 3423
        },
        {
            "type": "note_on",
            "note": 77,
            "velocity": 87,
            "time": 3425
        },
        {
            "type": "note_off",
            "note": 79,
            "velocity": 84,
            "time": 3622
        },
        {
            "type": "note_off",
            "note": 77,
            "velocity": 90,
            "time": 3624
        },
        {
            "type": "note_on",
            "note": 72,
            "velocity": 69,
            "time": 3706
        },
        {
            "type": "note_on",
            "note": 74,
            "velocity": 84,
            "time": 3898
        },
        {
            "type": "note_off",
            "note": 72,
            "velocity": 69,
            "time": 3914
        },
        {
            "type": "note_off",
            "note": 74,
            "velocity": 95,
            "time": 4023
        },
        {
            "type": "note_on",
            "note": 76,
            "velocity": 90,
            "time": 4240
        },
        {
            "type": "note_off",
            "note": 76,
            "velocity": 83,
            "time": 4463
        },
        {
            "type": "note_on",
            "note": 79,
            "velocity": 85,
            "time": 4564
        },
        {
            "type": "note_off",
            "note": 79,
            "velocity": 98,
            "time": 4720
        },
        {
            "type": "note_on",
            "note": 81,
            "velocity": 91,
            "time": 4817
        },
        {
            "type": "note_off",
            "note": 81,
            "velocity": 68,
            "time": 5060
        },
        {
            "type": "note_on",
            "note": 84,
            "velocity": 87,
            "time": 5086
        },
        {
            "type": "note_off",
            "note": 84,
            "velocity": 81,
            "time": 5225
        },
        {
            "type": "note_on",
            "note": 86,
            "velocity": 101,
            "time": 5392
        },
        {
            "type": "note_off",
            "note": 86,
            "velocity": 85,
            "time": 5807
        },
        {
            "type": "note_on",
            "note": 88,
            "velocity": 85,
            "time": 5951
        },
        {
            "type": "note_off",
            "note": 88,
            "velocity": 89,
            "time": 6218
        },
        {
            "type": "note_on",
            "note": 81,
            "velocity": 75,
            "time": 6327
        },
        {
            "type": "note_off",
            "note": 81,
            "velocity": 86,
            "time": 6635
        },
        {
            "type": "note_on",
            "note": 77,
            "velocity": 81,
            "time": 6688
        },
        {
            "type": "note_off",
            "note": 77,
            "velocity": 92,
            "time": 6877
        },
        {
            "type": "note_on",
            "note": 79,
            "velocity": 98,
            "time": 7038
        },
        {
            "type": "note_off",
            "note": 79,
            "velocity": 95,
            "time": 7256
        },
        {
            "type": "note_on",
            "note": 81,
            "velocity": 84,
            "time": 7338
        },
        {
            "type": "note_off",
            "note": 81,
            "velocity": 98,
            "time": 7514
        },
        {
            "type": "note_on",
            "note": 74,
            "velocity": 61,
            "time": 7578
        },
        {
            "type": "note_off",
            "note": 74,
            "velocity": 74,
            "time": 7808
        },
        {
            "type": "note_on",
            "note": 72,
            "velocity": 51,
            "time": 7819
        },
        {
            "type": "note_off",
            "note": 72,
            "velocity": 90,
            "time": 7986
        },
        {
            "type": "note_on",
            "note": 75,
            "velocity": 87,
            "time": 8149
        },
        {
            "type": "note_off",
            "note": 75,
            "velocity": 87,
            "time": 9408
        },
        {
            "type": "note_on",
            "note": 74,
            "velocity": 76,
            "time": 9420
        },
        {
            "type": "note_off",
            "note": 74,
            "velocity": 92,
            "time": 10213
        }
    ]
}