{
    "bass": 45,
    "type": "minor",
    "backtrack": "/home/pi/raspiKeys/res/backtracks/processed_wav/96_HH_Groove_15.wav",
    "backtrackDuration": 4.992244720458984,
    "nbOfLoops": 8,
    "chord_notes": [
        {
            "type": "note_on",
            "note": 60,
            "velocity": 64,
            "time": 0
        },
        {
            "type": "note_on",
            "note": 57,
            "velocity": 65,
            "time": 1
        },
        {
            "type": "note_on",
            "note": 62,
            "velocity": 66,
            "time": 10
        },
        {
            "type": "note_on",
            "note": 50,
            "velocity": 64,
            "time": 17
        },
        {
            "type": "note_on",
            "note": 65,
            "velocity": 51,
            "time": 24
        },
        {
            "type": "note_off",
            "note": 60,
            "velocity": 89,
            "time": 652
        },
        {
            "type": "note_off",
            "note": 50,
            "velocity": 72,
            "time": 677
        },
        {
            "type": "note_off",
            "note": 57,
            "velocity": 67,
            "time": 688
        },
        {
            "type": "note_off",
            "note": 62,
            "velocity": 64,
            "time": 719
        },
        {
            "type": "note_off",
            "note": 65,
            "velocity": 63,
            "time": 738
        },
        {
            "type": "note_on",
            "note": 65,
            "velocity": 55,
            "time": 1250
        },
        {
            "type": "note_on",
            "note": 59,
            "velocity": 61,
            "time": 1263
        },
        {
            "type": "note_on",
            "note": 43,
            "velocity": 60,
            "time": 1268
        },
        {
            "type": "note_on",
            "note": 55,
            "velocity": 59,
            "time": 1268
        },
        {
            "type": "note_on",
            "note": 62,
            "velocity": 69,
            "time": 1271
        },
        {
            "type": "note_off",
            "note": 55,
            "velocity": 70,
            "time": 1898
        },
        {
            "type": "note_off",
            "note": 65,
            "velocity": 90,
            "time": 1918
        },
        {
            "type": "note_off",
            "note": 59,
            "velocity": 84,
            "time": 1930
        },
        {
            "type": "note_off",
            "note": 43,
            "velocity": 87,
            "time": 1932
        },
        {
            "type": "note_off",
            "note": 62,
            "velocity": 72,
            "time": 1981
        },
        {
            "type": "note_on",
            "note": 48,
            "velocity": 64,
            "time": 2541
        },
        {
            "type": "note_on",
            "note": 64,
            "velocity": 68,
            "time": 2545
        },
        {
            "type": "note_on",
            "note": 67,
            "velocity": 64,
            "time": 2549
        },
        {
            "type": "note_on",
            "note": 60,
            "velocity": 60,
            "time": 2555
        },
        {
            "type": "note_on",
            "note": 59,
            "velocity": 65,
            "time": 2563
        },
        {
            "type": "note_off",
            "note": 59,
            "velocity": 83,
            "time": 3104
        },
        {
            "type": "note_off",
            "note": 60,
            "velocity": 87,
            "time": 3132
        },
        {
            "type": "note_off",
            "note": 67,
            "velocity": 79,
            "time": 3134
        },
        {
            "type": "note_off",
            "note": 48,
            "velocity": 76,
            "time": 3148
        },
        {
            "type": "note_off",
            "note": 64,
            "velocity": 82,
            "time": 3163
        },
        {
            "type": "note_on",
            "note": 67,
            "velocity": 72,
            "time": 3810
        },
        {
            "type": "note_on",
            "note": 57,
            "velocity": 78,
            "time": 3814
        },
        {
            "type": "note_on",
            "note": 41,
            "velocity": 72,
            "time": 3816
        },
        {
            "type": "note_on",
            "note": 64,
            "velocity": 72,
            "time": 3821
        },
        {
            "type": "note_on",
            "note": 60,
            "velocity": 64,
            "time": 3825
        },
        {
            "type": "note_off",
            "note": 67,
            "velocity": 89,
            "time": 4352
        },
        {
            "type": "note_off",
            "note": 64,
            "velocity": 91,
            "time": 4386
        },
        {
            "type": "note_off",
            "note": 57,
            "velocity": 63,
            "time": 4398
        },
        {
            "type": "note_off",
            "note": 60,
            "velocity": 86,
            "time": 4433
        },
        {
            "type": "note_off",
            "note": 41,
            "velocity": 62,
            "time": 4518
        },
        {
            "type": "note_on",
            "note": 59,
            "velocity": 72,
            "time": 5027
        },
        {
            "type": "note_on",
            "note": 65,
            "velocity": 64,
            "time": 5030
        },
        {
            "type": "note_on",
            "note": 57,
            "velocity": 66,
            "time": 5043
        },
        {
            "type": "note_on",
            "note": 47,
            "velocity": 34,
            "time": 5047
        },
        {
            "type": "note_on",
            "note": 62,
            "velocity": 66,
            "time": 5050
        },
        {
            "type": "note_off",
            "note": 57,
            "velocity": 63,
            "time": 5589
        },
        {
            "type": "note_off",
            "note": 47,
            "velocity": 53,
            "time": 5631
        },
        {
            "type": "note_off",
            "note": 59,
            "velocity": 56,
            "time": 5666
        },
        {
            "type": "note_off",
            "note": 62,
            "velocity": 66,
            "time": 5675
        },
        {
            "type": "note_off",
            "note": 65,
            "velocity": 61,
            "time": 5688
        },
        {
            "type": "note_on",
            "note": 56,
            "velocity": 74,
            "time": 6272
        },
        {
            "type": "note_on",
            "note": 59,
            "velocity": 74,
            "time": 6278
        },
        {
            "type": "note_on",
            "note": 40,
            "velocity": 67,
            "time": 6279
        },
        {
            "type": "note_on",
            "note": 62,
            "velocity": 71,
            "time": 6285
        },
        {
            "type": "note_on",
            "note": 65,
            "velocity": 57,
            "time": 6288
        },
        {
            "type": "note_off",
            "note": 59,
            "velocity": 92,
            "time": 6872
        },
        {
            "type": "note_off",
            "note": 40,
            "velocity": 88,
            "time": 6891
        },
        {
            "type": "note_off",
            "note": 62,
            "velocity": 87,
            "time": 6904
        },
        {
            "type": "note_off",
            "note": 56,
            "velocity": 92,
            "time": 6933
        },
        {
            "type": "note_off",
            "note": 65,
            "velocity": 74,
            "time": 6936
        },
        {
            "type": "note_on",
            "note": 55,
            "velocity": 18,
            "time": 7072
        },
        {
            "type": "note_off",
            "note": 55,
            "velocity": 47,
            "time": 7330
        },
        {
            "type": "note_on",
            "note": 45,
            "velocity": 71,
            "time": 7529
        },
        {
            "type": "note_on",
            "note": 55,
            "velocity": 70,
            "time": 7533
        },
        {
            "type": "note_on",
            "note": 64,
            "velocity": 73,
            "time": 7535
        },
        {
            "type": "note_on",
            "note": 57,
            "velocity": 69,
            "time": 7540
        },
        {
            "type": "note_on",
            "note": 60,
            "velocity": 56,
            "time": 7547
        },
        {
            "type": "note_off",
            "note": 45,
            "velocity": 78,
            "time": 8105
        },
        {
            "type": "note_off",
            "note": 60,
            "velocity": 77,
            "time": 8135
        },
        {
            "type": "note_off",
            "note": 64,
            "velocity": 67,
            "time": 8147
        },
        {
            "type": "note_off",
            "note": 57,
            "velocity": 67,
            "time": 8155
        },
        {
            "type": "note_off",
            "note": 55,
            "velocity": 71,
            "time": 8165
        },
        {
            "type": "note_on",
            "note": 57,
            "velocity": 73,
            "time": 8483
        },
        {
            "type": "note_on",
            "note": 45,
            "velocity": 69,
            "time": 8486
        },
        {
            "type": "note_on",
            "note": 64,
            "velocity": 75,
            "time": 8488
        },
        {
            "type": "note_on",
            "note": 55,
            "velocity": 72,
            "time": 8494
        },
        {
            "type": "note_on",
            "note": 60,
            "velocity": 64,
            "time": 8512
        },
        {
            "type": "note_off",
            "note": 55,
            "velocity": 72,
            "time": 8663
        },
        {
            "type": "note_off",
            "note": 45,
            "velocity": 80,
            "time": 8667
        },
        {
            "type": "note_off",
            "note": 60,
            "velocity": 69,
            "time": 8678
        },
        {
            "type": "note_off",
            "note": 57,
            "velocity": 63,
            "time": 8680
        },
        {
            "type": "note_off",
            "note": 64,
            "velocity": 61,
            "time": 8733
        },
        {
            "type": "note_on",
            "note": 45,
            "velocity": 70,
            "time": 9079
        },
        {
            "type": "note_on",
            "note": 64,
            "velocity": 79,
            "time": 9083
        },
        {
            "type": "note_on",
            "note": 57,
            "velocity": 74,
            "time": 9091
        },
        {
            "type": "note_on",
            "note": 60,
            "velocity": 55,
            "time": 9094
        },
        {
            "type": "note_on",
            "note": 55,
            "velocity": 69,
            "time": 9094
        },
        {
            "type": "note_off",
            "note": 55,
            "velocity": 85,
            "time": 9380
        },
        {
            "type": "note_off",
            "note": 57,
            "velocity": 94,
            "time": 9388
        },
        {
            "type": "note_off",
            "note": 60,
            "velocity": 89,
            "time": 9393
        },
        {
            "type": "note_off",
            "note": 45,
            "velocity": 90,
            "time": 9411
        },
        {
            "type": "note_off",
            "note": 64,
            "velocity": 93,
            "time": 9433
        },
        {
            "type": "note_on",
            "note": 50,
            "velocity": 75,
            "time": 9999
        },
        {
            "type": "note_on",
            "note": 57,
            "velocity": 72,
            "time": 10012
        },
        {
            "type": "note_on",
            "note": 60,
            "velocity": 69,
            "time": 10012
        },
        {
            "type": "note_on",
            "note": 62,
            "velocity": 68,
            "time": 10014
        },
        {
            "type": "note_on",
            "note": 65,
            "velocity": 58,
            "time": 10015
        },
        {
            "type": "note_off",
            "note": 57,
            "velocity": 83,
            "time": 10543
        },
        {
            "type": "note_off",
            "note": 65,
            "velocity": 84,
            "time": 10560
        },
        {
            "type": "note_off",
            "note": 50,
            "velocity": 94,
            "time": 10565
        },
        {
            "type": "note_off",
            "note": 60,
            "velocity": 89,
            "time": 10567
        },
        {
            "type": "note_off",
            "note": 62,
            "velocity": 88,
            "time": 10575
        },
        {
            "type": "note_on",
            "note": 65,
            "velocity": 67,
            "time": 11252
        },
        {
            "type": "note_on",
            "note": 43,
            "velocity": 57,
            "time": 11257
        },
        {
            "type": "note_on",
            "note": 55,
            "velocity": 64,
            "time": 11257
        },
        {
            "type": "note_on",
            "note": 59,
            "velocity": 65,
            "time": 11259
        },
        {
            "type": "note_on",
            "note": 62,
            "velocity": 68,
            "time": 11263
        },
        {
            "type": "note_off",
            "note": 55,
            "velocity": 79,
            "time": 11773
        },
        {
            "type": "note_off",
            "note": 59,
            "velocity": 90,
            "time": 11794
        },
        {
            "type": "note_off",
            "note": 65,
            "velocity": 90,
            "time": 11794
        },
        {
            "type": "note_off",
            "note": 62,
            "velocity": 85,
            "time": 11811
        },
        {
            "type": "note_off",
            "note": 43,
            "velocity": 69,
            "time": 11832
        },
        {
            "type": "note_on",
            "note": 64,
            "velocity": 71,
            "time": 12229
        },
        {
            "type": "note_on",
            "note": 59,
            "velocity": 62,
            "time": 12231
        },
        {
            "type": "note_on",
            "note": 67,
            "velocity": 50,
            "time": 12236
        },
        {
            "type": "note_on",
            "note": 48,
            "velocity": 69,
            "time": 12238
        },
        {
            "type": "note_on",
            "note": 60,
            "velocity": 52,
            "time": 12251
        },
        {
            "type": "note_off",
            "note": 59,
            "velocity": 79,
            "time": 12328
        },
        {
            "type": "note_off",
            "note": 48,
            "velocity": 77,
            "time": 12329
        },
        {
            "type": "note_off",
            "note": 60,
            "velocity": 97,
            "time": 12329
        },
        {
            "type": "note_off",
            "note": 67,
            "velocity": 55,
            "time": 12342
        },
        {
            "type": "note_off",
            "note": 64,
            "velocity": 77,
            "time": 12380
        },
        {
            "type": "note_on",
            "note": 60,
            "velocity": 76,
            "time": 12821
        },
        {
            "type": "note_on",
            "note": 64,
            "velocity": 75,
            "time": 12829
        },
        {
            "type": "note_on",
            "note": 59,
            "velocity": 76,
            "time": 12835
        },
        {
            "type": "note_on",
            "note": 67,
            "velocity": 68,
            "time": 12840
        },
        {
            "type": "note_on",
            "note": 48,
            "velocity": 69,
            "time": 12850
        },
        {
            "type": "note_off",
            "note": 48,
            "velocity": 84,
            "time": 13251
        },
        {
            "type": "note_off",
            "note": 59,
            "velocity": 68,
            "time": 13362
        },
        {
            "type": "note_off",
            "note": 64,
            "velocity": 63,
            "time": 13384
        },
        {
            "type": "note_on",
            "note": 48,
            "velocity": 49,
            "time": 13386
        },
        {
            "type": "note_off",
            "note": 60,
            "velocity": 77,
            "time": 13397
        },
        {
            "type": "note_off",
            "note": 48,
            "velocity": 78,
            "time": 13489
        },
        {
            "type": "note_off",
            "note": 67,
            "velocity": 35,
            "time": 13513
        },
        {
            "type": "note_on",
            "note": 41,
            "velocity": 80,
            "time": 13818
        },
        {
            "type": "note_on",
            "note": 57,
            "velocity": 80,
            "time": 13861
        },
        {
            "type": "note_on",
            "note": 64,
            "velocity": 75,
            "time": 13862
        },
        {
            "type": "note_on",
            "note": 67,
            "velocity": 64,
            "time": 13867
        },
        {
            "type": "note_on",
            "note": 60,
            "velocity": 70,
            "time": 13869
        },
        {
            "type": "note_off",
            "note": 67,
            "velocity": 86,
            "time": 14556
        },
        {
            "type": "note_off",
            "note": 57,
            "velocity": 67,
            "time": 14561
        },
        {
            "type": "note_off",
            "note": 64,
            "velocity": 93,
            "time": 14583
        },
        {
            "type": "note_off",
            "note": 60,
            "velocity": 74,
            "time": 14598
        },
        {
            "type": "note_off",
            "note": 41,
            "velocity": 60,
            "time": 14789
        },
        {
            "type": "note_on",
            "note": 47,
            "velocity": 71,
            "time": 15031
        },
        {
            "type": "note_on",
            "note": 57,
            "velocity": 72,
            "time": 15033
        },
        {
            "type": "note_on",
            "note": 59,
            "velocity": 66,
            "time": 15033
        },
        {
            "type": "note_on",
            "note": 62,
            "velocity": 62,
            "time": 15041
        },
        {
            "type": "note_on",
            "note": 65,
            "velocity": 55,
            "time": 15044
        },
        {
            "type": "note_off",
            "note": 57,
            "velocity": 70,
            "time": 15407
        },
        {
            "type": "note_off",
            "note": 65,
            "velocity": 83,
            "time": 15426
        },
        {
            "type": "note_off",
            "note": 59,
            "velocity": 85,
            "time": 15430
        },
        {
            "type": "note_off",
            "note": 62,
            "velocity": 82,
            "time": 15430
        },
        {
            "type": "note_off",
            "note": 47,
            "velocity": 79,
            "time": 15476
        },
        {
            "type": "note_on",
            "note": 47,
            "velocity": 72,
            "time": 15628
        },
        {
            "type": "note_on",
            "note": 57,
            "velocity": 68,
            "time": 15640
        },
        {
            "type": "note_on",
            "note": 62,
            "velocity": 66,
            "time": 15643
        },
        {
            "type": "note_on",
            "note": 65,
            "velocity": 50,
            "time": 15654
        },
        {
            "type": "note_on",
            "note": 59,
            "velocity": 68,
            "time": 15657
        },
        {
            "type": "note_off",
            "note": 65,
            "velocity": 61,
            "time": 15754
        },
        {
            "type": "note_off",
            "note": 47,
            "velocity": 93,
            "time": 15764
        },
        {
            "type": "note_off",
            "note": 57,
            "velocity": 79,
            "time": 15768
        },
        {
            "type": "note_off",
            "note": 59,
            "velocity": 51,
            "time": 15776
        },
        {
            "type": "note_off",
            "note": 62,
            "velocity": 76,
            "time": 15797
        },
        {
            "type": "note_on",
            "note": 56,
            "velocity": 68,
            "time": 16233
        },
        {
            "type": "note_on",
            "note": 59,
            "velocity": 74,
            "time": 16238
        },
        {
            "type": "note_on",
            "note": 40,
            "velocity": 63,
            "time": 16241
        },
        {
            "type": "note_on",
            "note": 62,
            "velocity": 71,
            "time": 16247
        },
        {
            "type": "note_on",
            "note": 65,
            "velocity": 51,
            "time": 16250
        },
        {
            "type": "note_off",
            "note": 59,
            "velocity": 90,
            "time": 16377
        },
        {
            "type": "note_off",
            "note": 56,
            "velocity": 73,
            "time": 16390
        },
        {
            "type": "note_off",
            "note": 40,
            "velocity": 87,
            "time": 16396
        },
        {
            "type": "note_off",
            "note": 62,
            "velocity": 54,
            "time": 16399
        },
        {
            "type": "note_off",
            "note": 65,
            "velocity": 41,
            "time": 16401
        },
        {
            "type": "note_on",
            "note": 40,
            "velocity": 67,
            "time": 16536
        },
        {
            "type": "note_on",
            "note": 56,
            "velocity": 74,
            "time": 16560
        },
        {
            "type": "note_on",
            "note": 59,
            "velocity": 72,
            "time": 16562
        },
        {
            "type": "note_on",
            "note": 62,
            "velocity": 64,
            "time": 16562
        },
        {
            "type": "note_on",
            "note": 65,
            "velocity": 47,
            "time": 16565
        },
        {
            "type": "note_on",
            "note": 52,
            "velocity": 49,
            "time": 16581
        },
        {
            "type": "note_off",
            "note": 52,
            "velocity": 67,
            "time": 16691
        },
        {
            "type": "note_off",
            "note": 59,
            "velocity": 98,
            "time": 16705
        },
        {
            "type": "note_off",
            "note": 62,
            "velocity": 96,
            "time": 16713
        },
        {
            "type": "note_off",
            "note": 40,
            "velocity": 88,
            "time": 16722
        },
        {
            "type": "note_off",
            "note": 56,
            "velocity": 90,
            "time": 16750
        },
        {
            "type": "note_off",
            "note": 65,
            "velocity": 76,
            "time": 16753
        },
        {
            "type": "note_on",
            "note": 55,
            "velocity": 27,
            "time": 16916
        },
        {
            "type": "note_off",
            "note": 55,
            "velocity": 82,
            "time": 16997
        },
        {
            "type": "note_on",
            "note": 57,
            "velocity": 69,
            "time": 17200
        },
        {
            "type": "note_on",
            "note": 64,
            "velocity": 76,
            "time": 17202
        },
        {
            "type": "note_on",
            "note": 55,
            "velocity": 70,
            "time": 17206
        },
        {
            "type": "note_on",
            "note": 52,
            "velocity": 65,
            "time": 17210
        },
        {
            "type": "note_on",
            "note": 45,
            "velocity": 72,
            "time": 17213
        },
        {
            "type": "note_on",
            "note": 60,
            "velocity": 62,
            "time": 17220
        },
        {
            "type": "note_off",
            "note": 45,
            "velocity": 80,
            "time": 18026
        },
        {
            "type": "note_off",
            "note": 55,
            "velocity": 67,
            "time": 18059
        },
        {
            "type": "note_off",
            "note": 57,
            "velocity": 89,
            "time": 18059
        },
        {
            "type": "note_off",
            "note": 60,
            "velocity": 84,
            "time": 18061
        },
        {
            "type": "note_off",
            "note": 52,
            "velocity": 71,
            "time": 18061
        },
        {
            "type": "note_off",
            "note": 64,
            "velocity": 71,
            "time": 18084
        },
        {
            "type": "note_on",
            "note": 64,
            "velocity": 73,
            "time": 18741
        },
        {
            "type": "note_on",
            "note": 55,
            "velocity": 67,
            "time": 18743
        },
        {
            "type": "note_on",
            "note": 57,
            "velocity": 64,
            "time": 18745
        },
        {
            "type": "note_on",
            "note": 52,
            "velocity": 63,
            "time": 18747
        },
        {
            "type": "note_on",
            "note": 45,
            "velocity": 69,
            "time": 18759
        },
        {
            "type": "note_on",
            "note": 60,
            "velocity": 42,
            "time": 18790
        },
        {
            "type": "note_off",
            "note": 55,
            "velocity": 75,
            "time": 18893
        },
        {
            "type": "note_off",
            "note": 60,
            "velocity": 68,
            "time": 18902
        },
        {
            "type": "note_off",
            "note": 52,
            "velocity": 72,
            "time": 18919
        },
        {
            "type": "note_off",
            "note": 64,
            "velocity": 90,
            "time": 18929
        },
        {
            "type": "note_off",
            "note": 45,
            "velocity": 89,
            "time": 18932
        },
        {
            "type": "note_off",
            "note": 57,
            "velocity": 76,
            "time": 18941
        },
        {
            "type": "note_on",
            "note": 45,
            "velocity": 65,
            "time": 19051
        },
        {
            "type": "note_on",
            "note": 57,
            "velocity": 77,
            "time": 19052
        },
        {
            "type": "note_on",
            "note": 64,
            "velocity": 77,
            "time": 19052
        },
        {
            "type": "note_on",
            "note": 55,
            "velocity": 72,
            "time": 19064
        },
        {
            "type": "note_on",
            "note": 60,
            "velocity": 63,
            "time": 19073
        },
        {
            "type": "note_on",
            "note": 52,
            "velocity": 61,
            "time": 19079
        },
        {
            "type": "note_off",
            "note": 52,
            "velocity": 71,
            "time": 19180
        },
        {
            "type": "note_off",
            "note": 55,
            "velocity": 67,
            "time": 19202
        },
        {
            "type": "note_off",
            "note": 60,
            "velocity": 47,
            "time": 19227
        },
        {
            "type": "note_off",
            "note": 45,
            "velocity": 76,
            "time": 19234
        },
        {
            "type": "note_off",
            "note": 57,
            "velocity": 86,
            "time": 19234
        },
        {
            "type": "note_off",
            "note": 64,
            "velocity": 85,
            "time": 19253
        },
        {
            "type": "note_on",
            "note": 62,
            "velocity": 79,
            "time": 19973
        },
        {
            "type": "note_on",
            "note": 47,
            "velocity": 74,
            "time": 19977
        },
        {
            "type": "note_on",
            "note": 59,
            "velocity": 72,
            "time": 19978
        },
        {
            "type": "note_on",
            "note": 57,
            "velocity": 72,
            "time": 19982
        },
        {
            "type": "note_off",
            "note": 57,
            "velocity": 55,
            "time": 20523
        },
        {
            "type": "note_off",
            "note": 47,
            "velocity": 87,
            "time": 20527
        },
        {
            "type": "note_off",
            "note": 59,
            "velocity": 84,
            "time": 20532
        },
        {
            "type": "note_off",
            "note": 62,
            "velocity": 73,
            "time": 20560
        },
        {
            "type": "note_on",
            "note": 56,
            "velocity": 68,
            "time": 21254
        },
        {
            "type": "note_on",
            "note": 59,
            "velocity": 76,
            "time": 21258
        },
        {
            "type": "note_on",
            "note": 40,
            "velocity": 72,
            "time": 21265
        },
        {
            "type": "note_on",
            "note": 62,
            "velocity": 67,
            "time": 21272
        },
        {
            "type": "note_on",
            "note": 65,
            "velocity": 55,
            "time": 21273
        },
        {
            "type": "note_on",
            "note": 52,
            "velocity": 51,
            "time": 21286
        },
        {
            "type": "note_off",
            "note": 65,
            "velocity": 77,
            "time": 21739
        },
        {
            "type": "note_off",
            "note": 59,
            "velocity": 89,
            "time": 21746
        },
        {
            "type": "note_off",
            "note": 40,
            "velocity": 84,
            "time": 21747
        },
        {
            "type": "note_off",
            "note": 56,
            "velocity": 63,
            "time": 21753
        },
        {
            "type": "note_off",
            "note": 62,
            "velocity": 87,
            "time": 21764
        },
        {
            "type": "note_off",
            "note": 52,
            "velocity": 79,
            "time": 21808
        },
        {
            "type": "note_on",
            "note": 64,
            "velocity": 71,
            "time": 22201
        },
        {
            "type": "note_on",
            "note": 55,
            "velocity": 72,
            "time": 22210
        },
        {
            "type": "note_on",
            "note": 57,
            "velocity": 76,
            "time": 22214
        },
        {
            "type": "note_on",
            "note": 52,
            "velocity": 64,
            "time": 22220
        },
        {
            "type": "note_on",
            "note": 45,
            "velocity": 63,
            "time": 22227
        },
        {
            "type": "note_on",
            "note": 60,
            "velocity": 71,
            "time": 22233
        },
        {
            "type": "note_off",
            "note": 55,
            "velocity": 79,
            "time": 23119
        },
        {
            "type": "note_off",
            "note": 60,
            "velocity": 82,
            "time": 23135
        },
        {
            "type": "note_off",
            "note": 57,
            "velocity": 84,
            "time": 23151
        },
        {
            "type": "note_off",
            "note": 64,
            "velocity": 76,
            "time": 23153
        },
        {
            "type": "note_off",
            "note": 45,
            "velocity": 80,
            "time": 23156
        },
        {
            "type": "note_off",
            "note": 52,
            "velocity": 76,
            "time": 23164
        },
        {
            "type": "note_on",
            "note": 64,
            "velocity": 72,
            "time": 23413
        },
        {
            "type": "note_on",
            "note": 57,
            "velocity": 71,
            "time": 23415
        },
        {
            "type": "note_on",
            "note": 45,
            "velocity": 65,
            "time": 23419
        },
        {
            "type": "note_on",
            "note": 55,
            "velocity": 57,
            "time": 23424
        },
        {
            "type": "note_on",
            "note": 52,
            "velocity": 50,
            "time": 23430
        },
        {
            "type": "note_on",
            "note": 60,
            "velocity": 35,
            "time": 23450
        },
        {
            "type": "note_off",
            "note": 55,
            "velocity": 93,
            "time": 23499
        },
        {
            "type": "note_off",
            "note": 60,
            "velocity": 99,
            "time": 23502
        },
        {
            "type": "note_off",
            "note": 52,
            "velocity": 70,
            "time": 23539
        },
        {
            "type": "note_off",
            "note": 57,
            "velocity": 86,
            "time": 23545
        },
        {
            "type": "note_off",
            "note": 64,
            "velocity": 85,
            "time": 23558
        },
        {
            "type": "note_off",
            "note": 45,
            "velocity": 59,
            "time": 23592
        },
        {
            "type": "note_on",
            "note": 57,
            "velocity": 73,
            "time": 24027
        },
        {
            "type": "note_on",
            "note": 45,
            "velocity": 72,
            "time": 24029
        },
        {
            "type": "note_on",
            "note": 64,
            "velocity": 76,
            "time": 24039
        },
        {
            "type": "note_on",
            "note": 60,
            "velocity": 70,
            "time": 24044
        },
        {
            "type": "note_on",
            "note": 55,
            "velocity": 69,
            "time": 24049
        },
        {
            "type": "note_on",
            "note": 52,
            "velocity": 66,
            "time": 24057
        },
        {
            "type": "note_off",
            "note": 55,
            "velocity": 74,
            "time": 24301
        },
        {
            "type": "note_off",
            "note": 57,
            "velocity": 94,
            "time": 24332
        },
        {
            "type": "note_off",
            "note": 60,
            "velocity": 85,
            "time": 24333
        },
        {
            "type": "note_off",
            "note": 52,
            "velocity": 87,
            "time": 24340
        },
        {
            "type": "note_off",
            "note": 64,
            "velocity": 86,
            "time": 24352
        },
        {
            "type": "note_off",
            "note": 45,
            "velocity": 93,
            "time": 24363
        },
        {
            "type": "note_on",
            "note": 62,
            "velocity": 76,
            "time": 25000
        },
        {
            "type": "note_on",
            "note": 60,
            "velocity": 70,
            "time": 25013
        },
        {
            "type": "note_on",
            "note": 57,
            "velocity": 63,
            "time": 25017
        },
        {
            "type": "note_on",
            "note": 65,
            "velocity": 60,
            "time": 25022
        },
        {
            "type": "note_on",
            "note": 38,
            "velocity": 75,
            "time": 25030
        },
        {
            "type": "note_on",
            "note": 50,
            "velocity": 22,
            "time": 25080
        },
        {
            "type": "note_off",
            "note": 38,
            "velocity": 79,
            "time": 25542
        },
        {
            "type": "note_off",
            "note": 57,
            "velocity": 49,
            "time": 25556
        },
        {
            "type": "note_off",
            "note": 65,
            "velocity": 62,
            "time": 25597
        },
        {
            "type": "note_off",
            "note": 60,
            "velocity": 90,
            "time": 25598
        },
        {
            "type": "note_off",
            "note": 62,
            "velocity": 87,
            "time": 25610
        },
        {
            "type": "note_off",
            "note": 50,
            "velocity": 54,
            "time": 25658
        },
        {
            "type": "note_on",
            "note": 51,
            "velocity": 60,
            "time": 25726
        },
        {
            "type": "note_off",
            "note": 51,
            "velocity": 74,
            "time": 25821
        },
        {
            "type": "note_on",
            "note": 59,
            "velocity": 74,
            "time": 26231
        },
        {
            "type": "note_on",
            "note": 65,
            "velocity": 65,
            "time": 26235
        },
        {
            "type": "note_on",
            "note": 50,
            "velocity": 64,
            "time": 26238
        },
        {
            "type": "note_on",
            "note": 57,
            "velocity": 72,
            "time": 26238
        },
        {
            "type": "note_on",
            "note": 62,
            "velocity": 67,
            "time": 26240
        },
        {
            "type": "note_on",
            "note": 43,
            "velocity": 67,
            "time": 26244
        },
        {
            "type": "note_off",
            "note": 43,
            "velocity": 83,
            "time": 26761
        },
        {
            "type": "note_off",
            "note": 57,
            "velocity": 70,
            "time": 26776
        },
        {
            "type": "note_off",
            "note": 65,
            "velocity": 89,
            "time": 26799
        },
        {
            "type": "note_off",
            "note": 50,
            "velocity": 92,
            "time": 26801
        },
        {
            "type": "note_off",
            "note": 59,
            "velocity": 88,
            "time": 26810
        },
        {
            "type": "note_off",
            "note": 62,
            "velocity": 86,
            "time": 26810
        },
        {
            "type": "note_on",
            "note": 64,
            "velocity": 68,
            "time": 27495
        },
        {
            "type": "note_on",
            "note": 60,
            "velocity": 64,
            "time": 27496
        },
        {
            "type": "note_on",
            "note": 67,
            "velocity": 63,
            "time": 27502
        },
        {
            "type": "note_on",
            "note": 59,
            "velocity": 65,
            "time": 27502
        },
        {
            "type": "note_on",
            "note": 48,
            "velocity": 49,
            "time": 27517
        },
        {
            "type": "note_on",
            "note": 55,
            "velocity": 46,
            "time": 27520
        },
        {
            "type": "note_off",
            "note": 55,
            "velocity": 90,
            "time": 28009
        },
        {
            "type": "note_off",
            "note": 67,
            "velocity": 81,
            "time": 28016
        },
        {
            "type": "note_off",
            "note": 59,
            "velocity": 74,
            "time": 28028
        },
        {
            "type": "note_off",
            "note": 60,
            "velocity": 93,
            "time": 28040
        },
        {
            "type": "note_off",
            "note": 64,
            "velocity": 84,
            "time": 28051
        },
        {
            "type": "note_off",
            "note": 48,
            "velocity": 95,
            "time": 28064
        },
        {
            "type": "note_on",
            "note": 41,
            "velocity": 78,
            "time": 28743
        },
        {
            "type": "note_on",
            "note": 60,
            "velocity": 57,
            "time": 28757
        },
        {
            "type": "note_on",
            "note": 67,
            "velocity": 58,
            "time": 28758
        },
        {
            "type": "note_on",
            "note": 57,
            "velocity": 70,
            "time": 28761
        },
        {
            "type": "note_on",
            "note": 64,
            "velocity": 69,
            "time": 28767
        },
        {
            "type": "note_on",
            "note": 53,
            "velocity": 48,
            "time": 28783
        },
        {
            "type": "note_off",
            "note": 41,
            "velocity": 79,
            "time": 29220
        },
        {
            "type": "note_off",
            "note": 57,
            "velocity": 72,
            "time": 29260
        },
        {
            "type": "note_off",
            "note": 67,
            "velocity": 76,
            "time": 29276
        },
        {
            "type": "note_off",
            "note": 60,
            "velocity": 87,
            "time": 29299
        },
        {
            "type": "note_off",
            "note": 64,
            "velocity": 90,
            "time": 29303
        },
        {
            "type": "note_off",
            "note": 53,
            "velocity": 79,
            "time": 29321
        },
        {
            "type": "note_on",
            "note": 59,
            "velocity": 71,
            "time": 29984
        },
        {
            "type": "note_on",
            "note": 47,
            "velocity": 64,
            "time": 29986
        },
        {
            "type": "note_on",
            "note": 57,
            "velocity": 70,
            "time": 29989
        },
        {
            "type": "note_on",
            "note": 62,
            "velocity": 67,
            "time": 29990
        },
        {
            "type": "note_on",
            "note": 65,
            "velocity": 54,
            "time": 29994
        },
        {
            "type": "note_off",
            "note": 65,
            "velocity": 86,
            "time": 30473
        },
        {
            "type": "note_off",
            "note": 57,
            "velocity": 65,
            "time": 30485
        },
        {
            "type": "note_off",
            "note": 62,
            "velocity": 68,
            "time": 30517
        },
        {
            "type": "note_off",
            "note": 47,
            "velocity": 93,
            "time": 30530
        },
        {
            "type": "note_off",
            "note": 59,
            "velocity": 77,
            "time": 30547
        },
        {
            "type": "note_on",
            "note": 56,
            "velocity": 84,
            "time": 30914
        },
        {
            "type": "note_on",
            "note": 40,
            "velocity": 72,
            "time": 30926
        },
        {
            "type": "note_on",
            "note": 59,
            "velocity": 82,
            "time": 30928
        },
        {
            "type": "note_on",
            "note": 62,
            "velocity": 80,
            "time": 30930
        },
        {
            "type": "note_on",
            "note": 65,
            "velocity": 67,
            "time": 30930
        },
        {
            "type": "note_on",
            "note": 52,
            "velocity": 48,
            "time": 30944
        },
        {
            "type": "note_off",
            "note": 40,
            "velocity": 87,
            "time": 31760
        },
        {
            "type": "note_off",
            "note": 59,
            "velocity": 93,
            "time": 31761
        },
        {
            "type": "note_off",
            "note": 62,
            "velocity": 89,
            "time": 31795
        },
        {
            "type": "note_off",
            "note": 52,
            "velocity": 87,
            "time": 31831
        },
        {
            "type": "note_off",
            "note": 65,
            "velocity": 88,
            "time": 31833
        },
        {
            "type": "note_off",
            "note": 56,
            "velocity": 90,
            "time": 31849
        },
        {
            "type": "note_on",
            "note": 57,
            "velocity": 82,
            "time": 32182
        },
        {
            "type": "note_on",
            "note": 64,
            "velocity": 81,
            "time": 32183
        },
        {
            "type": "note_on",
            "note": 55,
            "velocity": 68,
            "time": 32185
        },
        {
            "type": "note_on",
            "note": 45,
            "velocity": 81,
            "time": 32190
        },
        {
            "type": "note_on",
            "note": 60,
            "velocity": 67,
            "time": 32206
        },
        {
            "type": "note_on",
            "note": 52,
            "velocity": 63,
            "time": 32212
        },
        {
            "type": "note_off",
            "note": 57,
            "velocity": 90,
            "time": 32567
        },
        {
            "type": "note_off",
            "note": 52,
            "velocity": 87,
            "time": 32609
        },
        {
            "type": "note_off",
            "note": 55,
            "velocity": 66,
            "time": 32611
        },
        {
            "type": "note_off",
            "note": 45,
            "velocity": 76,
            "time": 32621
        },
        {
            "type": "note_off",
            "note": 64,
            "velocity": 73,
            "time": 32636
        },
        {
            "type": "note_off",
            "note": 60,
            "velocity": 77,
            "time": 32663
        },
        {
            "type": "note_on",
            "note": 44,
            "velocity": 80,
            "time": 33391
        },
        {
            "type": "note_on",
            "note": 64,
            "velocity": 80,
            "time": 33391
        },
        {
            "type": "note_on",
            "note": 54,
            "velocity": 75,
            "time": 33393
        },
        {
            "type": "note_on",
            "note": 58,
            "velocity": 84,
            "time": 33395
        },
        {
            "type": "note_on",
            "note": 51,
            "velocity": 73,
            "time": 33398
        },
        {
            "type": "note_on",
            "note": 60,
            "velocity": 77,
            "time": 33406
        },
        {
            "type": "note_off",
            "note": 51,
            "velocity": 55,
            "time": 33530
        },
        {
            "type": "note_off",
            "note": 64,
            "velocity": 87,
            "time": 33533
        },
        {
            "type": "note_off",
            "note": 58,
            "velocity": 83,
            "time": 33538
        },
        {
            "type": "note_off",
            "note": 60,
            "velocity": 80,
            "time": 33558
        },
        {
            "type": "note_off",
            "note": 44,
            "velocity": 70,
            "time": 33571
        },
        {
            "type": "note_off",
            "note": 54,
            "velocity": 87,
            "time": 33590
        },
        {
            "type": "note_on",
            "note": 53,
            "velocity": 76,
            "time": 33740
        },
        {
            "type": "note_on",
            "note": 58,
            "velocity": 70,
            "time": 33740
        },
        {
            "type": "note_on",
            "note": 43,
            "velocity": 75,
            "time": 33743
        },
        {
            "type": "note_on",
            "note": 62,
            "velocity": 86,
            "time": 33744
        },
        {
            "type": "note_on",
            "note": 55,
            "velocity": 75,
            "time": 33755
        },
        {
            "type": "note_on",
            "note": 50,
            "velocity": 52,
            "time": 33768
        },
        {
            "type": "note_off",
            "note": 50,
            "velocity": 88,
            "time": 34071
        },
        {
            "type": "note_off",
            "note": 53,
            "velocity": 83,
            "time": 34103
        },
        {
            "type": "note_off",
            "note": 62,
            "velocity": 83,
            "time": 34138
        },
        {
            "type": "note_off",
            "note": 43,
            "velocity": 92,
            "time": 34143
        },
        {
            "type": "note_off",
            "note": 55,
            "velocity": 77,
            "time": 34166
        },
        {
            "type": "note_off",
            "note": 58,
            "velocity": 76,
            "time": 34179
        },
        {
            "type": "note_on",
            "note": 55,
            "velocity": 52,
            "time": 34320
        },
        {
            "type": "note_on",
            "note": 58,
            "velocity": 55,
            "time": 34320
        },
        {
            "type": "note_on",
            "note": 48,
            "velocity": 75,
            "time": 34323
        },
        {
            "type": "note_on",
            "note": 62,
            "velocity": 79,
            "time": 34335
        },
        {
            "type": "note_on",
            "note": 52,
            "velocity": 71,
            "time": 34337
        },
        {
            "type": "note_off",
            "note": 55,
            "velocity": 91,
            "time": 34548
        },
        {
            "type": "note_off",
            "note": 58,
            "velocity": 97,
            "time": 34601
        },
        {
            "type": "note_off",
            "note": 62,
            "velocity": 82,
            "time": 34660
        },
        {
            "type": "note_off",
            "note": 48,
            "velocity": 82,
            "time": 34680
        },
        {
            "type": "note_off",
            "note": 52,
            "velocity": 87,
            "time": 34765
        },
        {
            "type": "note_on",
            "note": 57,
            "velocity": 72,
            "time": 34968
        },
        {
            "type": "note_on",
            "note": 52,
            "velocity": 73,
            "time": 34982
        },
        {
            "type": "note_on",
            "note": 60,
            "velocity": 73,
            "time": 34983
        },
        {
            "type": "note_on",
            "note": 53,
            "velocity": 69,
            "time": 34984
        },
        {
            "type": "note_on",
            "note": 48,
            "velocity": 60,
            "time": 34985
        },
        {
            "type": "note_on",
            "note": 41,
            "velocity": 67,
            "time": 34990
        },
        {
            "type": "note_off",
            "note": 53,
            "velocity": 83,
            "time": 35548
        },
        {
            "type": "note_off",
            "note": 57,
            "velocity": 87,
            "time": 35568
        },
        {
            "type": "note_off",
            "note": 52,
            "velocity": 63,
            "time": 35595
        },
        {
            "type": "note_off",
            "note": 48,
            "velocity": 86,
            "time": 35624
        },
        {
            "type": "note_off",
            "note": 41,
            "velocity": 79,
            "time": 35625
        },
        {
            "type": "note_off",
            "note": 60,
            "velocity": 85,
            "time": 35657
        },
        {
            "type": "note_on",
            "note": 56,
            "velocity": 71,
            "time": 36212
        },
        {
            "type": "note_on",
            "note": 59,
            "velocity": 74,
            "time": 36212
        },
        {
            "type": "note_on",
            "note": 40,
            "velocity": 54,
            "time": 36219
        },
        {
            "type": "note_on",
            "note": 50,
            "velocity": 68,
            "time": 36219
        },
        {
            "type": "note_on",
            "note": 52,
            "velocity": 51,
            "time": 36221
        },
        {
            "type": "note_on",
            "note": 47,
            "velocity": 55,
            "time": 36221
        },
        {
            "type": "note_off",
            "note": 47,
            "velocity": 95,
            "time": 36302
        },
        {
            "type": "note_off",
            "note": 52,
            "velocity": 79,
            "time": 36365
        },
        {
            "type": "note_off",
            "note": 50,
            "velocity": 75,
            "time": 36375
        },
        {
            "type": "note_off",
            "note": 56,
            "velocity": 78,
            "time": 36389
        },
        {
            "type": "note_off",
            "note": 40,
            "velocity": 79,
            "time": 36405
        },
        {
            "type": "note_off",
            "note": 59,
            "velocity": 87,
            "time": 36408
        },
        {
            "type": "note_on",
            "note": 55,
            "velocity": 60,
            "time": 37168
        },
        {
            "type": "note_on",
            "note": 52,
            "velocity": 63,
            "time": 37178
        },
        {
            "type": "note_on",
            "note": 60,
            "velocity": 63,
            "time": 37181
        },
        {
            "type": "note_on",
            "note": 33,
            "velocity": 66,
            "time": 37185
        },
        {
            "type": "note_on",
            "note": 45,
            "velocity": 49,
            "time": 37191
        },
        {
            "type": "note_on",
            "note": 57,
            "velocity": 61,
            "time": 37202
        },
        {
            "type": "note_off",
            "note": 60,
            "velocity": 81,
            "time": 37593
        },
        {
            "type": "note_off",
            "note": 33,
            "velocity": 82,
            "time": 37604
        },
        {
            "type": "note_off",
            "note": 52,
            "velocity": 67,
            "time": 37607
        },
        {
            "type": "note_off",
            "note": 45,
            "velocity": 70,
            "time": 37610
        },
        {
            "type": "note_off",
            "note": 57,
            "velocity": 87,
            "time": 37629
        },
        {
            "type": "note_off",
            "note": 55,
            "velocity": 80,
            "time": 37638
        },
        {
            "type": "note_on",
            "note": 55,
            "velocity": 56,
            "time": 37772
        },
        {
            "type": "note_on",
            "note": 52,
            "velocity": 72,
            "time": 37783
        },
        {
            "type": "note_on",
            "note": 60,
            "velocity": 72,
            "time": 37787
        },
        {
            "type": "note_on",
            "note": 33,
            "velocity": 43,
            "time": 37799
        },
        {
            "type": "note_on",
            "note": 45,
            "velocity": 40,
            "time": 37800
        },
        {
            "type": "note_on",
            "note": 57,
            "velocity": 33,
            "time": 37800
        },
        {
            "type": "note_off",
            "note": 52,
            "velocity": 79,
            "time": 37899
        },
        {
            "type": "note_off",
            "note": 57,
            "velocity": 74,
            "time": 37913
        },
        {
            "type": "note_off",
            "note": 45,
            "velocity": 74,
            "time": 37914
        },
        {
            "type": "note_off",
            "note": 33,
            "velocity": 83,
            "time": 37918
        },
        {
            "type": "note_off",
            "note": 55,
            "velocity": 67,
            "time": 37944
        },
        {
            "type": "note_off",
            "note": 60,
            "velocity": 56,
            "time": 37955
        },
        {
            "type": "note_on",
            "note": 60,
            "velocity": 69,
            "time": 38386
        },
        {
            "type": "note_on",
            "note": 55,
            "velocity": 66,
            "time": 38388
        },
        {
            "type": "note_on",
            "note": 33,
            "velocity": 74,
            "time": 38397
        },
        {
            "type": "note_on",
            "note": 57,
            "velocity": 60,
            "time": 38398
        },
        {
            "type": "note_on",
            "note": 45,
            "velocity": 63,
            "time": 38402
        },
        {
            "type": "note_on",
            "note": 52,
            "velocity": 50,
            "time": 38408
        },
        {
            "type": "note_off",
            "note": 33,
            "velocity": 83,
            "time": 38787
        },
        {
            "type": "note_off",
            "note": 52,
            "velocity": 67,
            "time": 38790
        },
        {
            "type": "note_off",
            "note": 60,
            "velocity": 86,
            "time": 38791
        },
        {
            "type": "note_off",
            "note": 45,
            "velocity": 81,
            "time": 38797
        },
        {
            "type": "note_off",
            "note": 57,
            "velocity": 90,
            "time": 38813
        },
        {
            "type": "note_off",
            "note": 55,
            "velocity": 80,
            "time": 38831
        },
        {
            "type": "note_on",
            "note": 33,
            "velocity": 71,
            "time": 38969
        },
        {
            "type": "note_on",
            "note": 45,
            "velocity": 63,
            "time": 39001
        },
        {
            "type": "note_on",
            "note": 55,
            "velocity": 61,
            "time": 39002
        },
        {
            "type": "note_on",
            "note": 60,
            "velocity": 80,
            "time": 39004
        },
        {
            "type": "note_on",
            "note": 57,
            "velocity": 62,
            "time": 39007
        },
        {
            "type": "note_on",
            "note": 52,
            "velocity": 79,
            "time": 39008
        },
        {
            "type": "note_off",
            "note": 33,
            "velocity": 90,
            "time": 39203
        },
        {
            "type": "note_off",
            "note": 52,
            "velocity": 88,
            "time": 39207
        },
        {
            "type": "note_off",
            "note": 57,
            "velocity": 92,
            "time": 39213
        },
        {
            "type": "note_off",
            "note": 55,
            "velocity": 89,
            "time": 39222
        },
        {
            "type": "note_off",
            "note": 45,
            "velocity": 83,
            "time": 39232
        },
        {
            "type": "note_off",
            "note": 60,
            "velocity": 87,
            "time": 39267
        }
    ],
    "notes": [],
    "volumeBacktrack": 1.0
}