{
    "bass": 60,
    "type": "major",
    "backtrack": "/home/pi/raspiKeys/res/backtracks/processed_wav/75_HH_16Groove_07.wav",
    "backtrackDuration": 3.1992743015289307,
    "nbOfLoops": 2,
    "chord_notes": [
        {
            "type": "note_on",
            "note": 63,
            "velocity": 76,
            "time": 0
        },
        {
            "type": "note_on",
            "note": 53,
            "velocity": 68,
            "time": 1
        },
        {
            "type": "note_on",
            "note": 75,
            "velocity": 66,
            "time": 1
        },
        {
            "type": "note_on",
            "note": 72,
            "velocity": 72,
            "time": 1
        },
        {
            "type": "note_on",
            "note": 68,
            "velocity": 69,
            "time": 5
        },
        {
            "type": "note_on",
            "note": 79,
            "velocity": 70,
            "time": 5
        },
        {
            "type": "note_off",
            "note": 72,
            "velocity": 90,
            "time": 2442
        },
        {
            "type": "note_off",
            "note": 53,
            "velocity": 85,
            "time": 2459
        },
        {
            "type": "note_off",
            "note": 75,
            "velocity": 74,
            "time": 2503
        },
        {
            "type": "note_off",
            "note": 68,
            "velocity": 86,
            "time": 2515
        },
        {
            "type": "note_off",
            "note": 63,
            "velocity": 77,
            "time": 2595
        },
        {
            "type": "note_off",
            "note": 79,
            "velocity": 49,
            "time": 3046
        },
        {
            "type": "note_on",
            "note": 65,
            "velocity": 69,
            "time": 3239
        },
        {
            "type": "note_on",
            "note": 79,
            "velocity": 74,
            "time": 3240
        },
        {
            "type": "note_on",
            "note": 72,
            "velocity": 71,
            "time": 3248
        },
        {
            "type": "note_on",
            "note": 74,
            "velocity": 76,
            "time": 3249
        },
        {
            "type": "note_on",
            "note": 77,
            "velocity": 72,
            "time": 3250
        },
        {
            "type": "note_on",
            "note": 58,
            "velocity": 71,
            "time": 3261
        },
        {
            "type": "note_off",
            "note": 74,
            "velocity": 83,
            "time": 5782
        },
        {
            "type": "note_off",
            "note": 72,
            "velocity": 89,
            "time": 5801
        },
        {
            "type": "note_off",
            "note": 77,
            "velocity": 96,
            "time": 5808
        },
        {
            "type": "note_off",
            "note": 65,
            "velocity": 96,
            "time": 5824
        },
        {
            "type": "note_off",
            "note": 58,
            "velocity": 95,
            "time": 5846
        },
        {
            "type": "note_off",
            "note": 79,
            "velocity": 93,
            "time": 5861
        }
    ],
    "notes": [
        {
            "type": "note_on",
            "note": 68,
            "velocity": 75,
            "time": 851
        },
        {
            "type": "note_off",
            "note": 68,
            "velocity": 86,
            "time": 1048
        },
        {
            "type": "note_on",
            "note": 72,
            "velocity": 79,
            "time": 1553
        },
        {
            "type": "note_off",
            "note": 72,
            "velocity": 84,
            "time": 2152
        },
        {
            "type": "note_on",
            "note": 75,
            "velocity": 90,
            "time": 2425
        },
        {
            "type": "note_off",
            "note": 75,
            "velocity": 94,
            "time": 2787
        },
        {
            "type": "note_on",
            "note": 79,
            "velocity": 85,
            "time": 2835
        },
        {
            "type": "note_off",
            "note": 79,
            "velocity": 85,
            "time": 3925
        },
        {
            "type": "note_on",
            "note": 77,
            "velocity": 77,
            "time": 4048
        },
        {
            "type": "note_on",
            "note": 72,
            "velocity": 25,
            "time": 4343
        },
        {
            "type": "note_off",
            "note": 77,
            "velocity": 83,
            "time": 4442
        },
        {
            "type": "note_on",
            "note": 74,
            "velocity": 41,
            "time": 4473
        },
        {
            "type": "note_off",
            "note": 72,
            "velocity": 87,
            "time": 4585
        },
        {
            "type": "note_off",
            "note": 74,
            "velocity": 90,
            "time": 5597
        },
        {
            "type": "note_on",
            "note": 72,
            "velocity": 85,
            "time": 5633
        },
        {
            "type": "note_on",
            "note": 70,
            "velocity": 87,
            "time": 6057
        },
        {
            "type": "note_off",
            "note": 72,
            "velocity": 70,
            "time": 6065
        },
        {
            "type": "note_off",
            "note": 70,
            "velocity": 89,
            "time": 7323
        }
    ]
}