{
    "bass": 36,
    "type": "minor",
    "backtrack": "/home/pi/raspiKeys/res/backtracks/processed_wav/upp-giveittoyou.wav",
    "backtrackDuration": 4.357347011566162,
    "nbOfLoops": 4,
    "chord_notes": [
        {
            "type": "note_on",
            "note": 58,
            "velocity": 60,
            "time": 0
        },
        {
            "type": "note_on",
            "note": 36,
            "velocity": 49,
            "time": 6
        },
        {
            "type": "note_on",
            "note": 62,
            "velocity": 65,
            "time": 12
        },
        {
            "type": "note_on",
            "note": 63,
            "velocity": 61,
            "time": 15
        },
        {
            "type": "note_on",
            "note": 67,
            "velocity": 57,
            "time": 18
        },
        {
            "type": "note_off",
            "note": 62,
            "velocity": 94,
            "time": 1727
        },
        {
            "type": "note_off",
            "note": 36,
            "velocity": 88,
            "time": 1842
        },
        {
            "type": "note_off",
            "note": 58,
            "velocity": 86,
            "time": 1870
        },
        {
            "type": "note_off",
            "note": 67,
            "velocity": 69,
            "time": 2117
        },
        {
            "type": "note_off",
            "note": 63,
            "velocity": 56,
            "time": 2121
        },
        {
            "type": "note_on",
            "note": 41,
            "velocity": 72,
            "time": 2255
        },
        {
            "type": "note_on",
            "note": 63,
            "velocity": 48,
            "time": 2265
        },
        {
            "type": "note_on",
            "note": 56,
            "velocity": 49,
            "time": 2271
        },
        {
            "type": "note_on",
            "note": 60,
            "velocity": 60,
            "time": 2290
        },
        {
            "type": "note_on",
            "note": 67,
            "velocity": 45,
            "time": 2291
        },
        {
            "type": "note_off",
            "note": 41,
            "velocity": 93,
            "time": 4010
        },
        {
            "type": "note_off",
            "note": 67,
            "velocity": 91,
            "time": 4012
        },
        {
            "type": "note_off",
            "note": 56,
            "velocity": 90,
            "time": 4091
        },
        {
            "type": "note_off",
            "note": 63,
            "velocity": 90,
            "time": 4113
        },
        {
            "type": "note_off",
            "note": 60,
            "velocity": 40,
            "time": 4254
        },
        {
            "type": "note_on",
            "note": 65,
            "velocity": 43,
            "time": 4462
        },
        {
            "type": "note_on",
            "note": 38,
            "velocity": 53,
            "time": 4464
        },
        {
            "type": "note_on",
            "note": 56,
            "velocity": 34,
            "time": 4469
        },
        {
            "type": "note_on",
            "note": 62,
            "velocity": 46,
            "time": 4475
        },
        {
            "type": "note_on",
            "note": 60,
            "velocity": 43,
            "time": 4475
        },
        {
            "type": "note_off",
            "note": 60,
            "velocity": 88,
            "time": 5072
        },
        {
            "type": "note_off",
            "note": 56,
            "velocity": 97,
            "time": 5211
        },
        {
            "type": "note_off",
            "note": 62,
            "velocity": 63,
            "time": 5397
        },
        {
            "type": "note_off",
            "note": 65,
            "velocity": 77,
            "time": 5474
        },
        {
            "type": "note_off",
            "note": 38,
            "velocity": 88,
            "time": 5564
        },
        {
            "type": "note_on",
            "note": 43,
            "velocity": 76,
            "time": 5580
        },
        {
            "type": "note_on",
            "note": 59,
            "velocity": 63,
            "time": 5585
        },
        {
            "type": "note_on",
            "note": 65,
            "velocity": 54,
            "time": 5588
        },
        {
            "type": "note_on",
            "note": 55,
            "velocity": 41,
            "time": 5595
        },
        {
            "type": "note_on",
            "note": 62,
            "velocity": 71,
            "time": 5601
        },
        {
            "type": "note_off",
            "note": 65,
            "velocity": 84,
            "time": 6034
        },
        {
            "type": "note_off",
            "note": 55,
            "velocity": 84,
            "time": 6170
        },
        {
            "type": "note_off",
            "note": 59,
            "velocity": 94,
            "time": 6185
        },
        {
            "type": "note_off",
            "note": 62,
            "velocity": 93,
            "time": 6212
        },
        {
            "type": "note_on",
            "note": 63,
            "velocity": 61,
            "time": 6577
        },
        {
            "type": "note_on",
            "note": 58,
            "velocity": 40,
            "time": 6585
        },
        {
            "type": "note_on",
            "note": 36,
            "velocity": 64,
            "time": 6600
        },
        {
            "type": "note_on",
            "note": 62,
            "velocity": 47,
            "time": 6603
        },
        {
            "type": "note_on",
            "note": 67,
            "velocity": 42,
            "time": 6606
        },
        {
            "type": "note_off",
            "note": 43,
            "velocity": 74,
            "time": 6612
        },
        {
            "type": "note_off",
            "note": 62,
            "velocity": 89,
            "time": 8233
        },
        {
            "type": "note_off",
            "note": 67,
            "velocity": 96,
            "time": 8307
        },
        {
            "type": "note_off",
            "note": 63,
            "velocity": 58,
            "time": 8317
        },
        {
            "type": "note_off",
            "note": 36,
            "velocity": 86,
            "time": 8383
        },
        {
            "type": "note_off",
            "note": 58,
            "velocity": 57,
            "time": 8424
        },
        {
            "type": "note_on",
            "note": 39,
            "velocity": 67,
            "time": 8821
        },
        {
            "type": "note_on",
            "note": 58,
            "velocity": 40,
            "time": 8828
        },
        {
            "type": "note_on",
            "note": 66,
            "velocity": 46,
            "time": 8828
        },
        {
            "type": "note_on",
            "note": 61,
            "velocity": 61,
            "time": 8831
        },
        {
            "type": "note_on",
            "note": 63,
            "velocity": 69,
            "time": 8848
        },
        {
            "type": "note_off",
            "note": 58,
            "velocity": 92,
            "time": 9652
        },
        {
            "type": "note_off",
            "note": 61,
            "velocity": 53,
            "time": 9686
        },
        {
            "type": "note_off",
            "note": 66,
            "velocity": 66,
            "time": 9786
        },
        {
            "type": "note_off",
            "note": 39,
            "velocity": 78,
            "time": 9837
        },
        {
            "type": "note_on",
            "note": 63,
            "velocity": 30,
            "time": 9856
        },
        {
            "type": "note_on",
            "note": 66,
            "velocity": 47,
            "time": 9870
        },
        {
            "type": "note_on",
            "note": 56,
            "velocity": 55,
            "time": 9871
        },
        {
            "type": "note_on",
            "note": 44,
            "velocity": 60,
            "time": 9896
        },
        {
            "type": "note_on",
            "note": 60,
            "velocity": 64,
            "time": 9901
        },
        {
            "type": "note_off",
            "note": 60,
            "velocity": 84,
            "time": 10463
        },
        {
            "type": "note_off",
            "note": 56,
            "velocity": 68,
            "time": 10505
        },
        {
            "type": "note_off",
            "note": 66,
            "velocity": 82,
            "time": 10633
        },
        {
            "type": "note_off",
            "note": 63,
            "velocity": 60,
            "time": 10820
        },
        {
            "type": "note_off",
            "note": 63,
            "velocity": 60,
            "time": 10821
        },
        {
            "type": "note_on",
            "note": 61,
            "velocity": 32,
            "time": 10963
        },
        {
            "type": "note_on",
            "note": 68,
            "velocity": 75,
            "time": 10966
        },
        {
            "type": "note_on",
            "note": 60,
            "velocity": 54,
            "time": 10979
        },
        {
            "type": "note_on",
            "note": 37,
            "velocity": 59,
            "time": 10982
        },
        {
            "type": "note_on",
            "note": 65,
            "velocity": 46,
            "time": 11001
        },
        {
            "type": "note_off",
            "note": 44,
            "velocity": 79,
            "time": 11145
        },
        {
            "type": "note_off",
            "note": 65,
            "velocity": 90,
            "time": 12472
        },
        {
            "type": "note_off",
            "note": 61,
            "velocity": 65,
            "time": 12485
        },
        {
            "type": "note_off",
            "note": 37,
            "velocity": 98,
            "time": 12745
        },
        {
            "type": "note_off",
            "note": 60,
            "velocity": 37,
            "time": 13056
        },
        {
            "type": "note_on",
            "note": 38,
            "velocity": 54,
            "time": 13143
        },
        {
            "type": "note_on",
            "note": 62,
            "velocity": 21,
            "time": 13145
        },
        {
            "type": "note_on",
            "note": 68,
            "velocity": 35,
            "time": 13145
        },
        {
            "type": "note_on",
            "note": 60,
            "velocity": 38,
            "time": 13152
        },
        {
            "type": "note_on",
            "note": 65,
            "velocity": 50,
            "time": 13158
        },
        {
            "type": "note_off",
            "note": 62,
            "velocity": 95,
            "time": 13886
        },
        {
            "type": "note_off",
            "note": 60,
            "velocity": 41,
            "time": 13968
        },
        {
            "type": "note_off",
            "note": 65,
            "velocity": 33,
            "time": 14116
        },
        {
            "type": "note_on",
            "note": 63,
            "velocity": 58,
            "time": 14244
        },
        {
            "type": "note_on",
            "note": 68,
            "velocity": 13,
            "time": 14255
        },
        {
            "type": "note_on",
            "note": 59,
            "velocity": 54,
            "time": 14272
        },
        {
            "type": "note_on",
            "note": 43,
            "velocity": 57,
            "time": 14276
        },
        {
            "type": "note_on",
            "note": 65,
            "velocity": 42,
            "time": 14290
        },
        {
            "type": "note_off",
            "note": 38,
            "velocity": 88,
            "time": 14292
        },
        {
            "type": "note_off",
            "note": 65,
            "velocity": 88,
            "time": 15047
        },
        {
            "type": "note_off",
            "note": 63,
            "velocity": 67,
            "time": 15126
        },
        {
            "type": "note_off",
            "note": 59,
            "velocity": 53,
            "time": 15129
        },
        {
            "type": "note_off",
            "note": 68,
            "velocity": 84,
            "time": 15182
        },
        {
            "type": "note_off",
            "note": 68,
            "velocity": 84,
            "time": 15184
        },
        {
            "type": "note_off",
            "note": 68,
            "velocity": 84,
            "time": 15184
        },
        {
            "type": "note_on",
            "note": 63,
            "velocity": 48,
            "time": 15359
        },
        {
            "type": "note_on",
            "note": 58,
            "velocity": 53,
            "time": 15362
        },
        {
            "type": "note_on",
            "note": 62,
            "velocity": 41,
            "time": 15388
        },
        {
            "type": "note_on",
            "note": 36,
            "velocity": 39,
            "time": 15393
        },
        {
            "type": "note_on",
            "note": 67,
            "velocity": 40,
            "time": 15431
        },
        {
            "type": "note_off",
            "note": 43,
            "velocity": 71,
            "time": 15556
        },
        {
            "type": "note_off",
            "note": 62,
            "velocity": 87,
            "time": 16897
        },
        {
            "type": "note_off",
            "note": 58,
            "velocity": 67,
            "time": 16905
        },
        {
            "type": "note_off",
            "note": 63,
            "velocity": 84,
            "time": 16954
        },
        {
            "type": "note_off",
            "note": 36,
            "velocity": 92,
            "time": 17012
        },
        {
            "type": "note_off",
            "note": 67,
            "velocity": 96,
            "time": 17013
        }
    ],
    "notes": [],
    "volumeBacktrack": 1.0,
    "additional_latency": 0
}