{
    "bass": 43,
    "type": "minor",
    "backtrack": "/home/pi/raspiKeys/res/backtracks/processed_wav/Sound4.wav",
    "backtrackDuration": 4.791201591491699,
    "nbOfLoops": 8,
    "chord_notes": [
        {
            "type": "note_on",
            "note": 63,
            "velocity": 45,
            "time": 0
        },
        {
            "type": "note_on",
            "note": 74,
            "velocity": 50,
            "time": 12
        },
        {
            "type": "note_on",
            "note": 48,
            "velocity": 39,
            "time": 15
        },
        {
            "type": "note_on",
            "note": 67,
            "velocity": 47,
            "time": 15
        },
        {
            "type": "note_on",
            "note": 58,
            "velocity": 36,
            "time": 16
        },
        {
            "type": "note_on",
            "note": 70,
            "velocity": 47,
            "time": 18
        },
        {
            "type": "note_off",
            "note": 74,
            "velocity": 86,
            "time": 971
        },
        {
            "type": "note_off",
            "note": 58,
            "velocity": 95,
            "time": 1034
        },
        {
            "type": "note_off",
            "note": 70,
            "velocity": 83,
            "time": 1077
        },
        {
            "type": "note_off",
            "note": 67,
            "velocity": 51,
            "time": 1113
        },
        {
            "type": "note_off",
            "note": 48,
            "velocity": 68,
            "time": 1160
        },
        {
            "type": "note_off",
            "note": 63,
            "velocity": 59,
            "time": 1162
        },
        {
            "type": "note_on",
            "note": 63,
            "velocity": 38,
            "time": 1321
        },
        {
            "type": "note_on",
            "note": 72,
            "velocity": 49,
            "time": 1334
        },
        {
            "type": "note_on",
            "note": 67,
            "velocity": 43,
            "time": 1340
        },
        {
            "type": "note_on",
            "note": 53,
            "velocity": 38,
            "time": 1371
        },
        {
            "type": "note_on",
            "note": 69,
            "velocity": 41,
            "time": 1375
        },
        {
            "type": "note_on",
            "note": 57,
            "velocity": 35,
            "time": 1379
        },
        {
            "type": "note_off",
            "note": 67,
            "velocity": 90,
            "time": 1993
        },
        {
            "type": "note_off",
            "note": 53,
            "velocity": 83,
            "time": 1996
        },
        {
            "type": "note_off",
            "note": 69,
            "velocity": 88,
            "time": 2018
        },
        {
            "type": "note_off",
            "note": 63,
            "velocity": 96,
            "time": 2075
        },
        {
            "type": "note_off",
            "note": 57,
            "velocity": 86,
            "time": 2110
        },
        {
            "type": "note_off",
            "note": 72,
            "velocity": 70,
            "time": 2297
        },
        {
            "type": "note_on",
            "note": 72,
            "velocity": 36,
            "time": 2444
        },
        {
            "type": "note_on",
            "note": 62,
            "velocity": 43,
            "time": 2458
        },
        {
            "type": "note_on",
            "note": 65,
            "velocity": 42,
            "time": 2471
        },
        {
            "type": "note_on",
            "note": 69,
            "velocity": 51,
            "time": 2478
        },
        {
            "type": "note_on",
            "note": 50,
            "velocity": 39,
            "time": 2533
        },
        {
            "type": "note_off",
            "note": 65,
            "velocity": 93,
            "time": 3217
        },
        {
            "type": "note_off",
            "note": 69,
            "velocity": 93,
            "time": 3255
        },
        {
            "type": "note_off",
            "note": 72,
            "velocity": 92,
            "time": 3262
        },
        {
            "type": "note_off",
            "note": 50,
            "velocity": 57,
            "time": 3263
        },
        {
            "type": "note_off",
            "note": 62,
            "velocity": 57,
            "time": 3362
        },
        {
            "type": "note_on",
            "note": 63,
            "velocity": 50,
            "time": 3637
        },
        {
            "type": "note_on",
            "note": 70,
            "velocity": 55,
            "time": 3637
        },
        {
            "type": "note_on",
            "note": 62,
            "velocity": 44,
            "time": 3644
        },
        {
            "type": "note_on",
            "note": 67,
            "velocity": 34,
            "time": 3706
        },
        {
            "type": "note_on",
            "note": 55,
            "velocity": 20,
            "time": 3716
        },
        {
            "type": "note_on",
            "note": 51,
            "velocity": 31,
            "time": 3717
        },
        {
            "type": "note_on",
            "note": 50,
            "velocity": 39,
            "time": 3734
        },
        {
            "type": "note_on",
            "note": 46,
            "velocity": 27,
            "time": 3749
        },
        {
            "type": "note_off",
            "note": 50,
            "velocity": 58,
            "time": 4261
        },
        {
            "type": "note_off",
            "note": 51,
            "velocity": 74,
            "time": 4331
        },
        {
            "type": "note_off",
            "note": 70,
            "velocity": 83,
            "time": 4367
        },
        {
            "type": "note_off",
            "note": 46,
            "velocity": 90,
            "time": 4384
        },
        {
            "type": "note_off",
            "note": 62,
            "velocity": 43,
            "time": 4431
        },
        {
            "type": "note_off",
            "note": 63,
            "velocity": 47,
            "time": 4433
        },
        {
            "type": "note_off",
            "note": 55,
            "velocity": 29,
            "time": 4447
        },
        {
            "type": "note_off",
            "note": 67,
            "velocity": 20,
            "time": 4551
        },
        {
            "type": "note_on",
            "note": 63,
            "velocity": 45,
            "time": 4805
        },
        {
            "type": "note_on",
            "note": 67,
            "velocity": 50,
            "time": 4818
        },
        {
            "type": "note_on",
            "note": 60,
            "velocity": 34,
            "time": 4823
        },
        {
            "type": "note_on",
            "note": 69,
            "velocity": 47,
            "time": 4846
        },
        {
            "type": "note_on",
            "note": 55,
            "velocity": 20,
            "time": 4853
        },
        {
            "type": "note_on",
            "note": 51,
            "velocity": 36,
            "time": 4864
        },
        {
            "type": "note_on",
            "note": 48,
            "velocity": 36,
            "time": 4868
        },
        {
            "type": "note_on",
            "note": 45,
            "velocity": 31,
            "time": 4878
        },
        {
            "type": "note_off",
            "note": 55,
            "velocity": 90,
            "time": 5502
        },
        {
            "type": "note_off",
            "note": 67,
            "velocity": 86,
            "time": 5515
        },
        {
            "type": "note_off",
            "note": 69,
            "velocity": 90,
            "time": 5558
        },
        {
            "type": "note_off",
            "note": 48,
            "velocity": 83,
            "time": 5560
        },
        {
            "type": "note_off",
            "note": 51,
            "velocity": 82,
            "time": 5582
        },
        {
            "type": "note_off",
            "note": 45,
            "velocity": 66,
            "time": 5640
        },
        {
            "type": "note_off",
            "note": 63,
            "velocity": 64,
            "time": 5662
        },
        {
            "type": "note_off",
            "note": 60,
            "velocity": 64,
            "time": 5674
        },
        {
            "type": "note_on",
            "note": 66,
            "velocity": 39,
            "time": 5996
        },
        {
            "type": "note_on",
            "note": 60,
            "velocity": 51,
            "time": 6004
        },
        {
            "type": "note_on",
            "note": 62,
            "velocity": 43,
            "time": 6008
        },
        {
            "type": "note_on",
            "note": 70,
            "velocity": 52,
            "time": 6016
        },
        {
            "type": "note_on",
            "note": 45,
            "velocity": 33,
            "time": 6020
        },
        {
            "type": "note_on",
            "note": 54,
            "velocity": 41,
            "time": 6022
        },
        {
            "type": "note_on",
            "note": 50,
            "velocity": 50,
            "time": 6031
        },
        {
            "type": "note_off",
            "note": 45,
            "velocity": 87,
            "time": 6742
        },
        {
            "type": "note_off",
            "note": 50,
            "velocity": 89,
            "time": 6775
        },
        {
            "type": "note_off",
            "note": 60,
            "velocity": 76,
            "time": 6810
        },
        {
            "type": "note_off",
            "note": 62,
            "velocity": 86,
            "time": 6820
        },
        {
            "type": "note_off",
            "note": 70,
            "velocity": 83,
            "time": 6827
        },
        {
            "type": "note_off",
            "note": 66,
            "velocity": 76,
            "time": 6833
        },
        {
            "type": "note_off",
            "note": 54,
            "velocity": 94,
            "time": 6838
        },
        {
            "type": "note_on",
            "note": 69,
            "velocity": 42,
            "time": 7215
        },
        {
            "type": "note_on",
            "note": 58,
            "velocity": 34,
            "time": 7219
        },
        {
            "type": "note_on",
            "note": 53,
            "velocity": 36,
            "time": 7232
        },
        {
            "type": "note_on",
            "note": 43,
            "velocity": 40,
            "time": 7241
        },
        {
            "type": "note_on",
            "note": 62,
            "velocity": 43,
            "time": 7245
        },
        {
            "type": "note_on",
            "note": 65,
            "velocity": 41,
            "time": 7262
        },
        {
            "type": "note_off",
            "note": 43,
            "velocity": 92,
            "time": 8899
        },
        {
            "type": "note_off",
            "note": 58,
            "velocity": 96,
            "time": 8916
        },
        {
            "type": "note_off",
            "note": 62,
            "velocity": 82,
            "time": 8918
        },
        {
            "type": "note_off",
            "note": 69,
            "velocity": 89,
            "time": 8970
        },
        {
            "type": "note_off",
            "note": 65,
            "velocity": 67,
            "time": 8970
        },
        {
            "type": "note_off",
            "note": 53,
            "velocity": 81,
            "time": 9007
        },
        {
            "type": "note_on",
            "note": 70,
            "velocity": 64,
            "time": 9638
        },
        {
            "type": "note_on",
            "note": 63,
            "velocity": 46,
            "time": 9649
        },
        {
            "type": "note_on",
            "note": 62,
            "velocity": 61,
            "time": 9654
        },
        {
            "type": "note_on",
            "note": 58,
            "velocity": 49,
            "time": 9657
        },
        {
            "type": "note_on",
            "note": 48,
            "velocity": 38,
            "time": 9689
        },
        {
            "type": "note_on",
            "note": 51,
            "velocity": 42,
            "time": 9704
        },
        {
            "type": "note_on",
            "note": 67,
            "velocity": 35,
            "time": 9705
        },
        {
            "type": "note_off",
            "note": 67,
            "velocity": 71,
            "time": 10496
        },
        {
            "type": "note_off",
            "note": 58,
            "velocity": 97,
            "time": 10503
        },
        {
            "type": "note_off",
            "note": 62,
            "velocity": 67,
            "time": 10509
        },
        {
            "type": "note_off",
            "note": 70,
            "velocity": 80,
            "time": 10525
        },
        {
            "type": "note_off",
            "note": 48,
            "velocity": 56,
            "time": 10547
        },
        {
            "type": "note_off",
            "note": 51,
            "velocity": 46,
            "time": 10558
        },
        {
            "type": "note_off",
            "note": 63,
            "velocity": 71,
            "time": 10559
        },
        {
            "type": "note_on",
            "note": 63,
            "velocity": 37,
            "time": 10792
        },
        {
            "type": "note_on",
            "note": 69,
            "velocity": 50,
            "time": 10803
        },
        {
            "type": "note_on",
            "note": 57,
            "velocity": 33,
            "time": 10836
        },
        {
            "type": "note_on",
            "note": 65,
            "velocity": 39,
            "time": 10841
        },
        {
            "type": "note_on",
            "note": 51,
            "velocity": 38,
            "time": 10855
        },
        {
            "type": "note_on",
            "note": 48,
            "velocity": 37,
            "time": 10865
        },
        {
            "type": "note_on",
            "note": 53,
            "velocity": 36,
            "time": 10891
        },
        {
            "type": "note_off",
            "note": 63,
            "velocity": 94,
            "time": 11444
        },
        {
            "type": "note_off",
            "note": 53,
            "velocity": 86,
            "time": 11475
        },
        {
            "type": "note_off",
            "note": 48,
            "velocity": 79,
            "time": 11496
        },
        {
            "type": "note_off",
            "note": 51,
            "velocity": 87,
            "time": 11517
        },
        {
            "type": "note_off",
            "note": 57,
            "velocity": 71,
            "time": 11598
        },
        {
            "type": "note_off",
            "note": 65,
            "velocity": 53,
            "time": 11608
        },
        {
            "type": "note_off",
            "note": 69,
            "velocity": 64,
            "time": 11688
        },
        {
            "type": "note_on",
            "note": 69,
            "velocity": 45,
            "time": 11999
        },
        {
            "type": "note_on",
            "note": 62,
            "velocity": 46,
            "time": 12002
        },
        {
            "type": "note_on",
            "note": 46,
            "velocity": 30,
            "time": 12003
        },
        {
            "type": "note_on",
            "note": 60,
            "velocity": 36,
            "time": 12005
        },
        {
            "type": "note_on",
            "note": 65,
            "velocity": 40,
            "time": 12008
        },
        {
            "type": "note_on",
            "note": 50,
            "velocity": 47,
            "time": 12023
        },
        {
            "type": "note_on",
            "note": 53,
            "velocity": 34,
            "time": 12052
        },
        {
            "type": "note_off",
            "note": 60,
            "velocity": 71,
            "time": 12658
        },
        {
            "type": "note_off",
            "note": 53,
            "velocity": 68,
            "time": 12682
        },
        {
            "type": "note_off",
            "note": 50,
            "velocity": 59,
            "time": 12736
        },
        {
            "type": "note_off",
            "note": 65,
            "velocity": 75,
            "time": 12737
        },
        {
            "type": "note_off",
            "note": 62,
            "velocity": 70,
            "time": 12739
        },
        {
            "type": "note_off",
            "note": 69,
            "velocity": 57,
            "time": 12812
        },
        {
            "type": "note_off",
            "note": 46,
            "velocity": 64,
            "time": 12865
        },
        {
            "type": "note_on",
            "note": 58,
            "velocity": 40,
            "time": 13172
        },
        {
            "type": "note_on",
            "note": 69,
            "velocity": 39,
            "time": 13187
        },
        {
            "type": "note_on",
            "note": 55,
            "velocity": 38,
            "time": 13190
        },
        {
            "type": "note_on",
            "note": 62,
            "velocity": 47,
            "time": 13194
        },
        {
            "type": "note_on",
            "note": 46,
            "velocity": 46,
            "time": 13203
        },
        {
            "type": "note_on",
            "note": 51,
            "velocity": 44,
            "time": 13203
        },
        {
            "type": "note_on",
            "note": 65,
            "velocity": 43,
            "time": 13221
        },
        {
            "type": "note_off",
            "note": 51,
            "velocity": 83,
            "time": 13844
        },
        {
            "type": "note_off",
            "note": 65,
            "velocity": 77,
            "time": 13873
        },
        {
            "type": "note_off",
            "note": 62,
            "velocity": 84,
            "time": 13875
        },
        {
            "type": "note_off",
            "note": 58,
            "velocity": 98,
            "time": 13898
        },
        {
            "type": "note_off",
            "note": 69,
            "velocity": 87,
            "time": 13917
        },
        {
            "type": "note_off",
            "note": 46,
            "velocity": 90,
            "time": 13924
        },
        {
            "type": "note_off",
            "note": 55,
            "velocity": 71,
            "time": 13926
        },
        {
            "type": "note_on",
            "note": 67,
            "velocity": 43,
            "time": 14401
        },
        {
            "type": "note_on",
            "note": 45,
            "velocity": 33,
            "time": 14405
        },
        {
            "type": "note_on",
            "note": 51,
            "velocity": 52,
            "time": 14410
        },
        {
            "type": "note_on",
            "note": 63,
            "velocity": 59,
            "time": 14412
        },
        {
            "type": "note_on",
            "note": 60,
            "velocity": 37,
            "time": 14437
        },
        {
            "type": "note_off",
            "note": 45,
            "velocity": 86,
            "time": 15002
        },
        {
            "type": "note_off",
            "note": 51,
            "velocity": 82,
            "time": 15087
        },
        {
            "type": "note_off",
            "note": 67,
            "velocity": 89,
            "time": 15106
        },
        {
            "type": "note_off",
            "note": 60,
            "velocity": 86,
            "time": 15147
        },
        {
            "type": "note_off",
            "note": 63,
            "velocity": 86,
            "time": 15155
        },
        {
            "type": "note_on",
            "note": 70,
            "velocity": 53,
            "time": 15619
        },
        {
            "type": "note_on",
            "note": 66,
            "velocity": 52,
            "time": 15632
        },
        {
            "type": "note_on",
            "note": 57,
            "velocity": 37,
            "time": 15643
        },
        {
            "type": "note_on",
            "note": 60,
            "velocity": 31,
            "time": 15654
        },
        {
            "type": "note_on",
            "note": 62,
            "velocity": 39,
            "time": 15658
        },
        {
            "type": "note_on",
            "note": 50,
            "velocity": 45,
            "time": 15665
        },
        {
            "type": "note_off",
            "note": 57,
            "velocity": 86,
            "time": 16267
        },
        {
            "type": "note_off",
            "note": 70,
            "velocity": 82,
            "time": 16298
        },
        {
            "type": "note_off",
            "note": 66,
            "velocity": 62,
            "time": 16330
        },
        {
            "type": "note_off",
            "note": 50,
            "velocity": 92,
            "time": 16343
        },
        {
            "type": "note_off",
            "note": 60,
            "velocity": 71,
            "time": 16354
        },
        {
            "type": "note_off",
            "note": 62,
            "velocity": 63,
            "time": 16382
        },
        {
            "type": "note_on",
            "note": 58,
            "velocity": 34,
            "time": 16804
        },
        {
            "type": "note_on",
            "note": 55,
            "velocity": 34,
            "time": 16809
        },
        {
            "type": "note_on",
            "note": 65,
            "velocity": 45,
            "time": 16811
        },
        {
            "type": "note_on",
            "note": 43,
            "velocity": 33,
            "time": 16811
        },
        {
            "type": "note_on",
            "note": 62,
            "velocity": 47,
            "time": 16839
        },
        {
            "type": "note_off",
            "note": 62,
            "velocity": 89,
            "time": 18461
        },
        {
            "type": "note_off",
            "note": 43,
            "velocity": 74,
            "time": 18486
        },
        {
            "type": "note_off",
            "note": 55,
            "velocity": 69,
            "time": 18533
        },
        {
            "type": "note_off",
            "note": 58,
            "velocity": 93,
            "time": 18541
        },
        {
            "type": "note_off",
            "note": 65,
            "velocity": 68,
            "time": 18583
        },
        {
            "type": "note_on",
            "note": 60,
            "velocity": 44,
            "time": 19224
        },
        {
            "type": "note_on",
            "note": 63,
            "velocity": 49,
            "time": 19228
        },
        {
            "type": "note_on",
            "note": 45,
            "velocity": 44,
            "time": 19233
        },
        {
            "type": "note_on",
            "note": 69,
            "velocity": 51,
            "time": 19245
        },
        {
            "type": "note_on",
            "note": 57,
            "velocity": 24,
            "time": 19246
        },
        {
            "type": "note_on",
            "note": 67,
            "velocity": 43,
            "time": 19262
        },
        {
            "type": "note_off",
            "note": 45,
            "velocity": 90,
            "time": 19927
        },
        {
            "type": "note_off",
            "note": 67,
            "velocity": 74,
            "time": 19954
        },
        {
            "type": "note_off",
            "note": 57,
            "velocity": 44,
            "time": 20021
        },
        {
            "type": "note_off",
            "note": 63,
            "velocity": 60,
            "time": 20022
        },
        {
            "type": "note_off",
            "note": 60,
            "velocity": 58,
            "time": 20141
        },
        {
            "type": "note_off",
            "note": 69,
            "velocity": 71,
            "time": 20167
        },
        {
            "type": "note_on",
            "note": 69,
            "velocity": 42,
            "time": 20432
        },
        {
            "type": "note_on",
            "note": 63,
            "velocity": 41,
            "time": 20435
        },
        {
            "type": "note_on",
            "note": 60,
            "velocity": 34,
            "time": 20444
        },
        {
            "type": "note_on",
            "note": 66,
            "velocity": 49,
            "time": 20448
        },
        {
            "type": "note_on",
            "note": 50,
            "velocity": 41,
            "time": 20451
        },
        {
            "type": "note_on",
            "note": 57,
            "velocity": 33,
            "time": 20459
        },
        {
            "type": "note_off",
            "note": 57,
            "velocity": 87,
            "time": 21146
        },
        {
            "type": "note_off",
            "note": 60,
            "velocity": 78,
            "time": 21150
        },
        {
            "type": "note_off",
            "note": 66,
            "velocity": 83,
            "time": 21163
        },
        {
            "type": "note_off",
            "note": 50,
            "velocity": 90,
            "time": 21203
        },
        {
            "type": "note_off",
            "note": 63,
            "velocity": 70,
            "time": 21218
        },
        {
            "type": "note_off",
            "note": 69,
            "velocity": 87,
            "time": 21362
        },
        {
            "type": "note_on",
            "note": 58,
            "velocity": 39,
            "time": 21652
        },
        {
            "type": "note_on",
            "note": 43,
            "velocity": 26,
            "time": 21664
        },
        {
            "type": "note_on",
            "note": 69,
            "velocity": 34,
            "time": 21676
        },
        {
            "type": "note_on",
            "note": 65,
            "velocity": 43,
            "time": 21676
        },
        {
            "type": "note_on",
            "note": 62,
            "velocity": 44,
            "time": 21678
        },
        {
            "type": "note_on",
            "note": 55,
            "velocity": 37,
            "time": 21718
        },
        {
            "type": "note_off",
            "note": 43,
            "velocity": 92,
            "time": 23319
        },
        {
            "type": "note_off",
            "note": 62,
            "velocity": 78,
            "time": 23379
        },
        {
            "type": "note_off",
            "note": 55,
            "velocity": 72,
            "time": 23426
        },
        {
            "type": "note_off",
            "note": 58,
            "velocity": 92,
            "time": 23427
        },
        {
            "type": "note_off",
            "note": 69,
            "velocity": 87,
            "time": 23458
        },
        {
            "type": "note_off",
            "note": 65,
            "velocity": 55,
            "time": 23476
        },
        {
            "type": "note_on",
            "note": 70,
            "velocity": 56,
            "time": 24009
        },
        {
            "type": "note_on",
            "note": 62,
            "velocity": 38,
            "time": 24022
        },
        {
            "type": "note_on",
            "note": 48,
            "velocity": 41,
            "time": 24023
        },
        {
            "type": "note_on",
            "note": 58,
            "velocity": 33,
            "time": 24036
        },
        {
            "type": "note_on",
            "note": 63,
            "velocity": 31,
            "time": 24048
        },
        {
            "type": "note_on",
            "note": 67,
            "velocity": 37,
            "time": 24052
        },
        {
            "type": "note_off",
            "note": 48,
            "velocity": 84,
            "time": 24670
        },
        {
            "type": "note_off",
            "note": 58,
            "velocity": 87,
            "time": 24689
        },
        {
            "type": "note_off",
            "note": 70,
            "velocity": 85,
            "time": 24743
        },
        {
            "type": "note_off",
            "note": 67,
            "velocity": 59,
            "time": 24756
        },
        {
            "type": "note_off",
            "note": 63,
            "velocity": 55,
            "time": 24790
        },
        {
            "type": "note_off",
            "note": 62,
            "velocity": 58,
            "time": 24798
        },
        {
            "type": "note_on",
            "note": 69,
            "velocity": 49,
            "time": 25198
        },
        {
            "type": "note_on",
            "note": 41,
            "velocity": 42,
            "time": 25208
        },
        {
            "type": "note_on",
            "note": 60,
            "velocity": 33,
            "time": 25215
        },
        {
            "type": "note_on",
            "note": 65,
            "velocity": 42,
            "time": 25243
        },
        {
            "type": "note_on",
            "note": 51,
            "velocity": 36,
            "time": 25253
        },
        {
            "type": "note_off",
            "note": 41,
            "velocity": 83,
            "time": 25857
        },
        {
            "type": "note_off",
            "note": 51,
            "velocity": 64,
            "time": 25892
        },
        {
            "type": "note_off",
            "note": 60,
            "velocity": 50,
            "time": 26075
        },
        {
            "type": "note_off",
            "note": 65,
            "velocity": 69,
            "time": 26075
        },
        {
            "type": "note_off",
            "note": 69,
            "velocity": 53,
            "time": 26086
        },
        {
            "type": "note_on",
            "note": 46,
            "velocity": 40,
            "time": 26378
        },
        {
            "type": "note_on",
            "note": 60,
            "velocity": 31,
            "time": 26391
        },
        {
            "type": "note_on",
            "note": 69,
            "velocity": 39,
            "time": 26391
        },
        {
            "type": "note_on",
            "note": 53,
            "velocity": 40,
            "time": 26393
        },
        {
            "type": "note_on",
            "note": 65,
            "velocity": 40,
            "time": 26393
        },
        {
            "type": "note_on",
            "note": 62,
            "velocity": 43,
            "time": 26399
        },
        {
            "type": "note_off",
            "note": 53,
            "velocity": 87,
            "time": 27038
        },
        {
            "type": "note_off",
            "note": 46,
            "velocity": 70,
            "time": 27058
        },
        {
            "type": "note_off",
            "note": 62,
            "velocity": 83,
            "time": 27096
        },
        {
            "type": "note_off",
            "note": 60,
            "velocity": 66,
            "time": 27175
        },
        {
            "type": "note_off",
            "note": 65,
            "velocity": 53,
            "time": 27226
        },
        {
            "type": "note_off",
            "note": 69,
            "velocity": 55,
            "time": 27275
        },
        {
            "type": "note_on",
            "note": 51,
            "velocity": 41,
            "time": 27615
        },
        {
            "type": "note_on",
            "note": 58,
            "velocity": 51,
            "time": 27617
        },
        {
            "type": "note_on",
            "note": 63,
            "velocity": 41,
            "time": 27618
        },
        {
            "type": "note_on",
            "note": 62,
            "velocity": 33,
            "time": 27626
        },
        {
            "type": "note_on",
            "note": 67,
            "velocity": 51,
            "time": 27634
        },
        {
            "type": "note_off",
            "note": 58,
            "velocity": 71,
            "time": 28241
        },
        {
            "type": "note_off",
            "note": 51,
            "velocity": 87,
            "time": 28300
        },
        {
            "type": "note_off",
            "note": 62,
            "velocity": 49,
            "time": 28377
        },
        {
            "type": "note_off",
            "note": 63,
            "velocity": 56,
            "time": 28412
        },
        {
            "type": "note_off",
            "note": 67,
            "velocity": 77,
            "time": 28532
        },
        {
            "type": "note_on",
            "note": 45,
            "velocity": 37,
            "time": 28750
        },
        {
            "type": "note_on",
            "note": 63,
            "velocity": 48,
            "time": 28768
        },
        {
            "type": "note_on",
            "note": 60,
            "velocity": 36,
            "time": 28770
        },
        {
            "type": "note_on",
            "note": 67,
            "velocity": 43,
            "time": 28771
        },
        {
            "type": "note_on",
            "note": 69,
            "velocity": 48,
            "time": 28783
        },
        {
            "type": "note_off",
            "note": 45,
            "velocity": 91,
            "time": 29476
        },
        {
            "type": "note_off",
            "note": 67,
            "velocity": 87,
            "time": 29490
        },
        {
            "type": "note_off",
            "note": 63,
            "velocity": 92,
            "time": 29504
        },
        {
            "type": "note_off",
            "note": 60,
            "velocity": 74,
            "time": 29718
        },
        {
            "type": "note_off",
            "note": 69,
            "velocity": 62,
            "time": 29736
        },
        {
            "type": "note_on",
            "note": 50,
            "velocity": 39,
            "time": 29976
        },
        {
            "type": "note_on",
            "note": 66,
            "velocity": 45,
            "time": 29980
        },
        {
            "type": "note_on",
            "note": 57,
            "velocity": 29,
            "time": 29982
        },
        {
            "type": "note_on",
            "note": 60,
            "velocity": 36,
            "time": 29987
        },
        {
            "type": "note_on",
            "note": 62,
            "velocity": 36,
            "time": 29989
        },
        {
            "type": "note_on",
            "note": 69,
            "velocity": 42,
            "time": 29992
        },
        {
            "type": "note_off",
            "note": 66,
            "velocity": 85,
            "time": 30514
        },
        {
            "type": "note_off",
            "note": 57,
            "velocity": 79,
            "time": 30538
        },
        {
            "type": "note_off",
            "note": 50,
            "velocity": 95,
            "time": 30578
        },
        {
            "type": "note_off",
            "note": 62,
            "velocity": 81,
            "time": 30580
        },
        {
            "type": "note_off",
            "note": 60,
            "velocity": 49,
            "time": 30609
        },
        {
            "type": "note_off",
            "note": 69,
            "velocity": 47,
            "time": 30657
        },
        {
            "type": "note_on",
            "note": 58,
            "velocity": 77,
            "time": 31147
        },
        {
            "type": "note_on",
            "note": 55,
            "velocity": 33,
            "time": 31165
        },
        {
            "type": "note_on",
            "note": 69,
            "velocity": 39,
            "time": 31180
        },
        {
            "type": "note_on",
            "note": 62,
            "velocity": 41,
            "time": 31183
        },
        {
            "type": "note_on",
            "note": 43,
            "velocity": 35,
            "time": 31185
        },
        {
            "type": "note_on",
            "note": 65,
            "velocity": 45,
            "time": 31185
        },
        {
            "type": "note_off",
            "note": 69,
            "velocity": 97,
            "time": 31263
        },
        {
            "type": "note_off",
            "note": 62,
            "velocity": 101,
            "time": 31270
        },
        {
            "type": "note_off",
            "note": 65,
            "velocity": 77,
            "time": 31274
        },
        {
            "type": "note_off",
            "note": 43,
            "velocity": 70,
            "time": 31297
        },
        {
            "type": "note_off",
            "note": 55,
            "velocity": 62,
            "time": 31300
        },
        {
            "type": "note_off",
            "note": 58,
            "velocity": 52,
            "time": 31361
        },
        {
            "type": "note_on",
            "note": 42,
            "velocity": 52,
            "time": 31793
        },
        {
            "type": "note_on",
            "note": 54,
            "velocity": 55,
            "time": 31816
        },
        {
            "type": "note_on",
            "note": 58,
            "velocity": 29,
            "time": 31831
        },
        {
            "type": "note_on",
            "note": 63,
            "velocity": 70,
            "time": 31840
        },
        {
            "type": "note_off",
            "note": 54,
            "velocity": 91,
            "time": 31952
        },
        {
            "type": "note_off",
            "note": 58,
            "velocity": 65,
            "time": 31961
        },
        {
            "type": "note_off",
            "note": 42,
            "velocity": 79,
            "time": 31984
        },
        {
            "type": "note_off",
            "note": 63,
            "velocity": 87,
            "time": 31990
        },
        {
            "type": "note_on",
            "note": 63,
            "velocity": 68,
            "time": 32397
        },
        {
            "type": "note_on",
            "note": 41,
            "velocity": 39,
            "time": 32400
        },
        {
            "type": "note_on",
            "note": 56,
            "velocity": 62,
            "time": 32404
        },
        {
            "type": "note_on",
            "note": 67,
            "velocity": 47,
            "time": 32411
        },
        {
            "type": "note_on",
            "note": 60,
            "velocity": 33,
            "time": 32437
        },
        {
            "type": "note_off",
            "note": 56,
            "velocity": 88,
            "time": 32545
        },
        {
            "type": "note_off",
            "note": 60,
            "velocity": 43,
            "time": 32548
        },
        {
            "type": "note_off",
            "note": 41,
            "velocity": 86,
            "time": 32568
        },
        {
            "type": "note_off",
            "note": 63,
            "velocity": 55,
            "time": 32609
        },
        {
            "type": "note_off",
            "note": 67,
            "velocity": 64,
            "time": 32822
        },
        {
            "type": "note_on",
            "note": 65,
            "velocity": 57,
            "time": 32982
        },
        {
            "type": "note_on",
            "note": 58,
            "velocity": 55,
            "time": 32986
        },
        {
            "type": "note_on",
            "note": 62,
            "velocity": 55,
            "time": 32998
        },
        {
            "type": "note_on",
            "note": 46,
            "velocity": 45,
            "time": 33025
        },
        {
            "type": "note_off",
            "note": 62,
            "velocity": 53,
            "time": 33125
        },
        {
            "type": "note_off",
            "note": 58,
            "velocity": 51,
            "time": 33189
        },
        {
            "type": "note_off",
            "note": 46,
            "velocity": 85,
            "time": 33196
        },
        {
            "type": "note_off",
            "note": 65,
            "velocity": 66,
            "time": 33228
        },
        {
            "type": "note_on",
            "note": 58,
            "velocity": 41,
            "time": 33585
        },
        {
            "type": "note_on",
            "note": 63,
            "velocity": 44,
            "time": 33598
        },
        {
            "type": "note_on",
            "note": 51,
            "velocity": 41,
            "time": 33607
        },
        {
            "type": "note_on",
            "note": 62,
            "velocity": 55,
            "time": 33610
        },
        {
            "type": "note_on",
            "note": 67,
            "velocity": 35,
            "time": 33613
        },
        {
            "type": "note_off",
            "note": 62,
            "velocity": 90,
            "time": 34255
        },
        {
            "type": "note_off",
            "note": 67,
            "velocity": 89,
            "time": 34395
        },
        {
            "type": "note_off",
            "note": 58,
            "velocity": 95,
            "time": 34422
        },
        {
            "type": "note_off",
            "note": 63,
            "velocity": 87,
            "time": 34433
        },
        {
            "type": "note_off",
            "note": 51,
            "velocity": 65,
            "time": 34482
        },
        {
            "type": "note_on",
            "note": 66,
            "velocity": 36,
            "time": 34780
        },
        {
            "type": "note_on",
            "note": 50,
            "velocity": 41,
            "time": 34811
        },
        {
            "type": "note_on",
            "note": 62,
            "velocity": 33,
            "time": 34814
        },
        {
            "type": "note_on",
            "note": 57,
            "velocity": 30,
            "time": 34827
        },
        {
            "type": "note_on",
            "note": 60,
            "velocity": 37,
            "time": 34844
        },
        {
            "type": "note_off",
            "note": 60,
            "velocity": 86,
            "time": 35593
        },
        {
            "type": "note_off",
            "note": 62,
            "velocity": 87,
            "time": 35606
        },
        {
            "type": "note_off",
            "note": 50,
            "velocity": 91,
            "time": 35626
        },
        {
            "type": "note_off",
            "note": 57,
            "velocity": 51,
            "time": 35697
        },
        {
            "type": "note_off",
            "note": 66,
            "velocity": 85,
            "time": 35722
        },
        {
            "type": "note_on",
            "note": 65,
            "velocity": 43,
            "time": 35941
        },
        {
            "type": "note_on",
            "note": 58,
            "velocity": 50,
            "time": 35954
        },
        {
            "type": "note_on",
            "note": 57,
            "velocity": 33,
            "time": 35957
        },
        {
            "type": "note_on",
            "note": 62,
            "velocity": 45,
            "time": 35976
        },
        {
            "type": "note_on",
            "note": 43,
            "velocity": 29,
            "time": 35989
        },
        {
            "type": "note_off",
            "note": 43,
            "velocity": 90,
            "time": 37671
        },
        {
            "type": "note_off",
            "note": 57,
            "velocity": 77,
            "time": 37680
        },
        {
            "type": "note_off",
            "note": 58,
            "velocity": 76,
            "time": 37701
        },
        {
            "type": "note_off",
            "note": 65,
            "velocity": 88,
            "time": 37705
        },
        {
            "type": "note_off",
            "note": 62,
            "velocity": 88,
            "time": 37737
        }
    ],
    "notes": [],
    "volumeBacktrack": 1.0,
    "additional_latency": 0
}