{
    "bass": 49,
    "type": "major",
    "backtrack": "/home/pi/raspiKeys/res/backtracks/processed_wav/Groove Loop_03 90 BPM.wav",
    "backtrackDuration": 5.340498924255371,
    "nbOfLoops": 4,
    "chord_notes": [
        {
            "type": "note_on",
            "note": 63,
            "velocity": 52,
            "time": 0
        },
        {
            "type": "note_on",
            "note": 61,
            "velocity": 32,
            "time": 25
        },
        {
            "type": "note_on",
            "note": 66,
            "velocity": 40,
            "time": 29
        },
        {
            "type": "note_on",
            "note": 58,
            "velocity": 38,
            "time": 35
        },
        {
            "type": "note_on",
            "note": 51,
            "velocity": 43,
            "time": 41
        },
        {
            "type": "note_on",
            "note": 70,
            "velocity": 44,
            "time": 46
        },
        {
            "type": "note_off",
            "note": 66,
            "velocity": 62,
            "time": 1033
        },
        {
            "type": "note_off",
            "note": 63,
            "velocity": 77,
            "time": 1057
        },
        {
            "type": "note_off",
            "note": 51,
            "velocity": 81,
            "time": 1108
        },
        {
            "type": "note_off",
            "note": 61,
            "velocity": 95,
            "time": 1114
        },
        {
            "type": "note_off",
            "note": 58,
            "velocity": 91,
            "time": 1118
        },
        {
            "type": "note_off",
            "note": 70,
            "velocity": 80,
            "time": 1191
        },
        {
            "type": "note_on",
            "note": 68,
            "velocity": 51,
            "time": 1429
        },
        {
            "type": "note_on",
            "note": 46,
            "velocity": 46,
            "time": 1430
        },
        {
            "type": "note_on",
            "note": 65,
            "velocity": 44,
            "time": 1446
        },
        {
            "type": "note_on",
            "note": 58,
            "velocity": 36,
            "time": 1453
        },
        {
            "type": "note_on",
            "note": 62,
            "velocity": 30,
            "time": 1457
        },
        {
            "type": "note_off",
            "note": 65,
            "velocity": 87,
            "time": 2359
        },
        {
            "type": "note_off",
            "note": 46,
            "velocity": 96,
            "time": 2373
        },
        {
            "type": "note_off",
            "note": 68,
            "velocity": 82,
            "time": 2400
        },
        {
            "type": "note_off",
            "note": 62,
            "velocity": 83,
            "time": 2420
        },
        {
            "type": "note_off",
            "note": 58,
            "velocity": 61,
            "time": 2517
        },
        {
            "type": "note_on",
            "note": 63,
            "velocity": 48,
            "time": 2745
        },
        {
            "type": "note_on",
            "note": 70,
            "velocity": 53,
            "time": 2757
        },
        {
            "type": "note_on",
            "note": 51,
            "velocity": 45,
            "time": 2767
        },
        {
            "type": "note_on",
            "note": 58,
            "velocity": 39,
            "time": 2768
        },
        {
            "type": "note_on",
            "note": 66,
            "velocity": 37,
            "time": 2779
        },
        {
            "type": "note_on",
            "note": 61,
            "velocity": 31,
            "time": 2787
        },
        {
            "type": "note_off",
            "note": 61,
            "velocity": 95,
            "time": 3770
        },
        {
            "type": "note_off",
            "note": 58,
            "velocity": 55,
            "time": 3777
        },
        {
            "type": "note_off",
            "note": 66,
            "velocity": 59,
            "time": 3824
        },
        {
            "type": "note_off",
            "note": 63,
            "velocity": 57,
            "time": 3928
        },
        {
            "type": "note_off",
            "note": 70,
            "velocity": 66,
            "time": 3962
        },
        {
            "type": "note_off",
            "note": 51,
            "velocity": 67,
            "time": 3978
        },
        {
            "type": "note_on",
            "note": 56,
            "velocity": 40,
            "time": 4102
        },
        {
            "type": "note_on",
            "note": 63,
            "velocity": 45,
            "time": 4110
        },
        {
            "type": "note_on",
            "note": 60,
            "velocity": 52,
            "time": 4123
        },
        {
            "type": "note_on",
            "note": 70,
            "velocity": 32,
            "time": 4123
        },
        {
            "type": "note_on",
            "note": 66,
            "velocity": 47,
            "time": 4135
        },
        {
            "type": "note_off",
            "note": 66,
            "velocity": 86,
            "time": 4926
        },
        {
            "type": "note_off",
            "note": 63,
            "velocity": 93,
            "time": 4928
        },
        {
            "type": "note_off",
            "note": 70,
            "velocity": 87,
            "time": 4980
        },
        {
            "type": "note_off",
            "note": 60,
            "velocity": 64,
            "time": 5236
        },
        {
            "type": "note_off",
            "note": 56,
            "velocity": 58,
            "time": 5244
        },
        {
            "type": "note_on",
            "note": 65,
            "velocity": 53,
            "time": 5411
        },
        {
            "type": "note_on",
            "note": 49,
            "velocity": 47,
            "time": 5415
        },
        {
            "type": "note_on",
            "note": 60,
            "velocity": 33,
            "time": 5424
        },
        {
            "type": "note_on",
            "note": 61,
            "velocity": 32,
            "time": 5432
        },
        {
            "type": "note_off",
            "note": 61,
            "velocity": 88,
            "time": 6243
        },
        {
            "type": "note_off",
            "note": 65,
            "velocity": 90,
            "time": 6260
        },
        {
            "type": "note_off",
            "note": 60,
            "velocity": 86,
            "time": 6295
        },
        {
            "type": "note_off",
            "note": 49,
            "velocity": 56,
            "time": 6666
        },
        {
            "type": "note_on",
            "note": 54,
            "velocity": 40,
            "time": 6699
        },
        {
            "type": "note_on",
            "note": 61,
            "velocity": 40,
            "time": 6699
        },
        {
            "type": "note_on",
            "note": 66,
            "velocity": 34,
            "time": 6738
        },
        {
            "type": "note_on",
            "note": 64,
            "velocity": 33,
            "time": 6745
        },
        {
            "type": "note_on",
            "note": 70,
            "velocity": 42,
            "time": 6748
        },
        {
            "type": "note_off",
            "note": 64,
            "velocity": 66,
            "time": 7504
        },
        {
            "type": "note_off",
            "note": 61,
            "velocity": 79,
            "time": 7565
        },
        {
            "type": "note_off",
            "note": 66,
            "velocity": 82,
            "time": 7571
        },
        {
            "type": "note_off",
            "note": 70,
            "velocity": 85,
            "time": 7610
        },
        {
            "type": "note_off",
            "note": 54,
            "velocity": 72,
            "time": 7732
        },
        {
            "type": "note_on",
            "note": 75,
            "velocity": 54,
            "time": 8015
        },
        {
            "type": "note_on",
            "note": 68,
            "velocity": 38,
            "time": 8073
        },
        {
            "type": "note_on",
            "note": 53,
            "velocity": 37,
            "time": 8074
        },
        {
            "type": "note_on",
            "note": 65,
            "velocity": 34,
            "time": 8078
        },
        {
            "type": "note_on",
            "note": 60,
            "velocity": 51,
            "time": 8094
        },
        {
            "type": "note_on",
            "note": 72,
            "velocity": 36,
            "time": 8094
        },
        {
            "type": "note_off",
            "note": 72,
            "velocity": 87,
            "time": 8925
        },
        {
            "type": "note_off",
            "note": 53,
            "velocity": 77,
            "time": 8973
        },
        {
            "type": "note_off",
            "note": 68,
            "velocity": 87,
            "time": 8978
        },
        {
            "type": "note_off",
            "note": 65,
            "velocity": 65,
            "time": 9000
        },
        {
            "type": "note_off",
            "note": 75,
            "velocity": 81,
            "time": 9012
        },
        {
            "type": "note_off",
            "note": 60,
            "velocity": 78,
            "time": 9019
        },
        {
            "type": "note_on",
            "note": 73,
            "velocity": 60,
            "time": 9396
        },
        {
            "type": "note_on",
            "note": 64,
            "velocity": 33,
            "time": 9397
        },
        {
            "type": "note_on",
            "note": 67,
            "velocity": 37,
            "time": 9414
        },
        {
            "type": "note_on",
            "note": 70,
            "velocity": 40,
            "time": 9432
        },
        {
            "type": "note_on",
            "note": 52,
            "velocity": 45,
            "time": 9433
        },
        {
            "type": "note_off",
            "note": 67,
            "velocity": 87,
            "time": 10201
        },
        {
            "type": "note_off",
            "note": 73,
            "velocity": 92,
            "time": 10208
        },
        {
            "type": "note_off",
            "note": 64,
            "velocity": 53,
            "time": 10245
        },
        {
            "type": "note_off",
            "note": 70,
            "velocity": 83,
            "time": 10246
        },
        {
            "type": "note_off",
            "note": 52,
            "velocity": 90,
            "time": 10363
        },
        {
            "type": "note_on",
            "note": 63,
            "velocity": 45,
            "time": 10733
        },
        {
            "type": "note_on",
            "note": 51,
            "velocity": 44,
            "time": 10738
        },
        {
            "type": "note_on",
            "note": 66,
            "velocity": 36,
            "time": 10766
        },
        {
            "type": "note_on",
            "note": 61,
            "velocity": 36,
            "time": 10784
        },
        {
            "type": "note_on",
            "note": 58,
            "velocity": 32,
            "time": 10790
        },
        {
            "type": "note_on",
            "note": 70,
            "velocity": 44,
            "time": 10794
        },
        {
            "type": "note_off",
            "note": 61,
            "velocity": 95,
            "time": 12764
        },
        {
            "type": "note_off",
            "note": 58,
            "velocity": 81,
            "time": 12797
        },
        {
            "type": "note_off",
            "note": 51,
            "velocity": 90,
            "time": 12831
        },
        {
            "type": "note_off",
            "note": 66,
            "velocity": 60,
            "time": 12857
        },
        {
            "type": "note_off",
            "note": 63,
            "velocity": 66,
            "time": 12894
        },
        {
            "type": "note_off",
            "note": 70,
            "velocity": 42,
            "time": 12935
        },
        {
            "type": "note_on",
            "note": 48,
            "velocity": 49,
            "time": 13338
        },
        {
            "type": "note_on",
            "note": 63,
            "velocity": 39,
            "time": 13357
        },
        {
            "type": "note_on",
            "note": 70,
            "velocity": 41,
            "time": 13361
        },
        {
            "type": "note_on",
            "note": 66,
            "velocity": 43,
            "time": 13379
        },
        {
            "type": "note_off",
            "note": 70,
            "velocity": 50,
            "time": 14272
        },
        {
            "type": "note_off",
            "note": 66,
            "velocity": 66,
            "time": 14323
        },
        {
            "type": "note_off",
            "note": 48,
            "velocity": 83,
            "time": 14552
        },
        {
            "type": "note_on",
            "note": 60,
            "velocity": 34,
            "time": 14720
        },
        {
            "type": "note_on",
            "note": 53,
            "velocity": 60,
            "time": 14722
        },
        {
            "type": "note_on",
            "note": 63,
            "velocity": 10,
            "time": 14722
        },
        {
            "type": "note_on",
            "note": 69,
            "velocity": 47,
            "time": 14749
        },
        {
            "type": "note_on",
            "note": 65,
            "velocity": 39,
            "time": 14757
        },
        {
            "type": "note_off",
            "note": 69,
            "velocity": 90,
            "time": 15386
        },
        {
            "type": "note_off",
            "note": 65,
            "velocity": 87,
            "time": 15460
        },
        {
            "type": "note_off",
            "note": 60,
            "velocity": 63,
            "time": 15512
        },
        {
            "type": "note_off",
            "note": 63,
            "velocity": 93,
            "time": 15516
        },
        {
            "type": "note_off",
            "note": 63,
            "velocity": 93,
            "time": 15517
        },
        {
            "type": "note_off",
            "note": 53,
            "velocity": 76,
            "time": 15827
        },
        {
            "type": "note_on",
            "note": 58,
            "velocity": 37,
            "time": 16091
        },
        {
            "type": "note_on",
            "note": 68,
            "velocity": 47,
            "time": 16096
        },
        {
            "type": "note_on",
            "note": 46,
            "velocity": 41,
            "time": 16109
        },
        {
            "type": "note_on",
            "note": 61,
            "velocity": 38,
            "time": 16114
        },
        {
            "type": "note_on",
            "note": 65,
            "velocity": 38,
            "time": 16133
        },
        {
            "type": "note_off",
            "note": 65,
            "velocity": 75,
            "time": 16793
        },
        {
            "type": "note_off",
            "note": 58,
            "velocity": 90,
            "time": 16877
        },
        {
            "type": "note_off",
            "note": 61,
            "velocity": 87,
            "time": 16896
        },
        {
            "type": "note_off",
            "note": 68,
            "velocity": 88,
            "time": 16900
        },
        {
            "type": "note_off",
            "note": 46,
            "velocity": 93,
            "time": 16947
        },
        {
            "type": "note_on",
            "note": 63,
            "velocity": 39,
            "time": 17411
        },
        {
            "type": "note_on",
            "note": 61,
            "velocity": 35,
            "time": 17415
        },
        {
            "type": "note_on",
            "note": 51,
            "velocity": 46,
            "time": 17417
        },
        {
            "type": "note_on",
            "note": 70,
            "velocity": 44,
            "time": 17432
        },
        {
            "type": "note_on",
            "note": 66,
            "velocity": 26,
            "time": 17456
        },
        {
            "type": "note_off",
            "note": 66,
            "velocity": 66,
            "time": 17638
        },
        {
            "type": "note_off",
            "note": 51,
            "velocity": 90,
            "time": 17649
        },
        {
            "type": "note_off",
            "note": 61,
            "velocity": 91,
            "time": 17665
        },
        {
            "type": "note_off",
            "note": 63,
            "velocity": 58,
            "time": 17706
        },
        {
            "type": "note_off",
            "note": 70,
            "velocity": 54,
            "time": 17760
        },
        {
            "type": "note_on",
            "note": 44,
            "velocity": 38,
            "time": 18063
        },
        {
            "type": "note_on",
            "note": 63,
            "velocity": 39,
            "time": 18070
        },
        {
            "type": "note_on",
            "note": 70,
            "velocity": 50,
            "time": 18083
        },
        {
            "type": "note_on",
            "note": 60,
            "velocity": 34,
            "time": 18088
        },
        {
            "type": "note_on",
            "note": 66,
            "velocity": 35,
            "time": 18106
        },
        {
            "type": "note_on",
            "note": 56,
            "velocity": 35,
            "time": 18106
        },
        {
            "type": "note_off",
            "note": 66,
            "velocity": 89,
            "time": 18197
        },
        {
            "type": "note_off",
            "note": 44,
            "velocity": 75,
            "time": 18217
        },
        {
            "type": "note_off",
            "note": 63,
            "velocity": 87,
            "time": 18230
        },
        {
            "type": "note_off",
            "note": 70,
            "velocity": 62,
            "time": 18264
        },
        {
            "type": "note_off",
            "note": 56,
            "velocity": 39,
            "time": 18294
        },
        {
            "type": "note_off",
            "note": 60,
            "velocity": 42,
            "time": 18360
        },
        {
            "type": "note_on",
            "note": 65,
            "velocity": 45,
            "time": 18731
        },
        {
            "type": "note_on",
            "note": 61,
            "velocity": 37,
            "time": 18740
        },
        {
            "type": "note_on",
            "note": 60,
            "velocity": 30,
            "time": 18756
        },
        {
            "type": "note_on",
            "note": 53,
            "velocity": 34,
            "time": 18836
        },
        {
            "type": "note_on",
            "note": 49,
            "velocity": 7,
            "time": 18885
        },
        {
            "type": "note_off",
            "note": 60,
            "velocity": 50,
            "time": 20542
        },
        {
            "type": "note_off",
            "note": 53,
            "velocity": 62,
            "time": 20565
        },
        {
            "type": "note_off",
            "note": 65,
            "velocity": 72,
            "time": 20574
        },
        {
            "type": "note_off",
            "note": 49,
            "velocity": 76,
            "time": 20578
        },
        {
            "type": "note_off",
            "note": 61,
            "velocity": 71,
            "time": 20599
        },
        {
            "type": "note_on",
            "note": 65,
            "velocity": 66,
            "time": 20796
        },
        {
            "type": "note_on",
            "note": 61,
            "velocity": 57,
            "time": 20800
        },
        {
            "type": "note_on",
            "note": 49,
            "velocity": 45,
            "time": 20815
        },
        {
            "type": "note_on",
            "note": 56,
            "velocity": 42,
            "time": 20827
        },
        {
            "type": "note_on",
            "note": 53,
            "velocity": 48,
            "time": 20828
        },
        {
            "type": "note_on",
            "note": 60,
            "velocity": 28,
            "time": 20838
        },
        {
            "type": "note_off",
            "note": 60,
            "velocity": 99,
            "time": 20881
        },
        {
            "type": "note_off",
            "note": 61,
            "velocity": 78,
            "time": 20903
        },
        {
            "type": "note_off",
            "note": 53,
            "velocity": 85,
            "time": 20919
        },
        {
            "type": "note_off",
            "note": 65,
            "velocity": 96,
            "time": 20925
        },
        {
            "type": "note_off",
            "note": 56,
            "velocity": 89,
            "time": 20926
        },
        {
            "type": "note_off",
            "note": 49,
            "velocity": 79,
            "time": 20958
        }
    ],
    "notes": [],
    "volumeBacktrack": 0.796875,
    "additional_latency": 0
}