{
    "bass": 43,
    "type": "minor",
    "backtrack": "/home/pi/raspiKeys/res/backtracks/processed_wav/ZG HH fat hard 100.wav",
    "backtrackDuration": 4.800952434539795,
    "nbOfLoops": 2,
    "chord_notes": [
        {
            "type": "note_on",
            "note": 57,
            "velocity": 57,
            "time": 0
        },
        {
            "type": "note_on",
            "note": 63,
            "velocity": 68,
            "time": 7
        },
        {
            "type": "note_on",
            "note": 55,
            "velocity": 58,
            "time": 29
        },
        {
            "type": "note_on",
            "note": 60,
            "velocity": 63,
            "time": 30
        },
        {
            "type": "note_on",
            "note": 45,
            "velocity": 64,
            "time": 30
        },
        {
            "type": "note_off",
            "note": 63,
            "velocity": 87,
            "time": 1717
        },
        {
            "type": "note_off",
            "note": 57,
            "velocity": 77,
            "time": 1783
        },
        {
            "type": "note_off",
            "note": 55,
            "velocity": 78,
            "time": 1831
        },
        {
            "type": "note_off",
            "note": 45,
            "velocity": 94,
            "time": 1895
        },
        {
            "type": "note_off",
            "note": 60,
            "velocity": 60,
            "time": 1933
        },
        {
            "type": "note_on",
            "note": 54,
            "velocity": 58,
            "time": 2273
        },
        {
            "type": "note_on",
            "note": 58,
            "velocity": 68,
            "time": 2340
        },
        {
            "type": "note_on",
            "note": 38,
            "velocity": 72,
            "time": 2343
        },
        {
            "type": "note_on",
            "note": 60,
            "velocity": 56,
            "time": 2382
        },
        {
            "type": "note_on",
            "note": 50,
            "velocity": 35,
            "time": 2439
        },
        {
            "type": "note_on",
            "note": 65,
            "velocity": 70,
            "time": 2467
        },
        {
            "type": "note_off",
            "note": 38,
            "velocity": 87,
            "time": 3675
        },
        {
            "type": "note_off",
            "note": 50,
            "velocity": 81,
            "time": 3744
        },
        {
            "type": "note_off",
            "note": 54,
            "velocity": 85,
            "time": 3778
        },
        {
            "type": "note_off",
            "note": 60,
            "velocity": 53,
            "time": 3790
        },
        {
            "type": "note_off",
            "note": 58,
            "velocity": 62,
            "time": 3798
        },
        {
            "type": "note_off",
            "note": 65,
            "velocity": 127,
            "time": 4675
        },
        {
            "type": "note_on",
            "note": 57,
            "velocity": 48,
            "time": 4751
        },
        {
            "type": "note_on",
            "note": 58,
            "velocity": 73,
            "time": 4792
        },
        {
            "type": "note_on",
            "note": 43,
            "velocity": 55,
            "time": 4802
        },
        {
            "type": "note_on",
            "note": 55,
            "velocity": 41,
            "time": 4856
        },
        {
            "type": "note_on",
            "note": 62,
            "velocity": 58,
            "time": 4859
        },
        {
            "type": "note_on",
            "note": 65,
            "velocity": 49,
            "time": 4937
        },
        {
            "type": "note_off",
            "note": 57,
            "velocity": 63,
            "time": 5975
        },
        {
            "type": "note_off",
            "note": 65,
            "velocity": 81,
            "time": 5977
        },
        {
            "type": "note_off",
            "note": 62,
            "velocity": 74,
            "time": 5998
        },
        {
            "type": "note_off",
            "note": 58,
            "velocity": 72,
            "time": 6004
        },
        {
            "type": "note_off",
            "note": 55,
            "velocity": 37,
            "time": 6789
        },
        {
            "type": "note_off",
            "note": 43,
            "velocity": 71,
            "time": 6841
        },
        {
            "type": "note_on",
            "note": 58,
            "velocity": 70,
            "time": 7132
        },
        {
            "type": "note_on",
            "note": 43,
            "velocity": 38,
            "time": 7199
        },
        {
            "type": "note_on",
            "note": 62,
            "velocity": 40,
            "time": 7222
        },
        {
            "type": "note_on",
            "note": 55,
            "velocity": 28,
            "time": 7242
        },
        {
            "type": "note_on",
            "note": 65,
            "velocity": 38,
            "time": 7248
        },
        {
            "type": "note_on",
            "note": 69,
            "velocity": 56,
            "time": 7338
        },
        {
            "type": "note_off",
            "note": 65,
            "velocity": 52,
            "time": 7498
        },
        {
            "type": "note_off",
            "note": 69,
            "velocity": 90,
            "time": 7594
        },
        {
            "type": "note_off",
            "note": 62,
            "velocity": 58,
            "time": 7643
        },
        {
            "type": "note_off",
            "note": 58,
            "velocity": 49,
            "time": 7656
        },
        {
            "type": "note_off",
            "note": 55,
            "velocity": 28,
            "time": 8935
        },
        {
            "type": "note_off",
            "note": 43,
            "velocity": 39,
            "time": 8989
        },
        {
            "type": "note_on",
            "note": 58,
            "velocity": 69,
            "time": 9044
        },
        {
            "type": "note_on",
            "note": 65,
            "velocity": 55,
            "time": 9060
        },
        {
            "type": "note_off",
            "note": 65,
            "velocity": 75,
            "time": 9148
        },
        {
            "type": "note_off",
            "note": 58,
            "velocity": 88,
            "time": 9221
        }
    ],
    "notes": [
        {
            "type": "note_on",
            "note": 58,
            "velocity": 75,
            "time": 755
        },
        {
            "type": "note_off",
            "note": 58,
            "velocity": 87,
            "time": 847
        },
        {
            "type": "note_on",
            "note": 62,
            "velocity": 67,
            "time": 1029
        },
        {
            "type": "note_off",
            "note": 62,
            "velocity": 72,
            "time": 1268
        },
        {
            "type": "note_on",
            "note": 65,
            "velocity": 60,
            "time": 1273
        },
        {
            "type": "note_off",
            "note": 65,
            "velocity": 62,
            "time": 1480
        },
        {
            "type": "note_on",
            "note": 69,
            "velocity": 73,
            "time": 1620
        },
        {
            "type": "note_off",
            "note": 69,
            "velocity": 60,
            "time": 1878
        },
        {
            "type": "note_on",
            "note": 70,
            "velocity": 75,
            "time": 1920
        },
        {
            "type": "note_off",
            "note": 70,
            "velocity": 95,
            "time": 2127
        },
        {
            "type": "note_on",
            "note": 72,
            "velocity": 70,
            "time": 2202
        },
        {
            "type": "note_on",
            "note": 70,
            "velocity": 74,
            "time": 2518
        },
        {
            "type": "note_off",
            "note": 72,
            "velocity": 52,
            "time": 2526
        },
        {
            "type": "note_off",
            "note": 70,
            "velocity": 84,
            "time": 3493
        },
        {
            "type": "note_on",
            "note": 67,
            "velocity": 70,
            "time": 3598
        },
        {
            "type": "note_on",
            "note": 69,
            "velocity": 70,
            "time": 3921
        },
        {
            "type": "note_off",
            "note": 67,
            "velocity": 47,
            "time": 3948
        },
        {
            "type": "note_off",
            "note": 69,
            "velocity": 71,
            "time": 4167
        },
        {
            "type": "note_on",
            "note": 70,
            "velocity": 51,
            "time": 4282
        },
        {
            "type": "note_off",
            "note": 70,
            "velocity": 87,
            "time": 4436
        },
        {
            "type": "note_on",
            "note": 74,
            "velocity": 73,
            "time": 4594
        },
        {
            "type": "note_on",
            "note": 67,
            "velocity": 45,
            "time": 6328
        },
        {
            "type": "note_off",
            "note": 74,
            "velocity": 76,
            "time": 6628
        },
        {
            "type": "note_on",
            "note": 69,
            "velocity": 78,
            "time": 6665
        },
        {
            "type": "note_off",
            "note": 67,
            "velocity": 63,
            "time": 6682
        },
        {
            "type": "note_off",
            "note": 69,
            "velocity": 84,
            "time": 6899
        },
        {
            "type": "note_on",
            "note": 70,
            "velocity": 82,
            "time": 6997
        },
        {
            "type": "note_off",
            "note": 70,
            "velocity": 81,
            "time": 7214
        },
        {
            "type": "note_on",
            "note": 74,
            "velocity": 87,
            "time": 7291
        },
        {
            "type": "note_on",
            "note": 72,
            "velocity": 76,
            "time": 8196
        },
        {
            "type": "note_off",
            "note": 74,
            "velocity": 81,
            "time": 8277
        },
        {
            "type": "note_on",
            "note": 67,
            "velocity": 78,
            "time": 8793
        },
        {
            "type": "note_off",
            "note": 72,
            "velocity": 92,
            "time": 8805
        },
        {
            "type": "note_off",
            "note": 67,
            "velocity": 90,
            "time": 9423
        }
    ],
    "volumeBacktrack": 0.796875,
    "additional_latency": 0
}