{
    "bass": 51,
    "type": "major",
    "backtrack": "/home/pi/raspiKeys/res/backtracks/processed_wav/Groove Loop_28 100 BPM.wav",
    "backtrackDuration": 4.78358268737793,
    "nbOfLoops": 8,
    "chord_notes": [
        {
            "type": "note_on",
            "note": 62,
            "velocity": 38,
            "time": 1
        },
        {
            "type": "note_on",
            "note": 67,
            "velocity": 35,
            "time": 5
        },
        {
            "type": "note_on",
            "note": 58,
            "velocity": 29,
            "time": 9
        },
        {
            "type": "note_on",
            "note": 63,
            "velocity": 39,
            "time": 31
        },
        {
            "type": "note_on",
            "note": 51,
            "velocity": 36,
            "time": 69
        },
        {
            "type": "note_off",
            "note": 51,
            "velocity": 74,
            "time": 2228
        },
        {
            "type": "note_off",
            "note": 62,
            "velocity": 63,
            "time": 2365
        },
        {
            "type": "note_off",
            "note": 63,
            "velocity": 54,
            "time": 2418
        },
        {
            "type": "note_off",
            "note": 58,
            "velocity": 39,
            "time": 2480
        },
        {
            "type": "note_on",
            "note": 50,
            "velocity": 55,
            "time": 2498
        },
        {
            "type": "note_off",
            "note": 67,
            "velocity": 39,
            "time": 2514
        },
        {
            "type": "note_off",
            "note": 50,
            "velocity": 50,
            "time": 3625
        },
        {
            "type": "note_on",
            "note": 43,
            "velocity": 33,
            "time": 3721
        },
        {
            "type": "note_off",
            "note": 43,
            "velocity": 92,
            "time": 4746
        },
        {
            "type": "note_on",
            "note": 48,
            "velocity": 45,
            "time": 4824
        },
        {
            "type": "note_on",
            "note": 58,
            "velocity": 34,
            "time": 4829
        },
        {
            "type": "note_on",
            "note": 60,
            "velocity": 46,
            "time": 4831
        },
        {
            "type": "note_on",
            "note": 63,
            "velocity": 45,
            "time": 4831
        },
        {
            "type": "note_on",
            "note": 67,
            "velocity": 42,
            "time": 4833
        },
        {
            "type": "note_off",
            "note": 60,
            "velocity": 90,
            "time": 6156
        },
        {
            "type": "note_off",
            "note": 67,
            "velocity": 87,
            "time": 6190
        },
        {
            "type": "note_off",
            "note": 63,
            "velocity": 83,
            "time": 6194
        },
        {
            "type": "note_off",
            "note": 58,
            "velocity": 91,
            "time": 6223
        },
        {
            "type": "note_off",
            "note": 48,
            "velocity": 61,
            "time": 6616
        },
        {
            "type": "note_on",
            "note": 47,
            "velocity": 57,
            "time": 6660
        },
        {
            "type": "note_on",
            "note": 59,
            "velocity": 45,
            "time": 6664
        },
        {
            "type": "note_on",
            "note": 57,
            "velocity": 30,
            "time": 6683
        },
        {
            "type": "note_on",
            "note": 62,
            "velocity": 39,
            "time": 6689
        },
        {
            "type": "note_on",
            "note": 66,
            "velocity": 36,
            "time": 6694
        },
        {
            "type": "note_off",
            "note": 66,
            "velocity": 70,
            "time": 6935
        },
        {
            "type": "note_off",
            "note": 62,
            "velocity": 87,
            "time": 6961
        },
        {
            "type": "note_off",
            "note": 59,
            "velocity": 88,
            "time": 6970
        },
        {
            "type": "note_off",
            "note": 57,
            "velocity": 58,
            "time": 7008
        },
        {
            "type": "note_off",
            "note": 47,
            "velocity": 78,
            "time": 7109
        },
        {
            "type": "note_on",
            "note": 46,
            "velocity": 57,
            "time": 7214
        },
        {
            "type": "note_on",
            "note": 56,
            "velocity": 37,
            "time": 7262
        },
        {
            "type": "note_on",
            "note": 58,
            "velocity": 39,
            "time": 7273
        },
        {
            "type": "note_on",
            "note": 61,
            "velocity": 38,
            "time": 7275
        },
        {
            "type": "note_on",
            "note": 65,
            "velocity": 36,
            "time": 7277
        },
        {
            "type": "note_off",
            "note": 56,
            "velocity": 96,
            "time": 8153
        },
        {
            "type": "note_off",
            "note": 58,
            "velocity": 57,
            "time": 8181
        },
        {
            "type": "note_off",
            "note": 65,
            "velocity": 55,
            "time": 8184
        },
        {
            "type": "note_off",
            "note": 61,
            "velocity": 17,
            "time": 8327
        },
        {
            "type": "note_off",
            "note": 46,
            "velocity": 75,
            "time": 8425
        },
        {
            "type": "note_on",
            "note": 58,
            "velocity": 48,
            "time": 8506
        },
        {
            "type": "note_on",
            "note": 51,
            "velocity": 42,
            "time": 8514
        },
        {
            "type": "note_on",
            "note": 61,
            "velocity": 38,
            "time": 8518
        },
        {
            "type": "note_on",
            "note": 55,
            "velocity": 16,
            "time": 8563
        },
        {
            "type": "note_off",
            "note": 61,
            "velocity": 72,
            "time": 9104
        },
        {
            "type": "note_off",
            "note": 58,
            "velocity": 91,
            "time": 9165
        },
        {
            "type": "note_off",
            "note": 55,
            "velocity": 53,
            "time": 9331
        },
        {
            "type": "note_off",
            "note": 51,
            "velocity": 70,
            "time": 9428
        },
        {
            "type": "note_on",
            "note": 56,
            "velocity": 33,
            "time": 9519
        },
        {
            "type": "note_on",
            "note": 60,
            "velocity": 39,
            "time": 9580
        },
        {
            "type": "note_on",
            "note": 44,
            "velocity": 46,
            "time": 9584
        },
        {
            "type": "note_off",
            "note": 60,
            "velocity": 89,
            "time": 10409
        },
        {
            "type": "note_off",
            "note": 56,
            "velocity": 91,
            "time": 10452
        },
        {
            "type": "note_off",
            "note": 44,
            "velocity": 83,
            "time": 10961
        },
        {
            "type": "note_on",
            "note": 59,
            "velocity": 60,
            "time": 11145
        },
        {
            "type": "note_on",
            "note": 49,
            "velocity": 57,
            "time": 11151
        },
        {
            "type": "note_on",
            "note": 65,
            "velocity": 43,
            "time": 11169
        },
        {
            "type": "note_off",
            "note": 59,
            "velocity": 89,
            "time": 11757
        },
        {
            "type": "note_off",
            "note": 65,
            "velocity": 84,
            "time": 11762
        },
        {
            "type": "note_off",
            "note": 49,
            "velocity": 78,
            "time": 12094
        },
        {
            "type": "note_on",
            "note": 51,
            "velocity": 50,
            "time": 12143
        },
        {
            "type": "note_on",
            "note": 62,
            "velocity": 70,
            "time": 12161
        },
        {
            "type": "note_on",
            "note": 67,
            "velocity": 39,
            "time": 12191
        },
        {
            "type": "note_off",
            "note": 62,
            "velocity": 83,
            "time": 13239
        },
        {
            "type": "note_off",
            "note": 67,
            "velocity": 87,
            "time": 13345
        },
        {
            "type": "note_off",
            "note": 51,
            "velocity": 87,
            "time": 13442
        },
        {
            "type": "note_on",
            "note": 63,
            "velocity": 64,
            "time": 13526
        },
        {
            "type": "note_on",
            "note": 60,
            "velocity": 66,
            "time": 13542
        },
        {
            "type": "note_on",
            "note": 48,
            "velocity": 47,
            "time": 13558
        },
        {
            "type": "note_off",
            "note": 60,
            "velocity": 71,
            "time": 14094
        },
        {
            "type": "note_off",
            "note": 63,
            "velocity": 71,
            "time": 14188
        },
        {
            "type": "note_off",
            "note": 48,
            "velocity": 88,
            "time": 14342
        },
        {
            "type": "note_on",
            "note": 63,
            "velocity": 40,
            "time": 14409
        },
        {
            "type": "note_on",
            "note": 53,
            "velocity": 48,
            "time": 14414
        },
        {
            "type": "note_on",
            "note": 60,
            "velocity": 49,
            "time": 14429
        },
        {
            "type": "note_off",
            "note": 63,
            "velocity": 70,
            "time": 16282
        },
        {
            "type": "note_off",
            "note": 60,
            "velocity": 85,
            "time": 16299
        },
        {
            "type": "note_off",
            "note": 53,
            "velocity": 47,
            "time": 16345
        },
        {
            "type": "note_on",
            "note": 63,
            "velocity": 70,
            "time": 16801
        },
        {
            "type": "note_on",
            "note": 53,
            "velocity": 40,
            "time": 16814
        },
        {
            "type": "note_on",
            "note": 60,
            "velocity": 56,
            "time": 16822
        },
        {
            "type": "note_on",
            "note": 56,
            "velocity": 27,
            "time": 16831
        },
        {
            "type": "note_off",
            "note": 63,
            "velocity": 87,
            "time": 17762
        },
        {
            "type": "note_off",
            "note": 53,
            "velocity": 78,
            "time": 17849
        },
        {
            "type": "note_off",
            "note": 56,
            "velocity": 48,
            "time": 17897
        },
        {
            "type": "note_on",
            "note": 56,
            "velocity": 33,
            "time": 18000
        },
        {
            "type": "note_on",
            "note": 62,
            "velocity": 61,
            "time": 18018
        },
        {
            "type": "note_on",
            "note": 46,
            "velocity": 44,
            "time": 18028
        },
        {
            "type": "note_off",
            "note": 62,
            "velocity": 84,
            "time": 18753
        },
        {
            "type": "note_off",
            "note": 60,
            "velocity": 64,
            "time": 18776
        },
        {
            "type": "note_off",
            "note": 56,
            "velocity": 96,
            "time": 18834
        },
        {
            "type": "note_off",
            "note": 46,
            "velocity": 84,
            "time": 19169
        },
        {
            "type": "note_on",
            "note": 58,
            "velocity": 57,
            "time": 19205
        },
        {
            "type": "note_on",
            "note": 62,
            "velocity": 64,
            "time": 19213
        },
        {
            "type": "note_on",
            "note": 51,
            "velocity": 55,
            "time": 19227
        },
        {
            "type": "note_on",
            "note": 55,
            "velocity": 35,
            "time": 19229
        },
        {
            "type": "note_off",
            "note": 55,
            "velocity": 41,
            "time": 20989
        },
        {
            "type": "note_off",
            "note": 58,
            "velocity": 89,
            "time": 21040
        },
        {
            "type": "note_off",
            "note": 62,
            "velocity": 88,
            "time": 21053
        },
        {
            "type": "note_off",
            "note": 51,
            "velocity": 55,
            "time": 21507
        },
        {
            "type": "note_on",
            "note": 62,
            "velocity": 39,
            "time": 21604
        },
        {
            "type": "note_on",
            "note": 68,
            "velocity": 48,
            "time": 21631
        },
        {
            "type": "note_on",
            "note": 50,
            "velocity": 49,
            "time": 21637
        },
        {
            "type": "note_on",
            "note": 65,
            "velocity": 37,
            "time": 21640
        },
        {
            "type": "note_on",
            "note": 60,
            "velocity": 36,
            "time": 21642
        },
        {
            "type": "note_off",
            "note": 62,
            "velocity": 84,
            "time": 22258
        },
        {
            "type": "note_off",
            "note": 60,
            "velocity": 64,
            "time": 22374
        },
        {
            "type": "note_off",
            "note": 68,
            "velocity": 61,
            "time": 22402
        },
        {
            "type": "note_off",
            "note": 50,
            "velocity": 85,
            "time": 22471
        },
        {
            "type": "note_off",
            "note": 65,
            "velocity": 47,
            "time": 22531
        },
        {
            "type": "note_on",
            "note": 63,
            "velocity": 57,
            "time": 22813
        },
        {
            "type": "note_on",
            "note": 65,
            "velocity": 43,
            "time": 22826
        },
        {
            "type": "note_on",
            "note": 59,
            "velocity": 37,
            "time": 22833
        },
        {
            "type": "note_on",
            "note": 55,
            "velocity": 40,
            "time": 22851
        },
        {
            "type": "note_off",
            "note": 65,
            "velocity": 92,
            "time": 23439
        },
        {
            "type": "note_off",
            "note": 63,
            "velocity": 93,
            "time": 23461
        },
        {
            "type": "note_off",
            "note": 59,
            "velocity": 87,
            "time": 23506
        },
        {
            "type": "note_off",
            "note": 55,
            "velocity": 63,
            "time": 23682
        },
        {
            "type": "note_on",
            "note": 62,
            "velocity": 62,
            "time": 23931
        },
        {
            "type": "note_on",
            "note": 58,
            "velocity": 47,
            "time": 23944
        },
        {
            "type": "note_on",
            "note": 48,
            "velocity": 30,
            "time": 23973
        },
        {
            "type": "note_off",
            "note": 62,
            "velocity": 90,
            "time": 25242
        },
        {
            "type": "note_off",
            "note": 48,
            "velocity": 80,
            "time": 25333
        },
        {
            "type": "note_off",
            "note": 58,
            "velocity": 92,
            "time": 25337
        },
        {
            "type": "note_on",
            "note": 59,
            "velocity": 46,
            "time": 25760
        },
        {
            "type": "note_on",
            "note": 63,
            "velocity": 68,
            "time": 25783
        },
        {
            "type": "note_on",
            "note": 47,
            "velocity": 49,
            "time": 25811
        },
        {
            "type": "note_off",
            "note": 59,
            "velocity": 87,
            "time": 26093
        },
        {
            "type": "note_off",
            "note": 47,
            "velocity": 80,
            "time": 26098
        },
        {
            "type": "note_off",
            "note": 63,
            "velocity": 88,
            "time": 26106
        },
        {
            "type": "note_on",
            "note": 46,
            "velocity": 49,
            "time": 26393
        },
        {
            "type": "note_on",
            "note": 58,
            "velocity": 57,
            "time": 26404
        },
        {
            "type": "note_on",
            "note": 61,
            "velocity": 57,
            "time": 26410
        },
        {
            "type": "note_off",
            "note": 61,
            "velocity": 27,
            "time": 27454
        },
        {
            "type": "note_off",
            "note": 58,
            "velocity": 47,
            "time": 27479
        },
        {
            "type": "note_off",
            "note": 46,
            "velocity": 89,
            "time": 27488
        },
        {
            "type": "note_on",
            "note": 61,
            "velocity": 40,
            "time": 27545
        },
        {
            "type": "note_on",
            "note": 58,
            "velocity": 34,
            "time": 27560
        },
        {
            "type": "note_on",
            "note": 51,
            "velocity": 46,
            "time": 27596
        },
        {
            "type": "note_on",
            "note": 55,
            "velocity": 47,
            "time": 27597
        },
        {
            "type": "note_off",
            "note": 61,
            "velocity": 80,
            "time": 28280
        },
        {
            "type": "note_off",
            "note": 58,
            "velocity": 92,
            "time": 28349
        },
        {
            "type": "note_off",
            "note": 55,
            "velocity": 58,
            "time": 28482
        },
        {
            "type": "note_off",
            "note": 51,
            "velocity": 58,
            "time": 28683
        },
        {
            "type": "note_on",
            "note": 56,
            "velocity": 39,
            "time": 28695
        },
        {
            "type": "note_on",
            "note": 44,
            "velocity": 36,
            "time": 28732
        },
        {
            "type": "note_on",
            "note": 60,
            "velocity": 46,
            "time": 28750
        },
        {
            "type": "note_on",
            "note": 63,
            "velocity": 35,
            "time": 28768
        },
        {
            "type": "note_off",
            "note": 60,
            "velocity": 87,
            "time": 29471
        },
        {
            "type": "note_off",
            "note": 63,
            "velocity": 93,
            "time": 29525
        },
        {
            "type": "note_off",
            "note": 56,
            "velocity": 96,
            "time": 29529
        },
        {
            "type": "note_off",
            "note": 44,
            "velocity": 76,
            "time": 29977
        },
        {
            "type": "note_on",
            "note": 56,
            "velocity": 35,
            "time": 30337
        },
        {
            "type": "note_on",
            "note": 49,
            "velocity": 38,
            "time": 30341
        },
        {
            "type": "note_on",
            "note": 59,
            "velocity": 45,
            "time": 30347
        },
        {
            "type": "note_on",
            "note": 65,
            "velocity": 37,
            "time": 30351
        },
        {
            "type": "note_on",
            "note": 61,
            "velocity": 43,
            "time": 30352
        },
        {
            "type": "note_off",
            "note": 59,
            "velocity": 91,
            "time": 30785
        },
        {
            "type": "note_off",
            "note": 65,
            "velocity": 87,
            "time": 30789
        },
        {
            "type": "note_off",
            "note": 61,
            "velocity": 90,
            "time": 30812
        },
        {
            "type": "note_off",
            "note": 56,
            "velocity": 50,
            "time": 30856
        },
        {
            "type": "note_off",
            "note": 49,
            "velocity": 70,
            "time": 31164
        },
        {
            "type": "note_on",
            "note": 51,
            "velocity": 48,
            "time": 31205
        },
        {
            "type": "note_on",
            "note": 63,
            "velocity": 45,
            "time": 31209
        },
        {
            "type": "note_on",
            "note": 58,
            "velocity": 49,
            "time": 31224
        },
        {
            "type": "note_on",
            "note": 62,
            "velocity": 42,
            "time": 31230
        },
        {
            "type": "note_on",
            "note": 67,
            "velocity": 50,
            "time": 31234
        },
        {
            "type": "note_off",
            "note": 62,
            "velocity": 56,
            "time": 31693
        },
        {
            "type": "note_off",
            "note": 58,
            "velocity": 97,
            "time": 31843
        },
        {
            "type": "note_off",
            "note": 67,
            "velocity": 61,
            "time": 31927
        },
        {
            "type": "note_off",
            "note": 63,
            "velocity": 53,
            "time": 32098
        },
        {
            "type": "note_off",
            "note": 51,
            "velocity": 66,
            "time": 32257
        },
        {
            "type": "note_on",
            "note": 63,
            "velocity": 38,
            "time": 32337
        },
        {
            "type": "note_on",
            "note": 45,
            "velocity": 41,
            "time": 32346
        },
        {
            "type": "note_on",
            "note": 67,
            "velocity": 37,
            "time": 32349
        },
        {
            "type": "note_on",
            "note": 57,
            "velocity": 30,
            "time": 32365
        },
        {
            "type": "note_on",
            "note": 60,
            "velocity": 45,
            "time": 32374
        },
        {
            "type": "note_off",
            "note": 67,
            "velocity": 89,
            "time": 32644
        },
        {
            "type": "note_off",
            "note": 63,
            "velocity": 90,
            "time": 32727
        },
        {
            "type": "note_off",
            "note": 57,
            "velocity": 53,
            "time": 32752
        },
        {
            "type": "note_off",
            "note": 60,
            "velocity": 54,
            "time": 32756
        },
        {
            "type": "note_off",
            "note": 45,
            "velocity": 85,
            "time": 32936
        },
        {
            "type": "note_on",
            "note": 50,
            "velocity": 51,
            "time": 32957
        },
        {
            "type": "note_on",
            "note": 66,
            "velocity": 39,
            "time": 32962
        },
        {
            "type": "note_on",
            "note": 57,
            "velocity": 33,
            "time": 32965
        },
        {
            "type": "note_on",
            "note": 62,
            "velocity": 36,
            "time": 32985
        },
        {
            "type": "note_off",
            "note": 57,
            "velocity": 88,
            "time": 33222
        },
        {
            "type": "note_off",
            "note": 62,
            "velocity": 90,
            "time": 33254
        },
        {
            "type": "note_off",
            "note": 66,
            "velocity": 84,
            "time": 33305
        },
        {
            "type": "note_off",
            "note": 50,
            "velocity": 96,
            "time": 33460
        },
        {
            "type": "note_on",
            "note": 63,
            "velocity": 37,
            "time": 33543
        },
        {
            "type": "note_on",
            "note": 51,
            "velocity": 47,
            "time": 33544
        },
        {
            "type": "note_on",
            "note": 62,
            "velocity": 46,
            "time": 33572
        },
        {
            "type": "note_on",
            "note": 58,
            "velocity": 40,
            "time": 33576
        },
        {
            "type": "note_on",
            "note": 67,
            "velocity": 39,
            "time": 33590
        },
        {
            "type": "note_off",
            "note": 62,
            "velocity": 87,
            "time": 33756
        },
        {
            "type": "note_off",
            "note": 58,
            "velocity": 66,
            "time": 33879
        },
        {
            "type": "note_off",
            "note": 67,
            "velocity": 87,
            "time": 33885
        },
        {
            "type": "note_off",
            "note": 63,
            "velocity": 50,
            "time": 33982
        },
        {
            "type": "note_off",
            "note": 51,
            "velocity": 67,
            "time": 34049
        },
        {
            "type": "note_on",
            "note": 63,
            "velocity": 55,
            "time": 34133
        },
        {
            "type": "note_on",
            "note": 56,
            "velocity": 45,
            "time": 34139
        },
        {
            "type": "note_on",
            "note": 44,
            "velocity": 46,
            "time": 34152
        },
        {
            "type": "note_on",
            "note": 60,
            "velocity": 33,
            "time": 34204
        },
        {
            "type": "note_off",
            "note": 60,
            "velocity": 56,
            "time": 34375
        },
        {
            "type": "note_off",
            "note": 63,
            "velocity": 90,
            "time": 34407
        },
        {
            "type": "note_off",
            "note": 56,
            "velocity": 96,
            "time": 34442
        },
        {
            "type": "note_off",
            "note": 44,
            "velocity": 90,
            "time": 34605
        },
        {
            "type": "note_on",
            "note": 58,
            "velocity": 38,
            "time": 34736
        },
        {
            "type": "note_on",
            "note": 43,
            "velocity": 36,
            "time": 34750
        },
        {
            "type": "note_on",
            "note": 65,
            "velocity": 35,
            "time": 34762
        },
        {
            "type": "note_on",
            "note": 62,
            "velocity": 57,
            "time": 34789
        },
        {
            "type": "note_off",
            "note": 65,
            "velocity": 67,
            "time": 35013
        },
        {
            "type": "note_off",
            "note": 62,
            "velocity": 59,
            "time": 35109
        },
        {
            "type": "note_off",
            "note": 43,
            "velocity": 93,
            "time": 35262
        },
        {
            "type": "note_on",
            "note": 48,
            "velocity": 42,
            "time": 35355
        },
        {
            "type": "note_on",
            "note": 58,
            "velocity": 5,
            "time": 35355
        },
        {
            "type": "note_on",
            "note": 55,
            "velocity": 38,
            "time": 35358
        },
        {
            "type": "note_on",
            "note": 60,
            "velocity": 39,
            "time": 35368
        },
        {
            "type": "note_on",
            "note": 64,
            "velocity": 39,
            "time": 35380
        },
        {
            "type": "note_off",
            "note": 60,
            "velocity": 89,
            "time": 35609
        },
        {
            "type": "note_off",
            "note": 64,
            "velocity": 88,
            "time": 35634
        },
        {
            "type": "note_off",
            "note": 58,
            "velocity": 98,
            "time": 35647
        },
        {
            "type": "note_off",
            "note": 58,
            "velocity": 98,
            "time": 35648
        },
        {
            "type": "note_off",
            "note": 48,
            "velocity": 83,
            "time": 35744
        },
        {
            "type": "note_on",
            "note": 41,
            "velocity": 54,
            "time": 35948
        },
        {
            "type": "note_on",
            "note": 60,
            "velocity": 58,
            "time": 35962
        },
        {
            "type": "note_on",
            "note": 56,
            "velocity": 36,
            "time": 35977
        },
        {
            "type": "note_on",
            "note": 55,
            "velocity": 23,
            "time": 35994
        },
        {
            "type": "note_off",
            "note": 60,
            "velocity": 87,
            "time": 36302
        },
        {
            "type": "note_off",
            "note": 56,
            "velocity": 48,
            "time": 36353
        },
        {
            "type": "note_off",
            "note": 41,
            "velocity": 87,
            "time": 36439
        },
        {
            "type": "note_on",
            "note": 58,
            "velocity": 38,
            "time": 36538
        },
        {
            "type": "note_on",
            "note": 55,
            "velocity": 22,
            "time": 36544
        },
        {
            "type": "note_on",
            "note": 56,
            "velocity": 33,
            "time": 36554
        },
        {
            "type": "note_on",
            "note": 62,
            "velocity": 47,
            "time": 36561
        },
        {
            "type": "note_on",
            "note": 46,
            "velocity": 45,
            "time": 36571
        },
        {
            "type": "note_off",
            "note": 62,
            "velocity": 86,
            "time": 36760
        },
        {
            "type": "note_off",
            "note": 56,
            "velocity": 80,
            "time": 36809
        },
        {
            "type": "note_off",
            "note": 58,
            "velocity": 92,
            "time": 36859
        },
        {
            "type": "note_off",
            "note": 46,
            "velocity": 87,
            "time": 36959
        },
        {
            "type": "note_on",
            "note": 39,
            "velocity": 35,
            "time": 37131
        },
        {
            "type": "note_on",
            "note": 58,
            "velocity": 40,
            "time": 37136
        },
        {
            "type": "note_on",
            "note": 55,
            "velocity": 21,
            "time": 37136
        },
        {
            "type": "note_on",
            "note": 63,
            "velocity": 58,
            "time": 37157
        },
        {
            "type": "note_off",
            "note": 58,
            "velocity": 90,
            "time": 38093
        },
        {
            "type": "note_off",
            "note": 55,
            "velocity": 66,
            "time": 38105
        },
        {
            "type": "note_off",
            "note": 55,
            "velocity": 66,
            "time": 38105
        },
        {
            "type": "note_off",
            "note": 55,
            "velocity": 66,
            "time": 38107
        },
        {
            "type": "note_off",
            "note": 55,
            "velocity": 66,
            "time": 38107
        },
        {
            "type": "note_off",
            "note": 39,
            "velocity": 90,
            "time": 38113
        },
        {
            "type": "note_off",
            "note": 63,
            "velocity": 88,
            "time": 38124
        }
    ],
    "notes": [],
    "volumeBacktrack": 1.0,
    "additional_latency": 0
}