{
    "bass": 55,
    "type": "minor",
    "backtrack": "/home/pi/raspiKeys/res/backtracks/processed_wav/Groove Loop_23 105 BPM.wav",
    "backtrackDuration": 4.57140588760376,
    "nbOfLoops": 8,
    "chord_notes": [
        {
            "type": "note_on",
            "note": 65,
            "velocity": 41,
            "time": 0
        },
        {
            "type": "note_on",
            "note": 43,
            "velocity": 46,
            "time": 16
        },
        {
            "type": "note_on",
            "note": 70,
            "velocity": 49,
            "time": 28
        },
        {
            "type": "note_on",
            "note": 67,
            "velocity": 41,
            "time": 2353
        },
        {
            "type": "note_on",
            "note": 62,
            "velocity": 42,
            "time": 2368
        },
        {
            "type": "note_on",
            "note": 51,
            "velocity": 38,
            "time": 2384
        },
        {
            "type": "note_on",
            "note": 45,
            "velocity": 64,
            "time": 4653
        },
        {
            "type": "note_on",
            "note": 67,
            "velocity": 40,
            "time": 4664
        },
        {
            "type": "note_on",
            "note": 61,
            "velocity": 68,
            "time": 4667
        },
        {
            "type": "note_on",
            "note": 50,
            "velocity": 42,
            "time": 6881
        },
        {
            "type": "note_on",
            "note": 60,
            "velocity": 34,
            "time": 6891
        },
        {
            "type": "note_on",
            "note": 66,
            "velocity": 47,
            "time": 6892
        },
        {
            "type": "note_on",
            "note": 58,
            "velocity": 36,
            "time": 9201
        },
        {
            "type": "note_on",
            "note": 43,
            "velocity": 54,
            "time": 9207
        },
        {
            "type": "note_on",
            "note": 65,
            "velocity": 37,
            "time": 9220
        },
        {
            "type": "note_on",
            "note": 62,
            "velocity": 38,
            "time": 9251
        },
        {
            "type": "note_on",
            "note": 67,
            "velocity": 48,
            "time": 11466
        },
        {
            "type": "note_on",
            "note": 62,
            "velocity": 61,
            "time": 11467
        },
        {
            "type": "note_on",
            "note": 51,
            "velocity": 48,
            "time": 11493
        },
        {
            "type": "note_on",
            "note": 61,
            "velocity": 35,
            "time": 13751
        },
        {
            "type": "note_on",
            "note": 45,
            "velocity": 48,
            "time": 13758
        },
        {
            "type": "note_on",
            "note": 67,
            "velocity": 42,
            "time": 13778
        },
        {
            "type": "note_on",
            "note": 57,
            "velocity": 27,
            "time": 13815
        },
        {
            "type": "note_on",
            "note": 60,
            "velocity": 38,
            "time": 16044
        },
        {
            "type": "note_on",
            "note": 50,
            "velocity": 48,
            "time": 16049
        },
        {
            "type": "note_on",
            "note": 66,
            "velocity": 47,
            "time": 16052
        },
        {
            "type": "note_on",
            "note": 65,
            "velocity": 25,
            "time": 18328
        },
        {
            "type": "note_on",
            "note": 43,
            "velocity": 46,
            "time": 18337
        },
        {
            "type": "note_on",
            "note": 58,
            "velocity": 39,
            "time": 18358
        },
        {
            "type": "note_on",
            "note": 62,
            "velocity": 42,
            "time": 18378
        },
        {
            "type": "note_on",
            "note": 58,
            "velocity": 48,
            "time": 20600
        },
        {
            "type": "note_on",
            "note": 51,
            "velocity": 44,
            "time": 20625
        },
        {
            "type": "note_on",
            "note": 62,
            "velocity": 57,
            "time": 20634
        },
        {
            "type": "note_on",
            "note": 58,
            "velocity": 54,
            "time": 22905
        },
        {
            "type": "note_on",
            "note": 48,
            "velocity": 49,
            "time": 22909
        },
        {
            "type": "note_on",
            "note": 63,
            "velocity": 60,
            "time": 22923
        },
        {
            "type": "note_on",
            "note": 59,
            "velocity": 45,
            "time": 25129
        },
        {
            "type": "note_on",
            "note": 52,
            "velocity": 48,
            "time": 25157
        },
        {
            "type": "note_on",
            "note": 64,
            "velocity": 57,
            "time": 25157
        },
        {
            "type": "note_on",
            "note": 56,
            "velocity": 36,
            "time": 25161
        },
        {
            "type": "note_on",
            "note": 45,
            "velocity": 51,
            "time": 27455
        },
        {
            "type": "note_on",
            "note": 61,
            "velocity": 60,
            "time": 27456
        },
        {
            "type": "note_on",
            "note": 55,
            "velocity": 43,
            "time": 27459
        },
        {
            "type": "note_on",
            "note": 54,
            "velocity": 43,
            "time": 29737
        },
        {
            "type": "note_on",
            "note": 50,
            "velocity": 53,
            "time": 29741
        },
        {
            "type": "note_on",
            "note": 60,
            "velocity": 60,
            "time": 29751
        },
        {
            "type": "note_on",
            "note": 43,
            "velocity": 53,
            "time": 32046
        },
        {
            "type": "note_on",
            "note": 53,
            "velocity": 45,
            "time": 32068
        },
        {
            "type": "note_on",
            "note": 58,
            "velocity": 63,
            "time": 32080
        },
        {
            "type": "note_on",
            "note": 45,
            "velocity": 64,
            "time": 34346
        },
        {
            "type": "note_on",
            "note": 61,
            "velocity": 72,
            "time": 34355
        },
        {
            "type": "note_on",
            "note": 55,
            "velocity": 54,
            "time": 34358
        },
        {
            "type": "note_on",
            "note": 54,
            "velocity": 68,
            "time": 35448
        },
        {
            "type": "note_on",
            "note": 50,
            "velocity": 64,
            "time": 35453
        },
        {
            "type": "note_on",
            "note": 60,
            "velocity": 72,
            "time": 35457
        }
    ],
    "notes": [],
    "volumeBacktrack": 1.0,
    "additional_latency": 0
}