{
    "bass": 67,
    "type": "minor",
    "backtrack": "/home/pi/raspiKeys/res/backtracks/processed_wav/Groove Loop_29 (upbeat HH) 125 BPM.wav",
    "backtrackDuration": 3.8399999141693115,
    "nbOfLoops": 1,
    "chord_notes": [
        {
            "type": "note_on",
            "note": 79,
            "velocity": 57,
            "time": 0
        },
        {
            "type": "note_on",
            "note": 67,
            "velocity": 45,
            "time": 0
        },
        {
            "type": "note_on",
            "note": 70,
            "velocity": 73,
            "time": 7
        },
        {
            "type": "note_on",
            "note": 74,
            "velocity": 61,
            "time": 16
        },
        {
            "type": "note_off",
            "note": 67,
            "velocity": 85,
            "time": 1812
        },
        {
            "type": "note_off",
            "note": 79,
            "velocity": 85,
            "time": 1842
        },
        {
            "type": "note_off",
            "note": 70,
            "velocity": 61,
            "time": 1865
        },
        {
            "type": "note_off",
            "note": 74,
            "velocity": 58,
            "time": 1897
        },
        {
            "type": "note_on",
            "note": 79,
            "velocity": 67,
            "time": 1952
        },
        {
            "type": "note_on",
            "note": 67,
            "velocity": 52,
            "time": 1957
        },
        {
            "type": "note_on",
            "note": 70,
            "velocity": 46,
            "time": 1965
        },
        {
            "type": "note_on",
            "note": 74,
            "velocity": 47,
            "time": 1976
        },
        {
            "type": "note_off",
            "note": 67,
            "velocity": 83,
            "time": 2431
        },
        {
            "type": "note_off",
            "note": 79,
            "velocity": 80,
            "time": 2440
        },
        {
            "type": "note_off",
            "note": 74,
            "velocity": 87,
            "time": 2442
        },
        {
            "type": "note_off",
            "note": 70,
            "velocity": 83,
            "time": 2495
        },
        {
            "type": "note_on",
            "note": 68,
            "velocity": 68,
            "time": 2716
        },
        {
            "type": "note_on",
            "note": 75,
            "velocity": 67,
            "time": 2729
        },
        {
            "type": "note_on",
            "note": 71,
            "velocity": 73,
            "time": 2733
        },
        {
            "type": "note_on",
            "note": 80,
            "velocity": 55,
            "time": 2741
        },
        {
            "type": "note_off",
            "note": 71,
            "velocity": 77,
            "time": 3340
        },
        {
            "type": "note_off",
            "note": 68,
            "velocity": 97,
            "time": 3517
        },
        {
            "type": "note_off",
            "note": 75,
            "velocity": 89,
            "time": 3556
        },
        {
            "type": "note_off",
            "note": 80,
            "velocity": 82,
            "time": 3578
        }
    ],
    "notes": [
        {
            "type": "note_on",
            "note": 75,
            "velocity": 87,
            "time": 1266
        },
        {
            "type": "note_off",
            "note": 75,
            "velocity": 102,
            "time": 1384
        },
        {
            "type": "note_on",
            "note": 75,
            "velocity": 77,
            "time": 1475
        },
        {
            "type": "note_off",
            "note": 75,
            "velocity": 83,
            "time": 1616
        },
        {
            "type": "note_on",
            "note": 75,
            "velocity": 75,
            "time": 1710
        },
        {
            "type": "note_off",
            "note": 75,
            "velocity": 96,
            "time": 1887
        },
        {
            "type": "note_on",
            "note": 79,
            "velocity": 86,
            "time": 1976
        },
        {
            "type": "note_off",
            "note": 79,
            "velocity": 95,
            "time": 2130
        },
        {
            "type": "note_on",
            "note": 79,
            "velocity": 88,
            "time": 2211
        },
        {
            "type": "note_off",
            "note": 79,
            "velocity": 98,
            "time": 2350
        },
        {
            "type": "note_on",
            "note": 82,
            "velocity": 79,
            "time": 2448
        },
        {
            "type": "note_off",
            "note": 82,
            "velocity": 88,
            "time": 2608
        },
        {
            "type": "note_on",
            "note": 82,
            "velocity": 82,
            "time": 2658
        },
        {
            "type": "note_off",
            "note": 82,
            "velocity": 96,
            "time": 2816
        },
        {
            "type": "note_on",
            "note": 84,
            "velocity": 92,
            "time": 2887
        },
        {
            "type": "note_off",
            "note": 84,
            "velocity": 77,
            "time": 3619
        }
    ],
    "volumeBacktrack": 0.796875,
    "additional_latency": 0
}