{
    "bass": 60,
    "type": "major",
    "backtrack": "/home/pi/raspiKeys/res/backtracks/processed_wav/100_HH_Groove_048.wav",
    "backtrackDuration": 4.800362586975098,
    "nbOfLoops": 2,
    "chord_notes": [
        {
            "type": "note_on",
            "note": 67,
            "velocity": 52,
            "time": 0
        },
        {
            "type": "note_on",
            "note": 59,
            "velocity": 49,
            "time": 1
        },
        {
            "type": "note_on",
            "note": 60,
            "velocity": 50,
            "time": 2
        },
        {
            "type": "note_on",
            "note": 64,
            "velocity": 57,
            "time": 16
        },
        {
            "type": "note_on",
            "note": 48,
            "velocity": 51,
            "time": 19
        },
        {
            "type": "note_off",
            "note": 48,
            "velocity": 93,
            "time": 1978
        },
        {
            "type": "note_off",
            "note": 59,
            "velocity": 68,
            "time": 2047
        },
        {
            "type": "note_off",
            "note": 67,
            "velocity": 59,
            "time": 2065
        },
        {
            "type": "note_off",
            "note": 60,
            "velocity": 75,
            "time": 2067
        },
        {
            "type": "note_off",
            "note": 64,
            "velocity": 71,
            "time": 2082
        },
        {
            "type": "note_on",
            "note": 67,
            "velocity": 54,
            "time": 2488
        },
        {
            "type": "note_on",
            "note": 57,
            "velocity": 52,
            "time": 2489
        },
        {
            "type": "note_on",
            "note": 64,
            "velocity": 51,
            "time": 2497
        },
        {
            "type": "note_on",
            "note": 60,
            "velocity": 57,
            "time": 2502
        },
        {
            "type": "note_on",
            "note": 52,
            "velocity": 42,
            "time": 2518
        },
        {
            "type": "note_on",
            "note": 45,
            "velocity": 45,
            "time": 2526
        },
        {
            "type": "note_off",
            "note": 67,
            "velocity": 85,
            "time": 4397
        },
        {
            "type": "note_off",
            "note": 52,
            "velocity": 76,
            "time": 4405
        },
        {
            "type": "note_off",
            "note": 45,
            "velocity": 97,
            "time": 4428
        },
        {
            "type": "note_off",
            "note": 64,
            "velocity": 96,
            "time": 4450
        },
        {
            "type": "note_off",
            "note": 60,
            "velocity": 67,
            "time": 4500
        },
        {
            "type": "note_off",
            "note": 57,
            "velocity": 60,
            "time": 4504
        },
        {
            "type": "note_on",
            "note": 57,
            "velocity": 43,
            "time": 4891
        },
        {
            "type": "note_on",
            "note": 65,
            "velocity": 46,
            "time": 4894
        },
        {
            "type": "note_on",
            "note": 50,
            "velocity": 57,
            "time": 4895
        },
        {
            "type": "note_on",
            "note": 60,
            "velocity": 62,
            "time": 4899
        },
        {
            "type": "note_on",
            "note": 62,
            "velocity": 55,
            "time": 4903
        },
        {
            "type": "note_off",
            "note": 60,
            "velocity": 55,
            "time": 6495
        },
        {
            "type": "note_off",
            "note": 50,
            "velocity": 65,
            "time": 6523
        },
        {
            "type": "note_off",
            "note": 57,
            "velocity": 57,
            "time": 6531
        },
        {
            "type": "note_off",
            "note": 65,
            "velocity": 76,
            "time": 6560
        },
        {
            "type": "note_off",
            "note": 62,
            "velocity": 77,
            "time": 6567
        },
        {
            "type": "note_on",
            "note": 65,
            "velocity": 35,
            "time": 7296
        },
        {
            "type": "note_on",
            "note": 56,
            "velocity": 33,
            "time": 7328
        },
        {
            "type": "note_on",
            "note": 59,
            "velocity": 53,
            "time": 7335
        },
        {
            "type": "note_on",
            "note": 55,
            "velocity": 37,
            "time": 7339
        },
        {
            "type": "note_on",
            "note": 62,
            "velocity": 57,
            "time": 7349
        },
        {
            "type": "note_on",
            "note": 43,
            "velocity": 39,
            "time": 7351
        },
        {
            "type": "note_off",
            "note": 55,
            "velocity": 83,
            "time": 9019
        },
        {
            "type": "note_off",
            "note": 43,
            "velocity": 94,
            "time": 9043
        },
        {
            "type": "note_off",
            "note": 56,
            "velocity": 87,
            "time": 9056
        },
        {
            "type": "note_off",
            "note": 62,
            "velocity": 87,
            "time": 9062
        },
        {
            "type": "note_off",
            "note": 65,
            "velocity": 90,
            "time": 9070
        },
        {
            "type": "note_off",
            "note": 59,
            "velocity": 93,
            "time": 9072
        }
    ],
    "notes": [],
    "volumeBacktrack": 1.0,
    "additional_latency": 0
}