{
    "bass": 60,
    "type": "minor",
    "backtrack": "/home/pi/raspiKeys/res/backtracks/processed_wav/cs6.wav",
    "backtrackDuration": 4.377369403839111,
    "nbOfLoops": 4,
    "chord_notes": [
        {
            "type": "note_on",
            "note": 48,
            "velocity": 46,
            "time": 1
        },
        {
            "type": "note_on",
            "note": 67,
            "velocity": 55,
            "time": 1
        },
        {
            "type": "note_on",
            "note": 58,
            "velocity": 35,
            "time": 6
        },
        {
            "type": "note_on",
            "note": 62,
            "velocity": 69,
            "time": 10
        },
        {
            "type": "note_on",
            "note": 63,
            "velocity": 52,
            "time": 16
        },
        {
            "type": "note_on",
            "note": 62,
            "velocity": 0,
            "time": 1464
        },
        {
            "type": "note_on",
            "note": 63,
            "velocity": 0,
            "time": 1549
        },
        {
            "type": "note_on",
            "note": 58,
            "velocity": 0,
            "time": 1624
        },
        {
            "type": "note_on",
            "note": 67,
            "velocity": 0,
            "time": 1851
        },
        {
            "type": "note_on",
            "note": 48,
            "velocity": 0,
            "time": 1886
        },
        {
            "type": "note_on",
            "note": 63,
            "velocity": 55,
            "time": 2254
        },
        {
            "type": "note_on",
            "note": 67,
            "velocity": 57,
            "time": 2255
        },
        {
            "type": "note_on",
            "note": 53,
            "velocity": 40,
            "time": 2260
        },
        {
            "type": "note_on",
            "note": 60,
            "velocity": 49,
            "time": 2266
        },
        {
            "type": "note_on",
            "note": 56,
            "velocity": 33,
            "time": 2269
        },
        {
            "type": "note_on",
            "note": 67,
            "velocity": 0,
            "time": 3636
        },
        {
            "type": "note_on",
            "note": 63,
            "velocity": 0,
            "time": 3716
        },
        {
            "type": "note_on",
            "note": 60,
            "velocity": 0,
            "time": 3788
        },
        {
            "type": "note_on",
            "note": 56,
            "velocity": 0,
            "time": 3938
        },
        {
            "type": "note_on",
            "note": 53,
            "velocity": 0,
            "time": 3950
        },
        {
            "type": "note_on",
            "note": 65,
            "velocity": 39,
            "time": 4411
        },
        {
            "type": "note_on",
            "note": 50,
            "velocity": 49,
            "time": 4417
        },
        {
            "type": "note_on",
            "note": 62,
            "velocity": 41,
            "time": 4434
        },
        {
            "type": "note_on",
            "note": 60,
            "velocity": 52,
            "time": 4439
        },
        {
            "type": "note_on",
            "note": 56,
            "velocity": 25,
            "time": 4453
        },
        {
            "type": "note_on",
            "note": 60,
            "velocity": 0,
            "time": 5138
        },
        {
            "type": "note_on",
            "note": 56,
            "velocity": 0,
            "time": 5140
        },
        {
            "type": "note_on",
            "note": 62,
            "velocity": 0,
            "time": 5235
        },
        {
            "type": "note_on",
            "note": 50,
            "velocity": 0,
            "time": 5358
        },
        {
            "type": "note_on",
            "note": 65,
            "velocity": 0,
            "time": 5359
        },
        {
            "type": "note_on",
            "note": 59,
            "velocity": 40,
            "time": 5498
        },
        {
            "type": "note_on",
            "note": 65,
            "velocity": 35,
            "time": 5499
        },
        {
            "type": "note_on",
            "note": 55,
            "velocity": 47,
            "time": 5510
        },
        {
            "type": "note_on",
            "note": 62,
            "velocity": 50,
            "time": 5512
        },
        {
            "type": "note_on",
            "note": 65,
            "velocity": 0,
            "time": 6208
        },
        {
            "type": "note_on",
            "note": 59,
            "velocity": 0,
            "time": 6209
        },
        {
            "type": "note_on",
            "note": 62,
            "velocity": 0,
            "time": 6218
        },
        {
            "type": "note_on",
            "note": 55,
            "velocity": 0,
            "time": 6383
        },
        {
            "type": "note_on",
            "note": 67,
            "velocity": 54,
            "time": 6642
        },
        {
            "type": "note_on",
            "note": 58,
            "velocity": 37,
            "time": 6644
        },
        {
            "type": "note_on",
            "note": 48,
            "velocity": 53,
            "time": 6647
        },
        {
            "type": "note_on",
            "note": 63,
            "velocity": 42,
            "time": 6651
        },
        {
            "type": "note_on",
            "note": 62,
            "velocity": 21,
            "time": 6689
        },
        {
            "type": "note_on",
            "note": 62,
            "velocity": 0,
            "time": 8173
        },
        {
            "type": "note_on",
            "note": 67,
            "velocity": 0,
            "time": 8322
        },
        {
            "type": "note_on",
            "note": 63,
            "velocity": 0,
            "time": 8373
        },
        {
            "type": "note_on",
            "note": 48,
            "velocity": 0,
            "time": 8583
        },
        {
            "type": "note_on",
            "note": 58,
            "velocity": 0,
            "time": 8631
        },
        {
            "type": "note_on",
            "note": 63,
            "velocity": 47,
            "time": 8805
        },
        {
            "type": "note_on",
            "note": 66,
            "velocity": 46,
            "time": 8811
        },
        {
            "type": "note_on",
            "note": 51,
            "velocity": 47,
            "time": 8816
        },
        {
            "type": "note_on",
            "note": 58,
            "velocity": 32,
            "time": 8821
        },
        {
            "type": "note_on",
            "note": 61,
            "velocity": 41,
            "time": 8824
        },
        {
            "type": "note_on",
            "note": 61,
            "velocity": 0,
            "time": 9377
        },
        {
            "type": "note_on",
            "note": 63,
            "velocity": 0,
            "time": 9586
        },
        {
            "type": "note_on",
            "note": 58,
            "velocity": 0,
            "time": 9615
        },
        {
            "type": "note_on",
            "note": 51,
            "velocity": 0,
            "time": 9663
        },
        {
            "type": "note_on",
            "note": 66,
            "velocity": 0,
            "time": 9719
        },
        {
            "type": "note_on",
            "note": 56,
            "velocity": 34,
            "time": 9909
        },
        {
            "type": "note_on",
            "note": 66,
            "velocity": 55,
            "time": 9912
        },
        {
            "type": "note_on",
            "note": 63,
            "velocity": 57,
            "time": 9922
        },
        {
            "type": "note_on",
            "note": 60,
            "velocity": 46,
            "time": 9923
        },
        {
            "type": "note_on",
            "note": 60,
            "velocity": 0,
            "time": 10395
        },
        {
            "type": "note_on",
            "note": 66,
            "velocity": 0,
            "time": 10475
        },
        {
            "type": "note_on",
            "note": 56,
            "velocity": 0,
            "time": 10498
        },
        {
            "type": "note_on",
            "note": 63,
            "velocity": 0,
            "time": 10647
        },
        {
            "type": "note_on",
            "note": 68,
            "velocity": 40,
            "time": 11016
        },
        {
            "type": "note_on",
            "note": 49,
            "velocity": 35,
            "time": 11021
        },
        {
            "type": "note_on",
            "note": 60,
            "velocity": 52,
            "time": 11039
        },
        {
            "type": "note_on",
            "note": 61,
            "velocity": 40,
            "time": 11044
        },
        {
            "type": "note_on",
            "note": 65,
            "velocity": 47,
            "time": 11046
        },
        {
            "type": "note_on",
            "note": 61,
            "velocity": 0,
            "time": 12339
        },
        {
            "type": "note_on",
            "note": 65,
            "velocity": 0,
            "time": 12469
        },
        {
            "type": "note_on",
            "note": 68,
            "velocity": 0,
            "time": 12622
        },
        {
            "type": "note_on",
            "note": 49,
            "velocity": 0,
            "time": 12648
        },
        {
            "type": "note_on",
            "note": 60,
            "velocity": 0,
            "time": 12698
        },
        {
            "type": "note_on",
            "note": 68,
            "velocity": 64,
            "time": 13189
        },
        {
            "type": "note_on",
            "note": 50,
            "velocity": 45,
            "time": 13197
        },
        {
            "type": "note_on",
            "note": 65,
            "velocity": 32,
            "time": 13199
        },
        {
            "type": "note_on",
            "note": 62,
            "velocity": 31,
            "time": 13200
        },
        {
            "type": "note_on",
            "note": 60,
            "velocity": 42,
            "time": 13210
        },
        {
            "type": "note_on",
            "note": 62,
            "velocity": 0,
            "time": 13872
        },
        {
            "type": "note_on",
            "note": 68,
            "velocity": 0,
            "time": 13972
        },
        {
            "type": "note_on",
            "note": 60,
            "velocity": 0,
            "time": 13980
        },
        {
            "type": "note_on",
            "note": 65,
            "velocity": 0,
            "time": 14008
        },
        {
            "type": "note_on",
            "note": 50,
            "velocity": 0,
            "time": 14053
        },
        {
            "type": "note_on",
            "note": 63,
            "velocity": 40,
            "time": 14266
        },
        {
            "type": "note_on",
            "note": 67,
            "velocity": 63,
            "time": 14271
        },
        {
            "type": "note_on",
            "note": 59,
            "velocity": 44,
            "time": 14277
        },
        {
            "type": "note_on",
            "note": 55,
            "velocity": 43,
            "time": 14290
        },
        {
            "type": "note_on",
            "note": 67,
            "velocity": 0,
            "time": 14909
        },
        {
            "type": "note_on",
            "note": 59,
            "velocity": 0,
            "time": 14982
        },
        {
            "type": "note_on",
            "note": 63,
            "velocity": 0,
            "time": 14993
        },
        {
            "type": "note_on",
            "note": 55,
            "velocity": 0,
            "time": 15087
        },
        {
            "type": "note_on",
            "note": 58,
            "velocity": 45,
            "time": 15370
        },
        {
            "type": "note_on",
            "note": 67,
            "velocity": 44,
            "time": 15376
        },
        {
            "type": "note_on",
            "note": 48,
            "velocity": 43,
            "time": 15377
        },
        {
            "type": "note_on",
            "note": 62,
            "velocity": 54,
            "time": 15380
        },
        {
            "type": "note_on",
            "note": 63,
            "velocity": 36,
            "time": 15389
        },
        {
            "type": "note_on",
            "note": 63,
            "velocity": 0,
            "time": 17105
        },
        {
            "type": "note_on",
            "note": 62,
            "velocity": 0,
            "time": 17114
        },
        {
            "type": "note_on",
            "note": 58,
            "velocity": 0,
            "time": 17160
        },
        {
            "type": "note_on",
            "note": 48,
            "velocity": 0,
            "time": 17237
        },
        {
            "type": "note_on",
            "note": 67,
            "velocity": 0,
            "time": 17265
        }
    ],
    "notes": [],
    "volumeBacktrack": 1.0,
    "additional_latency": 0
}