{
    "bass": 41,
    "type": "minor",
    "backtrack": "/home/pi/raspiKeys/res/backtracks/processed_wav/Groove Loop_11 90 BPM.wav",
    "backtrackDuration": 5.332517147064209,
    "nbOfLoops": 2,
    "chord_notes": [
        {
            "type": "note_on",
            "note": 48,
            "velocity": 58,
            "time": 0
        },
        {
            "type": "note_on",
            "note": 41,
            "velocity": 71,
            "time": 0
        },
        {
            "type": "note_off",
            "note": 41,
            "velocity": 90,
            "time": 735
        },
        {
            "type": "note_off",
            "note": 48,
            "velocity": 86,
            "time": 751
        },
        {
            "type": "note_on",
            "note": 63,
            "velocity": 66,
            "time": 1353
        },
        {
            "type": "note_on",
            "note": 53,
            "velocity": 50,
            "time": 1367
        },
        {
            "type": "note_on",
            "note": 58,
            "velocity": 59,
            "time": 1375
        },
        {
            "type": "note_off",
            "note": 53,
            "velocity": 89,
            "time": 1922
        },
        {
            "type": "note_off",
            "note": 58,
            "velocity": 83,
            "time": 1951
        },
        {
            "type": "note_off",
            "note": 63,
            "velocity": 83,
            "time": 1955
        },
        {
            "type": "note_on",
            "note": 60,
            "velocity": 49,
            "time": 2401
        },
        {
            "type": "note_on",
            "note": 65,
            "velocity": 46,
            "time": 2409
        },
        {
            "type": "note_on",
            "note": 55,
            "velocity": 45,
            "time": 2423
        },
        {
            "type": "note_off",
            "note": 65,
            "velocity": 84,
            "time": 3640
        },
        {
            "type": "note_off",
            "note": 60,
            "velocity": 76,
            "time": 3660
        },
        {
            "type": "note_off",
            "note": 55,
            "velocity": 83,
            "time": 3750
        },
        {
            "type": "note_on",
            "note": 41,
            "velocity": 60,
            "time": 5380
        },
        {
            "type": "note_on",
            "note": 48,
            "velocity": 37,
            "time": 5404
        },
        {
            "type": "note_off",
            "note": 41,
            "velocity": 90,
            "time": 6077
        },
        {
            "type": "note_off",
            "note": 48,
            "velocity": 86,
            "time": 6085
        },
        {
            "type": "note_on",
            "note": 58,
            "velocity": 52,
            "time": 6688
        },
        {
            "type": "note_on",
            "note": 63,
            "velocity": 44,
            "time": 6701
        },
        {
            "type": "note_on",
            "note": 53,
            "velocity": 46,
            "time": 6701
        },
        {
            "type": "note_off",
            "note": 53,
            "velocity": 85,
            "time": 7187
        },
        {
            "type": "note_off",
            "note": 58,
            "velocity": 90,
            "time": 7226
        },
        {
            "type": "note_off",
            "note": 63,
            "velocity": 85,
            "time": 7233
        },
        {
            "type": "note_on",
            "note": 65,
            "velocity": 41,
            "time": 7746
        },
        {
            "type": "note_on",
            "note": 55,
            "velocity": 46,
            "time": 7762
        },
        {
            "type": "note_on",
            "note": 60,
            "velocity": 58,
            "time": 7783
        },
        {
            "type": "note_off",
            "note": 60,
            "velocity": 86,
            "time": 8411
        },
        {
            "type": "note_off",
            "note": 55,
            "velocity": 85,
            "time": 8416
        },
        {
            "type": "note_off",
            "note": 65,
            "velocity": 78,
            "time": 8423
        },
        {
            "type": "note_on",
            "note": 58,
            "velocity": 64,
            "time": 9049
        },
        {
            "type": "note_on",
            "note": 63,
            "velocity": 53,
            "time": 9063
        },
        {
            "type": "note_on",
            "note": 53,
            "velocity": 37,
            "time": 9099
        },
        {
            "type": "note_off",
            "note": 63,
            "velocity": 90,
            "time": 9978
        },
        {
            "type": "note_off",
            "note": 53,
            "velocity": 75,
            "time": 9992
        },
        {
            "type": "note_off",
            "note": 58,
            "velocity": 90,
            "time": 10032
        }
    ],
    "notes": [],
    "volumeBacktrack": 1.0,
    "additional_latency": 0
}