{
    "bass": 58,
    "type": "major",
    "backtrack": "/home/pi/raspiKeys/res/backtracks/processed_wav/Groove Loop_03 90 BPM.wav",
    "backtrackDuration": 5.340498924255371,
    "nbOfLoops": 6,
    "chord_notes": [
        {
            "type": "note_on",
            "note": 58,
            "velocity": 66,
            "time": 0
        },
        {
            "type": "note_on",
            "note": 65,
            "velocity": 53,
            "time": 1
        },
        {
            "type": "note_on",
            "note": 53,
            "velocity": 55,
            "time": 19
        },
        {
            "type": "note_on",
            "note": 62,
            "velocity": 64,
            "time": 32
        },
        {
            "type": "note_on",
            "note": 46,
            "velocity": 56,
            "time": 35
        },
        {
            "type": "note_on",
            "note": 57,
            "velocity": 60,
            "time": 40
        },
        {
            "type": "note_off",
            "note": 62,
            "velocity": 73,
            "time": 1938
        },
        {
            "type": "note_off",
            "note": 57,
            "velocity": 77,
            "time": 1958
        },
        {
            "type": "note_off",
            "note": 58,
            "velocity": 94,
            "time": 1989
        },
        {
            "type": "note_off",
            "note": 65,
            "velocity": 84,
            "time": 2032
        },
        {
            "type": "note_off",
            "note": 53,
            "velocity": 64,
            "time": 2336
        },
        {
            "type": "note_off",
            "note": 46,
            "velocity": 59,
            "time": 2542
        },
        {
            "type": "note_on",
            "note": 67,
            "velocity": 51,
            "time": 2773
        },
        {
            "type": "note_on",
            "note": 57,
            "velocity": 62,
            "time": 2778
        },
        {
            "type": "note_on",
            "note": 72,
            "velocity": 51,
            "time": 2779
        },
        {
            "type": "note_on",
            "note": 69,
            "velocity": 49,
            "time": 2784
        },
        {
            "type": "note_on",
            "note": 75,
            "velocity": 63,
            "time": 2786
        },
        {
            "type": "note_off",
            "note": 72,
            "velocity": 92,
            "time": 3688
        },
        {
            "type": "note_off",
            "note": 69,
            "velocity": 90,
            "time": 3710
        },
        {
            "type": "note_off",
            "note": 75,
            "velocity": 87,
            "time": 3716
        },
        {
            "type": "note_off",
            "note": 67,
            "velocity": 70,
            "time": 3723
        },
        {
            "type": "note_off",
            "note": 57,
            "velocity": 34,
            "time": 4028
        },
        {
            "type": "note_on",
            "note": 66,
            "velocity": 50,
            "time": 4134
        },
        {
            "type": "note_on",
            "note": 72,
            "velocity": 50,
            "time": 4136
        },
        {
            "type": "note_on",
            "note": 62,
            "velocity": 44,
            "time": 4148
        },
        {
            "type": "note_on",
            "note": 50,
            "velocity": 64,
            "time": 4151
        },
        {
            "type": "note_on",
            "note": 69,
            "velocity": 57,
            "time": 4153
        },
        {
            "type": "note_off",
            "note": 69,
            "velocity": 83,
            "time": 4897
        },
        {
            "type": "note_off",
            "note": 66,
            "velocity": 86,
            "time": 4942
        },
        {
            "type": "note_off",
            "note": 72,
            "velocity": 93,
            "time": 4983
        },
        {
            "type": "note_on",
            "note": 66,
            "velocity": 27,
            "time": 5051
        },
        {
            "type": "note_off",
            "note": 62,
            "velocity": 84,
            "time": 5100
        },
        {
            "type": "note_off",
            "note": 66,
            "velocity": 38,
            "time": 5181
        },
        {
            "type": "note_off",
            "note": 50,
            "velocity": 95,
            "time": 5408
        },
        {
            "type": "note_on",
            "note": 55,
            "velocity": 65,
            "time": 5412
        },
        {
            "type": "note_on",
            "note": 65,
            "velocity": 41,
            "time": 5414
        },
        {
            "type": "note_on",
            "note": 67,
            "velocity": 47,
            "time": 5424
        },
        {
            "type": "note_on",
            "note": 62,
            "velocity": 55,
            "time": 5425
        },
        {
            "type": "note_on",
            "note": 70,
            "velocity": 65,
            "time": 5432
        },
        {
            "type": "note_off",
            "note": 65,
            "velocity": 92,
            "time": 6038
        },
        {
            "type": "note_off",
            "note": 62,
            "velocity": 62,
            "time": 6176
        },
        {
            "type": "note_off",
            "note": 55,
            "velocity": 70,
            "time": 6403
        },
        {
            "type": "note_off",
            "note": 67,
            "velocity": 36,
            "time": 6605
        },
        {
            "type": "note_off",
            "note": 70,
            "velocity": 74,
            "time": 6638
        },
        {
            "type": "note_on",
            "note": 60,
            "velocity": 51,
            "time": 6793
        },
        {
            "type": "note_on",
            "note": 64,
            "velocity": 55,
            "time": 6795
        },
        {
            "type": "note_on",
            "note": 67,
            "velocity": 54,
            "time": 6803
        },
        {
            "type": "note_on",
            "note": 48,
            "velocity": 56,
            "time": 6826
        },
        {
            "type": "note_on",
            "note": 70,
            "velocity": 57,
            "time": 6827
        },
        {
            "type": "note_off",
            "note": 60,
            "velocity": 48,
            "time": 7530
        },
        {
            "type": "note_off",
            "note": 70,
            "velocity": 82,
            "time": 7604
        },
        {
            "type": "note_off",
            "note": 67,
            "velocity": 87,
            "time": 7613
        },
        {
            "type": "note_off",
            "note": 64,
            "velocity": 86,
            "time": 7614
        },
        {
            "type": "note_off",
            "note": 48,
            "velocity": 75,
            "time": 8010
        },
        {
            "type": "note_on",
            "note": 63,
            "velocity": 65,
            "time": 8025
        },
        {
            "type": "note_on",
            "note": 53,
            "velocity": 64,
            "time": 8039
        },
        {
            "type": "note_on",
            "note": 65,
            "velocity": 39,
            "time": 8042
        },
        {
            "type": "note_on",
            "note": 68,
            "velocity": 60,
            "time": 8046
        },
        {
            "type": "note_on",
            "note": 72,
            "velocity": 57,
            "time": 8054
        },
        {
            "type": "note_off",
            "note": 72,
            "velocity": 57,
            "time": 8896
        },
        {
            "type": "note_off",
            "note": 68,
            "velocity": 66,
            "time": 8977
        },
        {
            "type": "note_off",
            "note": 63,
            "velocity": 92,
            "time": 8988
        },
        {
            "type": "note_off",
            "note": 53,
            "velocity": 79,
            "time": 9133
        },
        {
            "type": "note_off",
            "note": 65,
            "velocity": 58,
            "time": 9227
        },
        {
            "type": "note_on",
            "note": 46,
            "velocity": 56,
            "time": 9368
        },
        {
            "type": "note_on",
            "note": 65,
            "velocity": 48,
            "time": 9372
        },
        {
            "type": "note_on",
            "note": 68,
            "velocity": 67,
            "time": 9378
        },
        {
            "type": "note_on",
            "note": 62,
            "velocity": 47,
            "time": 9383
        },
        {
            "type": "note_off",
            "note": 65,
            "velocity": 90,
            "time": 10194
        },
        {
            "type": "note_off",
            "note": 68,
            "velocity": 90,
            "time": 10204
        },
        {
            "type": "note_off",
            "note": 62,
            "velocity": 30,
            "time": 10604
        },
        {
            "type": "note_on",
            "note": 63,
            "velocity": 69,
            "time": 10755
        },
        {
            "type": "note_off",
            "note": 46,
            "velocity": 76,
            "time": 10759
        },
        {
            "type": "note_on",
            "note": 62,
            "velocity": 43,
            "time": 10762
        },
        {
            "type": "note_on",
            "note": 51,
            "velocity": 68,
            "time": 10763
        },
        {
            "type": "note_on",
            "note": 70,
            "velocity": 61,
            "time": 10767
        },
        {
            "type": "note_on",
            "note": 67,
            "velocity": 57,
            "time": 10769
        },
        {
            "type": "note_off",
            "note": 67,
            "velocity": 61,
            "time": 12378
        },
        {
            "type": "note_off",
            "note": 62,
            "velocity": 72,
            "time": 12719
        },
        {
            "type": "note_off",
            "note": 70,
            "velocity": 56,
            "time": 12758
        },
        {
            "type": "note_off",
            "note": 63,
            "velocity": 57,
            "time": 12906
        },
        {
            "type": "note_off",
            "note": 51,
            "velocity": 89,
            "time": 12936
        },
        {
            "type": "note_on",
            "note": 63,
            "velocity": 61,
            "time": 13453
        },
        {
            "type": "note_on",
            "note": 66,
            "velocity": 50,
            "time": 13457
        },
        {
            "type": "note_on",
            "note": 61,
            "velocity": 56,
            "time": 13461
        },
        {
            "type": "note_on",
            "note": 51,
            "velocity": 63,
            "time": 13464
        },
        {
            "type": "note_on",
            "note": 70,
            "velocity": 55,
            "time": 13468
        },
        {
            "type": "note_off",
            "note": 61,
            "velocity": 95,
            "time": 14249
        },
        {
            "type": "note_off",
            "note": 66,
            "velocity": 51,
            "time": 14335
        },
        {
            "type": "note_off",
            "note": 51,
            "velocity": 87,
            "time": 14591
        },
        {
            "type": "note_off",
            "note": 70,
            "velocity": 63,
            "time": 14595
        },
        {
            "type": "note_off",
            "note": 63,
            "velocity": 59,
            "time": 14633
        },
        {
            "type": "note_on",
            "note": 44,
            "velocity": 76,
            "time": 14734
        },
        {
            "type": "note_on",
            "note": 63,
            "velocity": 66,
            "time": 14754
        },
        {
            "type": "note_on",
            "note": 66,
            "velocity": 60,
            "time": 14758
        },
        {
            "type": "note_on",
            "note": 60,
            "velocity": 62,
            "time": 14760
        },
        {
            "type": "note_on",
            "note": 70,
            "velocity": 58,
            "time": 14795
        },
        {
            "type": "note_off",
            "note": 66,
            "velocity": 87,
            "time": 15409
        },
        {
            "type": "note_off",
            "note": 63,
            "velocity": 89,
            "time": 15425
        },
        {
            "type": "note_off",
            "note": 70,
            "velocity": 90,
            "time": 15439
        },
        {
            "type": "note_off",
            "note": 60,
            "velocity": 56,
            "time": 15932
        },
        {
            "type": "note_off",
            "note": 44,
            "velocity": 71,
            "time": 16036
        },
        {
            "type": "note_on",
            "note": 68,
            "velocity": 71,
            "time": 16070
        },
        {
            "type": "note_on",
            "note": 61,
            "velocity": 47,
            "time": 16077
        },
        {
            "type": "note_on",
            "note": 49,
            "velocity": 67,
            "time": 16078
        },
        {
            "type": "note_on",
            "note": 60,
            "velocity": 57,
            "time": 16092
        },
        {
            "type": "note_on",
            "note": 65,
            "velocity": 47,
            "time": 16112
        },
        {
            "type": "note_off",
            "note": 65,
            "velocity": 73,
            "time": 17676
        },
        {
            "type": "note_off",
            "note": 60,
            "velocity": 61,
            "time": 17715
        },
        {
            "type": "note_off",
            "note": 68,
            "velocity": 48,
            "time": 17828
        },
        {
            "type": "note_off",
            "note": 61,
            "velocity": 32,
            "time": 17988
        },
        {
            "type": "note_off",
            "note": 49,
            "velocity": 48,
            "time": 18204
        },
        {
            "type": "note_on",
            "note": 68,
            "velocity": 73,
            "time": 18773
        },
        {
            "type": "note_on",
            "note": 61,
            "velocity": 58,
            "time": 18777
        },
        {
            "type": "note_on",
            "note": 49,
            "velocity": 78,
            "time": 18779
        },
        {
            "type": "note_on",
            "note": 59,
            "velocity": 64,
            "time": 18785
        },
        {
            "type": "note_on",
            "note": 64,
            "velocity": 65,
            "time": 18788
        },
        {
            "type": "note_off",
            "note": 59,
            "velocity": 45,
            "time": 19471
        },
        {
            "type": "note_off",
            "note": 49,
            "velocity": 94,
            "time": 19666
        },
        {
            "type": "note_off",
            "note": 68,
            "velocity": 44,
            "time": 19678
        },
        {
            "type": "note_off",
            "note": 61,
            "velocity": 24,
            "time": 19884
        },
        {
            "type": "note_off",
            "note": 64,
            "velocity": 57,
            "time": 19933
        },
        {
            "type": "note_on",
            "note": 58,
            "velocity": 75,
            "time": 20141
        },
        {
            "type": "note_on",
            "note": 42,
            "velocity": 57,
            "time": 20146
        },
        {
            "type": "note_on",
            "note": 61,
            "velocity": 60,
            "time": 20146
        },
        {
            "type": "note_on",
            "note": 64,
            "velocity": 64,
            "time": 20150
        },
        {
            "type": "note_on",
            "note": 68,
            "velocity": 63,
            "time": 20156
        },
        {
            "type": "note_on",
            "note": 54,
            "velocity": 41,
            "time": 20169
        },
        {
            "type": "note_off",
            "note": 61,
            "velocity": 80,
            "time": 20845
        },
        {
            "type": "note_off",
            "note": 64,
            "velocity": 84,
            "time": 20888
        },
        {
            "type": "note_off",
            "note": 68,
            "velocity": 82,
            "time": 20968
        },
        {
            "type": "note_off",
            "note": 58,
            "velocity": 52,
            "time": 21317
        },
        {
            "type": "note_off",
            "note": 54,
            "velocity": 84,
            "time": 21366
        },
        {
            "type": "note_on",
            "note": 58,
            "velocity": 75,
            "time": 21437
        },
        {
            "type": "note_on",
            "note": 66,
            "velocity": 63,
            "time": 21439
        },
        {
            "type": "note_on",
            "note": 47,
            "velocity": 72,
            "time": 21441
        },
        {
            "type": "note_on",
            "note": 59,
            "velocity": 58,
            "time": 21454
        },
        {
            "type": "note_on",
            "note": 63,
            "velocity": 70,
            "time": 21460
        },
        {
            "type": "note_off",
            "note": 42,
            "velocity": 86,
            "time": 21460
        },
        {
            "type": "note_off",
            "note": 47,
            "velocity": 88,
            "time": 23339
        },
        {
            "type": "note_off",
            "note": 59,
            "velocity": 85,
            "time": 23383
        },
        {
            "type": "note_off",
            "note": 58,
            "velocity": 90,
            "time": 23398
        },
        {
            "type": "note_off",
            "note": 63,
            "velocity": 92,
            "time": 23438
        },
        {
            "type": "note_off",
            "note": 66,
            "velocity": 84,
            "time": 23469
        },
        {
            "type": "note_on",
            "note": 77,
            "velocity": 66,
            "time": 24132
        },
        {
            "type": "note_on",
            "note": 67,
            "velocity": 47,
            "time": 24140
        },
        {
            "type": "note_on",
            "note": 74,
            "velocity": 58,
            "time": 24145
        },
        {
            "type": "note_on",
            "note": 58,
            "velocity": 42,
            "time": 24148
        },
        {
            "type": "note_on",
            "note": 70,
            "velocity": 53,
            "time": 24151
        },
        {
            "type": "note_on",
            "note": 51,
            "velocity": 48,
            "time": 24154
        },
        {
            "type": "note_on",
            "note": 48,
            "velocity": 33,
            "time": 24224
        },
        {
            "type": "note_off",
            "note": 70,
            "velocity": 72,
            "time": 25041
        },
        {
            "type": "note_off",
            "note": 74,
            "velocity": 79,
            "time": 25160
        },
        {
            "type": "note_off",
            "note": 58,
            "velocity": 91,
            "time": 25168
        },
        {
            "type": "note_off",
            "note": 48,
            "velocity": 43,
            "time": 25188
        },
        {
            "type": "note_off",
            "note": 77,
            "velocity": 82,
            "time": 25219
        },
        {
            "type": "note_off",
            "note": 67,
            "velocity": 62,
            "time": 25268
        },
        {
            "type": "note_on",
            "note": 69,
            "velocity": 65,
            "time": 25466
        },
        {
            "type": "note_on",
            "note": 72,
            "velocity": 55,
            "time": 25470
        },
        {
            "type": "note_on",
            "note": 51,
            "velocity": 16,
            "time": 25476
        },
        {
            "type": "note_on",
            "note": 53,
            "velocity": 49,
            "time": 25488
        },
        {
            "type": "note_on",
            "note": 67,
            "velocity": 49,
            "time": 25489
        },
        {
            "type": "note_on",
            "note": 57,
            "velocity": 47,
            "time": 25501
        },
        {
            "type": "note_on",
            "note": 48,
            "velocity": 35,
            "time": 25547
        },
        {
            "type": "note_off",
            "note": 48,
            "velocity": 64,
            "time": 26147
        },
        {
            "type": "note_off",
            "note": 69,
            "velocity": 91,
            "time": 26179
        },
        {
            "type": "note_off",
            "note": 53,
            "velocity": 93,
            "time": 26192
        },
        {
            "type": "note_off",
            "note": 72,
            "velocity": 92,
            "time": 26214
        },
        {
            "type": "note_off",
            "note": 51,
            "velocity": 86,
            "time": 26255
        },
        {
            "type": "note_off",
            "note": 51,
            "velocity": 86,
            "time": 26256
        },
        {
            "type": "note_off",
            "note": 57,
            "velocity": 82,
            "time": 26263
        },
        {
            "type": "note_off",
            "note": 67,
            "velocity": 52,
            "time": 26616
        },
        {
            "type": "note_on",
            "note": 65,
            "velocity": 64,
            "time": 26778
        },
        {
            "type": "note_on",
            "note": 53,
            "velocity": 34,
            "time": 26808
        },
        {
            "type": "note_on",
            "note": 60,
            "velocity": 34,
            "time": 26832
        },
        {
            "type": "note_on",
            "note": 50,
            "velocity": 30,
            "time": 26871
        },
        {
            "type": "note_off",
            "note": 53,
            "velocity": 76,
            "time": 27612
        },
        {
            "type": "note_off",
            "note": 50,
            "velocity": 90,
            "time": 27643
        },
        {
            "type": "note_off",
            "note": 60,
            "velocity": 85,
            "time": 27774
        },
        {
            "type": "note_off",
            "note": 65,
            "velocity": 72,
            "time": 27973
        },
        {
            "type": "note_on",
            "note": 65,
            "velocity": 54,
            "time": 28097
        },
        {
            "type": "note_on",
            "note": 53,
            "velocity": 41,
            "time": 28110
        },
        {
            "type": "note_on",
            "note": 56,
            "velocity": 37,
            "time": 28110
        },
        {
            "type": "note_on",
            "note": 49,
            "velocity": 32,
            "time": 28162
        },
        {
            "type": "note_on",
            "note": 59,
            "velocity": 44,
            "time": 28167
        },
        {
            "type": "note_off",
            "note": 53,
            "velocity": 63,
            "time": 29059
        },
        {
            "type": "note_off",
            "note": 49,
            "velocity": 94,
            "time": 29061
        },
        {
            "type": "note_off",
            "note": 59,
            "velocity": 66,
            "time": 29162
        },
        {
            "type": "note_off",
            "note": 56,
            "velocity": 91,
            "time": 29232
        },
        {
            "type": "note_off",
            "note": 65,
            "velocity": 62,
            "time": 29283
        },
        {
            "type": "note_on",
            "note": 65,
            "velocity": 51,
            "time": 29438
        },
        {
            "type": "note_on",
            "note": 58,
            "velocity": 39,
            "time": 29458
        },
        {
            "type": "note_on",
            "note": 55,
            "velocity": 41,
            "time": 29476
        },
        {
            "type": "note_on",
            "note": 51,
            "velocity": 37,
            "time": 29485
        },
        {
            "type": "note_on",
            "note": 48,
            "velocity": 32,
            "time": 29500
        },
        {
            "type": "note_off",
            "note": 55,
            "velocity": 59,
            "time": 30472
        },
        {
            "type": "note_off",
            "note": 58,
            "velocity": 85,
            "time": 30482
        },
        {
            "type": "note_off",
            "note": 48,
            "velocity": 30,
            "time": 30491
        },
        {
            "type": "note_off",
            "note": 65,
            "velocity": 74,
            "time": 30604
        },
        {
            "type": "note_off",
            "note": 51,
            "velocity": 60,
            "time": 30639
        },
        {
            "type": "note_on",
            "note": 65,
            "velocity": 59,
            "time": 30777
        },
        {
            "type": "note_on",
            "note": 51,
            "velocity": 44,
            "time": 30781
        },
        {
            "type": "note_on",
            "note": 53,
            "velocity": 50,
            "time": 30781
        },
        {
            "type": "note_on",
            "note": 57,
            "velocity": 40,
            "time": 30793
        },
        {
            "type": "note_on",
            "note": 48,
            "velocity": 34,
            "time": 30825
        },
        {
            "type": "note_off",
            "note": 65,
            "velocity": 92,
            "time": 31789
        },
        {
            "type": "note_off",
            "note": 53,
            "velocity": 90,
            "time": 31797
        },
        {
            "type": "note_off",
            "note": 57,
            "velocity": 79,
            "time": 31808
        },
        {
            "type": "note_off",
            "note": 48,
            "velocity": 64,
            "time": 31820
        },
        {
            "type": "note_off",
            "note": 51,
            "velocity": 83,
            "time": 31834
        }
    ],
    "notes": [],
    "volumeBacktrack": 1.0,
    "additional_latency": 0
}