{
    "bass": 54,
    "type": "major",
    "backtrack": "/home/pi/raspiKeys/res/backtracks/processed_wav/Groove Loop_02 56 BPM.wav",
    "backtrackDuration": 4.336961269378662,
    "nbOfLoops": 4,
    "chord_notes": [
        {
            "type": "note_on",
            "note": 65,
            "velocity": 41,
            "time": 0
        },
        {
            "type": "note_on",
            "note": 54,
            "velocity": 41,
            "time": 0
        },
        {
            "type": "note_on",
            "note": 61,
            "velocity": 46,
            "time": 17
        },
        {
            "type": "note_on",
            "note": 42,
            "velocity": 38,
            "time": 18
        },
        {
            "type": "note_on",
            "note": 58,
            "velocity": 38,
            "time": 22
        },
        {
            "type": "note_off",
            "note": 61,
            "velocity": 1,
            "time": 3772
        },
        {
            "type": "note_off",
            "note": 65,
            "velocity": 63,
            "time": 3823
        },
        {
            "type": "note_off",
            "note": 58,
            "velocity": 91,
            "time": 3831
        },
        {
            "type": "note_off",
            "note": 54,
            "velocity": 54,
            "time": 3860
        },
        {
            "type": "note_off",
            "note": 42,
            "velocity": 92,
            "time": 3996
        },
        {
            "type": "note_on",
            "note": 63,
            "velocity": 44,
            "time": 4373
        },
        {
            "type": "note_on",
            "note": 47,
            "velocity": 60,
            "time": 4391
        },
        {
            "type": "note_on",
            "note": 54,
            "velocity": 37,
            "time": 4393
        },
        {
            "type": "note_on",
            "note": 59,
            "velocity": 36,
            "time": 4440
        },
        {
            "type": "note_on",
            "note": 57,
            "velocity": 32,
            "time": 4461
        },
        {
            "type": "note_off",
            "note": 57,
            "velocity": 74,
            "time": 7799
        },
        {
            "type": "note_off",
            "note": 54,
            "velocity": 87,
            "time": 7833
        },
        {
            "type": "note_off",
            "note": 59,
            "velocity": 83,
            "time": 7837
        },
        {
            "type": "note_off",
            "note": 63,
            "velocity": 91,
            "time": 7979
        },
        {
            "type": "note_off",
            "note": 47,
            "velocity": 80,
            "time": 8201
        },
        {
            "type": "note_on",
            "note": 66,
            "velocity": 42,
            "time": 8705
        },
        {
            "type": "note_on",
            "note": 57,
            "velocity": 34,
            "time": 8738
        },
        {
            "type": "note_on",
            "note": 54,
            "velocity": 39,
            "time": 8745
        },
        {
            "type": "note_on",
            "note": 42,
            "velocity": 36,
            "time": 8752
        },
        {
            "type": "note_on",
            "note": 61,
            "velocity": 24,
            "time": 8762
        },
        {
            "type": "note_on",
            "note": 64,
            "velocity": 39,
            "time": 8783
        },
        {
            "type": "note_off",
            "note": 61,
            "velocity": 87,
            "time": 12358
        },
        {
            "type": "note_off",
            "note": 64,
            "velocity": 82,
            "time": 12404
        },
        {
            "type": "note_off",
            "note": 54,
            "velocity": 62,
            "time": 12595
        },
        {
            "type": "note_off",
            "note": 42,
            "velocity": 90,
            "time": 12846
        },
        {
            "type": "note_on",
            "note": 60,
            "velocity": 57,
            "time": 13083
        },
        {
            "type": "note_on",
            "note": 62,
            "velocity": 46,
            "time": 13095
        },
        {
            "type": "note_on",
            "note": 50,
            "velocity": 58,
            "time": 13103
        },
        {
            "type": "note_off",
            "note": 50,
            "velocity": 99,
            "time": 16653
        },
        {
            "type": "note_off",
            "note": 60,
            "velocity": 90,
            "time": 16665
        },
        {
            "type": "note_off",
            "note": 57,
            "velocity": 91,
            "time": 16670
        },
        {
            "type": "note_off",
            "note": 62,
            "velocity": 89,
            "time": 16684
        },
        {
            "type": "note_off",
            "note": 66,
            "velocity": 87,
            "time": 16739
        }
    ],
    "notes": [],
    "volumeBacktrack": 1.0,
    "additional_latency": 0
}