{
    "bass": 44,
    "type": "major",
    "backtrack": "/home/pi/raspiKeys/res/backtracks/processed_wav/Groove Loop_23 100 BPM.wav",
    "backtrackDuration": 4.777233600616455,
    "nbOfLoops": 4,
    "chord_notes": [
        {
            "type": "note_on",
            "note": 56,
            "velocity": 63,
            "time": 0
        },
        {
            "type": "note_on",
            "note": 60,
            "velocity": 67,
            "time": 4
        },
        {
            "type": "note_on",
            "note": 63,
            "velocity": 61,
            "time": 9
        },
        {
            "type": "note_on",
            "note": 55,
            "velocity": 51,
            "time": 9
        },
        {
            "type": "note_on",
            "note": 44,
            "velocity": 60,
            "time": 15
        },
        {
            "type": "note_off",
            "note": 56,
            "velocity": 90,
            "time": 839
        },
        {
            "type": "note_off",
            "note": 60,
            "velocity": 93,
            "time": 856
        },
        {
            "type": "note_off",
            "note": 55,
            "velocity": 53,
            "time": 880
        },
        {
            "type": "note_off",
            "note": 63,
            "velocity": 91,
            "time": 902
        },
        {
            "type": "note_off",
            "note": 44,
            "velocity": 75,
            "time": 1030
        },
        {
            "type": "note_on",
            "note": 63,
            "velocity": 78,
            "time": 1224
        },
        {
            "type": "note_on",
            "note": 41,
            "velocity": 60,
            "time": 1261
        },
        {
            "type": "note_on",
            "note": 57,
            "velocity": 64,
            "time": 1263
        },
        {
            "type": "note_on",
            "note": 51,
            "velocity": 53,
            "time": 1265
        },
        {
            "type": "note_on",
            "note": 60,
            "velocity": 57,
            "time": 1269
        },
        {
            "type": "note_on",
            "note": 65,
            "velocity": 48,
            "time": 1274
        },
        {
            "type": "note_off",
            "note": 63,
            "velocity": 87,
            "time": 2042
        },
        {
            "type": "note_off",
            "note": 57,
            "velocity": 92,
            "time": 2125
        },
        {
            "type": "note_off",
            "note": 60,
            "velocity": 90,
            "time": 2137
        },
        {
            "type": "note_off",
            "note": 51,
            "velocity": 67,
            "time": 2422
        },
        {
            "type": "note_on",
            "note": 58,
            "velocity": 76,
            "time": 2477
        },
        {
            "type": "note_on",
            "note": 65,
            "velocity": 15,
            "time": 2477
        },
        {
            "type": "note_on",
            "note": 46,
            "velocity": 64,
            "time": 2482
        },
        {
            "type": "note_on",
            "note": 56,
            "velocity": 62,
            "time": 2489
        },
        {
            "type": "note_off",
            "note": 41,
            "velocity": 65,
            "time": 2494
        },
        {
            "type": "note_on",
            "note": 62,
            "velocity": 73,
            "time": 2494
        },
        {
            "type": "note_off",
            "note": 62,
            "velocity": 89,
            "time": 4321
        },
        {
            "type": "note_off",
            "note": 58,
            "velocity": 93,
            "time": 4364
        },
        {
            "type": "note_off",
            "note": 46,
            "velocity": 91,
            "time": 4376
        },
        {
            "type": "note_off",
            "note": 56,
            "velocity": 83,
            "time": 4382
        },
        {
            "type": "note_off",
            "note": 65,
            "velocity": 85,
            "time": 4389
        },
        {
            "type": "note_off",
            "note": 65,
            "velocity": 85,
            "time": 4389
        },
        {
            "type": "note_on",
            "note": 58,
            "velocity": 77,
            "time": 4830
        },
        {
            "type": "note_on",
            "note": 65,
            "velocity": 53,
            "time": 4837
        },
        {
            "type": "note_on",
            "note": 46,
            "velocity": 73,
            "time": 4841
        },
        {
            "type": "note_on",
            "note": 56,
            "velocity": 49,
            "time": 4847
        },
        {
            "type": "note_on",
            "note": 61,
            "velocity": 74,
            "time": 4852
        },
        {
            "type": "note_off",
            "note": 56,
            "velocity": 98,
            "time": 5564
        },
        {
            "type": "note_off",
            "note": 61,
            "velocity": 16,
            "time": 5819
        },
        {
            "type": "note_off",
            "note": 65,
            "velocity": 59,
            "time": 5866
        },
        {
            "type": "note_off",
            "note": 58,
            "velocity": 58,
            "time": 5894
        },
        {
            "type": "note_off",
            "note": 46,
            "velocity": 85,
            "time": 5961
        },
        {
            "type": "note_on",
            "note": 58,
            "velocity": 69,
            "time": 6016
        },
        {
            "type": "note_on",
            "note": 61,
            "velocity": 72,
            "time": 6023
        },
        {
            "type": "note_on",
            "note": 55,
            "velocity": 57,
            "time": 6023
        },
        {
            "type": "note_on",
            "note": 51,
            "velocity": 62,
            "time": 6029
        },
        {
            "type": "note_on",
            "note": 65,
            "velocity": 51,
            "time": 6033
        },
        {
            "type": "note_off",
            "note": 65,
            "velocity": 74,
            "time": 6644
        },
        {
            "type": "note_off",
            "note": 61,
            "velocity": 68,
            "time": 6669
        },
        {
            "type": "note_off",
            "note": 58,
            "velocity": 94,
            "time": 6681
        },
        {
            "type": "note_off",
            "note": 55,
            "velocity": 61,
            "time": 7018
        },
        {
            "type": "note_off",
            "note": 51,
            "velocity": 84,
            "time": 7122
        },
        {
            "type": "note_on",
            "note": 56,
            "velocity": 60,
            "time": 7210
        },
        {
            "type": "note_on",
            "note": 63,
            "velocity": 72,
            "time": 7211
        },
        {
            "type": "note_on",
            "note": 55,
            "velocity": 42,
            "time": 7222
        },
        {
            "type": "note_on",
            "note": 44,
            "velocity": 58,
            "time": 7227
        },
        {
            "type": "note_on",
            "note": 60,
            "velocity": 56,
            "time": 7250
        },
        {
            "type": "note_off",
            "note": 60,
            "velocity": 82,
            "time": 7625
        },
        {
            "type": "note_off",
            "note": 56,
            "velocity": 95,
            "time": 7743
        },
        {
            "type": "note_off",
            "note": 55,
            "velocity": 79,
            "time": 7763
        },
        {
            "type": "note_off",
            "note": 63,
            "velocity": 93,
            "time": 7768
        },
        {
            "type": "note_off",
            "note": 44,
            "velocity": 49,
            "time": 8298
        },
        {
            "type": "note_on",
            "note": 61,
            "velocity": 65,
            "time": 8383
        },
        {
            "type": "note_on",
            "note": 63,
            "velocity": 66,
            "time": 8393
        },
        {
            "type": "note_on",
            "note": 58,
            "velocity": 53,
            "time": 8394
        },
        {
            "type": "note_on",
            "note": 66,
            "velocity": 62,
            "time": 8396
        },
        {
            "type": "note_on",
            "note": 51,
            "velocity": 55,
            "time": 8398
        },
        {
            "type": "note_off",
            "note": 63,
            "velocity": 60,
            "time": 8663
        },
        {
            "type": "note_off",
            "note": 61,
            "velocity": 62,
            "time": 8703
        },
        {
            "type": "note_off",
            "note": 58,
            "velocity": 101,
            "time": 8732
        },
        {
            "type": "note_off",
            "note": 51,
            "velocity": 79,
            "time": 8906
        },
        {
            "type": "note_off",
            "note": 66,
            "velocity": 66,
            "time": 8918
        },
        {
            "type": "note_on",
            "note": 66,
            "velocity": 65,
            "time": 9015
        },
        {
            "type": "note_on",
            "note": 57,
            "velocity": 53,
            "time": 9024
        },
        {
            "type": "note_on",
            "note": 50,
            "velocity": 51,
            "time": 9025
        },
        {
            "type": "note_on",
            "note": 62,
            "velocity": 66,
            "time": 9038
        },
        {
            "type": "note_on",
            "note": 60,
            "velocity": 68,
            "time": 9039
        },
        {
            "type": "note_off",
            "note": 62,
            "velocity": 90,
            "time": 9321
        },
        {
            "type": "note_off",
            "note": 66,
            "velocity": 86,
            "time": 9382
        },
        {
            "type": "note_off",
            "note": 60,
            "velocity": 63,
            "time": 9397
        },
        {
            "type": "note_off",
            "note": 57,
            "velocity": 62,
            "time": 9419
        },
        {
            "type": "note_off",
            "note": 50,
            "velocity": 77,
            "time": 9502
        },
        {
            "type": "note_on",
            "note": 65,
            "velocity": 44,
            "time": 9645
        },
        {
            "type": "note_on",
            "note": 49,
            "velocity": 61,
            "time": 9647
        },
        {
            "type": "note_on",
            "note": 60,
            "velocity": 79,
            "time": 9652
        },
        {
            "type": "note_on",
            "note": 61,
            "velocity": 63,
            "time": 9652
        },
        {
            "type": "note_on",
            "note": 56,
            "velocity": 63,
            "time": 9653
        },
        {
            "type": "note_off",
            "note": 60,
            "velocity": 81,
            "time": 10625
        },
        {
            "type": "note_off",
            "note": 65,
            "velocity": 83,
            "time": 10647
        },
        {
            "type": "note_off",
            "note": 61,
            "velocity": 65,
            "time": 10732
        },
        {
            "type": "note_off",
            "note": 49,
            "velocity": 87,
            "time": 10735
        },
        {
            "type": "note_off",
            "note": 56,
            "velocity": 74,
            "time": 10784
        },
        {
            "type": "note_on",
            "note": 49,
            "velocity": 70,
            "time": 10873
        },
        {
            "type": "note_on",
            "note": 56,
            "velocity": 82,
            "time": 10875
        },
        {
            "type": "note_on",
            "note": 61,
            "velocity": 65,
            "time": 10884
        },
        {
            "type": "note_on",
            "note": 64,
            "velocity": 82,
            "time": 10884
        },
        {
            "type": "note_on",
            "note": 59,
            "velocity": 75,
            "time": 10890
        },
        {
            "type": "note_off",
            "note": 59,
            "velocity": 82,
            "time": 11085
        },
        {
            "type": "note_off",
            "note": 56,
            "velocity": 86,
            "time": 11178
        },
        {
            "type": "note_off",
            "note": 61,
            "velocity": 67,
            "time": 11231
        },
        {
            "type": "note_off",
            "note": 64,
            "velocity": 63,
            "time": 11251
        },
        {
            "type": "note_off",
            "note": 49,
            "velocity": 67,
            "time": 11284
        },
        {
            "type": "note_on",
            "note": 42,
            "velocity": 75,
            "time": 11391
        },
        {
            "type": "note_on",
            "note": 64,
            "velocity": 63,
            "time": 11403
        },
        {
            "type": "note_on",
            "note": 54,
            "velocity": 69,
            "time": 11404
        },
        {
            "type": "note_on",
            "note": 58,
            "velocity": 74,
            "time": 11406
        },
        {
            "type": "note_on",
            "note": 61,
            "velocity": 72,
            "time": 11406
        },
        {
            "type": "note_off",
            "note": 58,
            "velocity": 95,
            "time": 11600
        },
        {
            "type": "note_off",
            "note": 61,
            "velocity": 97,
            "time": 11633
        },
        {
            "type": "note_off",
            "note": 64,
            "velocity": 90,
            "time": 11646
        },
        {
            "type": "note_off",
            "note": 54,
            "velocity": 87,
            "time": 11859
        },
        {
            "type": "note_off",
            "note": 42,
            "velocity": 83,
            "time": 11921
        },
        {
            "type": "note_on",
            "note": 63,
            "velocity": 82,
            "time": 11995
        },
        {
            "type": "note_on",
            "note": 56,
            "velocity": 58,
            "time": 11999
        },
        {
            "type": "note_on",
            "note": 44,
            "velocity": 73,
            "time": 12001
        },
        {
            "type": "note_on",
            "note": 55,
            "velocity": 62,
            "time": 12011
        },
        {
            "type": "note_on",
            "note": 60,
            "velocity": 65,
            "time": 12021
        },
        {
            "type": "note_off",
            "note": 60,
            "velocity": 59,
            "time": 12623
        },
        {
            "type": "note_off",
            "note": 56,
            "velocity": 89,
            "time": 12662
        },
        {
            "type": "note_off",
            "note": 55,
            "velocity": 71,
            "time": 12685
        },
        {
            "type": "note_off",
            "note": 63,
            "velocity": 82,
            "time": 12784
        },
        {
            "type": "note_off",
            "note": 44,
            "velocity": 89,
            "time": 13124
        },
        {
            "type": "note_on",
            "note": 57,
            "velocity": 72,
            "time": 13165
        },
        {
            "type": "note_on",
            "note": 63,
            "velocity": 80,
            "time": 13166
        },
        {
            "type": "note_on",
            "note": 41,
            "velocity": 68,
            "time": 13173
        },
        {
            "type": "note_on",
            "note": 65,
            "velocity": 64,
            "time": 13179
        },
        {
            "type": "note_on",
            "note": 60,
            "velocity": 71,
            "time": 13195
        },
        {
            "type": "note_off",
            "note": 60,
            "velocity": 83,
            "time": 13918
        },
        {
            "type": "note_off",
            "note": 63,
            "velocity": 81,
            "time": 13942
        },
        {
            "type": "note_off",
            "note": 57,
            "velocity": 81,
            "time": 13989
        },
        {
            "type": "note_off",
            "note": 65,
            "velocity": 46,
            "time": 14069
        },
        {
            "type": "note_off",
            "note": 41,
            "velocity": 84,
            "time": 14328
        },
        {
            "type": "note_on",
            "note": 58,
            "velocity": 76,
            "time": 14375
        },
        {
            "type": "note_on",
            "note": 65,
            "velocity": 73,
            "time": 14380
        },
        {
            "type": "note_on",
            "note": 56,
            "velocity": 65,
            "time": 14393
        },
        {
            "type": "note_on",
            "note": 46,
            "velocity": 64,
            "time": 14405
        },
        {
            "type": "note_on",
            "note": 62,
            "velocity": 75,
            "time": 14405
        },
        {
            "type": "note_off",
            "note": 62,
            "velocity": 84,
            "time": 16314
        },
        {
            "type": "note_off",
            "note": 46,
            "velocity": 78,
            "time": 16394
        },
        {
            "type": "note_off",
            "note": 65,
            "velocity": 50,
            "time": 16446
        },
        {
            "type": "note_off",
            "note": 56,
            "velocity": 31,
            "time": 16555
        },
        {
            "type": "note_off",
            "note": 58,
            "velocity": 22,
            "time": 16562
        },
        {
            "type": "note_on",
            "note": 58,
            "velocity": 80,
            "time": 16780
        },
        {
            "type": "note_on",
            "note": 56,
            "velocity": 75,
            "time": 16781
        },
        {
            "type": "note_on",
            "note": 65,
            "velocity": 70,
            "time": 16785
        },
        {
            "type": "note_on",
            "note": 61,
            "velocity": 75,
            "time": 16790
        },
        {
            "type": "note_on",
            "note": 46,
            "velocity": 70,
            "time": 16790
        },
        {
            "type": "note_off",
            "note": 56,
            "velocity": 97,
            "time": 17658
        },
        {
            "type": "note_off",
            "note": 61,
            "velocity": 54,
            "time": 17721
        },
        {
            "type": "note_off",
            "note": 65,
            "velocity": 70,
            "time": 17787
        },
        {
            "type": "note_off",
            "note": 58,
            "velocity": 60,
            "time": 17818
        },
        {
            "type": "note_off",
            "note": 46,
            "velocity": 83,
            "time": 17893
        },
        {
            "type": "note_on",
            "note": 58,
            "velocity": 73,
            "time": 17960
        },
        {
            "type": "note_on",
            "note": 61,
            "velocity": 81,
            "time": 17971
        },
        {
            "type": "note_on",
            "note": 55,
            "velocity": 72,
            "time": 17979
        },
        {
            "type": "note_on",
            "note": 65,
            "velocity": 72,
            "time": 17981
        },
        {
            "type": "note_on",
            "note": 51,
            "velocity": 67,
            "time": 17986
        },
        {
            "type": "note_off",
            "note": 65,
            "velocity": 94,
            "time": 18812
        },
        {
            "type": "note_off",
            "note": 58,
            "velocity": 97,
            "time": 18818
        },
        {
            "type": "note_off",
            "note": 61,
            "velocity": 95,
            "time": 18823
        },
        {
            "type": "note_off",
            "note": 55,
            "velocity": 67,
            "time": 19034
        },
        {
            "type": "note_off",
            "note": 51,
            "velocity": 71,
            "time": 19068
        }
    ],
    "notes": [],
    "volumeBacktrack": 1.0,
    "additional_latency": 0
}