{
    "bass": 48,
    "type": "minor",
    "backtrack": "/home/pi/raspiKeys/res/backtracks/processed_wav/donnyhathaway-magnificentsanctuary.wav",
    "backtrackDuration": 5.042131423950195,
    "nbOfLoops": 2,
    "chord_notes": [
        {
            "type": "note_on",
            "note": 56,
            "velocity": 58,
            "time": 0
        },
        {
            "type": "note_on",
            "note": 67,
            "velocity": 49,
            "time": 11
        },
        {
            "type": "note_on",
            "note": 63,
            "velocity": 55,
            "time": 12
        },
        {
            "type": "note_on",
            "note": 51,
            "velocity": 58,
            "time": 16
        },
        {
            "type": "note_on",
            "note": 60,
            "velocity": 65,
            "time": 17
        },
        {
            "type": "note_on",
            "note": 48,
            "velocity": 57,
            "time": 19
        },
        {
            "type": "note_on",
            "note": 44,
            "velocity": 42,
            "time": 39
        },
        {
            "type": "note_off",
            "note": 56,
            "velocity": 97,
            "time": 843
        },
        {
            "type": "note_off",
            "note": 60,
            "velocity": 74,
            "time": 853
        },
        {
            "type": "note_off",
            "note": 63,
            "velocity": 74,
            "time": 884
        },
        {
            "type": "note_off",
            "note": 48,
            "velocity": 79,
            "time": 945
        },
        {
            "type": "note_off",
            "note": 44,
            "velocity": 96,
            "time": 999
        },
        {
            "type": "note_off",
            "note": 51,
            "velocity": 38,
            "time": 1040
        },
        {
            "type": "note_off",
            "note": 67,
            "velocity": 52,
            "time": 1146
        },
        {
            "type": "note_on",
            "note": 55,
            "velocity": 60,
            "time": 1375
        },
        {
            "type": "note_on",
            "note": 59,
            "velocity": 58,
            "time": 1382
        },
        {
            "type": "note_on",
            "note": 47,
            "velocity": 48,
            "time": 1384
        },
        {
            "type": "note_on",
            "note": 67,
            "velocity": 37,
            "time": 1386
        },
        {
            "type": "note_on",
            "note": 50,
            "velocity": 46,
            "time": 1391
        },
        {
            "type": "note_on",
            "note": 62,
            "velocity": 69,
            "time": 1396
        },
        {
            "type": "note_on",
            "note": 43,
            "velocity": 56,
            "time": 1411
        },
        {
            "type": "note_off",
            "note": 55,
            "velocity": 84,
            "time": 1944
        },
        {
            "type": "note_off",
            "note": 59,
            "velocity": 94,
            "time": 1945
        },
        {
            "type": "note_off",
            "note": 50,
            "velocity": 92,
            "time": 1949
        },
        {
            "type": "note_off",
            "note": 47,
            "velocity": 92,
            "time": 1958
        },
        {
            "type": "note_off",
            "note": 62,
            "velocity": 90,
            "time": 1958
        },
        {
            "type": "note_off",
            "note": 43,
            "velocity": 93,
            "time": 2001
        },
        {
            "type": "note_off",
            "note": 67,
            "velocity": 73,
            "time": 2054
        },
        {
            "type": "note_on",
            "note": 48,
            "velocity": 74,
            "time": 2904
        },
        {
            "type": "note_on",
            "note": 55,
            "velocity": 61,
            "time": 2906
        },
        {
            "type": "note_on",
            "note": 58,
            "velocity": 65,
            "time": 2915
        },
        {
            "type": "note_on",
            "note": 62,
            "velocity": 74,
            "time": 2923
        },
        {
            "type": "note_on",
            "note": 63,
            "velocity": 60,
            "time": 2931
        },
        {
            "type": "note_on",
            "note": 67,
            "velocity": 39,
            "time": 2960
        },
        {
            "type": "note_off",
            "note": 67,
            "velocity": 96,
            "time": 3034
        },
        {
            "type": "note_off",
            "note": 58,
            "velocity": 88,
            "time": 3036
        },
        {
            "type": "note_off",
            "note": 48,
            "velocity": 90,
            "time": 3046
        },
        {
            "type": "note_off",
            "note": 62,
            "velocity": 75,
            "time": 3053
        },
        {
            "type": "note_off",
            "note": 63,
            "velocity": 49,
            "time": 3061
        },
        {
            "type": "note_off",
            "note": 55,
            "velocity": 83,
            "time": 3062
        },
        {
            "type": "note_on",
            "note": 58,
            "velocity": 64,
            "time": 3498
        },
        {
            "type": "note_on",
            "note": 48,
            "velocity": 70,
            "time": 3506
        },
        {
            "type": "note_on",
            "note": 62,
            "velocity": 70,
            "time": 3507
        },
        {
            "type": "note_on",
            "note": 67,
            "velocity": 54,
            "time": 3509
        },
        {
            "type": "note_on",
            "note": 55,
            "velocity": 60,
            "time": 3510
        },
        {
            "type": "note_on",
            "note": 63,
            "velocity": 62,
            "time": 3516
        },
        {
            "type": "note_off",
            "note": 62,
            "velocity": 45,
            "time": 3679
        },
        {
            "type": "note_off",
            "note": 58,
            "velocity": 36,
            "time": 3687
        },
        {
            "type": "note_off",
            "note": 63,
            "velocity": 27,
            "time": 3718
        },
        {
            "type": "note_off",
            "note": 48,
            "velocity": 74,
            "time": 3722
        },
        {
            "type": "note_off",
            "note": 67,
            "velocity": 24,
            "time": 3724
        },
        {
            "type": "note_off",
            "note": 55,
            "velocity": 54,
            "time": 3751
        },
        {
            "type": "note_on",
            "note": 62,
            "velocity": 72,
            "time": 4136
        },
        {
            "type": "note_on",
            "note": 48,
            "velocity": 70,
            "time": 4139
        },
        {
            "type": "note_on",
            "note": 58,
            "velocity": 62,
            "time": 4140
        },
        {
            "type": "note_on",
            "note": 55,
            "velocity": 57,
            "time": 4143
        },
        {
            "type": "note_on",
            "note": 67,
            "velocity": 51,
            "time": 4154
        },
        {
            "type": "note_on",
            "note": 63,
            "velocity": 57,
            "time": 4165
        },
        {
            "type": "note_off",
            "note": 62,
            "velocity": 91,
            "time": 4564
        },
        {
            "type": "note_off",
            "note": 55,
            "velocity": 90,
            "time": 4597
        },
        {
            "type": "note_off",
            "note": 58,
            "velocity": 93,
            "time": 4640
        },
        {
            "type": "note_off",
            "note": 63,
            "velocity": 74,
            "time": 4647
        },
        {
            "type": "note_off",
            "note": 48,
            "velocity": 87,
            "time": 4651
        },
        {
            "type": "note_off",
            "note": 67,
            "velocity": 83,
            "time": 4708
        },
        {
            "type": "note_on",
            "note": 67,
            "velocity": 74,
            "time": 5097
        },
        {
            "type": "note_on",
            "note": 60,
            "velocity": 69,
            "time": 5107
        },
        {
            "type": "note_on",
            "note": 63,
            "velocity": 68,
            "time": 5107
        },
        {
            "type": "note_on",
            "note": 44,
            "velocity": 37,
            "time": 5122
        },
        {
            "type": "note_on",
            "note": 48,
            "velocity": 53,
            "time": 5144
        },
        {
            "type": "note_on",
            "note": 51,
            "velocity": 48,
            "time": 5160
        },
        {
            "type": "note_off",
            "note": 67,
            "velocity": 93,
            "time": 5853
        },
        {
            "type": "note_off",
            "note": 60,
            "velocity": 63,
            "time": 5939
        },
        {
            "type": "note_off",
            "note": 63,
            "velocity": 90,
            "time": 5942
        },
        {
            "type": "note_off",
            "note": 48,
            "velocity": 78,
            "time": 5959
        },
        {
            "type": "note_off",
            "note": 51,
            "velocity": 71,
            "time": 6019
        },
        {
            "type": "note_off",
            "note": 44,
            "velocity": 95,
            "time": 6033
        },
        {
            "type": "note_on",
            "note": 65,
            "velocity": 55,
            "time": 6399
        },
        {
            "type": "note_on",
            "note": 59,
            "velocity": 48,
            "time": 6407
        },
        {
            "type": "note_on",
            "note": 47,
            "velocity": 55,
            "time": 6422
        },
        {
            "type": "note_on",
            "note": 62,
            "velocity": 59,
            "time": 6423
        },
        {
            "type": "note_on",
            "note": 50,
            "velocity": 45,
            "time": 6429
        },
        {
            "type": "note_on",
            "note": 43,
            "velocity": 57,
            "time": 6446
        },
        {
            "type": "note_off",
            "note": 62,
            "velocity": 95,
            "time": 7268
        },
        {
            "type": "note_off",
            "note": 43,
            "velocity": 77,
            "time": 7270
        },
        {
            "type": "note_off",
            "note": 47,
            "velocity": 91,
            "time": 7273
        },
        {
            "type": "note_off",
            "note": 50,
            "velocity": 93,
            "time": 7275
        },
        {
            "type": "note_off",
            "note": 65,
            "velocity": 89,
            "time": 7310
        },
        {
            "type": "note_off",
            "note": 59,
            "velocity": 70,
            "time": 7315
        },
        {
            "type": "note_on",
            "note": 58,
            "velocity": 69,
            "time": 7976
        },
        {
            "type": "note_on",
            "note": 48,
            "velocity": 74,
            "time": 7977
        },
        {
            "type": "note_on",
            "note": 63,
            "velocity": 68,
            "time": 7978
        },
        {
            "type": "note_on",
            "note": 67,
            "velocity": 64,
            "time": 7979
        },
        {
            "type": "note_on",
            "note": 55,
            "velocity": 55,
            "time": 7990
        },
        {
            "type": "note_on",
            "note": 62,
            "velocity": 62,
            "time": 7990
        },
        {
            "type": "note_off",
            "note": 67,
            "velocity": 72,
            "time": 8060
        },
        {
            "type": "note_off",
            "note": 62,
            "velocity": 90,
            "time": 8063
        },
        {
            "type": "note_off",
            "note": 58,
            "velocity": 74,
            "time": 8077
        },
        {
            "type": "note_off",
            "note": 63,
            "velocity": 83,
            "time": 8083
        },
        {
            "type": "note_off",
            "note": 48,
            "velocity": 88,
            "time": 8124
        },
        {
            "type": "note_off",
            "note": 55,
            "velocity": 57,
            "time": 8167
        },
        {
            "type": "note_on",
            "note": 58,
            "velocity": 80,
            "time": 8586
        },
        {
            "type": "note_on",
            "note": 48,
            "velocity": 72,
            "time": 8601
        },
        {
            "type": "note_on",
            "note": 63,
            "velocity": 75,
            "time": 8606
        },
        {
            "type": "note_on",
            "note": 67,
            "velocity": 57,
            "time": 8608
        },
        {
            "type": "note_on",
            "note": 55,
            "velocity": 56,
            "time": 8609
        },
        {
            "type": "note_on",
            "note": 62,
            "velocity": 71,
            "time": 8613
        },
        {
            "type": "note_off",
            "note": 58,
            "velocity": 83,
            "time": 8717
        },
        {
            "type": "note_off",
            "note": 62,
            "velocity": 48,
            "time": 8730
        },
        {
            "type": "note_off",
            "note": 63,
            "velocity": 79,
            "time": 8755
        },
        {
            "type": "note_off",
            "note": 48,
            "velocity": 78,
            "time": 8769
        },
        {
            "type": "note_off",
            "note": 67,
            "velocity": 43,
            "time": 8770
        },
        {
            "type": "note_off",
            "note": 55,
            "velocity": 64,
            "time": 8779
        },
        {
            "type": "note_on",
            "note": 58,
            "velocity": 63,
            "time": 9171
        },
        {
            "type": "note_on",
            "note": 48,
            "velocity": 70,
            "time": 9179
        },
        {
            "type": "note_on",
            "note": 62,
            "velocity": 61,
            "time": 9182
        },
        {
            "type": "note_on",
            "note": 63,
            "velocity": 67,
            "time": 9183
        },
        {
            "type": "note_on",
            "note": 67,
            "velocity": 52,
            "time": 9184
        },
        {
            "type": "note_on",
            "note": 55,
            "velocity": 55,
            "time": 9185
        },
        {
            "type": "note_off",
            "note": 58,
            "velocity": 79,
            "time": 9401
        },
        {
            "type": "note_off",
            "note": 67,
            "velocity": 89,
            "time": 9412
        },
        {
            "type": "note_off",
            "note": 62,
            "velocity": 87,
            "time": 9416
        },
        {
            "type": "note_off",
            "note": 48,
            "velocity": 86,
            "time": 9419
        },
        {
            "type": "note_off",
            "note": 63,
            "velocity": 84,
            "time": 9420
        },
        {
            "type": "note_off",
            "note": 55,
            "velocity": 62,
            "time": 9454
        },
        {
            "type": "note_on",
            "note": 58,
            "velocity": 78,
            "time": 9489
        },
        {
            "type": "note_on",
            "note": 67,
            "velocity": 79,
            "time": 9501
        },
        {
            "type": "note_on",
            "note": 55,
            "velocity": 46,
            "time": 9510
        },
        {
            "type": "note_on",
            "note": 48,
            "velocity": 76,
            "time": 9513
        },
        {
            "type": "note_on",
            "note": 63,
            "velocity": 69,
            "time": 9514
        },
        {
            "type": "note_on",
            "note": 62,
            "velocity": 71,
            "time": 9521
        },
        {
            "type": "note_off",
            "note": 62,
            "velocity": 59,
            "time": 9619
        },
        {
            "type": "note_off",
            "note": 58,
            "velocity": 91,
            "time": 9629
        },
        {
            "type": "note_off",
            "note": 63,
            "velocity": 48,
            "time": 9636
        },
        {
            "type": "note_off",
            "note": 67,
            "velocity": 90,
            "time": 9640
        },
        {
            "type": "note_off",
            "note": 48,
            "velocity": 66,
            "time": 9645
        },
        {
            "type": "note_off",
            "note": 55,
            "velocity": 83,
            "time": 9657
        }
    ],
    "notes": [],
    "volumeBacktrack": 1.0,
    "additional_latency": 0
}