{
    "bass": 39,
    "type": "major",
    "backtrack": "/home/pi/raspiKeys/res/backtracks/processed_wav/DRUMLOOP046_HPHOP_90_X_SC1.wav",
    "backtrackDuration": 5.333333492279053,
    "nbOfLoops": 8,
    "chord_notes": [
        {
            "type": "note_on",
            "note": 39,
            "velocity": 76,
            "time": 0
        },
        {
            "type": "note_off",
            "note": 39,
            "velocity": 78,
            "time": 680
        },
        {
            "type": "note_on",
            "note": 38,
            "velocity": 73,
            "time": 734
        },
        {
            "type": "note_off",
            "note": 38,
            "velocity": 83,
            "time": 1312
        },
        {
            "type": "note_on",
            "note": 36,
            "velocity": 79,
            "time": 1411
        },
        {
            "type": "note_off",
            "note": 36,
            "velocity": 73,
            "time": 1916
        },
        {
            "type": "note_on",
            "note": 34,
            "velocity": 75,
            "time": 2069
        },
        {
            "type": "note_off",
            "note": 34,
            "velocity": 68,
            "time": 2561
        },
        {
            "type": "note_on",
            "note": 33,
            "velocity": 63,
            "time": 2724
        },
        {
            "type": "note_off",
            "note": 33,
            "velocity": 92,
            "time": 3221
        },
        {
            "type": "note_on",
            "note": 32,
            "velocity": 69,
            "time": 3384
        },
        {
            "type": "note_off",
            "note": 32,
            "velocity": 70,
            "time": 3921
        },
        {
            "type": "note_on",
            "note": 31,
            "velocity": 67,
            "time": 4036
        },
        {
            "type": "note_off",
            "note": 31,
            "velocity": 88,
            "time": 4591
        },
        {
            "type": "note_on",
            "note": 36,
            "velocity": 55,
            "time": 4688
        },
        {
            "type": "note_off",
            "note": 36,
            "velocity": 87,
            "time": 5279
        },
        {
            "type": "note_on",
            "note": 29,
            "velocity": 60,
            "time": 5380
        },
        {
            "type": "note_off",
            "note": 29,
            "velocity": 74,
            "time": 6653
        },
        {
            "type": "note_on",
            "note": 34,
            "velocity": 63,
            "time": 6719
        },
        {
            "type": "note_off",
            "note": 34,
            "velocity": 82,
            "time": 7959
        },
        {
            "type": "note_on",
            "note": 39,
            "velocity": 73,
            "time": 7996
        },
        {
            "type": "note_off",
            "note": 39,
            "velocity": 72,
            "time": 9280
        },
        {
            "type": "note_on",
            "note": 34,
            "velocity": 77,
            "time": 9406
        },
        {
            "type": "note_off",
            "note": 34,
            "velocity": 80,
            "time": 9947
        },
        {
            "type": "note_on",
            "note": 39,
            "velocity": 60,
            "time": 10052
        },
        {
            "type": "note_off",
            "note": 39,
            "velocity": 73,
            "time": 10650
        },
        {
            "type": "note_on",
            "note": 32,
            "velocity": 75,
            "time": 10719
        },
        {
            "type": "note_off",
            "note": 32,
            "velocity": 68,
            "time": 11916
        },
        {
            "type": "note_on",
            "note": 38,
            "velocity": 66,
            "time": 12036
        },
        {
            "type": "note_off",
            "note": 38,
            "velocity": 87,
            "time": 12562
        },
        {
            "type": "note_on",
            "note": 31,
            "velocity": 57,
            "time": 12701
        },
        {
            "type": "note_off",
            "note": 31,
            "velocity": 58,
            "time": 13289
        },
        {
            "type": "note_on",
            "note": 36,
            "velocity": 65,
            "time": 13371
        },
        {
            "type": "note_off",
            "note": 36,
            "velocity": 72,
            "time": 14562
        },
        {
            "type": "note_on",
            "note": 36,
            "velocity": 50,
            "time": 14750
        },
        {
            "type": "note_off",
            "note": 36,
            "velocity": 67,
            "time": 15781
        },
        {
            "type": "note_on",
            "note": 36,
            "velocity": 66,
            "time": 16017
        },
        {
            "type": "note_off",
            "note": 36,
            "velocity": 88,
            "time": 17350
        },
        {
            "type": "note_on",
            "note": 29,
            "velocity": 72,
            "time": 17379
        },
        {
            "type": "note_off",
            "note": 29,
            "velocity": 66,
            "time": 18508
        },
        {
            "type": "note_on",
            "note": 29,
            "velocity": 46,
            "time": 18692
        },
        {
            "type": "note_off",
            "note": 29,
            "velocity": 93,
            "time": 19939
        },
        {
            "type": "note_on",
            "note": 34,
            "velocity": 61,
            "time": 20036
        },
        {
            "type": "note_off",
            "note": 34,
            "velocity": 72,
            "time": 21284
        },
        {
            "type": "note_on",
            "note": 39,
            "velocity": 75,
            "time": 21353
        },
        {
            "type": "note_off",
            "note": 39,
            "velocity": 74,
            "time": 21879
        },
        {
            "type": "note_on",
            "note": 38,
            "velocity": 61,
            "time": 22069
        },
        {
            "type": "note_off",
            "note": 38,
            "velocity": 85,
            "time": 22543
        },
        {
            "type": "note_on",
            "note": 36,
            "velocity": 62,
            "time": 22686
        },
        {
            "type": "note_off",
            "note": 36,
            "velocity": 75,
            "time": 23163
        },
        {
            "type": "note_on",
            "note": 34,
            "velocity": 52,
            "time": 23369
        },
        {
            "type": "note_off",
            "note": 34,
            "velocity": 68,
            "time": 23870
        },
        {
            "type": "note_on",
            "note": 33,
            "velocity": 74,
            "time": 24031
        },
        {
            "type": "note_off",
            "note": 33,
            "velocity": 83,
            "time": 24497
        },
        {
            "type": "note_on",
            "note": 32,
            "velocity": 63,
            "time": 24670
        },
        {
            "type": "note_off",
            "note": 32,
            "velocity": 79,
            "time": 25164
        },
        {
            "type": "note_on",
            "note": 31,
            "velocity": 58,
            "time": 25350
        },
        {
            "type": "note_off",
            "note": 31,
            "velocity": 84,
            "time": 25847
        },
        {
            "type": "note_on",
            "note": 36,
            "velocity": 62,
            "time": 26020
        },
        {
            "type": "note_off",
            "note": 36,
            "velocity": 76,
            "time": 26534
        },
        {
            "type": "note_on",
            "note": 29,
            "velocity": 64,
            "time": 26667
        },
        {
            "type": "note_off",
            "note": 29,
            "velocity": 58,
            "time": 27980
        },
        {
            "type": "note_on",
            "note": 34,
            "velocity": 65,
            "time": 28034
        },
        {
            "type": "note_off",
            "note": 34,
            "velocity": 66,
            "time": 29349
        },
        {
            "type": "note_on",
            "note": 27,
            "velocity": 56,
            "time": 29383
        },
        {
            "type": "note_off",
            "note": 27,
            "velocity": 78,
            "time": 30651
        },
        {
            "type": "note_on",
            "note": 34,
            "velocity": 65,
            "time": 30676
        },
        {
            "type": "note_off",
            "note": 34,
            "velocity": 71,
            "time": 31287
        },
        {
            "type": "note_on",
            "note": 39,
            "velocity": 72,
            "time": 31371
        },
        {
            "type": "note_off",
            "note": 39,
            "velocity": 63,
            "time": 31963
        },
        {
            "type": "note_on",
            "note": 32,
            "velocity": 75,
            "time": 32058
        },
        {
            "type": "note_off",
            "note": 32,
            "velocity": 61,
            "time": 33270
        },
        {
            "type": "note_on",
            "note": 38,
            "velocity": 66,
            "time": 33380
        },
        {
            "type": "note_off",
            "note": 38,
            "velocity": 56,
            "time": 33883
        },
        {
            "type": "note_on",
            "note": 31,
            "velocity": 54,
            "time": 34023
        },
        {
            "type": "note_off",
            "note": 31,
            "velocity": 75,
            "time": 34560
        },
        {
            "type": "note_on",
            "note": 36,
            "velocity": 57,
            "time": 34689
        },
        {
            "type": "note_off",
            "note": 36,
            "velocity": 73,
            "time": 35922
        },
        {
            "type": "note_on",
            "note": 32,
            "velocity": 60,
            "time": 36032
        },
        {
            "type": "note_off",
            "note": 32,
            "velocity": 95,
            "time": 36555
        },
        {
            "type": "note_on",
            "note": 30,
            "velocity": 80,
            "time": 36676
        },
        {
            "type": "note_off",
            "note": 30,
            "velocity": 87,
            "time": 37257
        },
        {
            "type": "note_on",
            "note": 31,
            "velocity": 62,
            "time": 37369
        },
        {
            "type": "note_off",
            "note": 31,
            "velocity": 87,
            "time": 37957
        },
        {
            "type": "note_on",
            "note": 36,
            "velocity": 70,
            "time": 38067
        },
        {
            "type": "note_off",
            "note": 36,
            "velocity": 76,
            "time": 38595
        },
        {
            "type": "note_on",
            "note": 29,
            "velocity": 47,
            "time": 38717
        },
        {
            "type": "note_off",
            "note": 29,
            "velocity": 86,
            "time": 39360
        },
        {
            "type": "note_on",
            "note": 34,
            "velocity": 66,
            "time": 39376
        },
        {
            "type": "note_on",
            "note": 27,
            "velocity": 74,
            "time": 40007
        },
        {
            "type": "note_off",
            "note": 34,
            "velocity": 83,
            "time": 40014
        },
        {
            "type": "note_off",
            "note": 27,
            "velocity": 92,
            "time": 41051
        },
        {
            "type": "note_on",
            "note": 29,
            "velocity": 54,
            "time": 41328
        },
        {
            "type": "note_off",
            "note": 29,
            "velocity": 92,
            "time": 41904
        },
        {
            "type": "note_on",
            "note": 34,
            "velocity": 45,
            "time": 41963
        },
        {
            "type": "note_off",
            "note": 34,
            "velocity": 92,
            "time": 42425
        }
    ],
    "notes": [],
    "volumeBacktrack": 0.796875,
    "additional_latency": 0
}