{
    "bass": 55,
    "type": "minor",
    "backtrack": "/home/pi/raspiKeys/res/backtracks/processed_wav/cs6.wav",
    "backtrackDuration": 4.377369403839111,
    "nbOfLoops": 2,
    "chord_notes": [
        {
            "type": "note_on",
            "note": 69,
            "velocity": 53,
            "time": 0
        },
        {
            "type": "note_on",
            "note": 55,
            "velocity": 43,
            "time": 0
        },
        {
            "type": "note_on",
            "note": 62,
            "velocity": 29,
            "time": 0
        },
        {
            "type": "note_on",
            "note": 65,
            "velocity": 51,
            "time": 5
        },
        {
            "type": "note_on",
            "note": 58,
            "velocity": 20,
            "time": 10
        },
        {
            "type": "note_on",
            "note": 65,
            "velocity": 0,
            "time": 1445
        },
        {
            "type": "note_on",
            "note": 69,
            "velocity": 0,
            "time": 1475
        },
        {
            "type": "note_on",
            "note": 62,
            "velocity": 0,
            "time": 1531
        },
        {
            "type": "note_on",
            "note": 55,
            "velocity": 0,
            "time": 1654
        },
        {
            "type": "note_on",
            "note": 58,
            "velocity": 0,
            "time": 1693
        },
        {
            "type": "note_on",
            "note": 67,
            "velocity": 26,
            "time": 2215
        },
        {
            "type": "note_on",
            "note": 64,
            "velocity": 46,
            "time": 2230
        },
        {
            "type": "note_on",
            "note": 55,
            "velocity": 42,
            "time": 2240
        },
        {
            "type": "note_on",
            "note": 58,
            "velocity": 31,
            "time": 2249
        },
        {
            "type": "note_on",
            "note": 62,
            "velocity": 31,
            "time": 2259
        },
        {
            "type": "note_on",
            "note": 64,
            "velocity": 0,
            "time": 3836
        },
        {
            "type": "note_on",
            "note": 67,
            "velocity": 0,
            "time": 3845
        },
        {
            "type": "note_on",
            "note": 55,
            "velocity": 0,
            "time": 3967
        },
        {
            "type": "note_on",
            "note": 58,
            "velocity": 0,
            "time": 3968
        },
        {
            "type": "note_on",
            "note": 62,
            "velocity": 0,
            "time": 3974
        },
        {
            "type": "note_on",
            "note": 55,
            "velocity": 26,
            "time": 4459
        },
        {
            "type": "note_on",
            "note": 69,
            "velocity": 38,
            "time": 4477
        },
        {
            "type": "note_on",
            "note": 65,
            "velocity": 41,
            "time": 4491
        },
        {
            "type": "note_on",
            "note": 58,
            "velocity": 15,
            "time": 4497
        },
        {
            "type": "note_on",
            "note": 62,
            "velocity": 32,
            "time": 4518
        },
        {
            "type": "note_on",
            "note": 65,
            "velocity": 0,
            "time": 5910
        },
        {
            "type": "note_on",
            "note": 69,
            "velocity": 0,
            "time": 6013
        },
        {
            "type": "note_on",
            "note": 62,
            "velocity": 0,
            "time": 6052
        },
        {
            "type": "note_on",
            "note": 58,
            "velocity": 0,
            "time": 6261
        },
        {
            "type": "note_on",
            "note": 55,
            "velocity": 0,
            "time": 6421
        },
        {
            "type": "note_on",
            "note": 67,
            "velocity": 1,
            "time": 6456
        },
        {
            "type": "note_on",
            "note": 64,
            "velocity": 33,
            "time": 6633
        },
        {
            "type": "note_on",
            "note": 48,
            "velocity": 40,
            "time": 6640
        },
        {
            "type": "note_on",
            "note": 58,
            "velocity": 36,
            "time": 6657
        },
        {
            "type": "note_on",
            "note": 62,
            "velocity": 1,
            "time": 6773
        },
        {
            "type": "note_on",
            "note": 48,
            "velocity": 0,
            "time": 8323
        },
        {
            "type": "note_on",
            "note": 58,
            "velocity": 0,
            "time": 8333
        },
        {
            "type": "note_on",
            "note": 64,
            "velocity": 0,
            "time": 8337
        },
        {
            "type": "note_on",
            "note": 62,
            "velocity": 0,
            "time": 8342
        },
        {
            "type": "note_on",
            "note": 67,
            "velocity": 0,
            "time": 8385
        }
    ],
    "notes": [
        {
            "type": "note_on",
            "note": 58,
            "velocity": 115,
            "time": 353
        },
        {
            "type": "note_on",
            "note": 58,
            "velocity": 0,
            "time": 485
        },
        {
            "type": "note_on",
            "note": 62,
            "velocity": 88,
            "time": 628
        },
        {
            "type": "note_on",
            "note": 62,
            "velocity": 0,
            "time": 1011
        },
        {
            "type": "note_on",
            "note": 67,
            "velocity": 86,
            "time": 1204
        },
        {
            "type": "note_on",
            "note": 67,
            "velocity": 0,
            "time": 1532
        },
        {
            "type": "note_on",
            "note": 69,
            "velocity": 93,
            "time": 1697
        },
        {
            "type": "note_on",
            "note": 69,
            "velocity": 0,
            "time": 1862
        },
        {
            "type": "note_on",
            "note": 70,
            "velocity": 81,
            "time": 2000
        },
        {
            "type": "note_on",
            "note": 70,
            "velocity": 0,
            "time": 2129
        },
        {
            "type": "note_on",
            "note": 72,
            "velocity": 66,
            "time": 2233
        },
        {
            "type": "note_on",
            "note": 72,
            "velocity": 0,
            "time": 2439
        },
        {
            "type": "note_on",
            "note": 70,
            "velocity": 87,
            "time": 2512
        },
        {
            "type": "note_on",
            "note": 70,
            "velocity": 0,
            "time": 2691
        },
        {
            "type": "note_on",
            "note": 69,
            "velocity": 61,
            "time": 2770
        },
        {
            "type": "note_on",
            "note": 69,
            "velocity": 0,
            "time": 2946
        },
        {
            "type": "note_on",
            "note": 67,
            "velocity": 62,
            "time": 3033
        },
        {
            "type": "note_on",
            "note": 67,
            "velocity": 0,
            "time": 3152
        },
        {
            "type": "note_on",
            "note": 69,
            "velocity": 85,
            "time": 3319
        },
        {
            "type": "note_on",
            "note": 69,
            "velocity": 0,
            "time": 4137
        },
        {
            "type": "note_on",
            "note": 58,
            "velocity": 98,
            "time": 5282
        },
        {
            "type": "note_on",
            "note": 58,
            "velocity": 0,
            "time": 5365
        },
        {
            "type": "note_on",
            "note": 62,
            "velocity": 47,
            "time": 5532
        },
        {
            "type": "note_on",
            "note": 62,
            "velocity": 0,
            "time": 5721
        },
        {
            "type": "note_on",
            "note": 66,
            "velocity": 35,
            "time": 5768
        },
        {
            "type": "note_on",
            "note": 66,
            "velocity": 0,
            "time": 5807
        },
        {
            "type": "note_on",
            "note": 65,
            "velocity": 31,
            "time": 5837
        },
        {
            "type": "note_on",
            "note": 65,
            "velocity": 0,
            "time": 6025
        },
        {
            "type": "note_on",
            "note": 67,
            "velocity": 88,
            "time": 6272
        },
        {
            "type": "note_on",
            "note": 67,
            "velocity": 0,
            "time": 6514
        },
        {
            "type": "note_on",
            "note": 64,
            "velocity": 50,
            "time": 6605
        },
        {
            "type": "note_on",
            "note": 64,
            "velocity": 0,
            "time": 8501
        }
    ],
    "volumeBacktrack": 1.0,
    "additional_latency": 0
}