{
    "bass": 60,
    "type": "minor",
    "backtrack": "/home/pi/raspiKeys/res/backtracks/processed_wav/lamontdozier-takeoffyourmakeup.wav",
    "backtrackDuration": 5.163355827331543,
    "nbOfLoops": 2,
    "chord_notes": [
        {
            "type": "note_on",
            "note": 67,
            "velocity": 30,
            "time": 0
        },
        {
            "type": "note_on",
            "note": 48,
            "velocity": 47,
            "time": 5
        },
        {
            "type": "note_on",
            "note": 58,
            "velocity": 38,
            "time": 6
        },
        {
            "type": "note_on",
            "note": 62,
            "velocity": 46,
            "time": 11
        },
        {
            "type": "note_on",
            "note": 63,
            "velocity": 47,
            "time": 18
        },
        {
            "type": "note_on",
            "note": 63,
            "velocity": 0,
            "time": 599
        },
        {
            "type": "note_on",
            "note": 63,
            "velocity": 1,
            "time": 927
        },
        {
            "type": "note_on",
            "note": 63,
            "velocity": 0,
            "time": 1999
        },
        {
            "type": "note_on",
            "note": 58,
            "velocity": 0,
            "time": 2162
        },
        {
            "type": "note_on",
            "note": 62,
            "velocity": 0,
            "time": 2240
        },
        {
            "type": "note_on",
            "note": 67,
            "velocity": 0,
            "time": 2282
        },
        {
            "type": "note_on",
            "note": 48,
            "velocity": 0,
            "time": 2401
        },
        {
            "type": "note_on",
            "note": 57,
            "velocity": 34,
            "time": 2583
        },
        {
            "type": "note_on",
            "note": 62,
            "velocity": 34,
            "time": 2628
        },
        {
            "type": "note_on",
            "note": 63,
            "velocity": 31,
            "time": 2643
        },
        {
            "type": "note_on",
            "note": 53,
            "velocity": 35,
            "time": 2654
        },
        {
            "type": "note_on",
            "note": 67,
            "velocity": 68,
            "time": 2743
        },
        {
            "type": "note_on",
            "note": 63,
            "velocity": 0,
            "time": 4166
        },
        {
            "type": "note_on",
            "note": 53,
            "velocity": 0,
            "time": 4187
        },
        {
            "type": "note_on",
            "note": 62,
            "velocity": 0,
            "time": 4195
        },
        {
            "type": "note_on",
            "note": 67,
            "velocity": 0,
            "time": 4214
        },
        {
            "type": "note_on",
            "note": 57,
            "velocity": 0,
            "time": 4220
        },
        {
            "type": "note_on",
            "note": 67,
            "velocity": 48,
            "time": 4325
        },
        {
            "type": "note_on",
            "note": 62,
            "velocity": 52,
            "time": 4326
        },
        {
            "type": "note_on",
            "note": 53,
            "velocity": 49,
            "time": 4330
        },
        {
            "type": "note_on",
            "note": 63,
            "velocity": 48,
            "time": 4332
        },
        {
            "type": "note_on",
            "note": 57,
            "velocity": 40,
            "time": 4333
        },
        {
            "type": "note_on",
            "note": 53,
            "velocity": 0,
            "time": 4431
        },
        {
            "type": "note_on",
            "note": 62,
            "velocity": 0,
            "time": 4449
        },
        {
            "type": "note_on",
            "note": 63,
            "velocity": 0,
            "time": 4451
        },
        {
            "type": "note_on",
            "note": 57,
            "velocity": 0,
            "time": 4461
        },
        {
            "type": "note_on",
            "note": 67,
            "velocity": 0,
            "time": 4483
        },
        {
            "type": "note_on",
            "note": 48,
            "velocity": 63,
            "time": 5220
        },
        {
            "type": "note_on",
            "note": 67,
            "velocity": 70,
            "time": 5227
        },
        {
            "type": "note_on",
            "note": 58,
            "velocity": 45,
            "time": 5228
        },
        {
            "type": "note_on",
            "note": 62,
            "velocity": 76,
            "time": 5234
        },
        {
            "type": "note_on",
            "note": 63,
            "velocity": 52,
            "time": 5237
        },
        {
            "type": "note_on",
            "note": 58,
            "velocity": 0,
            "time": 7226
        },
        {
            "type": "note_on",
            "note": 62,
            "velocity": 0,
            "time": 7274
        },
        {
            "type": "note_on",
            "note": 57,
            "velocity": 1,
            "time": 7516
        },
        {
            "type": "note_on",
            "note": 63,
            "velocity": 0,
            "time": 7566
        },
        {
            "type": "note_on",
            "note": 57,
            "velocity": 0,
            "time": 7581
        },
        {
            "type": "note_on",
            "note": 48,
            "velocity": 0,
            "time": 7591
        },
        {
            "type": "note_on",
            "note": 67,
            "velocity": 0,
            "time": 7642
        },
        {
            "type": "note_on",
            "note": 53,
            "velocity": 40,
            "time": 7833
        },
        {
            "type": "note_on",
            "note": 67,
            "velocity": 50,
            "time": 7843
        },
        {
            "type": "note_on",
            "note": 62,
            "velocity": 54,
            "time": 7845
        },
        {
            "type": "note_on",
            "note": 63,
            "velocity": 44,
            "time": 7847
        },
        {
            "type": "note_on",
            "note": 57,
            "velocity": 45,
            "time": 7856
        },
        {
            "type": "note_on",
            "note": 62,
            "velocity": 0,
            "time": 8269
        },
        {
            "type": "note_on",
            "note": 63,
            "velocity": 0,
            "time": 8297
        },
        {
            "type": "note_on",
            "note": 57,
            "velocity": 0,
            "time": 8500
        },
        {
            "type": "note_on",
            "note": 53,
            "velocity": 0,
            "time": 8506
        },
        {
            "type": "note_on",
            "note": 67,
            "velocity": 0,
            "time": 8622
        },
        {
            "type": "note_on",
            "note": 67,
            "velocity": 52,
            "time": 8813
        },
        {
            "type": "note_on",
            "note": 58,
            "velocity": 42,
            "time": 8814
        },
        {
            "type": "note_on",
            "note": 62,
            "velocity": 49,
            "time": 8828
        },
        {
            "type": "note_on",
            "note": 55,
            "velocity": 43,
            "time": 8830
        },
        {
            "type": "note_on",
            "note": 57,
            "velocity": 43,
            "time": 8831
        },
        {
            "type": "note_on",
            "note": 62,
            "velocity": 0,
            "time": 9982
        },
        {
            "type": "note_on",
            "note": 58,
            "velocity": 0,
            "time": 9990
        },
        {
            "type": "note_on",
            "note": 55,
            "velocity": 0,
            "time": 10012
        },
        {
            "type": "note_on",
            "note": 57,
            "velocity": 0,
            "time": 10013
        },
        {
            "type": "note_on",
            "note": 67,
            "velocity": 0,
            "time": 10034
        }
    ],
    "notes": [
        {
            "type": "note_on",
            "note": 62,
            "velocity": 47,
            "time": 560
        },
        {
            "type": "note_on",
            "note": 62,
            "velocity": 0,
            "time": 841
        },
        {
            "type": "note_on",
            "note": 63,
            "velocity": 43,
            "time": 891
        },
        {
            "type": "note_on",
            "note": 63,
            "velocity": 0,
            "time": 1053
        },
        {
            "type": "note_on",
            "note": 67,
            "velocity": 39,
            "time": 1207
        },
        {
            "type": "note_on",
            "note": 67,
            "velocity": 0,
            "time": 1418
        },
        {
            "type": "note_on",
            "note": 70,
            "velocity": 77,
            "time": 1472
        },
        {
            "type": "note_on",
            "note": 70,
            "velocity": 0,
            "time": 1652
        },
        {
            "type": "note_on",
            "note": 74,
            "velocity": 88,
            "time": 1811
        },
        {
            "type": "note_on",
            "note": 74,
            "velocity": 0,
            "time": 2271
        },
        {
            "type": "note_on",
            "note": 72,
            "velocity": 62,
            "time": 2293
        },
        {
            "type": "note_on",
            "note": 72,
            "velocity": 0,
            "time": 2412
        },
        {
            "type": "note_on",
            "note": 67,
            "velocity": 44,
            "time": 2430
        },
        {
            "type": "note_on",
            "note": 67,
            "velocity": 0,
            "time": 2591
        },
        {
            "type": "note_on",
            "note": 70,
            "velocity": 97,
            "time": 2653
        },
        {
            "type": "note_on",
            "note": 70,
            "velocity": 0,
            "time": 4574
        },
        {
            "type": "note_on",
            "note": 62,
            "velocity": 57,
            "time": 5795
        },
        {
            "type": "note_on",
            "note": 62,
            "velocity": 0,
            "time": 5949
        },
        {
            "type": "note_on",
            "note": 63,
            "velocity": 47,
            "time": 5960
        },
        {
            "type": "note_on",
            "note": 63,
            "velocity": 0,
            "time": 6091
        },
        {
            "type": "note_on",
            "note": 67,
            "velocity": 53,
            "time": 6253
        },
        {
            "type": "note_on",
            "note": 67,
            "velocity": 0,
            "time": 6424
        },
        {
            "type": "note_on",
            "note": 70,
            "velocity": 79,
            "time": 6493
        },
        {
            "type": "note_on",
            "note": 70,
            "velocity": 0,
            "time": 6637
        },
        {
            "type": "note_on",
            "note": 74,
            "velocity": 68,
            "time": 6768
        },
        {
            "type": "note_on",
            "note": 74,
            "velocity": 0,
            "time": 6927
        },
        {
            "type": "note_on",
            "note": 72,
            "velocity": 59,
            "time": 7089
        },
        {
            "type": "note_on",
            "note": 72,
            "velocity": 0,
            "time": 7252
        },
        {
            "type": "note_on",
            "note": 67,
            "velocity": 49,
            "time": 7411
        },
        {
            "type": "note_on",
            "note": 67,
            "velocity": 0,
            "time": 7542
        },
        {
            "type": "note_on",
            "note": 70,
            "velocity": 80,
            "time": 7707
        },
        {
            "type": "note_on",
            "note": 70,
            "velocity": 0,
            "time": 9103
        }
    ],
    "volumeBacktrack": 0.796875,
    "additional_latency": 0
}