{
    "bass": 39,
    "type": "major",
    "backtrack": "/home/pi/raspiKeys/res/backtracks/processed_wav/ZG HH strapper 100.wav",
    "backtrackDuration": 4.79993200302124,
    "nbOfLoops": 4,
    "chord_notes": [
        {
            "type": "note_on",
            "note": 63,
            "velocity": 40,
            "time": 0
        },
        {
            "type": "note_on",
            "note": 58,
            "velocity": 38,
            "time": 1
        },
        {
            "type": "note_on",
            "note": 62,
            "velocity": 58,
            "time": 2
        },
        {
            "type": "note_on",
            "note": 51,
            "velocity": 54,
            "time": 4
        },
        {
            "type": "note_on",
            "note": 67,
            "velocity": 40,
            "time": 38
        },
        {
            "type": "note_off",
            "note": 67,
            "velocity": 77,
            "time": 1097
        },
        {
            "type": "note_off",
            "note": 58,
            "velocity": 51,
            "time": 1109
        },
        {
            "type": "note_off",
            "note": 62,
            "velocity": 66,
            "time": 1134
        },
        {
            "type": "note_off",
            "note": 63,
            "velocity": 62,
            "time": 1165
        },
        {
            "type": "note_off",
            "note": 51,
            "velocity": 87,
            "time": 1196
        },
        {
            "type": "note_on",
            "note": 58,
            "velocity": 35,
            "time": 1247
        },
        {
            "type": "note_on",
            "note": 63,
            "velocity": 46,
            "time": 1256
        },
        {
            "type": "note_on",
            "note": 62,
            "velocity": 68,
            "time": 1260
        },
        {
            "type": "note_on",
            "note": 50,
            "velocity": 51,
            "time": 1264
        },
        {
            "type": "note_on",
            "note": 67,
            "velocity": 33,
            "time": 1302
        },
        {
            "type": "note_off",
            "note": 58,
            "velocity": 57,
            "time": 2227
        },
        {
            "type": "note_off",
            "note": 62,
            "velocity": 66,
            "time": 2251
        },
        {
            "type": "note_off",
            "note": 50,
            "velocity": 62,
            "time": 2289
        },
        {
            "type": "note_off",
            "note": 67,
            "velocity": 49,
            "time": 2307
        },
        {
            "type": "note_off",
            "note": 63,
            "velocity": 63,
            "time": 2316
        },
        {
            "type": "note_on",
            "note": 67,
            "velocity": 48,
            "time": 2468
        },
        {
            "type": "note_on",
            "note": 63,
            "velocity": 36,
            "time": 2473
        },
        {
            "type": "note_on",
            "note": 62,
            "velocity": 63,
            "time": 2480
        },
        {
            "type": "note_on",
            "note": 58,
            "velocity": 41,
            "time": 2483
        },
        {
            "type": "note_on",
            "note": 48,
            "velocity": 57,
            "time": 2491
        },
        {
            "type": "note_off",
            "note": 58,
            "velocity": 49,
            "time": 3456
        },
        {
            "type": "note_off",
            "note": 67,
            "velocity": 53,
            "time": 3470
        },
        {
            "type": "note_off",
            "note": 62,
            "velocity": 54,
            "time": 3488
        },
        {
            "type": "note_off",
            "note": 48,
            "velocity": 89,
            "time": 3502
        },
        {
            "type": "note_off",
            "note": 63,
            "velocity": 54,
            "time": 3511
        },
        {
            "type": "note_on",
            "note": 46,
            "velocity": 60,
            "time": 3622
        },
        {
            "type": "note_on",
            "note": 58,
            "velocity": 68,
            "time": 3633
        },
        {
            "type": "note_on",
            "note": 63,
            "velocity": 68,
            "time": 3650
        },
        {
            "type": "note_on",
            "note": 62,
            "velocity": 59,
            "time": 3651
        },
        {
            "type": "note_on",
            "note": 67,
            "velocity": 45,
            "time": 3657
        },
        {
            "type": "note_off",
            "note": 62,
            "velocity": 86,
            "time": 3884
        },
        {
            "type": "note_off",
            "note": 58,
            "velocity": 93,
            "time": 4074
        },
        {
            "type": "note_off",
            "note": 63,
            "velocity": 1,
            "time": 4679
        },
        {
            "type": "note_off",
            "note": 67,
            "velocity": 61,
            "time": 4737
        },
        {
            "type": "note_off",
            "note": 46,
            "velocity": 50,
            "time": 4833
        },
        {
            "type": "note_on",
            "note": 57,
            "velocity": 64,
            "time": 4882
        },
        {
            "type": "note_on",
            "note": 67,
            "velocity": 50,
            "time": 4882
        },
        {
            "type": "note_on",
            "note": 63,
            "velocity": 67,
            "time": 4889
        },
        {
            "type": "note_on",
            "note": 45,
            "velocity": 75,
            "time": 4900
        },
        {
            "type": "note_on",
            "note": 60,
            "velocity": 64,
            "time": 4908
        },
        {
            "type": "note_off",
            "note": 60,
            "velocity": 89,
            "time": 5576
        },
        {
            "type": "note_off",
            "note": 63,
            "velocity": 77,
            "time": 5689
        },
        {
            "type": "note_off",
            "note": 57,
            "velocity": 68,
            "time": 5708
        },
        {
            "type": "note_off",
            "note": 67,
            "velocity": 70,
            "time": 5938
        },
        {
            "type": "note_on",
            "note": 58,
            "velocity": 68,
            "time": 6115
        },
        {
            "type": "note_on",
            "note": 65,
            "velocity": 54,
            "time": 6123
        },
        {
            "type": "note_on",
            "note": 62,
            "velocity": 73,
            "time": 6127
        },
        {
            "type": "note_on",
            "note": 67,
            "velocity": 42,
            "time": 6129
        },
        {
            "type": "note_on",
            "note": 44,
            "velocity": 65,
            "time": 6167
        },
        {
            "type": "note_off",
            "note": 45,
            "velocity": 90,
            "time": 6196
        },
        {
            "type": "note_off",
            "note": 62,
            "velocity": 88,
            "time": 6615
        },
        {
            "type": "note_off",
            "note": 65,
            "velocity": 92,
            "time": 6671
        },
        {
            "type": "note_off",
            "note": 67,
            "velocity": 92,
            "time": 6687
        },
        {
            "type": "note_off",
            "note": 58,
            "velocity": 99,
            "time": 6732
        },
        {
            "type": "note_on",
            "note": 65,
            "velocity": 51,
            "time": 7264
        },
        {
            "type": "note_on",
            "note": 58,
            "velocity": 38,
            "time": 7267
        },
        {
            "type": "note_on",
            "note": 55,
            "velocity": 45,
            "time": 7268
        },
        {
            "type": "note_off",
            "note": 44,
            "velocity": 68,
            "time": 7270
        },
        {
            "type": "note_on",
            "note": 43,
            "velocity": 71,
            "time": 7280
        },
        {
            "type": "note_on",
            "note": 62,
            "velocity": 63,
            "time": 7292
        },
        {
            "type": "note_off",
            "note": 65,
            "velocity": 74,
            "time": 8214
        },
        {
            "type": "note_off",
            "note": 62,
            "velocity": 71,
            "time": 8226
        },
        {
            "type": "note_off",
            "note": 55,
            "velocity": 66,
            "time": 8295
        },
        {
            "type": "note_off",
            "note": 58,
            "velocity": 48,
            "time": 8364
        },
        {
            "type": "note_off",
            "note": 43,
            "velocity": 87,
            "time": 8428
        },
        {
            "type": "note_on",
            "note": 58,
            "velocity": 37,
            "time": 8461
        },
        {
            "type": "note_on",
            "note": 55,
            "velocity": 50,
            "time": 8484
        },
        {
            "type": "note_on",
            "note": 48,
            "velocity": 57,
            "time": 8487
        },
        {
            "type": "note_on",
            "note": 64,
            "velocity": 71,
            "time": 8488
        },
        {
            "type": "note_on",
            "note": 60,
            "velocity": 53,
            "time": 8505
        },
        {
            "type": "note_on",
            "note": 63,
            "velocity": 71,
            "time": 9639
        },
        {
            "type": "note_on",
            "note": 56,
            "velocity": 49,
            "time": 9645
        },
        {
            "type": "note_on",
            "note": 60,
            "velocity": 64,
            "time": 9675
        },
        {
            "type": "note_on",
            "note": 41,
            "velocity": 50,
            "time": 9687
        },
        {
            "type": "note_on",
            "note": 58,
            "velocity": 35,
            "time": 12030
        },
        {
            "type": "note_on",
            "note": 65,
            "velocity": 44,
            "time": 12041
        },
        {
            "type": "note_on",
            "note": 67,
            "velocity": 45,
            "time": 12064
        },
        {
            "type": "note_on",
            "note": 46,
            "velocity": 55,
            "time": 12075
        },
        {
            "type": "note_on",
            "note": 53,
            "velocity": 49,
            "time": 12084
        },
        {
            "type": "note_on",
            "note": 62,
            "velocity": 43,
            "time": 12095
        },
        {
            "type": "note_on",
            "note": 58,
            "velocity": 53,
            "time": 14470
        },
        {
            "type": "note_on",
            "note": 39,
            "velocity": 51,
            "time": 14472
        },
        {
            "type": "note_on",
            "note": 63,
            "velocity": 58,
            "time": 14501
        },
        {
            "type": "note_on",
            "note": 62,
            "velocity": 58,
            "time": 14518
        },
        {
            "type": "note_on",
            "note": 51,
            "velocity": 45,
            "time": 14521
        },
        {
            "type": "note_on",
            "note": 61,
            "velocity": 53,
            "time": 16729
        },
        {
            "type": "note_on",
            "note": 65,
            "velocity": 43,
            "time": 16786
        },
        {
            "type": "note_on",
            "note": 68,
            "velocity": 59,
            "time": 16808
        },
        {
            "type": "note_on",
            "note": 46,
            "velocity": 45,
            "time": 16844
        },
        {
            "type": "note_on",
            "note": 58,
            "velocity": 35,
            "time": 16860
        },
        {
            "type": "note_on",
            "note": 72,
            "velocity": 59,
            "time": 16914
        },
        {
            "type": "note_on",
            "note": 67,
            "velocity": 58,
            "time": 18088
        },
        {
            "type": "note_on",
            "note": 61,
            "velocity": 41,
            "time": 18093
        },
        {
            "type": "note_on",
            "note": 58,
            "velocity": 53,
            "time": 18104
        },
        {
            "type": "note_on",
            "note": 51,
            "velocity": 53,
            "time": 18106
        },
        {
            "type": "note_on",
            "note": 65,
            "velocity": 38,
            "time": 18112
        }
    ],
    "notes": [],
    "volumeBacktrack": 1.0,
    "additional_latency": 0
}