{
    "bass": 48,
    "type": "major",
    "backtrack": "/home/pi/raspiKeys/res/backtracks/processed_wav/Groove Loop_17 rim clicks 55 BPM.wav",
    "backtrackDuration": 8.73011302947998,
    "nbOfLoops": 2,
    "chord_notes": [
        {
            "type": "note_on",
            "note": 71,
            "velocity": 72,
            "time": 0
        },
        {
            "type": "note_on",
            "note": 64,
            "velocity": 55,
            "time": 2
        },
        {
            "type": "note_on",
            "note": 60,
            "velocity": 40,
            "time": 5
        },
        {
            "type": "note_on",
            "note": 67,
            "velocity": 50,
            "time": 24
        },
        {
            "type": "note_on",
            "note": 48,
            "velocity": 45,
            "time": 31
        },
        {
            "type": "note_off",
            "note": 67,
            "velocity": 86,
            "time": 1484
        },
        {
            "type": "note_off",
            "note": 64,
            "velocity": 90,
            "time": 1727
        },
        {
            "type": "note_off",
            "note": 71,
            "velocity": 85,
            "time": 1752
        },
        {
            "type": "note_off",
            "note": 60,
            "velocity": 89,
            "time": 1816
        },
        {
            "type": "note_off",
            "note": 48,
            "velocity": 77,
            "time": 1994
        },
        {
            "type": "note_on",
            "note": 67,
            "velocity": 43,
            "time": 2175
        },
        {
            "type": "note_on",
            "note": 70,
            "velocity": 42,
            "time": 2184
        },
        {
            "type": "note_on",
            "note": 63,
            "velocity": 54,
            "time": 2194
        },
        {
            "type": "note_on",
            "note": 61,
            "velocity": 31,
            "time": 2197
        },
        {
            "type": "note_on",
            "note": 51,
            "velocity": 50,
            "time": 2219
        },
        {
            "type": "note_off",
            "note": 67,
            "velocity": 83,
            "time": 3613
        },
        {
            "type": "note_off",
            "note": 63,
            "velocity": 87,
            "time": 3632
        },
        {
            "type": "note_off",
            "note": 61,
            "velocity": 89,
            "time": 3706
        },
        {
            "type": "note_off",
            "note": 70,
            "velocity": 87,
            "time": 3719
        },
        {
            "type": "note_off",
            "note": 51,
            "velocity": 83,
            "time": 4074
        },
        {
            "type": "note_on",
            "note": 63,
            "velocity": 39,
            "time": 4288
        },
        {
            "type": "note_on",
            "note": 68,
            "velocity": 37,
            "time": 4310
        },
        {
            "type": "note_on",
            "note": 72,
            "velocity": 36,
            "time": 4314
        },
        {
            "type": "note_on",
            "note": 67,
            "velocity": 39,
            "time": 4319
        },
        {
            "type": "note_on",
            "note": 44,
            "velocity": 41,
            "time": 4322
        },
        {
            "type": "note_off",
            "note": 67,
            "velocity": 57,
            "time": 5689
        },
        {
            "type": "note_off",
            "note": 68,
            "velocity": 40,
            "time": 5907
        },
        {
            "type": "note_off",
            "note": 63,
            "velocity": 77,
            "time": 5952
        },
        {
            "type": "note_off",
            "note": 44,
            "velocity": 94,
            "time": 6148
        },
        {
            "type": "note_off",
            "note": 72,
            "velocity": 17,
            "time": 6324
        },
        {
            "type": "note_on",
            "note": 49,
            "velocity": 52,
            "time": 6505
        },
        {
            "type": "note_on",
            "note": 61,
            "velocity": 39,
            "time": 6515
        },
        {
            "type": "note_on",
            "note": 72,
            "velocity": 37,
            "time": 6524
        },
        {
            "type": "note_on",
            "note": 68,
            "velocity": 50,
            "time": 6532
        },
        {
            "type": "note_on",
            "note": 65,
            "velocity": 32,
            "time": 6555
        },
        {
            "type": "note_off",
            "note": 65,
            "velocity": 87,
            "time": 8000
        },
        {
            "type": "note_off",
            "note": 72,
            "velocity": 55,
            "time": 8041
        },
        {
            "type": "note_off",
            "note": 68,
            "velocity": 72,
            "time": 8090
        },
        {
            "type": "note_off",
            "note": 61,
            "velocity": 97,
            "time": 8129
        },
        {
            "type": "note_off",
            "note": 49,
            "velocity": 91,
            "time": 8461
        },
        {
            "type": "note_on",
            "note": 71,
            "velocity": 41,
            "time": 8801
        },
        {
            "type": "note_on",
            "note": 64,
            "velocity": 38,
            "time": 8807
        },
        {
            "type": "note_on",
            "note": 48,
            "velocity": 48,
            "time": 8810
        },
        {
            "type": "note_on",
            "note": 60,
            "velocity": 29,
            "time": 8817
        },
        {
            "type": "note_on",
            "note": 67,
            "velocity": 47,
            "time": 8822
        },
        {
            "type": "note_off",
            "note": 67,
            "velocity": 84,
            "time": 10357
        },
        {
            "type": "note_off",
            "note": 64,
            "velocity": 93,
            "time": 10384
        },
        {
            "type": "note_off",
            "note": 71,
            "velocity": 87,
            "time": 10403
        },
        {
            "type": "note_off",
            "note": 60,
            "velocity": 87,
            "time": 10445
        },
        {
            "type": "note_off",
            "note": 48,
            "velocity": 75,
            "time": 10710
        },
        {
            "type": "note_on",
            "note": 70,
            "velocity": 33,
            "time": 10885
        },
        {
            "type": "note_on",
            "note": 63,
            "velocity": 45,
            "time": 10886
        },
        {
            "type": "note_on",
            "note": 67,
            "velocity": 45,
            "time": 10891
        },
        {
            "type": "note_on",
            "note": 61,
            "velocity": 30,
            "time": 10893
        },
        {
            "type": "note_on",
            "note": 51,
            "velocity": 38,
            "time": 10903
        },
        {
            "type": "note_off",
            "note": 67,
            "velocity": 83,
            "time": 12513
        },
        {
            "type": "note_off",
            "note": 63,
            "velocity": 87,
            "time": 12538
        },
        {
            "type": "note_off",
            "note": 70,
            "velocity": 83,
            "time": 12546
        },
        {
            "type": "note_off",
            "note": 61,
            "velocity": 87,
            "time": 12575
        },
        {
            "type": "note_off",
            "note": 51,
            "velocity": 85,
            "time": 12714
        },
        {
            "type": "note_on",
            "note": 63,
            "velocity": 35,
            "time": 13085
        },
        {
            "type": "note_on",
            "note": 56,
            "velocity": 37,
            "time": 13092
        },
        {
            "type": "note_on",
            "note": 44,
            "velocity": 40,
            "time": 13110
        },
        {
            "type": "note_on",
            "note": 67,
            "velocity": 35,
            "time": 13129
        },
        {
            "type": "note_on",
            "note": 60,
            "velocity": 39,
            "time": 13145
        },
        {
            "type": "note_off",
            "note": 60,
            "velocity": 83,
            "time": 14751
        },
        {
            "type": "note_off",
            "note": 56,
            "velocity": 74,
            "time": 14798
        },
        {
            "type": "note_off",
            "note": 63,
            "velocity": 83,
            "time": 14801
        },
        {
            "type": "note_off",
            "note": 67,
            "velocity": 76,
            "time": 14881
        },
        {
            "type": "note_off",
            "note": 44,
            "velocity": 94,
            "time": 15152
        },
        {
            "type": "note_on",
            "note": 49,
            "velocity": 53,
            "time": 15295
        },
        {
            "type": "note_on",
            "note": 65,
            "velocity": 43,
            "time": 15304
        },
        {
            "type": "note_on",
            "note": 60,
            "velocity": 39,
            "time": 15324
        },
        {
            "type": "note_on",
            "note": 61,
            "velocity": 36,
            "time": 15333
        },
        {
            "type": "note_off",
            "note": 61,
            "velocity": 66,
            "time": 17160
        },
        {
            "type": "note_off",
            "note": 49,
            "velocity": 92,
            "time": 17165
        },
        {
            "type": "note_off",
            "note": 60,
            "velocity": 74,
            "time": 17224
        },
        {
            "type": "note_off",
            "note": 65,
            "velocity": 84,
            "time": 17225
        }
    ],
    "notes": [],
    "volumeBacktrack": 0.796875,
    "additional_latency": 0
}