{
    "bass": 39,
    "type": "major",
    "backtrack": "/home/pi/raspiKeys/res/backtracks/processed_wav/pointersisters-yeswecancan.wav",
    "backtrackDuration": 5.3420634269714355,
    "nbOfLoops": 8,
    "chord_notes": [
        {
            "type": "note_on",
            "note": 58,
            "velocity": 41,
            "time": 0
        },
        {
            "type": "note_on",
            "note": 63,
            "velocity": 56,
            "time": 0
        },
        {
            "type": "note_on",
            "note": 39,
            "velocity": 61,
            "time": 0
        },
        {
            "type": "note_on",
            "note": 62,
            "velocity": 65,
            "time": 2
        },
        {
            "type": "note_on",
            "note": 67,
            "velocity": 50,
            "time": 3
        },
        {
            "type": "note_on",
            "note": 51,
            "velocity": 47,
            "time": 5
        },
        {
            "type": "note_off",
            "note": 51,
            "velocity": 79,
            "time": 1620
        },
        {
            "type": "note_off",
            "note": 39,
            "velocity": 78,
            "time": 1628
        },
        {
            "type": "note_off",
            "note": 62,
            "velocity": 72,
            "time": 1654
        },
        {
            "type": "note_off",
            "note": 58,
            "velocity": 93,
            "time": 1660
        },
        {
            "type": "note_off",
            "note": 67,
            "velocity": 76,
            "time": 1669
        },
        {
            "type": "note_off",
            "note": 63,
            "velocity": 77,
            "time": 1682
        },
        {
            "type": "note_on",
            "note": 58,
            "velocity": 90,
            "time": 1764
        },
        {
            "type": "note_on",
            "note": 51,
            "velocity": 83,
            "time": 1777
        },
        {
            "type": "note_on",
            "note": 63,
            "velocity": 75,
            "time": 1778
        },
        {
            "type": "note_on",
            "note": 67,
            "velocity": 65,
            "time": 1782
        },
        {
            "type": "note_on",
            "note": 62,
            "velocity": 64,
            "time": 1787
        },
        {
            "type": "note_on",
            "note": 39,
            "velocity": 78,
            "time": 1795
        },
        {
            "type": "note_off",
            "note": 67,
            "velocity": 107,
            "time": 1839
        },
        {
            "type": "note_off",
            "note": 58,
            "velocity": 72,
            "time": 1842
        },
        {
            "type": "note_off",
            "note": 51,
            "velocity": 93,
            "time": 1843
        },
        {
            "type": "note_off",
            "note": 63,
            "velocity": 99,
            "time": 1845
        },
        {
            "type": "note_off",
            "note": 62,
            "velocity": 111,
            "time": 1846
        },
        {
            "type": "note_off",
            "note": 39,
            "velocity": 95,
            "time": 1864
        },
        {
            "type": "note_on",
            "note": 56,
            "velocity": 68,
            "time": 2753
        },
        {
            "type": "note_on",
            "note": 65,
            "velocity": 55,
            "time": 2761
        },
        {
            "type": "note_on",
            "note": 38,
            "velocity": 72,
            "time": 2779
        },
        {
            "type": "note_on",
            "note": 62,
            "velocity": 68,
            "time": 2781
        },
        {
            "type": "note_on",
            "note": 50,
            "velocity": 56,
            "time": 2782
        },
        {
            "type": "note_on",
            "note": 60,
            "velocity": 65,
            "time": 2786
        },
        {
            "type": "note_off",
            "note": 38,
            "velocity": 88,
            "time": 3479
        },
        {
            "type": "note_off",
            "note": 60,
            "velocity": 79,
            "time": 3516
        },
        {
            "type": "note_off",
            "note": 56,
            "velocity": 93,
            "time": 3571
        },
        {
            "type": "note_off",
            "note": 50,
            "velocity": 75,
            "time": 3575
        },
        {
            "type": "note_off",
            "note": 65,
            "velocity": 56,
            "time": 3586
        },
        {
            "type": "note_off",
            "note": 62,
            "velocity": 82,
            "time": 3596
        },
        {
            "type": "note_on",
            "note": 65,
            "velocity": 76,
            "time": 4413
        },
        {
            "type": "note_on",
            "note": 50,
            "velocity": 60,
            "time": 4414
        },
        {
            "type": "note_on",
            "note": 55,
            "velocity": 49,
            "time": 4425
        },
        {
            "type": "note_on",
            "note": 59,
            "velocity": 72,
            "time": 4437
        },
        {
            "type": "note_on",
            "note": 62,
            "velocity": 69,
            "time": 4443
        },
        {
            "type": "note_off",
            "note": 50,
            "velocity": 87,
            "time": 4519
        },
        {
            "type": "note_off",
            "note": 55,
            "velocity": 80,
            "time": 4521
        },
        {
            "type": "note_off",
            "note": 62,
            "velocity": 58,
            "time": 4554
        },
        {
            "type": "note_off",
            "note": 59,
            "velocity": 87,
            "time": 4563
        },
        {
            "type": "note_off",
            "note": 65,
            "velocity": 95,
            "time": 4584
        },
        {
            "type": "note_on",
            "note": 62,
            "velocity": 70,
            "time": 5407
        },
        {
            "type": "note_on",
            "note": 48,
            "velocity": 64,
            "time": 5408
        },
        {
            "type": "note_on",
            "note": 67,
            "velocity": 60,
            "time": 5410
        },
        {
            "type": "note_on",
            "note": 58,
            "velocity": 52,
            "time": 5413
        },
        {
            "type": "note_on",
            "note": 63,
            "velocity": 63,
            "time": 5421
        },
        {
            "type": "note_on",
            "note": 55,
            "velocity": 27,
            "time": 5460
        },
        {
            "type": "note_off",
            "note": 62,
            "velocity": 83,
            "time": 6466
        },
        {
            "type": "note_off",
            "note": 63,
            "velocity": 90,
            "time": 6519
        },
        {
            "type": "note_off",
            "note": 67,
            "velocity": 88,
            "time": 6523
        },
        {
            "type": "note_off",
            "note": 55,
            "velocity": 82,
            "time": 6549
        },
        {
            "type": "note_off",
            "note": 58,
            "velocity": 93,
            "time": 6563
        },
        {
            "type": "note_off",
            "note": 48,
            "velocity": 80,
            "time": 6620
        },
        {
            "type": "note_on",
            "note": 57,
            "velocity": 65,
            "time": 7095
        },
        {
            "type": "note_on",
            "note": 59,
            "velocity": 70,
            "time": 7103
        },
        {
            "type": "note_on",
            "note": 47,
            "velocity": 64,
            "time": 7107
        },
        {
            "type": "note_on",
            "note": 66,
            "velocity": 61,
            "time": 7110
        },
        {
            "type": "note_on",
            "note": 62,
            "velocity": 72,
            "time": 7114
        },
        {
            "type": "note_off",
            "note": 62,
            "velocity": 93,
            "time": 7641
        },
        {
            "type": "note_off",
            "note": 66,
            "velocity": 81,
            "time": 7647
        },
        {
            "type": "note_off",
            "note": 59,
            "velocity": 81,
            "time": 7656
        },
        {
            "type": "note_off",
            "note": 47,
            "velocity": 93,
            "time": 7691
        },
        {
            "type": "note_off",
            "note": 57,
            "velocity": 37,
            "time": 7777
        },
        {
            "type": "note_on",
            "note": 61,
            "velocity": 66,
            "time": 8100
        },
        {
            "type": "note_on",
            "note": 46,
            "velocity": 52,
            "time": 8108
        },
        {
            "type": "note_on",
            "note": 58,
            "velocity": 53,
            "time": 8118
        },
        {
            "type": "note_on",
            "note": 56,
            "velocity": 36,
            "time": 8124
        },
        {
            "type": "note_on",
            "note": 65,
            "velocity": 43,
            "time": 8130
        },
        {
            "type": "note_on",
            "note": 53,
            "velocity": 33,
            "time": 8176
        },
        {
            "type": "note_off",
            "note": 53,
            "velocity": 95,
            "time": 9101
        },
        {
            "type": "note_off",
            "note": 56,
            "velocity": 95,
            "time": 9155
        },
        {
            "type": "note_off",
            "note": 65,
            "velocity": 55,
            "time": 9160
        },
        {
            "type": "note_off",
            "note": 46,
            "velocity": 95,
            "time": 9180
        },
        {
            "type": "note_off",
            "note": 61,
            "velocity": 68,
            "time": 9182
        },
        {
            "type": "note_off",
            "note": 58,
            "velocity": 18,
            "time": 9372
        },
        {
            "type": "note_on",
            "note": 61,
            "velocity": 56,
            "time": 9716
        },
        {
            "type": "note_on",
            "note": 55,
            "velocity": 48,
            "time": 9722
        },
        {
            "type": "note_on",
            "note": 39,
            "velocity": 52,
            "time": 9725
        },
        {
            "type": "note_on",
            "note": 58,
            "velocity": 55,
            "time": 9732
        },
        {
            "type": "note_on",
            "note": 65,
            "velocity": 45,
            "time": 9742
        },
        {
            "type": "note_on",
            "note": 51,
            "velocity": 49,
            "time": 9755
        },
        {
            "type": "note_off",
            "note": 65,
            "velocity": 66,
            "time": 10324
        },
        {
            "type": "note_off",
            "note": 58,
            "velocity": 90,
            "time": 10398
        },
        {
            "type": "note_off",
            "note": 61,
            "velocity": 94,
            "time": 10420
        },
        {
            "type": "note_off",
            "note": 39,
            "velocity": 89,
            "time": 10445
        },
        {
            "type": "note_off",
            "note": 51,
            "velocity": 81,
            "time": 10499
        },
        {
            "type": "note_off",
            "note": 55,
            "velocity": 50,
            "time": 10658
        },
        {
            "type": "note_on",
            "note": 63,
            "velocity": 81,
            "time": 10746
        },
        {
            "type": "note_on",
            "note": 56,
            "velocity": 41,
            "time": 10751
        },
        {
            "type": "note_on",
            "note": 44,
            "velocity": 60,
            "time": 10755
        },
        {
            "type": "note_on",
            "note": 55,
            "velocity": 43,
            "time": 10758
        },
        {
            "type": "note_on",
            "note": 51,
            "velocity": 50,
            "time": 10777
        },
        {
            "type": "note_on",
            "note": 60,
            "velocity": 25,
            "time": 10851
        },
        {
            "type": "note_off",
            "note": 60,
            "velocity": 62,
            "time": 11753
        },
        {
            "type": "note_off",
            "note": 56,
            "velocity": 95,
            "time": 11779
        },
        {
            "type": "note_off",
            "note": 51,
            "velocity": 85,
            "time": 11795
        },
        {
            "type": "note_off",
            "note": 55,
            "velocity": 61,
            "time": 11822
        },
        {
            "type": "note_off",
            "note": 63,
            "velocity": 83,
            "time": 11836
        },
        {
            "type": "note_off",
            "note": 44,
            "velocity": 98,
            "time": 11881
        },
        {
            "type": "note_on",
            "note": 61,
            "velocity": 60,
            "time": 12462
        },
        {
            "type": "note_on",
            "note": 65,
            "velocity": 45,
            "time": 12468
        },
        {
            "type": "note_on",
            "note": 37,
            "velocity": 61,
            "time": 12479
        },
        {
            "type": "note_on",
            "note": 56,
            "velocity": 33,
            "time": 12486
        },
        {
            "type": "note_on",
            "note": 49,
            "velocity": 45,
            "time": 12489
        },
        {
            "type": "note_on",
            "note": 59,
            "velocity": 54,
            "time": 12493
        },
        {
            "type": "note_off",
            "note": 59,
            "velocity": 87,
            "time": 12912
        },
        {
            "type": "note_off",
            "note": 56,
            "velocity": 72,
            "time": 12913
        },
        {
            "type": "note_off",
            "note": 37,
            "velocity": 79,
            "time": 12925
        },
        {
            "type": "note_off",
            "note": 49,
            "velocity": 68,
            "time": 12939
        },
        {
            "type": "note_off",
            "note": 65,
            "velocity": 90,
            "time": 12948
        },
        {
            "type": "note_off",
            "note": 61,
            "velocity": 86,
            "time": 12966
        },
        {
            "type": "note_on",
            "note": 39,
            "velocity": 74,
            "time": 13428
        },
        {
            "type": "note_on",
            "note": 58,
            "velocity": 58,
            "time": 13443
        },
        {
            "type": "note_on",
            "note": 63,
            "velocity": 63,
            "time": 13445
        },
        {
            "type": "note_on",
            "note": 62,
            "velocity": 57,
            "time": 13458
        },
        {
            "type": "note_on",
            "note": 67,
            "velocity": 58,
            "time": 13459
        },
        {
            "type": "note_on",
            "note": 51,
            "velocity": 53,
            "time": 13460
        },
        {
            "type": "note_off",
            "note": 39,
            "velocity": 87,
            "time": 14483
        },
        {
            "type": "note_off",
            "note": 51,
            "velocity": 86,
            "time": 14564
        },
        {
            "type": "note_off",
            "note": 62,
            "velocity": 70,
            "time": 14577
        },
        {
            "type": "note_off",
            "note": 63,
            "velocity": 65,
            "time": 14596
        },
        {
            "type": "note_off",
            "note": 58,
            "velocity": 57,
            "time": 14603
        },
        {
            "type": "note_off",
            "note": 67,
            "velocity": 23,
            "time": 14826
        },
        {
            "type": "note_on",
            "note": 58,
            "velocity": 74,
            "time": 15100
        },
        {
            "type": "note_on",
            "note": 48,
            "velocity": 67,
            "time": 15115
        },
        {
            "type": "note_on",
            "note": 62,
            "velocity": 73,
            "time": 15120
        },
        {
            "type": "note_on",
            "note": 67,
            "velocity": 58,
            "time": 15124
        },
        {
            "type": "note_on",
            "note": 63,
            "velocity": 65,
            "time": 15126
        },
        {
            "type": "note_off",
            "note": 62,
            "velocity": 58,
            "time": 15223
        },
        {
            "type": "note_off",
            "note": 58,
            "velocity": 82,
            "time": 15243
        },
        {
            "type": "note_off",
            "note": 48,
            "velocity": 94,
            "time": 15268
        },
        {
            "type": "note_off",
            "note": 67,
            "velocity": 35,
            "time": 15270
        },
        {
            "type": "note_off",
            "note": 63,
            "velocity": 30,
            "time": 15300
        },
        {
            "type": "note_on",
            "note": 57,
            "velocity": 75,
            "time": 16781
        },
        {
            "type": "note_on",
            "note": 63,
            "velocity": 67,
            "time": 16790
        },
        {
            "type": "note_on",
            "note": 41,
            "velocity": 77,
            "time": 16803
        },
        {
            "type": "note_on",
            "note": 67,
            "velocity": 52,
            "time": 16805
        },
        {
            "type": "note_on",
            "note": 48,
            "velocity": 65,
            "time": 16810
        },
        {
            "type": "note_on",
            "note": 60,
            "velocity": 64,
            "time": 16813
        },
        {
            "type": "note_off",
            "note": 67,
            "velocity": 93,
            "time": 16873
        },
        {
            "type": "note_off",
            "note": 60,
            "velocity": 107,
            "time": 16876
        },
        {
            "type": "note_off",
            "note": 48,
            "velocity": 79,
            "time": 16895
        },
        {
            "type": "note_off",
            "note": 41,
            "velocity": 56,
            "time": 16905
        },
        {
            "type": "note_off",
            "note": 57,
            "velocity": 87,
            "time": 16906
        },
        {
            "type": "note_off",
            "note": 63,
            "velocity": 72,
            "time": 16906
        },
        {
            "type": "note_on",
            "note": 57,
            "velocity": 80,
            "time": 17316
        },
        {
            "type": "note_on",
            "note": 67,
            "velocity": 64,
            "time": 17316
        },
        {
            "type": "note_on",
            "note": 63,
            "velocity": 76,
            "time": 17323
        },
        {
            "type": "note_on",
            "note": 41,
            "velocity": 70,
            "time": 17327
        },
        {
            "type": "note_on",
            "note": 60,
            "velocity": 68,
            "time": 17328
        },
        {
            "type": "note_on",
            "note": 48,
            "velocity": 66,
            "time": 17332
        },
        {
            "type": "note_off",
            "note": 57,
            "velocity": 61,
            "time": 18257
        },
        {
            "type": "note_off",
            "note": 67,
            "velocity": 72,
            "time": 18285
        },
        {
            "type": "note_off",
            "note": 63,
            "velocity": 74,
            "time": 18294
        },
        {
            "type": "note_off",
            "note": 41,
            "velocity": 74,
            "time": 18319
        },
        {
            "type": "note_off",
            "note": 60,
            "velocity": 64,
            "time": 18335
        },
        {
            "type": "note_off",
            "note": 48,
            "velocity": 90,
            "time": 18371
        },
        {
            "type": "note_on",
            "note": 41,
            "velocity": 69,
            "time": 18768
        },
        {
            "type": "note_on",
            "note": 56,
            "velocity": 48,
            "time": 18777
        },
        {
            "type": "note_on",
            "note": 63,
            "velocity": 72,
            "time": 18777
        },
        {
            "type": "note_on",
            "note": 67,
            "velocity": 65,
            "time": 18808
        },
        {
            "type": "note_on",
            "note": 60,
            "velocity": 64,
            "time": 18814
        },
        {
            "type": "note_on",
            "note": 51,
            "velocity": 48,
            "time": 18816
        },
        {
            "type": "note_off",
            "note": 60,
            "velocity": 90,
            "time": 19621
        },
        {
            "type": "note_off",
            "note": 41,
            "velocity": 88,
            "time": 19642
        },
        {
            "type": "note_off",
            "note": 51,
            "velocity": 86,
            "time": 19706
        },
        {
            "type": "note_off",
            "note": 63,
            "velocity": 74,
            "time": 19712
        },
        {
            "type": "note_off",
            "note": 56,
            "velocity": 81,
            "time": 19751
        },
        {
            "type": "note_off",
            "note": 67,
            "velocity": 55,
            "time": 19983
        },
        {
            "type": "note_on",
            "note": 58,
            "velocity": 64,
            "time": 20142
        },
        {
            "type": "note_on",
            "note": 67,
            "velocity": 45,
            "time": 20151
        },
        {
            "type": "note_on",
            "note": 65,
            "velocity": 54,
            "time": 20158
        },
        {
            "type": "note_on",
            "note": 46,
            "velocity": 53,
            "time": 20159
        },
        {
            "type": "note_on",
            "note": 62,
            "velocity": 56,
            "time": 20160
        },
        {
            "type": "note_on",
            "note": 56,
            "velocity": 33,
            "time": 20180
        },
        {
            "type": "note_on",
            "note": 53,
            "velocity": 46,
            "time": 20184
        },
        {
            "type": "note_off",
            "note": 56,
            "velocity": 79,
            "time": 21020
        },
        {
            "type": "note_off",
            "note": 53,
            "velocity": 83,
            "time": 21033
        },
        {
            "type": "note_off",
            "note": 65,
            "velocity": 67,
            "time": 21079
        },
        {
            "type": "note_off",
            "note": 58,
            "velocity": 77,
            "time": 21087
        },
        {
            "type": "note_off",
            "note": 46,
            "velocity": 94,
            "time": 21108
        },
        {
            "type": "note_off",
            "note": 62,
            "velocity": 62,
            "time": 21113
        },
        {
            "type": "note_off",
            "note": 67,
            "velocity": 20,
            "time": 21311
        },
        {
            "type": "note_on",
            "note": 51,
            "velocity": 75,
            "time": 21419
        },
        {
            "type": "note_on",
            "note": 39,
            "velocity": 63,
            "time": 21433
        },
        {
            "type": "note_on",
            "note": 58,
            "velocity": 70,
            "time": 21433
        },
        {
            "type": "note_on",
            "note": 67,
            "velocity": 63,
            "time": 21435
        },
        {
            "type": "note_on",
            "note": 62,
            "velocity": 67,
            "time": 21441
        },
        {
            "type": "note_on",
            "note": 63,
            "velocity": 69,
            "time": 21453
        },
        {
            "type": "note_off",
            "note": 51,
            "velocity": 36,
            "time": 23097
        },
        {
            "type": "note_off",
            "note": 39,
            "velocity": 59,
            "time": 23115
        },
        {
            "type": "note_off",
            "note": 63,
            "velocity": 47,
            "time": 23260
        },
        {
            "type": "note_off",
            "note": 67,
            "velocity": 71,
            "time": 23270
        },
        {
            "type": "note_off",
            "note": 62,
            "velocity": 84,
            "time": 23282
        },
        {
            "type": "note_off",
            "note": 58,
            "velocity": 70,
            "time": 23297
        },
        {
            "type": "note_on",
            "note": 51,
            "velocity": 74,
            "time": 23356
        },
        {
            "type": "note_on",
            "note": 39,
            "velocity": 80,
            "time": 23357
        },
        {
            "type": "note_on",
            "note": 58,
            "velocity": 57,
            "time": 23359
        },
        {
            "type": "note_on",
            "note": 67,
            "velocity": 65,
            "time": 23375
        },
        {
            "type": "note_on",
            "note": 63,
            "velocity": 48,
            "time": 23382
        },
        {
            "type": "note_on",
            "note": 62,
            "velocity": 67,
            "time": 23385
        },
        {
            "type": "note_off",
            "note": 51,
            "velocity": 87,
            "time": 23432
        },
        {
            "type": "note_off",
            "note": 67,
            "velocity": 96,
            "time": 23438
        },
        {
            "type": "note_off",
            "note": 62,
            "velocity": 111,
            "time": 23444
        },
        {
            "type": "note_off",
            "note": 63,
            "velocity": 96,
            "time": 23460
        },
        {
            "type": "note_off",
            "note": 58,
            "velocity": 63,
            "time": 23466
        },
        {
            "type": "note_off",
            "note": 39,
            "velocity": 87,
            "time": 23487
        },
        {
            "type": "note_on",
            "note": 56,
            "velocity": 53,
            "time": 24124
        },
        {
            "type": "note_on",
            "note": 38,
            "velocity": 64,
            "time": 24132
        },
        {
            "type": "note_on",
            "note": 50,
            "velocity": 53,
            "time": 24132
        },
        {
            "type": "note_on",
            "note": 65,
            "velocity": 51,
            "time": 24134
        },
        {
            "type": "note_on",
            "note": 62,
            "velocity": 64,
            "time": 24139
        },
        {
            "type": "note_on",
            "note": 60,
            "velocity": 64,
            "time": 24151
        },
        {
            "type": "note_off",
            "note": 50,
            "velocity": 74,
            "time": 24816
        },
        {
            "type": "note_off",
            "note": 38,
            "velocity": 86,
            "time": 24823
        },
        {
            "type": "note_off",
            "note": 60,
            "velocity": 87,
            "time": 24865
        },
        {
            "type": "note_off",
            "note": 56,
            "velocity": 74,
            "time": 24902
        },
        {
            "type": "note_off",
            "note": 62,
            "velocity": 60,
            "time": 25051
        },
        {
            "type": "note_off",
            "note": 65,
            "velocity": 41,
            "time": 25068
        },
        {
            "type": "note_on",
            "note": 55,
            "velocity": 54,
            "time": 25422
        },
        {
            "type": "note_on",
            "note": 59,
            "velocity": 70,
            "time": 25434
        },
        {
            "type": "note_on",
            "note": 65,
            "velocity": 54,
            "time": 25434
        },
        {
            "type": "note_on",
            "note": 62,
            "velocity": 69,
            "time": 25436
        },
        {
            "type": "note_on",
            "note": 50,
            "velocity": 54,
            "time": 25451
        },
        {
            "type": "note_on",
            "note": 43,
            "velocity": 51,
            "time": 25455
        },
        {
            "type": "note_off",
            "note": 55,
            "velocity": 76,
            "time": 26004
        },
        {
            "type": "note_off",
            "note": 43,
            "velocity": 84,
            "time": 26008
        },
        {
            "type": "note_off",
            "note": 59,
            "velocity": 95,
            "time": 26026
        },
        {
            "type": "note_off",
            "note": 50,
            "velocity": 93,
            "time": 26047
        },
        {
            "type": "note_off",
            "note": 62,
            "velocity": 89,
            "time": 26050
        },
        {
            "type": "note_off",
            "note": 65,
            "velocity": 91,
            "time": 26059
        },
        {
            "type": "note_on",
            "note": 62,
            "velocity": 76,
            "time": 26798
        },
        {
            "type": "note_on",
            "note": 55,
            "velocity": 46,
            "time": 26801
        },
        {
            "type": "note_on",
            "note": 67,
            "velocity": 57,
            "time": 26801
        },
        {
            "type": "note_on",
            "note": 58,
            "velocity": 59,
            "time": 26804
        },
        {
            "type": "note_on",
            "note": 63,
            "velocity": 66,
            "time": 26817
        },
        {
            "type": "note_on",
            "note": 48,
            "velocity": 62,
            "time": 26830
        },
        {
            "type": "note_off",
            "note": 62,
            "velocity": 88,
            "time": 27823
        },
        {
            "type": "note_off",
            "note": 55,
            "velocity": 82,
            "time": 27833
        },
        {
            "type": "note_off",
            "note": 58,
            "velocity": 56,
            "time": 27868
        },
        {
            "type": "note_off",
            "note": 63,
            "velocity": 90,
            "time": 27872
        },
        {
            "type": "note_off",
            "note": 67,
            "velocity": 88,
            "time": 27878
        },
        {
            "type": "note_off",
            "note": 48,
            "velocity": 90,
            "time": 27928
        },
        {
            "type": "note_on",
            "note": 47,
            "velocity": 80,
            "time": 28990
        },
        {
            "type": "note_on",
            "note": 57,
            "velocity": 76,
            "time": 28998
        },
        {
            "type": "note_on",
            "note": 62,
            "velocity": 77,
            "time": 29001
        },
        {
            "type": "note_on",
            "note": 59,
            "velocity": 75,
            "time": 29001
        },
        {
            "type": "note_on",
            "note": 66,
            "velocity": 71,
            "time": 29002
        },
        {
            "type": "note_off",
            "note": 66,
            "velocity": 82,
            "time": 29286
        },
        {
            "type": "note_off",
            "note": 62,
            "velocity": 87,
            "time": 29298
        },
        {
            "type": "note_off",
            "note": 47,
            "velocity": 92,
            "time": 29308
        },
        {
            "type": "note_off",
            "note": 59,
            "velocity": 90,
            "time": 29317
        },
        {
            "type": "note_off",
            "note": 57,
            "velocity": 91,
            "time": 29361
        },
        {
            "type": "note_on",
            "note": 46,
            "velocity": 76,
            "time": 29478
        },
        {
            "type": "note_on",
            "note": 65,
            "velocity": 64,
            "time": 29493
        },
        {
            "type": "note_on",
            "note": 58,
            "velocity": 77,
            "time": 29494
        },
        {
            "type": "note_on",
            "note": 61,
            "velocity": 68,
            "time": 29500
        },
        {
            "type": "note_on",
            "note": 56,
            "velocity": 48,
            "time": 29509
        },
        {
            "type": "note_off",
            "note": 56,
            "velocity": 74,
            "time": 30299
        },
        {
            "type": "note_on",
            "note": 51,
            "velocity": 53,
            "time": 30316
        },
        {
            "type": "note_off",
            "note": 46,
            "velocity": 90,
            "time": 30346
        },
        {
            "type": "note_off",
            "note": 51,
            "velocity": 58,
            "time": 30448
        },
        {
            "type": "note_off",
            "note": 65,
            "velocity": 37,
            "time": 30480
        },
        {
            "type": "note_off",
            "note": 61,
            "velocity": 63,
            "time": 30489
        },
        {
            "type": "note_off",
            "note": 58,
            "velocity": 65,
            "time": 30587
        },
        {
            "type": "note_on",
            "note": 39,
            "velocity": 78,
            "time": 30801
        },
        {
            "type": "note_on",
            "note": 58,
            "velocity": 65,
            "time": 30806
        },
        {
            "type": "note_on",
            "note": 61,
            "velocity": 68,
            "time": 30811
        },
        {
            "type": "note_on",
            "note": 55,
            "velocity": 67,
            "time": 30818
        },
        {
            "type": "note_on",
            "note": 65,
            "velocity": 54,
            "time": 30826
        },
        {
            "type": "note_on",
            "note": 51,
            "velocity": 63,
            "time": 30836
        },
        {
            "type": "note_off",
            "note": 65,
            "velocity": 94,
            "time": 31683
        },
        {
            "type": "note_off",
            "note": 58,
            "velocity": 87,
            "time": 31695
        },
        {
            "type": "note_off",
            "note": 39,
            "velocity": 87,
            "time": 31709
        },
        {
            "type": "note_off",
            "note": 61,
            "velocity": 98,
            "time": 31709
        },
        {
            "type": "note_off",
            "note": 51,
            "velocity": 88,
            "time": 31792
        },
        {
            "type": "note_off",
            "note": 55,
            "velocity": 51,
            "time": 31946
        },
        {
            "type": "note_on",
            "note": 63,
            "velocity": 77,
            "time": 32104
        },
        {
            "type": "note_on",
            "note": 44,
            "velocity": 67,
            "time": 32112
        },
        {
            "type": "note_on",
            "note": 56,
            "velocity": 55,
            "time": 32112
        },
        {
            "type": "note_on",
            "note": 55,
            "velocity": 54,
            "time": 32121
        },
        {
            "type": "note_on",
            "note": 60,
            "velocity": 67,
            "time": 32130
        },
        {
            "type": "note_on",
            "note": 51,
            "velocity": 43,
            "time": 32160
        },
        {
            "type": "note_off",
            "note": 60,
            "velocity": 92,
            "time": 32940
        },
        {
            "type": "note_off",
            "note": 56,
            "velocity": 102,
            "time": 32998
        },
        {
            "type": "note_off",
            "note": 55,
            "velocity": 46,
            "time": 32999
        },
        {
            "type": "note_off",
            "note": 63,
            "velocity": 90,
            "time": 33000
        },
        {
            "type": "note_off",
            "note": 51,
            "velocity": 90,
            "time": 33045
        },
        {
            "type": "note_off",
            "note": 44,
            "velocity": 97,
            "time": 33092
        },
        {
            "type": "note_on",
            "note": 56,
            "velocity": 74,
            "time": 33485
        },
        {
            "type": "note_on",
            "note": 65,
            "velocity": 64,
            "time": 33493
        },
        {
            "type": "note_on",
            "note": 37,
            "velocity": 75,
            "time": 33494
        },
        {
            "type": "note_on",
            "note": 49,
            "velocity": 60,
            "time": 33504
        },
        {
            "type": "note_on",
            "note": 61,
            "velocity": 64,
            "time": 33506
        },
        {
            "type": "note_on",
            "note": 59,
            "velocity": 65,
            "time": 33515
        },
        {
            "type": "note_off",
            "note": 65,
            "velocity": 83,
            "time": 34116
        },
        {
            "type": "note_off",
            "note": 59,
            "velocity": 92,
            "time": 34137
        },
        {
            "type": "note_off",
            "note": 56,
            "velocity": 55,
            "time": 34159
        },
        {
            "type": "note_off",
            "note": 61,
            "velocity": 96,
            "time": 34177
        },
        {
            "type": "note_off",
            "note": 49,
            "velocity": 81,
            "time": 34185
        },
        {
            "type": "note_off",
            "note": 37,
            "velocity": 92,
            "time": 34193
        },
        {
            "type": "note_on",
            "note": 39,
            "velocity": 66,
            "time": 34804
        },
        {
            "type": "note_on",
            "note": 51,
            "velocity": 57,
            "time": 34816
        },
        {
            "type": "note_on",
            "note": 63,
            "velocity": 72,
            "time": 34820
        },
        {
            "type": "note_on",
            "note": 67,
            "velocity": 56,
            "time": 34820
        },
        {
            "type": "note_on",
            "note": 58,
            "velocity": 61,
            "time": 34822
        },
        {
            "type": "note_on",
            "note": 62,
            "velocity": 74,
            "time": 34822
        },
        {
            "type": "note_off",
            "note": 62,
            "velocity": 88,
            "time": 35591
        },
        {
            "type": "note_off",
            "note": 39,
            "velocity": 87,
            "time": 35602
        },
        {
            "type": "note_off",
            "note": 58,
            "velocity": 98,
            "time": 35677
        },
        {
            "type": "note_off",
            "note": 51,
            "velocity": 87,
            "time": 35684
        },
        {
            "type": "note_off",
            "note": 63,
            "velocity": 56,
            "time": 35712
        },
        {
            "type": "note_off",
            "note": 67,
            "velocity": 56,
            "time": 35720
        },
        {
            "type": "note_on",
            "note": 63,
            "velocity": 69,
            "time": 36112
        },
        {
            "type": "note_on",
            "note": 45,
            "velocity": 65,
            "time": 36133
        },
        {
            "type": "note_on",
            "note": 57,
            "velocity": 71,
            "time": 36136
        },
        {
            "type": "note_on",
            "note": 67,
            "velocity": 59,
            "time": 36138
        },
        {
            "type": "note_on",
            "note": 60,
            "velocity": 60,
            "time": 36155
        },
        {
            "type": "note_off",
            "note": 45,
            "velocity": 94,
            "time": 36403
        },
        {
            "type": "note_off",
            "note": 67,
            "velocity": 91,
            "time": 36433
        },
        {
            "type": "note_off",
            "note": 60,
            "velocity": 74,
            "time": 36443
        },
        {
            "type": "note_off",
            "note": 57,
            "velocity": 56,
            "time": 36449
        },
        {
            "type": "note_off",
            "note": 63,
            "velocity": 87,
            "time": 36476
        },
        {
            "type": "note_on",
            "note": 38,
            "velocity": 73,
            "time": 36790
        },
        {
            "type": "note_on",
            "note": 62,
            "velocity": 44,
            "time": 36804
        },
        {
            "type": "note_on",
            "note": 66,
            "velocity": 60,
            "time": 36807
        },
        {
            "type": "note_on",
            "note": 50,
            "velocity": 48,
            "time": 36816
        },
        {
            "type": "note_on",
            "note": 57,
            "velocity": 60,
            "time": 36819
        },
        {
            "type": "note_on",
            "note": 60,
            "velocity": 55,
            "time": 36820
        },
        {
            "type": "note_off",
            "note": 38,
            "velocity": 87,
            "time": 37025
        },
        {
            "type": "note_off",
            "note": 50,
            "velocity": 89,
            "time": 37035
        },
        {
            "type": "note_off",
            "note": 62,
            "velocity": 89,
            "time": 37042
        },
        {
            "type": "note_off",
            "note": 60,
            "velocity": 85,
            "time": 37047
        },
        {
            "type": "note_off",
            "note": 66,
            "velocity": 86,
            "time": 37060
        },
        {
            "type": "note_off",
            "note": 57,
            "velocity": 59,
            "time": 37065
        },
        {
            "type": "note_on",
            "note": 63,
            "velocity": 70,
            "time": 37447
        },
        {
            "type": "note_on",
            "note": 58,
            "velocity": 62,
            "time": 37451
        },
        {
            "type": "note_on",
            "note": 62,
            "velocity": 66,
            "time": 37452
        },
        {
            "type": "note_on",
            "note": 39,
            "velocity": 48,
            "time": 37455
        },
        {
            "type": "note_on",
            "note": 51,
            "velocity": 64,
            "time": 37456
        },
        {
            "type": "note_on",
            "note": 67,
            "velocity": 51,
            "time": 37460
        },
        {
            "type": "note_off",
            "note": 62,
            "velocity": 98,
            "time": 37522
        },
        {
            "type": "note_off",
            "note": 39,
            "velocity": 89,
            "time": 37561
        },
        {
            "type": "note_off",
            "note": 58,
            "velocity": 58,
            "time": 37584
        },
        {
            "type": "note_off",
            "note": 51,
            "velocity": 55,
            "time": 37595
        },
        {
            "type": "note_off",
            "note": 67,
            "velocity": 63,
            "time": 37609
        },
        {
            "type": "note_off",
            "note": 63,
            "velocity": 80,
            "time": 37620
        },
        {
            "type": "note_on",
            "note": 56,
            "velocity": 60,
            "time": 38098
        },
        {
            "type": "note_on",
            "note": 67,
            "velocity": 60,
            "time": 38117
        },
        {
            "type": "note_on",
            "note": 63,
            "velocity": 75,
            "time": 38120
        },
        {
            "type": "note_on",
            "note": 44,
            "velocity": 69,
            "time": 38130
        },
        {
            "type": "note_on",
            "note": 60,
            "velocity": 62,
            "time": 38138
        },
        {
            "type": "note_on",
            "note": 51,
            "velocity": 56,
            "time": 38141
        },
        {
            "type": "note_off",
            "note": 60,
            "velocity": 93,
            "time": 38214
        },
        {
            "type": "note_off",
            "note": 51,
            "velocity": 78,
            "time": 38228
        },
        {
            "type": "note_off",
            "note": 67,
            "velocity": 56,
            "time": 38233
        },
        {
            "type": "note_off",
            "note": 56,
            "velocity": 90,
            "time": 38245
        },
        {
            "type": "note_off",
            "note": 44,
            "velocity": 50,
            "time": 38263
        },
        {
            "type": "note_off",
            "note": 63,
            "velocity": 90,
            "time": 38276
        },
        {
            "type": "note_on",
            "note": 65,
            "velocity": 56,
            "time": 38801
        },
        {
            "type": "note_on",
            "note": 55,
            "velocity": 64,
            "time": 38804
        },
        {
            "type": "note_on",
            "note": 43,
            "velocity": 63,
            "time": 38808
        },
        {
            "type": "note_on",
            "note": 58,
            "velocity": 65,
            "time": 38809
        },
        {
            "type": "note_on",
            "note": 62,
            "velocity": 70,
            "time": 38821
        },
        {
            "type": "note_on",
            "note": 50,
            "velocity": 38,
            "time": 38837
        },
        {
            "type": "note_off",
            "note": 50,
            "velocity": 96,
            "time": 38914
        },
        {
            "type": "note_off",
            "note": 55,
            "velocity": 68,
            "time": 38934
        },
        {
            "type": "note_off",
            "note": 43,
            "velocity": 68,
            "time": 38934
        },
        {
            "type": "note_off",
            "note": 62,
            "velocity": 50,
            "time": 38935
        },
        {
            "type": "note_off",
            "note": 65,
            "velocity": 87,
            "time": 38941
        },
        {
            "type": "note_off",
            "note": 58,
            "velocity": 57,
            "time": 39003
        },
        {
            "type": "note_on",
            "note": 58,
            "velocity": 48,
            "time": 39482
        },
        {
            "type": "note_on",
            "note": 64,
            "velocity": 72,
            "time": 39483
        },
        {
            "type": "note_on",
            "note": 48,
            "velocity": 59,
            "time": 39496
        },
        {
            "type": "note_on",
            "note": 55,
            "velocity": 53,
            "time": 39498
        },
        {
            "type": "note_on",
            "note": 60,
            "velocity": 59,
            "time": 39509
        },
        {
            "type": "note_off",
            "note": 48,
            "velocity": 72,
            "time": 39599
        },
        {
            "type": "note_off",
            "note": 55,
            "velocity": 57,
            "time": 39629
        },
        {
            "type": "note_off",
            "note": 60,
            "velocity": 61,
            "time": 39638
        },
        {
            "type": "note_off",
            "note": 58,
            "velocity": 64,
            "time": 39650
        },
        {
            "type": "note_off",
            "note": 64,
            "velocity": 77,
            "time": 39675
        },
        {
            "type": "note_on",
            "note": 63,
            "velocity": 69,
            "time": 40149
        },
        {
            "type": "note_on",
            "note": 51,
            "velocity": 67,
            "time": 40158
        },
        {
            "type": "note_on",
            "note": 60,
            "velocity": 58,
            "time": 40169
        },
        {
            "type": "note_on",
            "note": 56,
            "velocity": 46,
            "time": 40170
        },
        {
            "type": "note_on",
            "note": 41,
            "velocity": 54,
            "time": 40181
        },
        {
            "type": "note_on",
            "note": 55,
            "velocity": 37,
            "time": 40182
        },
        {
            "type": "note_off",
            "note": 41,
            "velocity": 94,
            "time": 40263
        },
        {
            "type": "note_off",
            "note": 51,
            "velocity": 60,
            "time": 40263
        },
        {
            "type": "note_off",
            "note": 56,
            "velocity": 79,
            "time": 40264
        },
        {
            "type": "note_off",
            "note": 55,
            "velocity": 83,
            "time": 40278
        },
        {
            "type": "note_off",
            "note": 63,
            "velocity": 62,
            "time": 40297
        },
        {
            "type": "note_off",
            "note": 60,
            "velocity": 83,
            "time": 40311
        },
        {
            "type": "note_on",
            "note": 56,
            "velocity": 57,
            "time": 40799
        },
        {
            "type": "note_on",
            "note": 53,
            "velocity": 65,
            "time": 40801
        },
        {
            "type": "note_on",
            "note": 46,
            "velocity": 75,
            "time": 40803
        },
        {
            "type": "note_on",
            "note": 62,
            "velocity": 72,
            "time": 40805
        },
        {
            "type": "note_on",
            "note": 58,
            "velocity": 68,
            "time": 40805
        },
        {
            "type": "note_off",
            "note": 53,
            "velocity": 97,
            "time": 40914
        },
        {
            "type": "note_off",
            "note": 58,
            "velocity": 55,
            "time": 40932
        },
        {
            "type": "note_off",
            "note": 56,
            "velocity": 85,
            "time": 40943
        },
        {
            "type": "note_off",
            "note": 62,
            "velocity": 79,
            "time": 40945
        },
        {
            "type": "note_off",
            "note": 46,
            "velocity": 95,
            "time": 40949
        },
        {
            "type": "note_on",
            "note": 63,
            "velocity": 83,
            "time": 41485
        },
        {
            "type": "note_on",
            "note": 51,
            "velocity": 70,
            "time": 41489
        },
        {
            "type": "note_on",
            "note": 58,
            "velocity": 75,
            "time": 41491
        },
        {
            "type": "note_on",
            "note": 55,
            "velocity": 62,
            "time": 41497
        },
        {
            "type": "note_on",
            "note": 39,
            "velocity": 64,
            "time": 41499
        },
        {
            "type": "note_off",
            "note": 55,
            "velocity": 89,
            "time": 41576
        },
        {
            "type": "note_off",
            "note": 58,
            "velocity": 68,
            "time": 41576
        },
        {
            "type": "note_off",
            "note": 39,
            "velocity": 67,
            "time": 41608
        },
        {
            "type": "note_off",
            "note": 51,
            "velocity": 78,
            "time": 41620
        },
        {
            "type": "note_off",
            "note": 63,
            "velocity": 78,
            "time": 41622
        },
        {
            "type": "note_on",
            "note": 39,
            "velocity": 84,
            "time": 41989
        },
        {
            "type": "note_on",
            "note": 63,
            "velocity": 92,
            "time": 41990
        },
        {
            "type": "note_on",
            "note": 51,
            "velocity": 71,
            "time": 41997
        },
        {
            "type": "note_on",
            "note": 55,
            "velocity": 66,
            "time": 42000
        },
        {
            "type": "note_on",
            "note": 58,
            "velocity": 81,
            "time": 42003
        },
        {
            "type": "note_off",
            "note": 55,
            "velocity": 74,
            "time": 42303
        },
        {
            "type": "note_off",
            "note": 51,
            "velocity": 87,
            "time": 42343
        },
        {
            "type": "note_off",
            "note": 58,
            "velocity": 92,
            "time": 42365
        },
        {
            "type": "note_off",
            "note": 63,
            "velocity": 82,
            "time": 42383
        },
        {
            "type": "note_off",
            "note": 39,
            "velocity": 87,
            "time": 42392
        }
    ],
    "notes": [],
    "volumeBacktrack": 1.0,
    "additional_latency": 0
}