{
    "bass": 72,
    "type": "major",
    "backtrack": "/home/pi/raspiKeys/res/backtracks/processed_wav/140-4-hihat 4.wav",
    "backtrackDuration": 1.6983447074890137,
    "nbOfLoops": 2,
    "chord_notes": [
        {
            "type": "note_on",
            "note": 72,
            "velocity": 70,
            "time": 0
        },
        {
            "type": "note_off",
            "note": 72,
            "velocity": 90,
            "time": 182
        },
        {
            "type": "note_on",
            "note": 79,
            "velocity": 67,
            "time": 1273
        },
        {
            "type": "note_off",
            "note": 79,
            "velocity": 47,
            "time": 1583
        },
        {
            "type": "note_on",
            "note": 84,
            "velocity": 51,
            "time": 1775
        },
        {
            "type": "note_off",
            "note": 84,
            "velocity": 54,
            "time": 1978
        },
        {
            "type": "note_on",
            "note": 72,
            "velocity": 58,
            "time": 2053
        },
        {
            "type": "note_off",
            "note": 72,
            "velocity": 87,
            "time": 2257
        }
    ],
    "notes": [
        {
            "type": "note_on",
            "note": 72,
            "velocity": 70,
            "time": 995
        },
        {
            "type": "note_on",
            "note": 75,
            "velocity": 69,
            "time": 1273
        },
        {
            "type": "note_off",
            "note": 72,
            "velocity": 83,
            "time": 1298
        },
        {
            "type": "note_off",
            "note": 75,
            "velocity": 94,
            "time": 1432
        },
        {
            "type": "note_on",
            "note": 79,
            "velocity": 68,
            "time": 1454
        },
        {
            "type": "note_off",
            "note": 79,
            "velocity": 71,
            "time": 1682
        },
        {
            "type": "note_on",
            "note": 84,
            "velocity": 73,
            "time": 1707
        },
        {
            "type": "note_off",
            "note": 84,
            "velocity": 76,
            "time": 1941
        },
        {
            "type": "note_on",
            "note": 79,
            "velocity": 63,
            "time": 2127
        },
        {
            "type": "note_off",
            "note": 79,
            "velocity": 50,
            "time": 2365
        },
        {
            "type": "note_on",
            "note": 75,
            "velocity": 69,
            "time": 2499
        },
        {
            "type": "note_off",
            "note": 75,
            "velocity": 89,
            "time": 2614
        },
        {
            "type": "note_on",
            "note": 72,
            "velocity": 55,
            "time": 2846
        },
        {
            "type": "note_off",
            "note": 72,
            "velocity": 97,
            "time": 2962
        }
    ],
    "volumeBacktrack": 0.796875,
    "additional_latency": 0
}