{
    "bass": 67,
    "type": "minor",
    "backtrack": "/home/pi/raspiKeys/res/backtracks/processed_wav/Fill Loop_02 120 BPM (snare).wav",
    "backtrackDuration": 4.0,
    "nbOfLoops": 1,
    "chord_notes": [
        {
            "type": "note_on",
            "note": 67,
            "velocity": 51,
            "time": 0
        },
        {
            "type": "note_on",
            "note": 79,
            "velocity": 53,
            "time": 8
        },
        {
            "type": "note_on",
            "note": 74,
            "velocity": 47,
            "time": 58
        },
        {
            "type": "note_off",
            "note": 74,
            "velocity": 82,
            "time": 827
        },
        {
            "type": "note_off",
            "note": 67,
            "velocity": 90,
            "time": 874
        },
        {
            "type": "note_off",
            "note": 79,
            "velocity": 92,
            "time": 890
        },
        {
            "type": "note_on",
            "note": 75,
            "velocity": 70,
            "time": 1278
        },
        {
            "type": "note_on",
            "note": 71,
            "velocity": 67,
            "time": 1286
        },
        {
            "type": "note_on",
            "note": 80,
            "velocity": 52,
            "time": 1289
        },
        {
            "type": "note_on",
            "note": 68,
            "velocity": 56,
            "time": 1293
        },
        {
            "type": "note_off",
            "note": 71,
            "velocity": 79,
            "time": 1840
        },
        {
            "type": "note_off",
            "note": 75,
            "velocity": 90,
            "time": 1911
        },
        {
            "type": "note_off",
            "note": 68,
            "velocity": 88,
            "time": 1915
        },
        {
            "type": "note_off",
            "note": 80,
            "velocity": 70,
            "time": 1957
        },
        {
            "type": "note_on",
            "note": 79,
            "velocity": 46,
            "time": 2071
        },
        {
            "type": "note_on",
            "note": 67,
            "velocity": 46,
            "time": 2078
        },
        {
            "type": "note_on",
            "note": 74,
            "velocity": 58,
            "time": 2083
        },
        {
            "type": "note_on",
            "note": 70,
            "velocity": 68,
            "time": 2088
        },
        {
            "type": "note_off",
            "note": 67,
            "velocity": 66,
            "time": 3014
        },
        {
            "type": "note_off",
            "note": 74,
            "velocity": 74,
            "time": 3056
        },
        {
            "type": "note_off",
            "note": 79,
            "velocity": 76,
            "time": 3057
        },
        {
            "type": "note_off",
            "note": 70,
            "velocity": 77,
            "time": 3070
        },
        {
            "type": "note_on",
            "note": 67,
            "velocity": 60,
            "time": 3288
        },
        {
            "type": "note_on",
            "note": 79,
            "velocity": 53,
            "time": 3292
        },
        {
            "type": "note_on",
            "note": 70,
            "velocity": 58,
            "time": 3306
        },
        {
            "type": "note_on",
            "note": 74,
            "velocity": 58,
            "time": 3325
        },
        {
            "type": "note_off",
            "note": 79,
            "velocity": 81,
            "time": 3491
        },
        {
            "type": "note_off",
            "note": 67,
            "velocity": 81,
            "time": 3515
        },
        {
            "type": "note_off",
            "note": 74,
            "velocity": 74,
            "time": 3521
        },
        {
            "type": "note_off",
            "note": 70,
            "velocity": 69,
            "time": 3560
        }
    ],
    "notes": [
        {
            "type": "note_on",
            "note": 74,
            "velocity": 61,
            "time": 296
        },
        {
            "type": "note_off",
            "note": 74,
            "velocity": 76,
            "time": 516
        },
        {
            "type": "note_on",
            "note": 72,
            "velocity": 82,
            "time": 583
        },
        {
            "type": "note_off",
            "note": 72,
            "velocity": 78,
            "time": 783
        },
        {
            "type": "note_on",
            "note": 70,
            "velocity": 76,
            "time": 859
        },
        {
            "type": "note_off",
            "note": 70,
            "velocity": 78,
            "time": 1263
        },
        {
            "type": "note_on",
            "note": 67,
            "velocity": 67,
            "time": 1293
        },
        {
            "type": "note_off",
            "note": 67,
            "velocity": 77,
            "time": 1538
        },
        {
            "type": "note_on",
            "note": 70,
            "velocity": 74,
            "time": 1545
        },
        {
            "type": "note_off",
            "note": 70,
            "velocity": 69,
            "time": 1778
        },
        {
            "type": "note_on",
            "note": 74,
            "velocity": 72,
            "time": 1812
        },
        {
            "type": "note_on",
            "note": 79,
            "velocity": 76,
            "time": 2035
        },
        {
            "type": "note_off",
            "note": 74,
            "velocity": 83,
            "time": 2037
        },
        {
            "type": "note_off",
            "note": 79,
            "velocity": 86,
            "time": 2488
        },
        {
            "type": "note_on",
            "note": 74,
            "velocity": 80,
            "time": 2594
        },
        {
            "type": "note_on",
            "note": 70,
            "velocity": 82,
            "time": 2857
        },
        {
            "type": "note_off",
            "note": 74,
            "velocity": 87,
            "time": 2860
        },
        {
            "type": "note_off",
            "note": 70,
            "velocity": 78,
            "time": 3434
        }
    ],
    "volumeBacktrack": 0.796875,
    "additional_latency": 0
}