{
    "bass": 42,
    "type": "major",
    "backtrack": "/home/pi/raspiKeys/res/backtracks/processed_wav/Groove Loop_02 56 BPM.wav",
    "backtrackDuration": 4.336961269378662,
    "nbOfLoops": 4,
    "chord_notes": [
        {
            "type": "note_on",
            "note": 61,
            "velocity": 48,
            "time": 0
        },
        {
            "type": "note_on",
            "note": 54,
            "velocity": 49,
            "time": 9
        },
        {
            "type": "note_on",
            "note": 42,
            "velocity": 50,
            "time": 13
        },
        {
            "type": "note_on",
            "note": 65,
            "velocity": 48,
            "time": 16
        },
        {
            "type": "note_on",
            "note": 58,
            "velocity": 45,
            "time": 18
        },
        {
            "type": "note_off",
            "note": 54,
            "velocity": 87,
            "time": 1028
        },
        {
            "type": "note_off",
            "note": 65,
            "velocity": 87,
            "time": 1028
        },
        {
            "type": "note_off",
            "note": 58,
            "velocity": 83,
            "time": 1033
        },
        {
            "type": "note_off",
            "note": 61,
            "velocity": 86,
            "time": 1033
        },
        {
            "type": "note_off",
            "note": 42,
            "velocity": 80,
            "time": 1045
        },
        {
            "type": "note_on",
            "note": 54,
            "velocity": 67,
            "time": 1133
        },
        {
            "type": "note_on",
            "note": 65,
            "velocity": 57,
            "time": 1137
        },
        {
            "type": "note_on",
            "note": 61,
            "velocity": 39,
            "time": 1148
        },
        {
            "type": "note_on",
            "note": 42,
            "velocity": 53,
            "time": 1155
        },
        {
            "type": "note_on",
            "note": 58,
            "velocity": 39,
            "time": 1158
        },
        {
            "type": "note_off",
            "note": 42,
            "velocity": 91,
            "time": 1243
        },
        {
            "type": "note_off",
            "note": 61,
            "velocity": 69,
            "time": 1251
        },
        {
            "type": "note_off",
            "note": 58,
            "velocity": 76,
            "time": 1254
        },
        {
            "type": "note_off",
            "note": 54,
            "velocity": 90,
            "time": 1273
        },
        {
            "type": "note_off",
            "note": 65,
            "velocity": 51,
            "time": 1290
        },
        {
            "type": "note_on",
            "note": 42,
            "velocity": 38,
            "time": 3100
        },
        {
            "type": "note_on",
            "note": 58,
            "velocity": 62,
            "time": 3112
        },
        {
            "type": "note_on",
            "note": 61,
            "velocity": 35,
            "time": 3123
        },
        {
            "type": "note_on",
            "note": 54,
            "velocity": 40,
            "time": 3126
        },
        {
            "type": "note_on",
            "note": 65,
            "velocity": 34,
            "time": 3129
        },
        {
            "type": "note_off",
            "note": 65,
            "velocity": 80,
            "time": 3508
        },
        {
            "type": "note_off",
            "note": 54,
            "velocity": 73,
            "time": 3517
        },
        {
            "type": "note_off",
            "note": 42,
            "velocity": 83,
            "time": 3523
        },
        {
            "type": "note_off",
            "note": 58,
            "velocity": 60,
            "time": 3553
        },
        {
            "type": "note_off",
            "note": 61,
            "velocity": 62,
            "time": 3576
        },
        {
            "type": "note_on",
            "note": 42,
            "velocity": 67,
            "time": 3628
        },
        {
            "type": "note_on",
            "note": 54,
            "velocity": 49,
            "time": 3658
        },
        {
            "type": "note_on",
            "note": 65,
            "velocity": 38,
            "time": 3671
        },
        {
            "type": "note_on",
            "note": 58,
            "velocity": 55,
            "time": 3681
        },
        {
            "type": "note_on",
            "note": 61,
            "velocity": 40,
            "time": 3700
        },
        {
            "type": "note_off",
            "note": 42,
            "velocity": 87,
            "time": 3772
        },
        {
            "type": "note_off",
            "note": 54,
            "velocity": 90,
            "time": 3801
        },
        {
            "type": "note_off",
            "note": 58,
            "velocity": 53,
            "time": 3809
        },
        {
            "type": "note_off",
            "note": 61,
            "velocity": 55,
            "time": 3817
        },
        {
            "type": "note_off",
            "note": 65,
            "velocity": 86,
            "time": 3842
        },
        {
            "type": "note_on",
            "note": 66,
            "velocity": 47,
            "time": 4413
        },
        {
            "type": "note_on",
            "note": 63,
            "velocity": 55,
            "time": 4418
        },
        {
            "type": "note_on",
            "note": 47,
            "velocity": 54,
            "time": 4440
        },
        {
            "type": "note_on",
            "note": 57,
            "velocity": 31,
            "time": 4441
        },
        {
            "type": "note_on",
            "note": 59,
            "velocity": 34,
            "time": 4475
        },
        {
            "type": "note_on",
            "note": 54,
            "velocity": 33,
            "time": 4493
        },
        {
            "type": "note_off",
            "note": 54,
            "velocity": 64,
            "time": 5174
        },
        {
            "type": "note_off",
            "note": 57,
            "velocity": 72,
            "time": 5320
        },
        {
            "type": "note_off",
            "note": 59,
            "velocity": 82,
            "time": 5323
        },
        {
            "type": "note_off",
            "note": 66,
            "velocity": 82,
            "time": 5323
        },
        {
            "type": "note_off",
            "note": 47,
            "velocity": 84,
            "time": 5330
        },
        {
            "type": "note_off",
            "note": 63,
            "velocity": 72,
            "time": 5337
        },
        {
            "type": "note_on",
            "note": 54,
            "velocity": 68,
            "time": 5458
        },
        {
            "type": "note_on",
            "note": 57,
            "velocity": 41,
            "time": 5475
        },
        {
            "type": "note_on",
            "note": 63,
            "velocity": 37,
            "time": 5477
        },
        {
            "type": "note_on",
            "note": 66,
            "velocity": 35,
            "time": 5481
        },
        {
            "type": "note_on",
            "note": 59,
            "velocity": 33,
            "time": 5486
        },
        {
            "type": "note_on",
            "note": 47,
            "velocity": 34,
            "time": 5498
        },
        {
            "type": "note_off",
            "note": 54,
            "velocity": 56,
            "time": 5598
        },
        {
            "type": "note_off",
            "note": 63,
            "velocity": 65,
            "time": 5611
        },
        {
            "type": "note_off",
            "note": 59,
            "velocity": 74,
            "time": 5624
        },
        {
            "type": "note_off",
            "note": 47,
            "velocity": 52,
            "time": 5634
        },
        {
            "type": "note_off",
            "note": 66,
            "velocity": 56,
            "time": 5637
        },
        {
            "type": "note_off",
            "note": 57,
            "velocity": 67,
            "time": 5641
        },
        {
            "type": "note_on",
            "note": 54,
            "velocity": 52,
            "time": 7451
        },
        {
            "type": "note_on",
            "note": 63,
            "velocity": 43,
            "time": 7456
        },
        {
            "type": "note_on",
            "note": 66,
            "velocity": 39,
            "time": 7461
        },
        {
            "type": "note_on",
            "note": 57,
            "velocity": 34,
            "time": 7463
        },
        {
            "type": "note_on",
            "note": 47,
            "velocity": 41,
            "time": 7479
        },
        {
            "type": "note_on",
            "note": 59,
            "velocity": 36,
            "time": 7502
        },
        {
            "type": "note_on",
            "note": 61,
            "velocity": 47,
            "time": 8600
        },
        {
            "type": "note_on",
            "note": 42,
            "velocity": 48,
            "time": 8617
        },
        {
            "type": "note_on",
            "note": 57,
            "velocity": 32,
            "time": 8630
        },
        {
            "type": "note_on",
            "note": 54,
            "velocity": 35,
            "time": 8660
        },
        {
            "type": "note_on",
            "note": 64,
            "velocity": 33,
            "time": 8671
        },
        {
            "type": "note_on",
            "note": 68,
            "velocity": 55,
            "time": 8710
        },
        {
            "type": "note_on",
            "note": 42,
            "velocity": 40,
            "time": 9752
        },
        {
            "type": "note_on",
            "note": 61,
            "velocity": 13,
            "time": 9786
        },
        {
            "type": "note_on",
            "note": 68,
            "velocity": 51,
            "time": 9793
        },
        {
            "type": "note_on",
            "note": 57,
            "velocity": 32,
            "time": 9805
        },
        {
            "type": "note_on",
            "note": 54,
            "velocity": 1,
            "time": 9811
        },
        {
            "type": "note_on",
            "note": 42,
            "velocity": 36,
            "time": 11776
        },
        {
            "type": "note_on",
            "note": 54,
            "velocity": 51,
            "time": 11780
        },
        {
            "type": "note_on",
            "note": 68,
            "velocity": 1,
            "time": 11795
        },
        {
            "type": "note_on",
            "note": 61,
            "velocity": 35,
            "time": 11802
        },
        {
            "type": "note_on",
            "note": 57,
            "velocity": 30,
            "time": 11867
        },
        {
            "type": "note_on",
            "note": 57,
            "velocity": 21,
            "time": 13014
        },
        {
            "type": "note_on",
            "note": 66,
            "velocity": 39,
            "time": 13024
        },
        {
            "type": "note_on",
            "note": 38,
            "velocity": 37,
            "time": 13026
        },
        {
            "type": "note_on",
            "note": 62,
            "velocity": 37,
            "time": 13030
        },
        {
            "type": "note_on",
            "note": 50,
            "velocity": 33,
            "time": 13057
        },
        {
            "type": "note_on",
            "note": 38,
            "velocity": 46,
            "time": 14126
        },
        {
            "type": "note_on",
            "note": 66,
            "velocity": 38,
            "time": 14140
        },
        {
            "type": "note_on",
            "note": 62,
            "velocity": 41,
            "time": 14159
        },
        {
            "type": "note_on",
            "note": 50,
            "velocity": 42,
            "time": 14165
        },
        {
            "type": "note_on",
            "note": 57,
            "velocity": 8,
            "time": 14197
        },
        {
            "type": "note_on",
            "note": 57,
            "velocity": 52,
            "time": 16126
        },
        {
            "type": "note_on",
            "note": 38,
            "velocity": 46,
            "time": 16132
        },
        {
            "type": "note_on",
            "note": 66,
            "velocity": 43,
            "time": 16133
        },
        {
            "type": "note_on",
            "note": 60,
            "velocity": 45,
            "time": 16165
        },
        {
            "type": "note_on",
            "note": 50,
            "velocity": 43,
            "time": 16167
        },
        {
            "type": "note_on",
            "note": 62,
            "velocity": 59,
            "time": 16168
        },
        {
            "type": "note_off",
            "note": 66,
            "velocity": 86,
            "time": 16974
        }
    ],
    "notes": [],
    "volumeBacktrack": 1.0,
    "additional_latency": 0
}