{
    "bass": 48,
    "type": "major",
    "backtrack": "/home/pi/raspiKeys/res/backtracks/processed_wav/ZG HH whicker chair n pipe 105.wav",
    "backtrackDuration": 4.570952415466309,
    "nbOfLoops": 2,
    "chord_notes": [
        {
            "type": "note_on",
            "note": 64,
            "velocity": 60,
            "time": 0
        },
        {
            "type": "note_on",
            "note": 48,
            "velocity": 51,
            "time": 10
        },
        {
            "type": "note_on",
            "note": 67,
            "velocity": 53,
            "time": 23
        },
        {
            "type": "note_on",
            "note": 60,
            "velocity": 40,
            "time": 23
        },
        {
            "type": "note_on",
            "note": 59,
            "velocity": 51,
            "time": 30
        },
        {
            "type": "note_off",
            "note": 48,
            "velocity": 93,
            "time": 751
        },
        {
            "type": "note_off",
            "note": 59,
            "velocity": 63,
            "time": 756
        },
        {
            "type": "note_off",
            "note": 60,
            "velocity": 72,
            "time": 797
        },
        {
            "type": "note_off",
            "note": 64,
            "velocity": 49,
            "time": 975
        },
        {
            "type": "note_off",
            "note": 67,
            "velocity": 17,
            "time": 1100
        },
        {
            "type": "note_on",
            "note": 64,
            "velocity": 33,
            "time": 1221
        },
        {
            "type": "note_on",
            "note": 67,
            "velocity": 42,
            "time": 1230
        },
        {
            "type": "note_on",
            "note": 60,
            "velocity": 33,
            "time": 1240
        },
        {
            "type": "note_on",
            "note": 45,
            "velocity": 34,
            "time": 1247
        },
        {
            "type": "note_off",
            "note": 67,
            "velocity": 71,
            "time": 2074
        },
        {
            "type": "note_on",
            "note": 62,
            "velocity": 33,
            "time": 2088
        },
        {
            "type": "note_off",
            "note": 64,
            "velocity": 66,
            "time": 2186
        },
        {
            "type": "note_off",
            "note": 45,
            "velocity": 95,
            "time": 2261
        },
        {
            "type": "note_on",
            "note": 65,
            "velocity": 52,
            "time": 2370
        },
        {
            "type": "note_on",
            "note": 50,
            "velocity": 47,
            "time": 2374
        },
        {
            "type": "note_on",
            "note": 57,
            "velocity": 14,
            "time": 2417
        },
        {
            "type": "note_off",
            "note": 60,
            "velocity": 67,
            "time": 2965
        },
        {
            "type": "note_off",
            "note": 57,
            "velocity": 60,
            "time": 3270
        },
        {
            "type": "note_off",
            "note": 50,
            "velocity": 67,
            "time": 3463
        },
        {
            "type": "note_on",
            "note": 43,
            "velocity": 50,
            "time": 3535
        },
        {
            "type": "note_on",
            "note": 59,
            "velocity": 56,
            "time": 3536
        },
        {
            "type": "note_on",
            "note": 65,
            "velocity": 26,
            "time": 3537
        },
        {
            "type": "note_on",
            "note": 55,
            "velocity": 35,
            "time": 3582
        },
        {
            "type": "note_on",
            "note": 62,
            "velocity": 1,
            "time": 3615
        },
        {
            "type": "note_off",
            "note": 55,
            "velocity": 44,
            "time": 4339
        },
        {
            "type": "note_off",
            "note": 59,
            "velocity": 86,
            "time": 4403
        },
        {
            "type": "note_off",
            "note": 65,
            "velocity": 86,
            "time": 4454
        },
        {
            "type": "note_off",
            "note": 65,
            "velocity": 86,
            "time": 4455
        },
        {
            "type": "note_on",
            "note": 64,
            "velocity": 32,
            "time": 4502
        },
        {
            "type": "note_off",
            "note": 62,
            "velocity": 27,
            "time": 4595
        },
        {
            "type": "note_off",
            "note": 62,
            "velocity": 27,
            "time": 4596
        },
        {
            "type": "note_off",
            "note": 43,
            "velocity": 97,
            "time": 4636
        },
        {
            "type": "note_on",
            "note": 48,
            "velocity": 51,
            "time": 4676
        },
        {
            "type": "note_on",
            "note": 67,
            "velocity": 56,
            "time": 4689
        },
        {
            "type": "note_on",
            "note": 59,
            "velocity": 39,
            "time": 4713
        },
        {
            "type": "note_on",
            "note": 60,
            "velocity": 26,
            "time": 4751
        },
        {
            "type": "note_off",
            "note": 59,
            "velocity": 53,
            "time": 5440
        },
        {
            "type": "note_off",
            "note": 67,
            "velocity": 72,
            "time": 5644
        },
        {
            "type": "note_off",
            "note": 48,
            "velocity": 80,
            "time": 5762
        },
        {
            "type": "note_on",
            "note": 45,
            "velocity": 63,
            "time": 5769
        },
        {
            "type": "note_on",
            "note": 64,
            "velocity": 25,
            "time": 5770
        },
        {
            "type": "note_on",
            "note": 67,
            "velocity": 56,
            "time": 5775
        },
        {
            "type": "note_on",
            "note": 57,
            "velocity": 41,
            "time": 5788
        },
        {
            "type": "note_off",
            "note": 67,
            "velocity": 75,
            "time": 6684
        },
        {
            "type": "note_off",
            "note": 64,
            "velocity": 79,
            "time": 6772
        },
        {
            "type": "note_off",
            "note": 64,
            "velocity": 79,
            "time": 6773
        },
        {
            "type": "note_off",
            "note": 57,
            "velocity": 44,
            "time": 6825
        },
        {
            "type": "note_off",
            "note": 45,
            "velocity": 88,
            "time": 6899
        },
        {
            "type": "note_on",
            "note": 57,
            "velocity": 29,
            "time": 6932
        },
        {
            "type": "note_on",
            "note": 65,
            "velocity": 42,
            "time": 6932
        },
        {
            "type": "note_on",
            "note": 50,
            "velocity": 37,
            "time": 6951
        },
        {
            "type": "note_off",
            "note": 60,
            "velocity": 64,
            "time": 7479
        },
        {
            "type": "note_off",
            "note": 57,
            "velocity": 73,
            "time": 7551
        },
        {
            "type": "note_off",
            "note": 50,
            "velocity": 90,
            "time": 7989
        },
        {
            "type": "note_on",
            "note": 62,
            "velocity": 32,
            "time": 7998
        },
        {
            "type": "note_on",
            "note": 65,
            "velocity": 25,
            "time": 8001
        },
        {
            "type": "note_on",
            "note": 43,
            "velocity": 50,
            "time": 8021
        },
        {
            "type": "note_on",
            "note": 59,
            "velocity": 49,
            "time": 8023
        },
        {
            "type": "note_on",
            "note": 55,
            "velocity": 33,
            "time": 8046
        },
        {
            "type": "note_off",
            "note": 59,
            "velocity": 87,
            "time": 8957
        },
        {
            "type": "note_off",
            "note": 55,
            "velocity": 76,
            "time": 8959
        },
        {
            "type": "note_off",
            "note": 43,
            "velocity": 94,
            "time": 8979
        },
        {
            "type": "note_off",
            "note": 62,
            "velocity": 86,
            "time": 8981
        },
        {
            "type": "note_off",
            "note": 65,
            "velocity": 90,
            "time": 9043
        },
        {
            "type": "note_off",
            "note": 65,
            "velocity": 90,
            "time": 9044
        }
    ],
    "notes": [],
    "volumeBacktrack": 1.0,
    "additional_latency": 0
}