{
    "bass": 55,
    "type": "major",
    "backtrack": "/home/pi/raspiKeys/res/backtracks/processed_wav/royayers-theboogieback-94.4bpm.wav",
    "backtrackDuration": 5.087891101837158,
    "nbOfLoops": 8,
    "chord_notes": [
        {
            "type": "note_on",
            "note": 61,
            "velocity": 33,
            "time": 0
        },
        {
            "type": "note_on",
            "note": 57,
            "velocity": 37,
            "time": 7
        },
        {
            "type": "note_on",
            "note": 64,
            "velocity": 34,
            "time": 11
        },
        {
            "type": "note_on",
            "note": 54,
            "velocity": 34,
            "time": 44
        },
        {
            "type": "note_off",
            "note": 64,
            "velocity": 89,
            "time": 2092
        },
        {
            "type": "note_off",
            "note": 61,
            "velocity": 97,
            "time": 2105
        },
        {
            "type": "note_off",
            "note": 54,
            "velocity": 50,
            "time": 2298
        },
        {
            "type": "note_off",
            "note": 57,
            "velocity": 18,
            "time": 2338
        },
        {
            "type": "note_on",
            "note": 63,
            "velocity": 39,
            "time": 2589
        },
        {
            "type": "note_on",
            "note": 54,
            "velocity": 39,
            "time": 2638
        },
        {
            "type": "note_on",
            "note": 59,
            "velocity": 45,
            "time": 2648
        },
        {
            "type": "note_on",
            "note": 57,
            "velocity": 32,
            "time": 2680
        },
        {
            "type": "note_off",
            "note": 59,
            "velocity": 83,
            "time": 4400
        },
        {
            "type": "note_off",
            "note": 57,
            "velocity": 85,
            "time": 4429
        },
        {
            "type": "note_off",
            "note": 54,
            "velocity": 89,
            "time": 4484
        },
        {
            "type": "note_off",
            "note": 63,
            "velocity": 84,
            "time": 4540
        },
        {
            "type": "note_on",
            "note": 62,
            "velocity": 32,
            "time": 5192
        },
        {
            "type": "note_on",
            "note": 55,
            "velocity": 33,
            "time": 5210
        },
        {
            "type": "note_on",
            "note": 52,
            "velocity": 37,
            "time": 5210
        },
        {
            "type": "note_on",
            "note": 59,
            "velocity": 33,
            "time": 5227
        },
        {
            "type": "note_off",
            "note": 62,
            "velocity": 77,
            "time": 7060
        },
        {
            "type": "note_off",
            "note": 59,
            "velocity": 89,
            "time": 7101
        },
        {
            "type": "note_off",
            "note": 55,
            "velocity": 44,
            "time": 7227
        },
        {
            "type": "note_off",
            "note": 52,
            "velocity": 54,
            "time": 7353
        },
        {
            "type": "note_on",
            "note": 61,
            "velocity": 34,
            "time": 7740
        },
        {
            "type": "note_on",
            "note": 57,
            "velocity": 41,
            "time": 7758
        },
        {
            "type": "note_on",
            "note": 52,
            "velocity": 39,
            "time": 7769
        },
        {
            "type": "note_off",
            "note": 61,
            "velocity": 94,
            "time": 9437
        },
        {
            "type": "note_off",
            "note": 57,
            "velocity": 63,
            "time": 9514
        },
        {
            "type": "note_off",
            "note": 52,
            "velocity": 48,
            "time": 9583
        },
        {
            "type": "note_on",
            "note": 52,
            "velocity": 35,
            "time": 10266
        },
        {
            "type": "note_on",
            "note": 60,
            "velocity": 35,
            "time": 10270
        },
        {
            "type": "note_on",
            "note": 57,
            "velocity": 37,
            "time": 10288
        },
        {
            "type": "note_on",
            "note": 55,
            "velocity": 35,
            "time": 10302
        },
        {
            "type": "note_off",
            "note": 57,
            "velocity": 87,
            "time": 11825
        },
        {
            "type": "note_off",
            "note": 55,
            "velocity": 81,
            "time": 11845
        },
        {
            "type": "note_off",
            "note": 52,
            "velocity": 90,
            "time": 11896
        },
        {
            "type": "note_off",
            "note": 60,
            "velocity": 82,
            "time": 11967
        },
        {
            "type": "note_on",
            "note": 54,
            "velocity": 39,
            "time": 12801
        },
        {
            "type": "note_on",
            "note": 50,
            "velocity": 40,
            "time": 12819
        },
        {
            "type": "note_on",
            "note": 60,
            "velocity": 35,
            "time": 12821
        },
        {
            "type": "note_on",
            "note": 57,
            "velocity": 36,
            "time": 12827
        },
        {
            "type": "note_off",
            "note": 57,
            "velocity": 90,
            "time": 14345
        },
        {
            "type": "note_off",
            "note": 54,
            "velocity": 89,
            "time": 14398
        },
        {
            "type": "note_off",
            "note": 50,
            "velocity": 90,
            "time": 14410
        },
        {
            "type": "note_off",
            "note": 60,
            "velocity": 60,
            "time": 14426
        },
        {
            "type": "note_on",
            "note": 55,
            "velocity": 52,
            "time": 15292
        },
        {
            "type": "note_on",
            "note": 59,
            "velocity": 54,
            "time": 15321
        },
        {
            "type": "note_on",
            "note": 66,
            "velocity": 26,
            "time": 15329
        },
        {
            "type": "note_on",
            "note": 62,
            "velocity": 38,
            "time": 15354
        },
        {
            "type": "note_off",
            "note": 62,
            "velocity": 88,
            "time": 17057
        },
        {
            "type": "note_off",
            "note": 66,
            "velocity": 86,
            "time": 17161
        },
        {
            "type": "note_off",
            "note": 59,
            "velocity": 52,
            "time": 17237
        },
        {
            "type": "note_off",
            "note": 55,
            "velocity": 56,
            "time": 17296
        },
        {
            "type": "note_on",
            "note": 64,
            "velocity": 33,
            "time": 17890
        },
        {
            "type": "note_on",
            "note": 55,
            "velocity": 40,
            "time": 17891
        },
        {
            "type": "note_on",
            "note": 59,
            "velocity": 49,
            "time": 17898
        },
        {
            "type": "note_on",
            "note": 60,
            "velocity": 46,
            "time": 17901
        },
        {
            "type": "note_off",
            "note": 59,
            "velocity": 48,
            "time": 19529
        },
        {
            "type": "note_off",
            "note": 55,
            "velocity": 87,
            "time": 19642
        },
        {
            "type": "note_off",
            "note": 60,
            "velocity": 45,
            "time": 19740
        },
        {
            "type": "note_off",
            "note": 64,
            "velocity": 72,
            "time": 19776
        },
        {
            "type": "note_on",
            "note": 64,
            "velocity": 36,
            "time": 20455
        },
        {
            "type": "note_on",
            "note": 54,
            "velocity": 34,
            "time": 20464
        },
        {
            "type": "note_on",
            "note": 60,
            "velocity": 34,
            "time": 20486
        },
        {
            "type": "note_on",
            "note": 57,
            "velocity": 47,
            "time": 20494
        },
        {
            "type": "note_off",
            "note": 60,
            "velocity": 52,
            "time": 22334
        },
        {
            "type": "note_off",
            "note": 64,
            "velocity": 58,
            "time": 22350
        },
        {
            "type": "note_off",
            "note": 57,
            "velocity": 33,
            "time": 22540
        },
        {
            "type": "note_off",
            "note": 54,
            "velocity": 55,
            "time": 22544
        },
        {
            "type": "note_on",
            "note": 54,
            "velocity": 37,
            "time": 22955
        },
        {
            "type": "note_on",
            "note": 63,
            "velocity": 36,
            "time": 22975
        },
        {
            "type": "note_on",
            "note": 59,
            "velocity": 54,
            "time": 22987
        },
        {
            "type": "note_on",
            "note": 57,
            "velocity": 38,
            "time": 23007
        },
        {
            "type": "note_off",
            "note": 59,
            "velocity": 84,
            "time": 24677
        },
        {
            "type": "note_off",
            "note": 57,
            "velocity": 81,
            "time": 24689
        },
        {
            "type": "note_off",
            "note": 54,
            "velocity": 92,
            "time": 24751
        },
        {
            "type": "note_off",
            "note": 63,
            "velocity": 88,
            "time": 24851
        },
        {
            "type": "note_on",
            "note": 59,
            "velocity": 41,
            "time": 25524
        },
        {
            "type": "note_on",
            "note": 52,
            "velocity": 31,
            "time": 25554
        },
        {
            "type": "note_on",
            "note": 55,
            "velocity": 39,
            "time": 25558
        },
        {
            "type": "note_on",
            "note": 62,
            "velocity": 31,
            "time": 25565
        },
        {
            "type": "note_off",
            "note": 52,
            "velocity": 90,
            "time": 27250
        },
        {
            "type": "note_off",
            "note": 62,
            "velocity": 74,
            "time": 27313
        },
        {
            "type": "note_off",
            "note": 55,
            "velocity": 62,
            "time": 27324
        },
        {
            "type": "note_off",
            "note": 59,
            "velocity": 79,
            "time": 27335
        },
        {
            "type": "note_on",
            "note": 50,
            "velocity": 40,
            "time": 28063
        },
        {
            "type": "note_on",
            "note": 62,
            "velocity": 33,
            "time": 28085
        },
        {
            "type": "note_on",
            "note": 55,
            "velocity": 37,
            "time": 28095
        },
        {
            "type": "note_on",
            "note": 59,
            "velocity": 41,
            "time": 28098
        },
        {
            "type": "note_off",
            "note": 62,
            "velocity": 70,
            "time": 29606
        },
        {
            "type": "note_off",
            "note": 59,
            "velocity": 91,
            "time": 29636
        },
        {
            "type": "note_off",
            "note": 55,
            "velocity": 66,
            "time": 29678
        },
        {
            "type": "note_off",
            "note": 50,
            "velocity": 92,
            "time": 29681
        },
        {
            "type": "note_on",
            "note": 59,
            "velocity": 35,
            "time": 30606
        },
        {
            "type": "note_on",
            "note": 49,
            "velocity": 47,
            "time": 30614
        },
        {
            "type": "note_on",
            "note": 55,
            "velocity": 37,
            "time": 30632
        },
        {
            "type": "note_on",
            "note": 52,
            "velocity": 41,
            "time": 30652
        },
        {
            "type": "note_off",
            "note": 55,
            "velocity": 58,
            "time": 32364
        },
        {
            "type": "note_off",
            "note": 59,
            "velocity": 74,
            "time": 32390
        },
        {
            "type": "note_off",
            "note": 52,
            "velocity": 44,
            "time": 32535
        },
        {
            "type": "note_off",
            "note": 49,
            "velocity": 30,
            "time": 32669
        },
        {
            "type": "note_on",
            "note": 54,
            "velocity": 47,
            "time": 33120
        },
        {
            "type": "note_on",
            "note": 58,
            "velocity": 30,
            "time": 33122
        },
        {
            "type": "note_on",
            "note": 49,
            "velocity": 31,
            "time": 33141
        },
        {
            "type": "note_on",
            "note": 52,
            "velocity": 48,
            "time": 33146
        },
        {
            "type": "note_off",
            "note": 52,
            "velocity": 87,
            "time": 34681
        },
        {
            "type": "note_off",
            "note": 54,
            "velocity": 87,
            "time": 34685
        },
        {
            "type": "note_off",
            "note": 49,
            "velocity": 86,
            "time": 34708
        },
        {
            "type": "note_off",
            "note": 58,
            "velocity": 93,
            "time": 34742
        },
        {
            "type": "note_on",
            "note": 64,
            "velocity": 36,
            "time": 35668
        },
        {
            "type": "note_on",
            "note": 57,
            "velocity": 50,
            "time": 35670
        },
        {
            "type": "note_on",
            "note": 54,
            "velocity": 40,
            "time": 35671
        },
        {
            "type": "note_on",
            "note": 60,
            "velocity": 46,
            "time": 35696
        },
        {
            "type": "note_off",
            "note": 60,
            "velocity": 84,
            "time": 37526
        },
        {
            "type": "note_off",
            "note": 64,
            "velocity": 82,
            "time": 37589
        },
        {
            "type": "note_off",
            "note": 54,
            "velocity": 84,
            "time": 37654
        },
        {
            "type": "note_off",
            "note": 57,
            "velocity": 69,
            "time": 37698
        },
        {
            "type": "note_on",
            "note": 63,
            "velocity": 39,
            "time": 38219
        },
        {
            "type": "note_on",
            "note": 54,
            "velocity": 46,
            "time": 38238
        },
        {
            "type": "note_on",
            "note": 59,
            "velocity": 49,
            "time": 38241
        },
        {
            "type": "note_on",
            "note": 57,
            "velocity": 38,
            "time": 38271
        },
        {
            "type": "note_off",
            "note": 59,
            "velocity": 77,
            "time": 40212
        },
        {
            "type": "note_off",
            "note": 57,
            "velocity": 81,
            "time": 40231
        },
        {
            "type": "note_off",
            "note": 63,
            "velocity": 88,
            "time": 40237
        },
        {
            "type": "note_off",
            "note": 54,
            "velocity": 87,
            "time": 40334
        }
    ],
    "notes": [],
    "volumeBacktrack": 1.0,
    "additional_latency": 0
}