{
    "bass": 48,
    "type": "minor",
    "backtrack": "/home/pi/raspiKeys/res/backtracks/processed_wav/52.wav",
    "backtrackDuration": 6.0,
    "nbOfLoops": 1,
    "chord_notes": [
        {
            "type": "note_on",
            "note": 63,
            "velocity": 62,
            "time": 0
        },
        {
            "type": "note_on",
            "note": 55,
            "velocity": 54,
            "time": 6
        },
        {
            "type": "note_on",
            "note": 60,
            "velocity": 48,
            "time": 12
        },
        {
            "type": "note_on",
            "note": 70,
            "velocity": 44,
            "time": 21
        },
        {
            "type": "note_on",
            "note": 74,
            "velocity": 44,
            "time": 24
        },
        {
            "type": "note_on",
            "note": 48,
            "velocity": 35,
            "time": 27
        },
        {
            "type": "note_off",
            "note": 70,
            "velocity": 84,
            "time": 2023
        },
        {
            "type": "note_off",
            "note": 48,
            "velocity": 77,
            "time": 2037
        },
        {
            "type": "note_off",
            "note": 63,
            "velocity": 73,
            "time": 2039
        },
        {
            "type": "note_off",
            "note": 74,
            "velocity": 79,
            "time": 2041
        },
        {
            "type": "note_off",
            "note": 60,
            "velocity": 64,
            "time": 2045
        },
        {
            "type": "note_off",
            "note": 55,
            "velocity": 85,
            "time": 2064
        },
        {
            "type": "note_on",
            "note": 63,
            "velocity": 61,
            "time": 3042
        },
        {
            "type": "note_on",
            "note": 55,
            "velocity": 46,
            "time": 3059
        },
        {
            "type": "note_on",
            "note": 74,
            "velocity": 42,
            "time": 3063
        },
        {
            "type": "note_on",
            "note": 70,
            "velocity": 35,
            "time": 3066
        },
        {
            "type": "note_on",
            "note": 48,
            "velocity": 39,
            "time": 3067
        },
        {
            "type": "note_on",
            "note": 60,
            "velocity": 40,
            "time": 3069
        },
        {
            "type": "note_off",
            "note": 48,
            "velocity": 65,
            "time": 3151
        },
        {
            "type": "note_off",
            "note": 74,
            "velocity": 87,
            "time": 3151
        },
        {
            "type": "note_off",
            "note": 63,
            "velocity": 65,
            "time": 3156
        },
        {
            "type": "note_off",
            "note": 70,
            "velocity": 96,
            "time": 3158
        },
        {
            "type": "note_off",
            "note": 55,
            "velocity": 79,
            "time": 3160
        },
        {
            "type": "note_off",
            "note": 60,
            "velocity": 91,
            "time": 3165
        },
        {
            "type": "note_on",
            "note": 63,
            "velocity": 41,
            "time": 4164
        },
        {
            "type": "note_on",
            "note": 60,
            "velocity": 37,
            "time": 4166
        },
        {
            "type": "note_on",
            "note": 74,
            "velocity": 50,
            "time": 4167
        },
        {
            "type": "note_on",
            "note": 55,
            "velocity": 45,
            "time": 4170
        },
        {
            "type": "note_on",
            "note": 48,
            "velocity": 48,
            "time": 4173
        },
        {
            "type": "note_on",
            "note": 70,
            "velocity": 46,
            "time": 4185
        },
        {
            "type": "note_off",
            "note": 63,
            "velocity": 87,
            "time": 5810
        },
        {
            "type": "note_off",
            "note": 74,
            "velocity": 85,
            "time": 5812
        },
        {
            "type": "note_off",
            "note": 60,
            "velocity": 86,
            "time": 5815
        },
        {
            "type": "note_off",
            "note": 55,
            "velocity": 90,
            "time": 5816
        },
        {
            "type": "note_off",
            "note": 70,
            "velocity": 86,
            "time": 5818
        },
        {
            "type": "note_off",
            "note": 48,
            "velocity": 83,
            "time": 5827
        }
    ],
    "notes": [],
    "volumeBacktrack": 1.0,
    "additional_latency": 0
}