{
    "bass": 53,
    "type": "minor",
    "backtrack": "/home/pi/raspiKeys/res/backtracks/processed_wav/Blue Mitchell - Daydream(1).wav",
    "backtrackDuration": 5.059591770172119,
    "nbOfLoops": 9,
    "chord_notes": [
        {
            "type": "note_on",
            "note": 68,
            "velocity": 68,
            "time": 0
        },
        {
            "type": "note_on",
            "note": 65,
            "velocity": 47,
            "time": 10
        },
        {
            "type": "note_on",
            "note": 63,
            "velocity": 35,
            "time": 36
        },
        {
            "type": "note_on",
            "note": 53,
            "velocity": 41,
            "time": 49
        },
        {
            "type": "note_off",
            "note": 68,
            "velocity": 88,
            "time": 720
        },
        {
            "type": "note_off",
            "note": 63,
            "velocity": 80,
            "time": 727
        },
        {
            "type": "note_off",
            "note": 53,
            "velocity": 81,
            "time": 787
        },
        {
            "type": "note_off",
            "note": 65,
            "velocity": 47,
            "time": 1066
        },
        {
            "type": "note_on",
            "note": 65,
            "velocity": 43,
            "time": 1281
        },
        {
            "type": "note_on",
            "note": 68,
            "velocity": 44,
            "time": 1294
        },
        {
            "type": "note_on",
            "note": 70,
            "velocity": 53,
            "time": 1324
        },
        {
            "type": "note_on",
            "note": 46,
            "velocity": 40,
            "time": 1328
        },
        {
            "type": "note_on",
            "note": 58,
            "velocity": 31,
            "time": 1329
        },
        {
            "type": "note_on",
            "note": 73,
            "velocity": 45,
            "time": 1330
        },
        {
            "type": "note_off",
            "note": 73,
            "velocity": 76,
            "time": 1985
        },
        {
            "type": "note_off",
            "note": 46,
            "velocity": 92,
            "time": 2009
        },
        {
            "type": "note_off",
            "note": 70,
            "velocity": 73,
            "time": 2021
        },
        {
            "type": "note_off",
            "note": 68,
            "velocity": 65,
            "time": 2046
        },
        {
            "type": "note_off",
            "note": 65,
            "velocity": 88,
            "time": 2052
        },
        {
            "type": "note_off",
            "note": 58,
            "velocity": 80,
            "time": 2065
        },
        {
            "type": "note_on",
            "note": 63,
            "velocity": 45,
            "time": 2606
        },
        {
            "type": "note_on",
            "note": 70,
            "velocity": 56,
            "time": 2611
        },
        {
            "type": "note_on",
            "note": 67,
            "velocity": 49,
            "time": 2614
        },
        {
            "type": "note_on",
            "note": 55,
            "velocity": 38,
            "time": 2623
        },
        {
            "type": "note_on",
            "note": 51,
            "velocity": 43,
            "time": 2641
        },
        {
            "type": "note_on",
            "note": 58,
            "velocity": 31,
            "time": 2652
        },
        {
            "type": "note_off",
            "note": 58,
            "velocity": 55,
            "time": 3340
        },
        {
            "type": "note_off",
            "note": 55,
            "velocity": 83,
            "time": 3344
        },
        {
            "type": "note_off",
            "note": 67,
            "velocity": 74,
            "time": 3346
        },
        {
            "type": "note_off",
            "note": 70,
            "velocity": 74,
            "time": 3353
        },
        {
            "type": "note_off",
            "note": 51,
            "velocity": 91,
            "time": 3436
        },
        {
            "type": "note_off",
            "note": 63,
            "velocity": 62,
            "time": 3465
        },
        {
            "type": "note_on",
            "note": 63,
            "velocity": 44,
            "time": 3900
        },
        {
            "type": "note_on",
            "note": 44,
            "velocity": 38,
            "time": 3919
        },
        {
            "type": "note_on",
            "note": 68,
            "velocity": 49,
            "time": 3922
        },
        {
            "type": "note_on",
            "note": 67,
            "velocity": 47,
            "time": 3925
        },
        {
            "type": "note_on",
            "note": 56,
            "velocity": 34,
            "time": 3928
        },
        {
            "type": "note_on",
            "note": 72,
            "velocity": 41,
            "time": 3955
        },
        {
            "type": "note_off",
            "note": 67,
            "velocity": 79,
            "time": 4399
        },
        {
            "type": "note_off",
            "note": 44,
            "velocity": 96,
            "time": 4469
        },
        {
            "type": "note_off",
            "note": 56,
            "velocity": 88,
            "time": 4534
        },
        {
            "type": "note_off",
            "note": 68,
            "velocity": 47,
            "time": 4606
        },
        {
            "type": "note_off",
            "note": 63,
            "velocity": 57,
            "time": 4614
        },
        {
            "type": "note_off",
            "note": 72,
            "velocity": 71,
            "time": 4620
        },
        {
            "type": "note_on",
            "note": 68,
            "velocity": 56,
            "time": 5083
        },
        {
            "type": "note_on",
            "note": 61,
            "velocity": 37,
            "time": 5112
        },
        {
            "type": "note_on",
            "note": 49,
            "velocity": 44,
            "time": 5122
        },
        {
            "type": "note_on",
            "note": 56,
            "velocity": 36,
            "time": 5129
        },
        {
            "type": "note_on",
            "note": 65,
            "velocity": 39,
            "time": 5132
        },
        {
            "type": "note_on",
            "note": 53,
            "velocity": 40,
            "time": 5135
        },
        {
            "type": "note_off",
            "note": 53,
            "velocity": 66,
            "time": 5832
        },
        {
            "type": "note_off",
            "note": 56,
            "velocity": 55,
            "time": 5840
        },
        {
            "type": "note_off",
            "note": 65,
            "velocity": 58,
            "time": 5853
        },
        {
            "type": "note_off",
            "note": 61,
            "velocity": 95,
            "time": 5896
        },
        {
            "type": "note_off",
            "note": 68,
            "velocity": 83,
            "time": 5896
        },
        {
            "type": "note_off",
            "note": 49,
            "velocity": 58,
            "time": 6020
        },
        {
            "type": "note_on",
            "note": 62,
            "velocity": 37,
            "time": 6360
        },
        {
            "type": "note_on",
            "note": 55,
            "velocity": 43,
            "time": 6372
        },
        {
            "type": "note_on",
            "note": 71,
            "velocity": 41,
            "time": 6379
        },
        {
            "type": "note_on",
            "note": 67,
            "velocity": 40,
            "time": 6379
        },
        {
            "type": "note_on",
            "note": 65,
            "velocity": 42,
            "time": 6387
        },
        {
            "type": "note_off",
            "note": 65,
            "velocity": 82,
            "time": 7060
        },
        {
            "type": "note_off",
            "note": 62,
            "velocity": 79,
            "time": 7108
        },
        {
            "type": "note_off",
            "note": 55,
            "velocity": 86,
            "time": 7123
        },
        {
            "type": "note_off",
            "note": 71,
            "velocity": 52,
            "time": 7222
        },
        {
            "type": "note_off",
            "note": 67,
            "velocity": 39,
            "time": 7286
        },
        {
            "type": "note_on",
            "note": 71,
            "velocity": 43,
            "time": 7655
        },
        {
            "type": "note_on",
            "note": 64,
            "velocity": 47,
            "time": 7663
        },
        {
            "type": "note_on",
            "note": 67,
            "velocity": 42,
            "time": 7667
        },
        {
            "type": "note_on",
            "note": 60,
            "velocity": 32,
            "time": 7671
        },
        {
            "type": "note_on",
            "note": 48,
            "velocity": 40,
            "time": 7675
        },
        {
            "type": "note_off",
            "note": 67,
            "velocity": 79,
            "time": 9260
        },
        {
            "type": "note_off",
            "note": 60,
            "velocity": 49,
            "time": 9266
        },
        {
            "type": "note_off",
            "note": 71,
            "velocity": 83,
            "time": 9288
        },
        {
            "type": "note_off",
            "note": 64,
            "velocity": 82,
            "time": 9289
        },
        {
            "type": "note_off",
            "note": 48,
            "velocity": 76,
            "time": 9320
        },
        {
            "type": "note_on",
            "note": 63,
            "velocity": 43,
            "time": 10160
        },
        {
            "type": "note_on",
            "note": 70,
            "velocity": 47,
            "time": 10199
        },
        {
            "type": "note_on",
            "note": 67,
            "velocity": 41,
            "time": 10206
        },
        {
            "type": "note_on",
            "note": 58,
            "velocity": 30,
            "time": 10207
        },
        {
            "type": "note_on",
            "note": 48,
            "velocity": 36,
            "time": 10218
        },
        {
            "type": "note_off",
            "note": 67,
            "velocity": 87,
            "time": 10952
        },
        {
            "type": "note_off",
            "note": 58,
            "velocity": 58,
            "time": 10961
        },
        {
            "type": "note_off",
            "note": 70,
            "velocity": 72,
            "time": 10973
        },
        {
            "type": "note_off",
            "note": 48,
            "velocity": 58,
            "time": 11025
        },
        {
            "type": "note_off",
            "note": 63,
            "velocity": 52,
            "time": 11087
        },
        {
            "type": "note_on",
            "note": 63,
            "velocity": 40,
            "time": 11423
        },
        {
            "type": "note_on",
            "note": 68,
            "velocity": 51,
            "time": 11429
        },
        {
            "type": "note_on",
            "note": 53,
            "velocity": 48,
            "time": 11437
        },
        {
            "type": "note_on",
            "note": 60,
            "velocity": 36,
            "time": 11449
        },
        {
            "type": "note_on",
            "note": 65,
            "velocity": 29,
            "time": 11464
        },
        {
            "type": "note_off",
            "note": 63,
            "velocity": 84,
            "time": 12230
        },
        {
            "type": "note_off",
            "note": 53,
            "velocity": 84,
            "time": 12269
        },
        {
            "type": "note_off",
            "note": 68,
            "velocity": 64,
            "time": 12277
        },
        {
            "type": "note_off",
            "note": 65,
            "velocity": 28,
            "time": 12395
        },
        {
            "type": "note_off",
            "note": 60,
            "velocity": 53,
            "time": 12416
        },
        {
            "type": "note_on",
            "note": 46,
            "velocity": 52,
            "time": 12720
        },
        {
            "type": "note_on",
            "note": 62,
            "velocity": 43,
            "time": 12752
        },
        {
            "type": "note_on",
            "note": 65,
            "velocity": 35,
            "time": 12776
        },
        {
            "type": "note_on",
            "note": 60,
            "velocity": 35,
            "time": 12796
        },
        {
            "type": "note_off",
            "note": 46,
            "velocity": 95,
            "time": 13509
        },
        {
            "type": "note_off",
            "note": 60,
            "velocity": 56,
            "time": 13565
        },
        {
            "type": "note_off",
            "note": 62,
            "velocity": 81,
            "time": 13575
        },
        {
            "type": "note_off",
            "note": 65,
            "velocity": 58,
            "time": 13802
        },
        {
            "type": "note_on",
            "note": 63,
            "velocity": 37,
            "time": 14025
        },
        {
            "type": "note_on",
            "note": 51,
            "velocity": 45,
            "time": 14026
        },
        {
            "type": "note_on",
            "note": 62,
            "velocity": 44,
            "time": 14026
        },
        {
            "type": "note_on",
            "note": 70,
            "velocity": 51,
            "time": 14038
        },
        {
            "type": "note_on",
            "note": 67,
            "velocity": 42,
            "time": 14064
        },
        {
            "type": "note_off",
            "note": 62,
            "velocity": 50,
            "time": 14755
        },
        {
            "type": "note_off",
            "note": 51,
            "velocity": 82,
            "time": 14792
        },
        {
            "type": "note_off",
            "note": 63,
            "velocity": 53,
            "time": 14812
        },
        {
            "type": "note_off",
            "note": 70,
            "velocity": 71,
            "time": 14824
        },
        {
            "type": "note_off",
            "note": 67,
            "velocity": 58,
            "time": 14875
        },
        {
            "type": "note_on",
            "note": 63,
            "velocity": 44,
            "time": 15215
        },
        {
            "type": "note_on",
            "note": 67,
            "velocity": 54,
            "time": 15236
        },
        {
            "type": "note_on",
            "note": 60,
            "velocity": 31,
            "time": 15244
        },
        {
            "type": "note_on",
            "note": 56,
            "velocity": 42,
            "time": 15252
        },
        {
            "type": "note_off",
            "note": 60,
            "velocity": 68,
            "time": 16146
        },
        {
            "type": "note_off",
            "note": 67,
            "velocity": 88,
            "time": 16148
        },
        {
            "type": "note_off",
            "note": 63,
            "velocity": 78,
            "time": 16165
        },
        {
            "type": "note_off",
            "note": 56,
            "velocity": 47,
            "time": 16170
        },
        {
            "type": "note_on",
            "note": 67,
            "velocity": 60,
            "time": 16841
        },
        {
            "type": "note_on",
            "note": 57,
            "velocity": 59,
            "time": 16868
        },
        {
            "type": "note_on",
            "note": 65,
            "velocity": 33,
            "time": 16888
        },
        {
            "type": "note_off",
            "note": 57,
            "velocity": 64,
            "time": 16977
        },
        {
            "type": "note_off",
            "note": 65,
            "velocity": 62,
            "time": 17015
        },
        {
            "type": "note_off",
            "note": 67,
            "velocity": 63,
            "time": 17088
        },
        {
            "type": "note_on",
            "note": 63,
            "velocity": 63,
            "time": 17346
        },
        {
            "type": "note_on",
            "note": 67,
            "velocity": 47,
            "time": 17354
        },
        {
            "type": "note_on",
            "note": 60,
            "velocity": 34,
            "time": 17362
        },
        {
            "type": "note_on",
            "note": 50,
            "velocity": 35,
            "time": 17386
        },
        {
            "type": "note_off",
            "note": 67,
            "velocity": 81,
            "time": 17475
        },
        {
            "type": "note_off",
            "note": 63,
            "velocity": 78,
            "time": 17507
        },
        {
            "type": "note_off",
            "note": 60,
            "velocity": 36,
            "time": 17509
        },
        {
            "type": "note_off",
            "note": 50,
            "velocity": 80,
            "time": 17516
        },
        {
            "type": "note_on",
            "note": 55,
            "velocity": 36,
            "time": 17854
        },
        {
            "type": "note_on",
            "note": 62,
            "velocity": 30,
            "time": 17931
        },
        {
            "type": "note_on",
            "note": 67,
            "velocity": 34,
            "time": 17936
        },
        {
            "type": "note_on",
            "note": 66,
            "velocity": 33,
            "time": 17945
        },
        {
            "type": "note_on",
            "note": 71,
            "velocity": 3,
            "time": 17949
        },
        {
            "type": "note_off",
            "note": 66,
            "velocity": 86,
            "time": 19622
        },
        {
            "type": "note_off",
            "note": 67,
            "velocity": 88,
            "time": 19623
        },
        {
            "type": "note_off",
            "note": 62,
            "velocity": 83,
            "time": 19642
        },
        {
            "type": "note_off",
            "note": 55,
            "velocity": 84,
            "time": 19671
        },
        {
            "type": "note_off",
            "note": 71,
            "velocity": 87,
            "time": 19671
        },
        {
            "type": "note_on",
            "note": 57,
            "velocity": 62,
            "time": 20262
        },
        {
            "type": "note_on",
            "note": 74,
            "velocity": 45,
            "time": 20273
        },
        {
            "type": "note_on",
            "note": 64,
            "velocity": 37,
            "time": 20281
        },
        {
            "type": "note_on",
            "note": 67,
            "velocity": 37,
            "time": 20288
        },
        {
            "type": "note_on",
            "note": 71,
            "velocity": 47,
            "time": 20292
        },
        {
            "type": "note_off",
            "note": 74,
            "velocity": 90,
            "time": 20997
        },
        {
            "type": "note_off",
            "note": 67,
            "velocity": 88,
            "time": 20999
        },
        {
            "type": "note_off",
            "note": 64,
            "velocity": 79,
            "time": 21038
        },
        {
            "type": "note_off",
            "note": 71,
            "velocity": 85,
            "time": 21047
        },
        {
            "type": "note_off",
            "note": 57,
            "velocity": 76,
            "time": 21054
        },
        {
            "type": "note_on",
            "note": 72,
            "velocity": 36,
            "time": 21543
        },
        {
            "type": "note_on",
            "note": 66,
            "velocity": 34,
            "time": 21548
        },
        {
            "type": "note_on",
            "note": 69,
            "velocity": 42,
            "time": 21576
        },
        {
            "type": "note_on",
            "note": 62,
            "velocity": 27,
            "time": 21580
        },
        {
            "type": "note_on",
            "note": 50,
            "velocity": 30,
            "time": 21588
        },
        {
            "type": "note_off",
            "note": 69,
            "velocity": 87,
            "time": 22230
        },
        {
            "type": "note_off",
            "note": 66,
            "velocity": 76,
            "time": 22289
        },
        {
            "type": "note_off",
            "note": 72,
            "velocity": 88,
            "time": 22297
        },
        {
            "type": "note_off",
            "note": 62,
            "velocity": 63,
            "time": 22386
        },
        {
            "type": "note_off",
            "note": 50,
            "velocity": 93,
            "time": 22469
        },
        {
            "type": "note_on",
            "note": 71,
            "velocity": 35,
            "time": 22824
        },
        {
            "type": "note_on",
            "note": 62,
            "velocity": 33,
            "time": 22827
        },
        {
            "type": "note_on",
            "note": 67,
            "velocity": 37,
            "time": 22828
        },
        {
            "type": "note_on",
            "note": 66,
            "velocity": 45,
            "time": 22839
        },
        {
            "type": "note_on",
            "note": 55,
            "velocity": 33,
            "time": 22848
        },
        {
            "type": "note_off",
            "note": 62,
            "velocity": 49,
            "time": 24366
        },
        {
            "type": "note_off",
            "note": 71,
            "velocity": 71,
            "time": 24370
        },
        {
            "type": "note_off",
            "note": 55,
            "velocity": 87,
            "time": 24385
        },
        {
            "type": "note_off",
            "note": 67,
            "velocity": 69,
            "time": 24403
        },
        {
            "type": "note_off",
            "note": 66,
            "velocity": 53,
            "time": 24460
        },
        {
            "type": "note_on",
            "note": 66,
            "velocity": 31,
            "time": 25359
        },
        {
            "type": "note_on",
            "note": 72,
            "velocity": 46,
            "time": 25359
        },
        {
            "type": "note_on",
            "note": 54,
            "velocity": 57,
            "time": 25361
        },
        {
            "type": "note_on",
            "note": 64,
            "velocity": 51,
            "time": 25371
        },
        {
            "type": "note_on",
            "note": 69,
            "velocity": 37,
            "time": 25409
        },
        {
            "type": "note_off",
            "note": 72,
            "velocity": 81,
            "time": 25912
        },
        {
            "type": "note_off",
            "note": 64,
            "velocity": 70,
            "time": 25990
        },
        {
            "type": "note_off",
            "note": 66,
            "velocity": 56,
            "time": 26078
        },
        {
            "type": "note_off",
            "note": 69,
            "velocity": 23,
            "time": 26243
        },
        {
            "type": "note_off",
            "note": 54,
            "velocity": 37,
            "time": 26326
        },
        {
            "type": "note_on",
            "note": 59,
            "velocity": 54,
            "time": 26622
        },
        {
            "type": "note_on",
            "note": 63,
            "velocity": 36,
            "time": 26631
        },
        {
            "type": "note_on",
            "note": 66,
            "velocity": 34,
            "time": 26638
        },
        {
            "type": "note_on",
            "note": 71,
            "velocity": 41,
            "time": 26656
        },
        {
            "type": "note_on",
            "note": 69,
            "velocity": 41,
            "time": 26666
        },
        {
            "type": "note_off",
            "note": 69,
            "velocity": 83,
            "time": 27143
        },
        {
            "type": "note_off",
            "note": 66,
            "velocity": 70,
            "time": 27161
        },
        {
            "type": "note_off",
            "note": 59,
            "velocity": 62,
            "time": 27288
        },
        {
            "type": "note_off",
            "note": 63,
            "velocity": 47,
            "time": 27581
        },
        {
            "type": "note_off",
            "note": 71,
            "velocity": 43,
            "time": 27599
        },
        {
            "type": "note_on",
            "note": 64,
            "velocity": 43,
            "time": 27884
        },
        {
            "type": "note_on",
            "note": 63,
            "velocity": 36,
            "time": 27886
        },
        {
            "type": "note_on",
            "note": 71,
            "velocity": 33,
            "time": 27898
        },
        {
            "type": "note_on",
            "note": 68,
            "velocity": 50,
            "time": 27909
        },
        {
            "type": "note_on",
            "note": 52,
            "velocity": 40,
            "time": 27928
        },
        {
            "type": "note_off",
            "note": 64,
            "velocity": 55,
            "time": 28397
        },
        {
            "type": "note_off",
            "note": 68,
            "velocity": 59,
            "time": 28508
        },
        {
            "type": "note_off",
            "note": 63,
            "velocity": 92,
            "time": 28579
        },
        {
            "type": "note_off",
            "note": 52,
            "velocity": 90,
            "time": 28585
        },
        {
            "type": "note_off",
            "note": 71,
            "velocity": 35,
            "time": 28762
        },
        {
            "type": "note_on",
            "note": 64,
            "velocity": 38,
            "time": 29193
        },
        {
            "type": "note_on",
            "note": 68,
            "velocity": 46,
            "time": 29213
        },
        {
            "type": "note_on",
            "note": 71,
            "velocity": 43,
            "time": 29222
        },
        {
            "type": "note_on",
            "note": 48,
            "velocity": 39,
            "time": 29241
        },
        {
            "type": "note_off",
            "note": 68,
            "velocity": 89,
            "time": 29804
        },
        {
            "type": "note_off",
            "note": 71,
            "velocity": 89,
            "time": 29866
        },
        {
            "type": "note_off",
            "note": 64,
            "velocity": 75,
            "time": 29889
        },
        {
            "type": "note_off",
            "note": 48,
            "velocity": 60,
            "time": 30239
        },
        {
            "type": "note_on",
            "note": 60,
            "velocity": 34,
            "time": 30392
        },
        {
            "type": "note_on",
            "note": 68,
            "velocity": 47,
            "time": 30395
        },
        {
            "type": "note_on",
            "note": 65,
            "velocity": 34,
            "time": 30400
        },
        {
            "type": "note_on",
            "note": 53,
            "velocity": 42,
            "time": 30413
        },
        {
            "type": "note_off",
            "note": 65,
            "velocity": 90,
            "time": 31046
        },
        {
            "type": "note_off",
            "note": 60,
            "velocity": 76,
            "time": 31049
        },
        {
            "type": "note_off",
            "note": 68,
            "velocity": 87,
            "time": 31082
        },
        {
            "type": "note_off",
            "note": 53,
            "velocity": 66,
            "time": 31305
        },
        {
            "type": "note_on",
            "note": 65,
            "velocity": 34,
            "time": 31665
        },
        {
            "type": "note_on",
            "note": 73,
            "velocity": 43,
            "time": 31674
        },
        {
            "type": "note_on",
            "note": 68,
            "velocity": 46,
            "time": 31677
        },
        {
            "type": "note_on",
            "note": 70,
            "velocity": 42,
            "time": 31689
        },
        {
            "type": "note_on",
            "note": 46,
            "velocity": 38,
            "time": 31695
        },
        {
            "type": "note_off",
            "note": 46,
            "velocity": 90,
            "time": 32356
        },
        {
            "type": "note_off",
            "note": 73,
            "velocity": 65,
            "time": 32436
        },
        {
            "type": "note_off",
            "note": 65,
            "velocity": 81,
            "time": 32459
        },
        {
            "type": "note_off",
            "note": 68,
            "velocity": 85,
            "time": 32523
        },
        {
            "type": "note_off",
            "note": 70,
            "velocity": 45,
            "time": 32578
        },
        {
            "type": "note_on",
            "note": 70,
            "velocity": 48,
            "time": 32936
        },
        {
            "type": "note_on",
            "note": 63,
            "velocity": 36,
            "time": 32943
        },
        {
            "type": "note_on",
            "note": 58,
            "velocity": 33,
            "time": 32968
        },
        {
            "type": "note_on",
            "note": 67,
            "velocity": 40,
            "time": 32971
        },
        {
            "type": "note_on",
            "note": 51,
            "velocity": 38,
            "time": 32974
        },
        {
            "type": "note_off",
            "note": 58,
            "velocity": 87,
            "time": 33667
        },
        {
            "type": "note_off",
            "note": 51,
            "velocity": 91,
            "time": 33762
        },
        {
            "type": "note_off",
            "note": 70,
            "velocity": 72,
            "time": 33779
        },
        {
            "type": "note_off",
            "note": 63,
            "velocity": 25,
            "time": 33985
        },
        {
            "type": "note_off",
            "note": 67,
            "velocity": 12,
            "time": 33986
        },
        {
            "type": "note_on",
            "note": 63,
            "velocity": 41,
            "time": 34209
        },
        {
            "type": "note_on",
            "note": 72,
            "velocity": 44,
            "time": 34217
        },
        {
            "type": "note_on",
            "note": 44,
            "velocity": 38,
            "time": 34224
        },
        {
            "type": "note_on",
            "note": 56,
            "velocity": 39,
            "time": 34234
        },
        {
            "type": "note_on",
            "note": 67,
            "velocity": 41,
            "time": 34235
        },
        {
            "type": "note_on",
            "note": 68,
            "velocity": 53,
            "time": 34240
        },
        {
            "type": "note_off",
            "note": 67,
            "velocity": 17,
            "time": 34820
        },
        {
            "type": "note_off",
            "note": 44,
            "velocity": 95,
            "time": 34919
        },
        {
            "type": "note_off",
            "note": 56,
            "velocity": 81,
            "time": 34977
        },
        {
            "type": "note_off",
            "note": 68,
            "velocity": 44,
            "time": 35001
        },
        {
            "type": "note_off",
            "note": 63,
            "velocity": 83,
            "time": 35030
        },
        {
            "type": "note_off",
            "note": 72,
            "velocity": 58,
            "time": 35202
        },
        {
            "type": "note_on",
            "note": 49,
            "velocity": 44,
            "time": 35498
        },
        {
            "type": "note_on",
            "note": 68,
            "velocity": 43,
            "time": 35504
        },
        {
            "type": "note_on",
            "note": 72,
            "velocity": 41,
            "time": 35504
        },
        {
            "type": "note_on",
            "note": 61,
            "velocity": 25,
            "time": 35505
        },
        {
            "type": "note_on",
            "note": 65,
            "velocity": 32,
            "time": 35538
        },
        {
            "type": "note_off",
            "note": 65,
            "velocity": 61,
            "time": 36011
        },
        {
            "type": "note_off",
            "note": 61,
            "velocity": 65,
            "time": 36072
        },
        {
            "type": "note_off",
            "note": 68,
            "velocity": 87,
            "time": 36085
        },
        {
            "type": "note_off",
            "note": 72,
            "velocity": 88,
            "time": 36090
        },
        {
            "type": "note_on",
            "note": 64,
            "velocity": 39,
            "time": 36759
        },
        {
            "type": "note_on",
            "note": 59,
            "velocity": 41,
            "time": 36765
        },
        {
            "type": "note_on",
            "note": 71,
            "velocity": 41,
            "time": 36769
        },
        {
            "type": "note_on",
            "note": 75,
            "velocity": 51,
            "time": 36769
        },
        {
            "type": "note_on",
            "note": 68,
            "velocity": 47,
            "time": 36775
        },
        {
            "type": "note_off",
            "note": 71,
            "velocity": 81,
            "time": 37498
        },
        {
            "type": "note_off",
            "note": 75,
            "velocity": 86,
            "time": 37569
        },
        {
            "type": "note_off",
            "note": 68,
            "velocity": 71,
            "time": 37577
        },
        {
            "type": "note_off",
            "note": 59,
            "velocity": 64,
            "time": 37593
        },
        {
            "type": "note_off",
            "note": 64,
            "velocity": 68,
            "time": 37646
        },
        {
            "type": "note_off",
            "note": 49,
            "velocity": 46,
            "time": 37708
        },
        {
            "type": "note_on",
            "note": 48,
            "velocity": 46,
            "time": 38006
        },
        {
            "type": "note_on",
            "note": 70,
            "velocity": 45,
            "time": 38019
        },
        {
            "type": "note_on",
            "note": 58,
            "velocity": 31,
            "time": 38020
        },
        {
            "type": "note_on",
            "note": 63,
            "velocity": 37,
            "time": 38023
        },
        {
            "type": "note_on",
            "note": 67,
            "velocity": 41,
            "time": 38035
        },
        {
            "type": "note_off",
            "note": 67,
            "velocity": 84,
            "time": 38670
        },
        {
            "type": "note_off",
            "note": 70,
            "velocity": 83,
            "time": 38704
        },
        {
            "type": "note_off",
            "note": 63,
            "velocity": 92,
            "time": 38776
        },
        {
            "type": "note_off",
            "note": 48,
            "velocity": 78,
            "time": 38779
        },
        {
            "type": "note_off",
            "note": 58,
            "velocity": 79,
            "time": 38839
        },
        {
            "type": "note_on",
            "note": 68,
            "velocity": 60,
            "time": 39641
        },
        {
            "type": "note_on",
            "note": 62,
            "velocity": 41,
            "time": 39641
        },
        {
            "type": "note_on",
            "note": 65,
            "velocity": 42,
            "time": 39649
        },
        {
            "type": "note_on",
            "note": 47,
            "velocity": 39,
            "time": 39663
        },
        {
            "type": "note_on",
            "note": 56,
            "velocity": 28,
            "time": 39675
        },
        {
            "type": "note_on",
            "note": 50,
            "velocity": 43,
            "time": 39676
        },
        {
            "type": "note_off",
            "note": 62,
            "velocity": 50,
            "time": 40166
        },
        {
            "type": "note_off",
            "note": 56,
            "velocity": 77,
            "time": 40167
        },
        {
            "type": "note_off",
            "note": 47,
            "velocity": 76,
            "time": 40176
        },
        {
            "type": "note_off",
            "note": 65,
            "velocity": 92,
            "time": 40178
        },
        {
            "type": "note_off",
            "note": 68,
            "velocity": 83,
            "time": 40179
        },
        {
            "type": "note_off",
            "note": 50,
            "velocity": 76,
            "time": 40220
        },
        {
            "type": "note_on",
            "note": 46,
            "velocity": 55,
            "time": 40543
        },
        {
            "type": "note_on",
            "note": 61,
            "velocity": 49,
            "time": 40546
        },
        {
            "type": "note_on",
            "note": 68,
            "velocity": 57,
            "time": 40564
        },
        {
            "type": "note_on",
            "note": 65,
            "velocity": 44,
            "time": 40579
        },
        {
            "type": "note_off",
            "note": 65,
            "velocity": 92,
            "time": 41173
        },
        {
            "type": "note_off",
            "note": 68,
            "velocity": 89,
            "time": 41175
        },
        {
            "type": "note_off",
            "note": 46,
            "velocity": 93,
            "time": 41189
        },
        {
            "type": "note_off",
            "note": 61,
            "velocity": 62,
            "time": 41530
        },
        {
            "type": "note_on",
            "note": 67,
            "velocity": 50,
            "time": 41788
        },
        {
            "type": "note_on",
            "note": 61,
            "velocity": 39,
            "time": 41796
        },
        {
            "type": "note_on",
            "note": 63,
            "velocity": 39,
            "time": 41799
        },
        {
            "type": "note_on",
            "note": 51,
            "velocity": 49,
            "time": 41802
        },
        {
            "type": "note_on",
            "note": 58,
            "velocity": 36,
            "time": 41822
        },
        {
            "type": "note_off",
            "note": 67,
            "velocity": 88,
            "time": 42421
        },
        {
            "type": "note_off",
            "note": 63,
            "velocity": 89,
            "time": 42423
        },
        {
            "type": "note_off",
            "note": 61,
            "velocity": 77,
            "time": 42492
        },
        {
            "type": "note_off",
            "note": 58,
            "velocity": 89,
            "time": 42511
        },
        {
            "type": "note_off",
            "note": 51,
            "velocity": 91,
            "time": 42575
        },
        {
            "type": "note_on",
            "note": 44,
            "velocity": 47,
            "time": 43058
        },
        {
            "type": "note_on",
            "note": 63,
            "velocity": 39,
            "time": 43066
        },
        {
            "type": "note_on",
            "note": 72,
            "velocity": 40,
            "time": 43071
        },
        {
            "type": "note_on",
            "note": 68,
            "velocity": 53,
            "time": 43077
        },
        {
            "type": "note_on",
            "note": 67,
            "velocity": 49,
            "time": 43087
        },
        {
            "type": "note_on",
            "note": 56,
            "velocity": 38,
            "time": 43101
        },
        {
            "type": "note_off",
            "note": 56,
            "velocity": 58,
            "time": 44036
        },
        {
            "type": "note_off",
            "note": 67,
            "velocity": 68,
            "time": 44051
        },
        {
            "type": "note_off",
            "note": 72,
            "velocity": 62,
            "time": 44060
        },
        {
            "type": "note_off",
            "note": 44,
            "velocity": 75,
            "time": 44063
        },
        {
            "type": "note_off",
            "note": 68,
            "velocity": 64,
            "time": 44064
        },
        {
            "type": "note_off",
            "note": 63,
            "velocity": 63,
            "time": 44110
        },
        {
            "type": "note_on",
            "note": 63,
            "velocity": 40,
            "time": 44412
        },
        {
            "type": "note_on",
            "note": 44,
            "velocity": 53,
            "time": 44416
        },
        {
            "type": "note_on",
            "note": 68,
            "velocity": 45,
            "time": 44433
        },
        {
            "type": "note_on",
            "note": 56,
            "velocity": 37,
            "time": 44437
        },
        {
            "type": "note_on",
            "note": 72,
            "velocity": 37,
            "time": 44439
        },
        {
            "type": "note_on",
            "note": 67,
            "velocity": 34,
            "time": 44458
        },
        {
            "type": "note_off",
            "note": 56,
            "velocity": 94,
            "time": 44549
        },
        {
            "type": "note_off",
            "note": 67,
            "velocity": 77,
            "time": 44560
        },
        {
            "type": "note_off",
            "note": 68,
            "velocity": 46,
            "time": 44629
        },
        {
            "type": "note_off",
            "note": 63,
            "velocity": 60,
            "time": 44635
        },
        {
            "type": "note_off",
            "note": 44,
            "velocity": 60,
            "time": 44670
        },
        {
            "type": "note_off",
            "note": 72,
            "velocity": 60,
            "time": 44684
        }
    ],
    "notes": [],
    "volumeBacktrack": 1.0,
    "additional_latency": 0
}