{
    "bass": 48,
    "type": "major",
    "backtrack": "/home/pi/raspiKeys/res/backtracks/processed_wav/melvinbliss-syntheticsubstitution-96bpm.wav",
    "backtrackDuration": 4.998412609100342,
    "nbOfLoops": 2,
    "chord_notes": [
        {
            "type": "note_on",
            "note": 59,
            "velocity": 46,
            "time": 0
        },
        {
            "type": "note_on",
            "note": 52,
            "velocity": 60,
            "time": 19
        },
        {
            "type": "note_on",
            "note": 48,
            "velocity": 53,
            "time": 19
        },
        {
            "type": "note_on",
            "note": 55,
            "velocity": 46,
            "time": 22
        },
        {
            "type": "note_off",
            "note": 48,
            "velocity": 76,
            "time": 1640
        },
        {
            "type": "note_off",
            "note": 59,
            "velocity": 63,
            "time": 1643
        },
        {
            "type": "note_off",
            "note": 52,
            "velocity": 72,
            "time": 1653
        },
        {
            "type": "note_off",
            "note": 55,
            "velocity": 72,
            "time": 1679
        },
        {
            "type": "note_on",
            "note": 48,
            "velocity": 62,
            "time": 1929
        },
        {
            "type": "note_on",
            "note": 52,
            "velocity": 61,
            "time": 1929
        },
        {
            "type": "note_on",
            "note": 55,
            "velocity": 54,
            "time": 1931
        },
        {
            "type": "note_on",
            "note": 59,
            "velocity": 69,
            "time": 1935
        },
        {
            "type": "note_off",
            "note": 55,
            "velocity": 92,
            "time": 2009
        },
        {
            "type": "note_off",
            "note": 52,
            "velocity": 87,
            "time": 2030
        },
        {
            "type": "note_off",
            "note": 48,
            "velocity": 89,
            "time": 2069
        },
        {
            "type": "note_off",
            "note": 59,
            "velocity": 82,
            "time": 2075
        },
        {
            "type": "note_on",
            "note": 58,
            "velocity": 69,
            "time": 2566
        },
        {
            "type": "note_on",
            "note": 62,
            "velocity": 72,
            "time": 2571
        },
        {
            "type": "note_on",
            "note": 65,
            "velocity": 52,
            "time": 2578
        },
        {
            "type": "note_on",
            "note": 55,
            "velocity": 54,
            "time": 2594
        },
        {
            "type": "note_off",
            "note": 65,
            "velocity": 82,
            "time": 3235
        },
        {
            "type": "note_off",
            "note": 62,
            "velocity": 89,
            "time": 3264
        },
        {
            "type": "note_off",
            "note": 58,
            "velocity": 51,
            "time": 3311
        },
        {
            "type": "note_off",
            "note": 55,
            "velocity": 27,
            "time": 3406
        },
        {
            "type": "note_on",
            "note": 58,
            "velocity": 55,
            "time": 3829
        },
        {
            "type": "note_on",
            "note": 64,
            "velocity": 64,
            "time": 3835
        },
        {
            "type": "note_on",
            "note": 55,
            "velocity": 60,
            "time": 3837
        },
        {
            "type": "note_on",
            "note": 60,
            "velocity": 67,
            "time": 3838
        },
        {
            "type": "note_off",
            "note": 60,
            "velocity": 90,
            "time": 4338
        },
        {
            "type": "note_off",
            "note": 55,
            "velocity": 86,
            "time": 4362
        },
        {
            "type": "note_off",
            "note": 58,
            "velocity": 95,
            "time": 4363
        },
        {
            "type": "note_off",
            "note": 64,
            "velocity": 74,
            "time": 4419
        },
        {
            "type": "note_on",
            "note": 57,
            "velocity": 70,
            "time": 4760
        },
        {
            "type": "note_on",
            "note": 64,
            "velocity": 57,
            "time": 4771
        },
        {
            "type": "note_on",
            "note": 60,
            "velocity": 61,
            "time": 4781
        },
        {
            "type": "note_on",
            "note": 53,
            "velocity": 51,
            "time": 4784
        },
        {
            "type": "note_off",
            "note": 60,
            "velocity": 82,
            "time": 6638
        },
        {
            "type": "note_off",
            "note": 53,
            "velocity": 74,
            "time": 6655
        },
        {
            "type": "note_off",
            "note": 57,
            "velocity": 85,
            "time": 6670
        },
        {
            "type": "note_off",
            "note": 64,
            "velocity": 74,
            "time": 6675
        },
        {
            "type": "note_on",
            "note": 57,
            "velocity": 54,
            "time": 7563
        },
        {
            "type": "note_on",
            "note": 64,
            "velocity": 69,
            "time": 7565
        },
        {
            "type": "note_on",
            "note": 53,
            "velocity": 69,
            "time": 7570
        },
        {
            "type": "note_on",
            "note": 60,
            "velocity": 51,
            "time": 7577
        },
        {
            "type": "note_off",
            "note": 60,
            "velocity": 67,
            "time": 7692
        },
        {
            "type": "note_off",
            "note": 57,
            "velocity": 73,
            "time": 7712
        },
        {
            "type": "note_off",
            "note": 64,
            "velocity": 75,
            "time": 7714
        },
        {
            "type": "note_off",
            "note": 53,
            "velocity": 84,
            "time": 7770
        },
        {
            "type": "note_on",
            "note": 64,
            "velocity": 44,
            "time": 8540
        },
        {
            "type": "note_on",
            "note": 57,
            "velocity": 56,
            "time": 8553
        },
        {
            "type": "note_on",
            "note": 60,
            "velocity": 48,
            "time": 8555
        },
        {
            "type": "note_on",
            "note": 53,
            "velocity": 46,
            "time": 8578
        },
        {
            "type": "note_off",
            "note": 57,
            "velocity": 85,
            "time": 9525
        },
        {
            "type": "note_off",
            "note": 60,
            "velocity": 84,
            "time": 9532
        },
        {
            "type": "note_off",
            "note": 64,
            "velocity": 81,
            "time": 9535
        },
        {
            "type": "note_off",
            "note": 53,
            "velocity": 80,
            "time": 9559
        }
    ],
    "notes": [],
    "volumeBacktrack": 0.796875,
    "additional_latency": 0
}