{
    "bass": 57,
    "type": "minor",
    "backtrack": "/home/pi/raspiKeys/res/backtracks/processed_wav/latin/Play along drums Bossa nova 133 bpm  - - Bater\u00eda Para Tocar Bossa nova 133 bpm-EuFZ-3UjFOU [2021-01-17 164519].wav",
    "backtrackDuration": 7.218050003051758,
    "nbOfLoops": 6,
    "chord_notes": [
        {
            "type": "note_on",
            "note": 69,
            "velocity": 51,
            "time": 0
        },
        {
            "type": "note_on",
            "note": 60,
            "velocity": 51,
            "time": 1
        },
        {
            "type": "note_on",
            "note": 64,
            "velocity": 39,
            "time": 3
        },
        {
            "type": "note_on",
            "note": 57,
            "velocity": 35,
            "time": 25
        },
        {
            "type": "note_on",
            "note": 45,
            "velocity": 33,
            "time": 45
        },
        {
            "type": "note_on",
            "note": 57,
            "velocity": 29,
            "time": 3679
        },
        {
            "type": "note_on",
            "note": 69,
            "velocity": 46,
            "time": 3680
        },
        {
            "type": "note_on",
            "note": 45,
            "velocity": 33,
            "time": 3691
        },
        {
            "type": "note_on",
            "note": 64,
            "velocity": 27,
            "time": 3704
        },
        {
            "type": "note_on",
            "note": 52,
            "velocity": 29,
            "time": 4466
        },
        {
            "type": "note_on",
            "note": 57,
            "velocity": 35,
            "time": 5316
        },
        {
            "type": "note_on",
            "note": 69,
            "velocity": 38,
            "time": 6361
        },
        {
            "type": "note_on",
            "note": 60,
            "velocity": 36,
            "time": 6378
        },
        {
            "type": "note_on",
            "note": 59,
            "velocity": 37,
            "time": 7241
        },
        {
            "type": "note_on",
            "note": 40,
            "velocity": 41,
            "time": 7254
        },
        {
            "type": "note_on",
            "note": 67,
            "velocity": 37,
            "time": 7255
        },
        {
            "type": "note_on",
            "note": 52,
            "velocity": 35,
            "time": 7258
        },
        {
            "type": "note_on",
            "note": 64,
            "velocity": 35,
            "time": 7263
        },
        {
            "type": "note_on",
            "note": 62,
            "velocity": 36,
            "time": 7266
        },
        {
            "type": "note_on",
            "note": 47,
            "velocity": 36,
            "time": 9113
        },
        {
            "type": "note_on",
            "note": 63,
            "velocity": 37,
            "time": 9121
        },
        {
            "type": "note_on",
            "note": 66,
            "velocity": 38,
            "time": 9163
        },
        {
            "type": "note_on",
            "note": 57,
            "velocity": 9,
            "time": 9177
        },
        {
            "type": "note_on",
            "note": 40,
            "velocity": 33,
            "time": 10841
        },
        {
            "type": "note_on",
            "note": 67,
            "velocity": 28,
            "time": 10885
        },
        {
            "type": "note_on",
            "note": 52,
            "velocity": 37,
            "time": 10892
        },
        {
            "type": "note_on",
            "note": 62,
            "velocity": 31,
            "time": 10901
        },
        {
            "type": "note_on",
            "note": 59,
            "velocity": 30,
            "time": 10910
        },
        {
            "type": "note_on",
            "note": 64,
            "velocity": 20,
            "time": 10934
        },
        {
            "type": "note_on",
            "note": 61,
            "velocity": 37,
            "time": 11735
        },
        {
            "type": "note_on",
            "note": 57,
            "velocity": 32,
            "time": 11756
        },
        {
            "type": "note_on",
            "note": 64,
            "velocity": 31,
            "time": 11767
        },
        {
            "type": "note_on",
            "note": 67,
            "velocity": 35,
            "time": 11769
        },
        {
            "type": "note_on",
            "note": 52,
            "velocity": 29,
            "time": 11775
        },
        {
            "type": "note_on",
            "note": 45,
            "velocity": 27,
            "time": 11809
        },
        {
            "type": "note_on",
            "note": 38,
            "velocity": 50,
            "time": 12654
        },
        {
            "type": "note_on",
            "note": 65,
            "velocity": 36,
            "time": 12657
        },
        {
            "type": "note_on",
            "note": 57,
            "velocity": 33,
            "time": 12668
        },
        {
            "type": "note_on",
            "note": 60,
            "velocity": 34,
            "time": 12670
        },
        {
            "type": "note_on",
            "note": 50,
            "velocity": 24,
            "time": 12710
        },
        {
            "type": "note_on",
            "note": 62,
            "velocity": 31,
            "time": 12716
        },
        {
            "type": "note_on",
            "note": 65,
            "velocity": 40,
            "time": 13576
        },
        {
            "type": "note_on",
            "note": 50,
            "velocity": 37,
            "time": 13587
        },
        {
            "type": "note_on",
            "note": 56,
            "velocity": 35,
            "time": 13594
        },
        {
            "type": "note_on",
            "note": 43,
            "velocity": 33,
            "time": 13631
        },
        {
            "type": "note_on",
            "note": 59,
            "velocity": 33,
            "time": 13633
        },
        {
            "type": "note_on",
            "note": 62,
            "velocity": 37,
            "time": 13636
        },
        {
            "type": "note_on",
            "note": 64,
            "velocity": 51,
            "time": 14466
        },
        {
            "type": "note_on",
            "note": 36,
            "velocity": 39,
            "time": 14491
        },
        {
            "type": "note_on",
            "note": 59,
            "velocity": 36,
            "time": 14501
        },
        {
            "type": "note_on",
            "note": 60,
            "velocity": 34,
            "time": 14512
        },
        {
            "type": "note_on",
            "note": 48,
            "velocity": 25,
            "time": 14523
        },
        {
            "type": "note_on",
            "note": 55,
            "velocity": 1,
            "time": 15165
        },
        {
            "type": "note_on",
            "note": 53,
            "velocity": 40,
            "time": 18049
        },
        {
            "type": "note_on",
            "note": 62,
            "velocity": 43,
            "time": 18078
        },
        {
            "type": "note_on",
            "note": 57,
            "velocity": 32,
            "time": 18115
        },
        {
            "type": "note_on",
            "note": 47,
            "velocity": 42,
            "time": 18118
        },
        {
            "type": "note_on",
            "note": 40,
            "velocity": 56,
            "time": 19911
        },
        {
            "type": "note_on",
            "note": 56,
            "velocity": 37,
            "time": 19914
        },
        {
            "type": "note_on",
            "note": 52,
            "velocity": 36,
            "time": 19920
        },
        {
            "type": "note_on",
            "note": 62,
            "velocity": 79,
            "time": 19929
        },
        {
            "type": "note_on",
            "note": 45,
            "velocity": 47,
            "time": 21676
        },
        {
            "type": "note_on",
            "note": 55,
            "velocity": 33,
            "time": 21683
        },
        {
            "type": "note_on",
            "note": 60,
            "velocity": 36,
            "time": 21699
        },
        {
            "type": "note_on",
            "note": 57,
            "velocity": 22,
            "time": 21736
        },
        {
            "type": "note_on",
            "note": 54,
            "velocity": 42,
            "time": 23444
        },
        {
            "type": "note_on",
            "note": 38,
            "velocity": 40,
            "time": 23466
        },
        {
            "type": "note_on",
            "note": 57,
            "velocity": 22,
            "time": 23473
        },
        {
            "type": "note_on",
            "note": 60,
            "velocity": 31,
            "time": 23493
        },
        {
            "type": "note_on",
            "note": 64,
            "velocity": 33,
            "time": 23548
        },
        {
            "type": "note_on",
            "note": 53,
            "velocity": 35,
            "time": 25248
        },
        {
            "type": "note_on",
            "note": 58,
            "velocity": 38,
            "time": 25253
        },
        {
            "type": "note_on",
            "note": 55,
            "velocity": 33,
            "time": 25264
        },
        {
            "type": "note_on",
            "note": 43,
            "velocity": 43,
            "time": 25268
        },
        {
            "type": "note_on",
            "note": 50,
            "velocity": 29,
            "time": 25281
        },
        {
            "type": "note_on",
            "note": 58,
            "velocity": 40,
            "time": 27130
        },
        {
            "type": "note_on",
            "note": 36,
            "velocity": 51,
            "time": 27137
        },
        {
            "type": "note_on",
            "note": 52,
            "velocity": 35,
            "time": 27143
        },
        {
            "type": "note_on",
            "note": 56,
            "velocity": 43,
            "time": 28882
        },
        {
            "type": "note_on",
            "note": 60,
            "velocity": 53,
            "time": 28889
        },
        {
            "type": "note_on",
            "note": 41,
            "velocity": 51,
            "time": 28923
        },
        {
            "type": "note_on",
            "note": 48,
            "velocity": 39,
            "time": 28927
        },
        {
            "type": "note_off",
            "note": 56,
            "velocity": 83,
            "time": 28968
        },
        {
            "type": "note_on",
            "note": 57,
            "velocity": 31,
            "time": 28995
        },
        {
            "type": "note_on",
            "note": 40,
            "velocity": 37,
            "time": 30713
        },
        {
            "type": "note_on",
            "note": 56,
            "velocity": 35,
            "time": 30720
        },
        {
            "type": "note_on",
            "note": 59,
            "velocity": 43,
            "time": 30734
        },
        {
            "type": "note_on",
            "note": 64,
            "velocity": 38,
            "time": 30735
        },
        {
            "type": "note_on",
            "note": 50,
            "velocity": 39,
            "time": 30750
        },
        {
            "type": "note_on",
            "note": 55,
            "velocity": 31,
            "time": 32474
        },
        {
            "type": "note_on",
            "note": 57,
            "velocity": 35,
            "time": 32494
        },
        {
            "type": "note_on",
            "note": 60,
            "velocity": 38,
            "time": 32498
        },
        {
            "type": "note_on",
            "note": 45,
            "velocity": 32,
            "time": 32523
        },
        {
            "type": "note_on",
            "note": 50,
            "velocity": 36,
            "time": 34334
        },
        {
            "type": "note_on",
            "note": 60,
            "velocity": 36,
            "time": 34340
        },
        {
            "type": "note_on",
            "note": 38,
            "velocity": 36,
            "time": 34344
        },
        {
            "type": "note_on",
            "note": 57,
            "velocity": 31,
            "time": 34367
        },
        {
            "type": "note_on",
            "note": 54,
            "velocity": 38,
            "time": 34373
        },
        {
            "type": "note_on",
            "note": 55,
            "velocity": 35,
            "time": 36164
        },
        {
            "type": "note_on",
            "note": 45,
            "velocity": 35,
            "time": 36178
        },
        {
            "type": "note_on",
            "note": 57,
            "velocity": 31,
            "time": 36193
        },
        {
            "type": "note_on",
            "note": 64,
            "velocity": 39,
            "time": 36199
        },
        {
            "type": "note_on",
            "note": 60,
            "velocity": 35,
            "time": 36207
        },
        {
            "type": "note_on",
            "note": 35,
            "velocity": 43,
            "time": 37964
        },
        {
            "type": "note_on",
            "note": 53,
            "velocity": 36,
            "time": 37978
        },
        {
            "type": "note_on",
            "note": 62,
            "velocity": 39,
            "time": 37991
        },
        {
            "type": "note_on",
            "note": 59,
            "velocity": 36,
            "time": 38018
        },
        {
            "type": "note_on",
            "note": 57,
            "velocity": 7,
            "time": 38035
        },
        {
            "type": "note_off",
            "note": 35,
            "velocity": 83,
            "time": 38178
        },
        {
            "type": "note_on",
            "note": 56,
            "velocity": 34,
            "time": 38780
        },
        {
            "type": "note_on",
            "note": 40,
            "velocity": 55,
            "time": 38787
        },
        {
            "type": "note_on",
            "note": 53,
            "velocity": 36,
            "time": 38817
        },
        {
            "type": "note_on",
            "note": 62,
            "velocity": 46,
            "time": 38822
        },
        {
            "type": "note_on",
            "note": 55,
            "velocity": 39,
            "time": 39698
        },
        {
            "type": "note_on",
            "note": 60,
            "velocity": 54,
            "time": 39707
        },
        {
            "type": "note_on",
            "note": 57,
            "velocity": 36,
            "time": 39710
        },
        {
            "type": "note_on",
            "note": 33,
            "velocity": 45,
            "time": 39728
        },
        {
            "type": "note_on",
            "note": 33,
            "velocity": 50,
            "time": 41598
        },
        {
            "type": "note_on",
            "note": 55,
            "velocity": 18,
            "time": 41634
        },
        {
            "type": "note_on",
            "note": 57,
            "velocity": 36,
            "time": 41659
        },
        {
            "type": "note_on",
            "note": 60,
            "velocity": 33,
            "time": 41662
        },
        {
            "type": "note_off",
            "note": 57,
            "velocity": 74,
            "time": 43201
        },
        {
            "type": "note_off",
            "note": 55,
            "velocity": 77,
            "time": 43203
        },
        {
            "type": "note_off",
            "note": 55,
            "velocity": 77,
            "time": 43204
        },
        {
            "type": "note_off",
            "note": 60,
            "velocity": 84,
            "time": 43228
        },
        {
            "type": "note_off",
            "note": 33,
            "velocity": 85,
            "time": 43241
        }
    ],
    "notes": [],
    "volumeBacktrack": 1.0,
    "additional_latency": 0
}