{
    "bass": 45,
    "type": "minor",
    "chord_notes": [
        {
            "type": "note_on",
            "note": 45,
            "velocity": 78,
            "time": 0
        },
        {
            "type": "note_off",
            "note": 45,
            "velocity": 83,
            "time": 487
        },
        {
            "type": "note_on",
            "note": 48,
            "velocity": 70,
            "time": 557
        },
        {
            "type": "note_off",
            "note": 48,
            "velocity": 85,
            "time": 1016
        },
        {
            "type": "note_on",
            "note": 51,
            "velocity": 70,
            "time": 1043
        },
        {
            "type": "note_off",
            "note": 51,
            "velocity": 78,
            "time": 1531
        },
        {
            "type": "note_on",
            "note": 49,
            "velocity": 75,
            "time": 1595
        },
        {
            "type": "note_off",
            "note": 49,
            "velocity": 91,
            "time": 2053
        },
        {
            "type": "note_on",
            "note": 50,
            "velocity": 64,
            "time": 2104
        },
        {
            "type": "note_off",
            "note": 50,
            "velocity": 50,
            "time": 2572
        },
        {
            "type": "note_on",
            "note": 38,
            "velocity": 76,
            "time": 2593
        },
        {
            "type": "note_off",
            "note": 38,
            "velocity": 65,
            "time": 3069
        },
        {
            "type": "note_on",
            "note": 50,
            "velocity": 62,
            "time": 3090
        },
        {
            "type": "note_off",
            "note": 50,
            "velocity": 73,
            "time": 3593
        },
        {
            "type": "note_on",
            "note": 44,
            "velocity": 75,
            "time": 3613
        },
        {
            "type": "note_off",
            "note": 44,
            "velocity": 93,
            "time": 4042
        },
        {
            "type": "note_on",
            "note": 43,
            "velocity": 72,
            "time": 4114
        },
        {
            "type": "note_off",
            "note": 43,
            "velocity": 77,
            "time": 4600
        },
        {
            "type": "note_on",
            "note": 46,
            "velocity": 70,
            "time": 4652
        },
        {
            "type": "note_off",
            "note": 46,
            "velocity": 61,
            "time": 5124
        },
        {
            "type": "note_on",
            "note": 50,
            "velocity": 64,
            "time": 5169
        },
        {
            "type": "note_on",
            "note": 55,
            "velocity": 69,
            "time": 5691
        },
        {
            "type": "note_on",
            "note": 55,
            "velocity": 69,
            "time": 5691
        },
        {
            "type": "note_off",
            "note": 50,
            "velocity": 60,
            "time": 5692
        },
        {
            "type": "note_on",
            "note": 50,
            "velocity": 67,
            "time": 6193
        },
        {
            "type": "note_off",
            "note": 55,
            "velocity": 46,
            "time": 6238
        },
        {
            "type": "note_off",
            "note": 55,
            "velocity": 46,
            "time": 6239
        },
        {
            "type": "note_on",
            "note": 46,
            "velocity": 51,
            "time": 6710
        },
        {
            "type": "note_off",
            "note": 50,
            "velocity": 42,
            "time": 6742
        },
        {
            "type": "note_on",
            "note": 42,
            "velocity": 66,
            "time": 7226
        },
        {
            "type": "note_off",
            "note": 46,
            "velocity": 90,
            "time": 7305
        },
        {
            "type": "note_on",
            "note": 43,
            "velocity": 72,
            "time": 7817
        },
        {
            "type": "note_off",
            "note": 42,
            "velocity": 90,
            "time": 7818
        },
        {
            "type": "note_off",
            "note": 43,
            "velocity": 63,
            "time": 8295
        }
    ],
    "notes": [
        {
            "type": "note_on",
            "note": 67,
            "velocity": 70,
            "time": 1078
        },
        {
            "type": "note_on",
            "note": 63,
            "velocity": 64,
            "time": 1086
        },
        {
            "type": "note_on",
            "note": 60,
            "velocity": 66,
            "time": 1094
        },
        {
            "type": "note_on",
            "note": 57,
            "velocity": 65,
            "time": 1103
        },
        {
            "type": "note_on",
            "note": 57,
            "velocity": 65,
            "time": 1104
        },
        {
            "type": "note_off",
            "note": 57,
            "velocity": 100,
            "time": 1168
        },
        {
            "type": "note_off",
            "note": 57,
            "velocity": 100,
            "time": 1169
        },
        {
            "type": "note_off",
            "note": 63,
            "velocity": 70,
            "time": 1190
        },
        {
            "type": "note_off",
            "note": 67,
            "velocity": 92,
            "time": 1196
        },
        {
            "type": "note_off",
            "note": 60,
            "velocity": 83,
            "time": 1216
        },
        {
            "type": "note_on",
            "note": 66,
            "velocity": 73,
            "time": 1903
        },
        {
            "type": "note_on",
            "note": 57,
            "velocity": 71,
            "time": 1925
        },
        {
            "type": "note_on",
            "note": 57,
            "velocity": 71,
            "time": 1926
        },
        {
            "type": "note_on",
            "note": 62,
            "velocity": 75,
            "time": 1927
        },
        {
            "type": "note_on",
            "note": 60,
            "velocity": 64,
            "time": 1942
        },
        {
            "type": "note_off",
            "note": 57,
            "velocity": 76,
            "time": 3443
        },
        {
            "type": "note_off",
            "note": 57,
            "velocity": 76,
            "time": 3444
        },
        {
            "type": "note_off",
            "note": 62,
            "velocity": 80,
            "time": 3455
        },
        {
            "type": "note_off",
            "note": 60,
            "velocity": 76,
            "time": 3466
        },
        {
            "type": "note_off",
            "note": 66,
            "velocity": 81,
            "time": 3472
        },
        {
            "type": "note_on",
            "note": 65,
            "velocity": 76,
            "time": 4458
        },
        {
            "type": "note_on",
            "note": 55,
            "velocity": 63,
            "time": 4483
        },
        {
            "type": "note_on",
            "note": 55,
            "velocity": 63,
            "time": 4485
        },
        {
            "type": "note_on",
            "note": 58,
            "velocity": 49,
            "time": 4499
        },
        {
            "type": "note_on",
            "note": 58,
            "velocity": 49,
            "time": 4500
        },
        {
            "type": "note_off",
            "note": 55,
            "velocity": 77,
            "time": 4560
        },
        {
            "type": "note_off",
            "note": 55,
            "velocity": 77,
            "time": 4561
        },
        {
            "type": "note_off",
            "note": 58,
            "velocity": 109,
            "time": 4568
        },
        {
            "type": "note_off",
            "note": 58,
            "velocity": 109,
            "time": 4569
        },
        {
            "type": "note_off",
            "note": 65,
            "velocity": 86,
            "time": 4604
        },
        {
            "type": "note_on",
            "note": 65,
            "velocity": 75,
            "time": 5195
        },
        {
            "type": "note_on",
            "note": 55,
            "velocity": 79,
            "time": 5202
        },
        {
            "type": "note_on",
            "note": 55,
            "velocity": 79,
            "time": 5203
        },
        {
            "type": "note_on",
            "note": 58,
            "velocity": 57,
            "time": 5219
        },
        {
            "type": "note_on",
            "note": 58,
            "velocity": 57,
            "time": 5220
        },
        {
            "type": "note_off",
            "note": 55,
            "velocity": 74,
            "time": 5628
        },
        {
            "type": "note_off",
            "note": 55,
            "velocity": 74,
            "time": 5629
        },
        {
            "type": "note_off",
            "note": 65,
            "velocity": 49,
            "time": 5643
        },
        {
            "type": "note_off",
            "note": 58,
            "velocity": 33,
            "time": 5694
        },
        {
            "type": "note_off",
            "note": 58,
            "velocity": 33,
            "time": 5695
        },
        {
            "type": "note_on",
            "note": 65,
            "velocity": 81,
            "time": 6033
        },
        {
            "type": "note_on",
            "note": 55,
            "velocity": 78,
            "time": 6043
        },
        {
            "type": "note_on",
            "note": 55,
            "velocity": 78,
            "time": 6045
        },
        {
            "type": "note_off",
            "note": 55,
            "velocity": 93,
            "time": 6106
        },
        {
            "type": "note_off",
            "note": 55,
            "velocity": 93,
            "time": 6108
        },
        {
            "type": "note_off",
            "note": 65,
            "velocity": 56,
            "time": 6136
        },
        {
            "type": "note_on",
            "note": 70,
            "velocity": 90,
            "time": 6216
        },
        {
            "type": "note_off",
            "note": 70,
            "velocity": 79,
            "time": 6417
        },
        {
            "type": "note_on",
            "note": 72,
            "velocity": 36,
            "time": 6539
        },
        {
            "type": "note_on",
            "note": 74,
            "velocity": 49,
            "time": 6550
        },
        {
            "type": "note_off",
            "note": 74,
            "velocity": 66,
            "time": 6665
        },
        {
            "type": "note_off",
            "note": 72,
            "velocity": 68,
            "time": 6686
        },
        {
            "type": "note_on",
            "note": 74,
            "velocity": 97,
            "time": 6746
        },
        {
            "type": "note_off",
            "note": 74,
            "velocity": 89,
            "time": 6888
        },
        {
            "type": "note_on",
            "note": 77,
            "velocity": 95,
            "time": 7075
        },
        {
            "type": "note_on",
            "note": 72,
            "velocity": 77,
            "time": 7261
        },
        {
            "type": "note_off",
            "note": 77,
            "velocity": 94,
            "time": 7266
        },
        {
            "type": "note_off",
            "note": 72,
            "velocity": 85,
            "time": 7438
        },
        {
            "type": "note_on",
            "note": 70,
            "velocity": 39,
            "time": 7582
        },
        {
            "type": "note_off",
            "note": 70,
            "velocity": 79,
            "time": 7679
        },
        {
            "type": "note_on",
            "note": 74,
            "velocity": 76,
            "time": 7763
        },
        {
            "type": "note_off",
            "note": 74,
            "velocity": 90,
            "time": 7980
        },
        {
            "type": "note_on",
            "note": 67,
            "velocity": 94,
            "time": 8063
        },
        {
            "type": "note_off",
            "note": 67,
            "velocity": 89,
            "time": 8395
        }
    ],
    "duration": 11225
}