{
    "bass": 67,
    "type": "minor",
    "chord_notes": [
        {
            "type": "note_on",
            "note": 63,
            "velocity": 76,
            "time": 0
        },
        {
            "type": "note_off",
            "note": 63,
            "velocity": 87,
            "time": 549
        },
        {
            "type": "note_on",
            "note": 67,
            "velocity": 72,
            "time": 553
        },
        {
            "type": "note_off",
            "note": 67,
            "velocity": 78,
            "time": 1115
        },
        {
            "type": "note_on",
            "note": 70,
            "velocity": 63,
            "time": 1156
        },
        {
            "type": "note_off",
            "note": 70,
            "velocity": 79,
            "time": 1733
        },
        {
            "type": "note_on",
            "note": 74,
            "velocity": 56,
            "time": 1742
        },
        {
            "type": "note_off",
            "note": 74,
            "velocity": 65,
            "time": 2330
        },
        {
            "type": "note_on",
            "note": 69,
            "velocity": 71,
            "time": 2333
        },
        {
            "type": "note_on",
            "note": 65,
            "velocity": 64,
            "time": 2913
        },
        {
            "type": "note_off",
            "note": 69,
            "velocity": 74,
            "time": 2945
        },
        {
            "type": "note_off",
            "note": 65,
            "velocity": 97,
            "time": 3292
        },
        {
            "type": "note_on",
            "note": 62,
            "velocity": 45,
            "time": 3531
        },
        {
            "type": "note_off",
            "note": 62,
            "velocity": 87,
            "time": 4065
        },
        {
            "type": "note_on",
            "note": 60,
            "velocity": 57,
            "time": 4109
        },
        {
            "type": "note_off",
            "note": 60,
            "velocity": 84,
            "time": 4657
        },
        {
            "type": "note_on",
            "note": 58,
            "velocity": 72,
            "time": 4711
        },
        {
            "type": "note_off",
            "note": 58,
            "velocity": 99,
            "time": 5295
        },
        {
            "type": "note_on",
            "note": 67,
            "velocity": 68,
            "time": 5302
        },
        {
            "type": "note_off",
            "note": 67,
            "velocity": 65,
            "time": 5791
        },
        {
            "type": "note_on",
            "note": 65,
            "velocity": 52,
            "time": 5901
        },
        {
            "type": "note_on",
            "note": 58,
            "velocity": 67,
            "time": 6470
        },
        {
            "type": "note_off",
            "note": 65,
            "velocity": 76,
            "time": 6490
        },
        {
            "type": "note_off",
            "note": 58,
            "velocity": 98,
            "time": 6962
        },
        {
            "type": "note_on",
            "note": 57,
            "velocity": 64,
            "time": 7024
        },
        {
            "type": "note_off",
            "note": 57,
            "velocity": 55,
            "time": 7561
        },
        {
            "type": "note_on",
            "note": 58,
            "velocity": 75,
            "time": 7595
        },
        {
            "type": "note_on",
            "note": 62,
            "velocity": 71,
            "time": 8169
        },
        {
            "type": "note_off",
            "note": 58,
            "velocity": 16,
            "time": 8339
        },
        {
            "type": "note_off",
            "note": 62,
            "velocity": 77,
            "time": 8657
        },
        {
            "type": "note_on",
            "note": 65,
            "velocity": 50,
            "time": 8716
        },
        {
            "type": "note_off",
            "note": 65,
            "velocity": 97,
            "time": 9298
        }
    ],
    "notes": [
        {
            "type": "note_on",
            "note": 73,
            "velocity": 74,
            "time": 917
        },
        {
            "type": "note_on",
            "note": 74,
            "velocity": 68,
            "time": 1065
        },
        {
            "type": "note_off",
            "note": 73,
            "velocity": 97,
            "time": 1084
        },
        {
            "type": "note_on",
            "note": 72,
            "velocity": 69,
            "time": 1530
        },
        {
            "type": "note_off",
            "note": 74,
            "velocity": 60,
            "time": 1588
        },
        {
            "type": "note_off",
            "note": 72,
            "velocity": 86,
            "time": 1765
        },
        {
            "type": "note_on",
            "note": 79,
            "velocity": 51,
            "time": 1774
        },
        {
            "type": "note_off",
            "note": 79,
            "velocity": 74,
            "time": 2094
        },
        {
            "type": "note_on",
            "note": 77,
            "velocity": 76,
            "time": 2133
        },
        {
            "type": "note_off",
            "note": 77,
            "velocity": 95,
            "time": 2839
        },
        {
            "type": "note_on",
            "note": 70,
            "velocity": 68,
            "time": 3284
        },
        {
            "type": "note_off",
            "note": 70,
            "velocity": 90,
            "time": 3417
        },
        {
            "type": "note_on",
            "note": 70,
            "velocity": 70,
            "time": 3500
        },
        {
            "type": "note_off",
            "note": 70,
            "velocity": 88,
            "time": 3660
        },
        {
            "type": "note_on",
            "note": 70,
            "velocity": 74,
            "time": 3862
        },
        {
            "type": "note_on",
            "note": 72,
            "velocity": 64,
            "time": 4071
        },
        {
            "type": "note_off",
            "note": 70,
            "velocity": 71,
            "time": 4088
        },
        {
            "type": "note_off",
            "note": 72,
            "velocity": 84,
            "time": 4371
        },
        {
            "type": "note_on",
            "note": 74,
            "velocity": 60,
            "time": 4435
        },
        {
            "type": "note_on",
            "note": 67,
            "velocity": 62,
            "time": 4713
        },
        {
            "type": "note_off",
            "note": 74,
            "velocity": 72,
            "time": 4727
        },
        {
            "type": "note_off",
            "note": 67,
            "velocity": 77,
            "time": 5922
        },
        {
            "type": "note_on",
            "note": 65,
            "velocity": 57,
            "time": 6270
        },
        {
            "type": "note_on",
            "note": 67,
            "velocity": 74,
            "time": 6467
        },
        {
            "type": "note_off",
            "note": 65,
            "velocity": 76,
            "time": 6504
        },
        {
            "type": "note_off",
            "note": 67,
            "velocity": 59,
            "time": 6860
        },
        {
            "type": "note_on",
            "note": 70,
            "velocity": 78,
            "time": 6875
        },
        {
            "type": "note_off",
            "note": 70,
            "velocity": 85,
            "time": 8474
        }
    ],
    "duration": 10774
}